<svg id="Architectural_Design" data-name="Architectural Design" xmlns="http://www.w3.org/2000/svg" width="30.338" height="30.338" viewBox="0 0 30.338 30.338">
  <g id="Group_3712" data-name="Group 3712">
    <path id="Path_7523" data-name="Path 7523" d="M184.445,64.564h13.3a.445.445,0,0,0,.445-.445V53.67a.445.445,0,0,0-.17-.35L191.37,48.1a.445.445,0,0,0-.55,0L184.17,53.32a.445.445,0,0,0-.17.35V64.119A.445.445,0,0,0,184.445,64.564Zm4.72-.891V56.965h3.859v6.709Zm-4.275-9.787,6.2-4.875,6.2,4.875v9.787h-3.384V56.52a.445.445,0,0,0-.445-.445h-4.75a.445.445,0,0,0-.445.445v7.154h-3.384Z" transform="translate(-173.076 -45.15)" fill="#898989"/>
    <path id="Path_7525" data-name="Path 7525" d="M29.893,22.8H21.451a.445.445,0,1,0,0,.891h8v5.759H27.013V27.993a.445.445,0,0,0-.891,0v1.455H23.214v-1.93a.445.445,0,0,0-.891,0v1.93H19.414V27.993a.445.445,0,0,0-.891,0v1.455H15.614v-1.93a.445.445,0,0,0-.891,0v1.93H11.815V27.993a.445.445,0,0,0-.891,0v1.455H8.015v-1.93a.445.445,0,0,0-.891,0v1.93H4.215V27.993a.445.445,0,0,0-.891,0v1.455H.891V27.012H2.345a.445.445,0,0,0,0-.891H.891V23.212H3.3a.445.445,0,1,0,0-.891H.891V19.412H2.345a.445.445,0,0,0,0-.891H.891V15.613H3.3a.445.445,0,1,0,0-.891H.891V11.813H2.345a.445.445,0,1,0,0-.891H.891V8.013H3.3a.445.445,0,0,0,0-.891H.891V4.214H2.345a.445.445,0,1,0,0-.891H.891V.891H6.649V23.243a.445.445,0,0,0,.445.445H22.5a.445.445,0,1,0,0-.891H7.54V.445A.445.445,0,0,0,7.095,0H.445A.445.445,0,0,0,0,.445V29.893a.445.445,0,0,0,.445.445H29.893a.445.445,0,0,0,.445-.445V23.243a.445.445,0,0,0-.445-.445Z" transform="translate(0 0)" fill="#898989"/>
  </g>
</svg>
