<svg xmlns="http://www.w3.org/2000/svg" width="30.006" height="44.871" viewBox="0 0 30.006 44.871">
  <path id="Architect_project" data-name="Architect project" d="M5825.463,9802.87a1.5,1.5,0,0,1-1.122-.342,1.453,1.453,0,0,1-.325-1.09c0-.509,0-1.028-.007-1.53a32.75,32.75,0,0,1,.1-3.668,9.279,9.279,0,0,1,1.355-3.953,9.836,9.836,0,0,1,4.655-3.946c.46-.194.925-.4,1.373-.6s.918-.4,1.378-.6c.17-.071.221-.145.249-.361a1.861,1.861,0,0,0-1.041-2.076,9.144,9.144,0,0,1-4.323-7.059,15.2,15.2,0,0,1-.066-1.825v-.5a.672.672,0,0,0-.17-.484,2.476,2.476,0,0,1-.625-1.614v-.074c0-.123,0-.189-.081-.243a1.21,1.21,0,0,1-.44-1.09c0-.44,0-.891,0-1.326,0-.366,0-.743,0-1.117a1.639,1.639,0,0,1,1.294-1.727c.169-.05.214-.111.221-.3a9.768,9.768,0,0,1,1.1-4.3,9.492,9.492,0,0,1,17.76,2.967c.04.243.054.489.069.726.012.2.025.418.052.623.024.179.052.233.207.28a1.638,1.638,0,0,1,1.312,1.754c0,.423,0,.854,0,1.267s0,.845,0,1.265a1.078,1.078,0,0,1-.391.936.37.37,0,0,0-.13.342,2.413,2.413,0,0,1-.642,1.65.675.675,0,0,0-.146.529,11.985,11.985,0,0,1-.6,4.588,9.59,9.59,0,0,1-4.468,5.184.555.555,0,0,0-.362.61,3.326,3.326,0,0,1-.01.5,1.288,1.288,0,0,0,.074.735,1.383,1.383,0,0,0,.7.384c.133.047.269.094.392.15.325.147.662.29.986.428a19.6,19.6,0,0,1,2.374,1.142.778.778,0,0,0,.01-.238c0-.035,0-.071,0-.108v-.881c0-1.729,0-3.516,0-5.274a2.289,2.289,0,0,1,1.324-2.283.541.541,0,0,0,.234-.3c.007-.02.015-.034.022-.052a3.307,3.307,0,0,1,2.957-1.919,2.777,2.777,0,0,1,.325.018,3.322,3.322,0,0,1,2.916,2.649,4.446,4.446,0,0,1,.047.81v.125c0,6.707,0,13.524,0,20.117,0,.879-.224,1.1-1.092,1.1Zm22.218-18c0,.4,0,.8.01,1.2.015.925.027,1.882-.032,2.819a3.06,3.06,0,0,0,.9,2.394,8.834,8.834,0,0,1,2.124,5.117c.071.772.069,1.558.064,2.315,0,.4,0,.816.007,1.223a4.64,4.64,0,0,1-.035.509c-.04.34-.079.691.083.852a.567.567,0,0,0,.418.123c.125,0,.258-.015.4-.029h.007a4.122,4.122,0,0,1,.423-.03,1.518,1.518,0,0,1,.155.008.828.828,0,0,0,.106,0c.121,0,.163-.027.182-.047a.429.429,0,0,0,.064-.3c-.007-3.9-.007-7.865-.007-11.7q0-2.509,0-5.014c0-.037,0-.069.007-.1a.38.38,0,0,0,0-.128,5.173,5.173,0,0,1-2.551.563c-.413,0-.839-.024-1.25-.05-.352-.02-.713-.044-1.072-.049Zm1.294,16.5h.007a.321.321,0,0,0,.216-.05c.04-.039.047-.13.044-.253,0-.539,0-1.088,0-1.616,0-.7,0-1.423-.01-2.134a8.144,8.144,0,0,0-3.226-6.507.472.472,0,0,0-.224-.118c-.054,0-.113.064-.2.212-.665,1.171-1.353,2.356-2.018,3.5q-.339.583-.679,1.169c-.175.3-.4.612-.76.612a1.237,1.237,0,0,1-.649-.236c-.342-.209-.684-.421-1.051-.646l-.359-.225c.074.5.147.982.221,1.467.241,1.584.47,3.077.694,4.6.029.189.1.219.317.219,1.631,0,2.878-.008,4.044-.008C5846.81,9801.359,5847.93,9801.362,5848.975,9801.37Zm-15.566,0c.3,0,.367-.062.389-.33a9.63,9.63,0,0,1,.135-.977c.024-.147.051-.3.074-.45.2-1.326.42-2.731.7-4.542l-.079.05c-.381.229-.775.467-1.156.7a1.822,1.822,0,0,1-.856.356c-.327,0-.534-.256-.827-.76q-.55-.952-1.1-1.9c-.514-.883-1.043-1.8-1.562-2.693l-.007-.013c-.044-.079-.088-.16-.125-.16a.257.257,0,0,0-.128.066,8.051,8.051,0,0,0-3.321,6.15c-.049.874-.039,1.765-.032,2.628.007.524.012,1.065,0,1.6a.33.33,0,0,0,.044.222.422.422,0,0,0,.256.047c1.126,0,2.3-.008,3.584-.008C5830.812,9801.359,5832.123,9801.362,5833.409,9801.37Zm5.934,0h.022c.108,0,.128-.013.13-.016s.02-.024,0-.152c-.16-1.011-.315-2.037-.465-3.031s-.307-2.02-.467-3.03c-.017-.116-.024-.236-.032-.352a1.224,1.224,0,0,0-.182-.727,2.321,2.321,0,0,0-.945-.595.214.214,0,0,0-.069-.013.641.641,0,0,0-.332.185,1.394,1.394,0,0,1-.185.143c-.049.029-.1.055-.146.079-.169.086-.3.154-.334.371-.33,2.236-.689,4.581-1.07,6.965-.02.133,0,.155,0,.155s.02.018.131.018h.017c.253,0,.531-.006.873-.006l1.09,0,1.122,0C5838.839,9801.359,5839.1,9801.362,5839.343,9801.365Zm2.175-12.629c-.893,1.088-1.825,2.207-2.846,3.417-.064.079-.123.155-.116.2,0,.02.027.063.15.138.662.391,1.329.8,1.971,1.205q.48.3.959.6c.057.034.113.066.182.1l0-.006a.456.456,0,0,0,.086-.105l.731-1.265c.568-.981,1.154-2,1.734-2.991.057-.094.054-.128.052-.138s-.018-.032-.116-.074c-.878-.376-1.764-.765-2.588-1.129a.269.269,0,0,0-.1-.032C5841.609,9788.655,5841.582,9788.655,5841.518,9788.736Zm-8.375-.093-.007,0a.311.311,0,0,0-.071.022l-.846.371c-.6.264-1.213.534-1.823.795-.064.027-.086.052-.088.059s.034.081.054.113a.632.632,0,0,1,.037.062c.3.517.6,1.033.9,1.548.5.863,1.016,1.754,1.521,2.632.079.138.113.138.13.138a.34.34,0,0,0,.155-.068c1.19-.753,2.106-1.321,2.964-1.835.116-.072.138-.111.143-.131.007-.044-.079-.146-.105-.177-.891-1.061-1.789-2.148-2.657-3.2l-.209-.256c-.007-.007-.015-.018-.025-.029-.032-.042-.039-.047-.062-.047Zm1.464-2.687a.243.243,0,0,0-.01.105c.007.217,0,.436,0,.645v.536c0,.214,0,.436,0,.654a.447.447,0,0,0,.116.327c.829.972,1.708,2,2.559,3.028.079.1.108.1.108.1s.032-.007.118-.11c.763-.918,1.548-1.846,2.308-2.741l.244-.29a.4.4,0,0,0,.113-.285c0-.6-.01-1.223,0-1.833a.339.339,0,0,0-.012-.123h-.015a.5.5,0,0,0-.123.024,10.032,10.032,0,0,1-2.655.369,9.127,9.127,0,0,1-2.63-.386.374.374,0,0,0-.1-.021A.062.062,0,0,0,5834.607,9785.957Zm-5.393-10.1a.96.96,0,0,0-.035.536,2.6,2.6,0,0,1,.022.306,7.512,7.512,0,0,0,.064,1.114,8.01,8.01,0,0,0,2.8,5.085,8.3,8.3,0,0,0,5.346,1.985h0a7.894,7.894,0,0,0,2.677-.47,8.268,8.268,0,0,0,5.486-8v-.044c-.007-.275-.012-.44-.066-.494s-.224-.06-.5-.064a3.571,3.571,0,0,1-.4-.022c-1.6-.169-3.2-.28-4.775-.327-.869-.024-1.725-.036-2.544-.036a64.429,64.429,0,0,0-7.285.384,1.536,1.536,0,0,1-.349-.018,1.764,1.764,0,0,0-.222-.018C5829.286,9775.773,5829.242,9775.813,5829.215,9775.853Zm20.644,7.268h.024a.168.168,0,0,0,.1-.024c.02-.018.027-.06.024-.121-.007-.364,0-.73,0-1.085v-.18a.161.161,0,0,0-.024-.113.142.142,0,0,0-.094-.024h-.007c-.187,0-.367,0-.548,0l-.354,0c-.251,0-.438.008-.615.02a.737.737,0,0,0-.676.79.746.746,0,0,0,.735.738c.079,0,.163,0,.266,0l.423,0,.455,0C5849.679,9783.115,5849.772,9783.115,5849.858,9783.12Zm.283-3.036c.155,0,.286,0,.409,0,.657.02.905.268.91.92v.175c0,.514.01,1.048,0,1.571,0,.15.02.183.022.188h.007a.4.4,0,0,0,.17-.064,1.783,1.783,0,0,0,.883-1.643,1.831,1.831,0,0,0-1.265-1.624,1.78,1.78,0,0,0-.519-.079,1.756,1.756,0,0,0-1.272.557c.164,0,.32,0,.471,0Zm-21.733-6.928c-.042.052-.02.175,0,.28a1.135,1.135,0,0,0,1.122.868c.024,0,.047,0,.071,0,.645-.037,1.3-.084,1.934-.133.864-.064,1.754-.131,2.635-.167,1.169-.052,2.318-.077,3.408-.077,1.624,0,3.21.057,4.711.17l.7.055c.724.057,1.471.115,2.207.152a1.132,1.132,0,0,0,1.122-.8c.022-.071.094-.288.054-.342s-.266-.057-.339-.057h-11.127c-1.085,0-2.17,0-3.255,0-1.2,0-2.118,0-2.987-.015h-.017C5828.523,9773.095,5828.44,9773.117,5828.408,9773.156Zm-.46-3.988a.435.435,0,0,0-.074.325,16.572,16.572,0,0,1,0,1.668c-.012.2,0,.3.059.361s.169.086.374.086c3.781-.012,7.518-.015,10.675-.015l7.476,0c.052,0,.106,0,.158,0a.542.542,0,0,1,.118.008l.044,0a.112.112,0,0,0,.082-.021c.015-.016.032-.055.032-.158l0-.093c-.01-.6-.02-1.221,0-1.831a.333.333,0,0,0-.411-.418h-.032c-.391.01-.807.013-1.306.013l-1.164,0-.411,0c-.573,0-.917-.28-.925-.743s.344-.755.91-.763,1.137,0,1.661,0h.012c.079,0,.128-.008.145-.027a.2.2,0,0,0,.022-.133,7.97,7.97,0,0,0-2.876-6.066.351.351,0,0,0-.108-.074,1.029,1.029,0,0,0-.037.15c-.256,1.388-.485,2.617-.7,3.764-.1.556-.423.829-.9.753a.669.669,0,0,1-.456-.278.979.979,0,0,1-.115-.753q.177-.926.354-1.85c.153-.81.313-1.644.47-2.463a.245.245,0,0,0-.167-.329,8,8,0,0,0-6.945,0c-.169.076-.211.149-.177.322.088.431.169.87.25,1.3q.063.333.125.67l.064.329c.136.689.273,1.4.4,2.1a.865.865,0,0,1-.123.662.69.69,0,0,1-.455.29.824.824,0,0,1-.153.013.758.758,0,0,1-.743-.667c-.025-.105-.044-.214-.062-.32-.013-.078-.025-.157-.042-.235l-.185-.989c-.15-.8-.305-1.621-.465-2.476a8.049,8.049,0,0,0-2.982,6.144.222.222,0,0,0,.022.138c.02.02.066.027.145.027h.01c.578-.008,1.168-.008,1.747,0a.757.757,0,0,1,.738.418.714.714,0,0,1-.059.758.871.871,0,0,1-.772.33h-.974c-.266,0-.532,0-.8,0-.443,0-.81,0-1.151-.01h-.017A.431.431,0,0,0,5827.948,9769.168Zm17.5,31.171-1.407,0c-.384,0-.7,0-.989-.006-.332,0-.785-.073-.891-.6a.723.723,0,0,1,.123-.607.9.9,0,0,1,.713-.3c.251,0,.515-.007.832-.007.48,0,.959,0,1.437,0l1.454,0,.726,0a.864.864,0,0,1,.8.369.7.7,0,0,1,.042.713.887.887,0,0,1-.792.421c-.249.008-.517.01-.846.01C5846.256,9800.344,5845.855,9800.339,5845.452,9800.339Zm-8.087-29.229a2.772,2.772,0,0,1-1.985-.839,2.71,2.71,0,0,1-.8-1.951,2.8,2.8,0,0,1,2.8-2.758h.015a2.784,2.784,0,0,1,1.988.844,2.719,2.719,0,0,1,.8,1.943,2.809,2.809,0,0,1-2.8,2.761Zm-1.279-2.822a1.286,1.286,0,0,0,1.238,1.334c.02,0,.042,0,.062,0a1.286,1.286,0,0,0,.071-2.57.714.714,0,0,0-.079,0h0A1.278,1.278,0,0,0,5836.086,9768.287Z" transform="translate(-5824 -9757.999)" fill="#333"/>
</svg>
