<svg xmlns="http://www.w3.org/2000/svg" width="7.854" height="13.274" viewBox="0 0 7.854 13.274">
  <path id="Arrow" d="M-10391.8,13.734a.809.809,0,0,1-.17-1.129l5.348-5.177-5.351-5.18a.81.81,0,0,1,.173-1.127.861.861,0,0,1,1.155-.175l5.95,5.76q.041.034.079.072t.064.067l.105.1a.576.576,0,0,1,.161.479.574.574,0,0,1-.161.478l-.093.09c-.024.028-.05.055-.077.082a1.254,1.254,0,0,1-.095.085l-5.935,5.747a.587.587,0,0,1-.418.156A1.091,1.091,0,0,1-10391.8,13.734Z" transform="translate(10392.139 -0.791)" fill="#898989"/>
</svg>
