<svg xmlns="http://www.w3.org/2000/svg" width="16.584" height="18.398" viewBox="0 0 16.584 18.398">
  <path id="attachment" d="M15.549,11.338,14.189,9.978,8.066,3.855A2.886,2.886,0,0,0,3.984,7.937l6.123,6.124a.641.641,0,0,0,.907-.907L4.891,7.03A1.6,1.6,0,0,1,7.159,4.762l6.124,6.123,1.361,1.361a2.887,2.887,0,1,1-4.084,4.082L9.426,15.193,3.077,8.844,2.623,8.39a4.17,4.17,0,0,1,5.9-5.9l6.8,6.8a.641.641,0,1,0,.907-.907l-6.8-6.8A5.452,5.452,0,0,0,1.716,9.3l6.8,6.8,1.135,1.134a4.17,4.17,0,0,0,5.895-5.9Zm0,0" transform="translate(-0.128 0.001)" fill="#333"/>
</svg>
