<svg xmlns="http://www.w3.org/2000/svg" width="26.538" height="38.004" viewBox="0 0 26.538 38.004">
  <g id="Quantity_Surveying" data-name="Quantity Surveying" transform="translate(0.6 0.6)">
    <path id="Path_8974" data-name="Path 8974" d="M98.45,2.4V0H86.187V2.4H79.65V36.8h25.338V2.4Zm-10.1-.244h7.944V4.806H88.347Zm14.482,32.485H81.809V4.562h4.378v2.4H98.45v-2.4h4.378V34.645Z" transform="translate(-79.65)" fill="#898989" stroke="#f0f2f7" stroke-width="1.2"/>
    <path id="Path_8975" data-name="Path 8975" d="M143.594,180.088l-.966-1.208-1.687,1.348,2.633,3.294,4.084-4.992-1.671-1.367Z" transform="translate(-136.529 -164.41)" fill="#898989" stroke="#f0f2f7" stroke-width="1.2"/>
    <path id="Path_8976" data-name="Path 8976" d="M148.976,308.97l-1.54,1.54-1.54-1.54-1.527,1.527,1.54,1.54-1.54,1.54,1.527,1.527,1.54-1.54,1.54,1.54,1.527-1.527-1.54-1.54,1.54-1.54Z" transform="translate(-139.71 -286.73)" fill="#898989" stroke="#f0f2f7" stroke-width="1.2"/>
    <path id="Path_8977" data-name="Path 8977" d="M264.657,211.994h7.486v2.159h-7.486Z" transform="translate(-251.34 -196.735)" fill="#898989" stroke="#f0f2f7" stroke-width="1.2"/>
    <path id="Path_8978" data-name="Path 8978" d="M264.657,336.584h7.486v2.159h-7.486Z" transform="translate(-251.34 -312.357)" fill="#898989" stroke="#f0f2f7" stroke-width="1.2"/>
  </g>
</svg>
