<svg xmlns="http://www.w3.org/2000/svg" width="34.6" height="29.972" viewBox="0 0 34.6 29.972">
  <path id="Bedroom" d="M30.134,47.783V38.329a3.49,3.49,0,0,0-3.486-3.486H7.353a3.49,3.49,0,0,0-3.486,3.486v9.454A5.054,5.054,0,0,0,0,52.689V59.74a1.013,1.013,0,0,0,1.013,1.013H3.866V63.2a1.013,1.013,0,1,0,2.026,0v-2.45H28.108V63.2a1.013,1.013,0,1,0,2.026,0v-2.45h2.853A1.013,1.013,0,0,0,34,59.74V52.689A5.054,5.054,0,0,0,30.134,47.783ZM5.892,38.329a1.462,1.462,0,0,1,1.46-1.46H26.647a1.462,1.462,0,0,1,1.46,1.46v9.313H24.761v-1.6a4.807,4.807,0,0,0-4.8-4.8H14.041a4.807,4.807,0,0,0-4.8,4.8v1.6H5.892Zm16.843,7.715v1.6H11.265v-1.6a2.779,2.779,0,0,1,2.776-2.776h5.918A2.779,2.779,0,0,1,22.735,46.044ZM2.026,58.727V52.689a3.024,3.024,0,0,1,3.021-3.021H28.954a3.024,3.024,0,0,1,3.021,3.021v6.038Z" transform="translate(0.3 -34.543)" fill="#898989" stroke="#fff" stroke-width="0.6"/>
</svg>
