<svg id="behance" xmlns="http://www.w3.org/2000/svg" width="19.101" height="11.777" viewBox="0 0 19.101 11.777">
  <path id="Path_7520" data-name="Path 7520" d="M8.084,92.836a3.2,3.2,0,0,0,.508-1.787,3.243,3.243,0,0,0-3.257-3.161H.417A.417.417,0,0,0,0,88.305V99.121a.417.417,0,0,0,.417.417H5.911a3.688,3.688,0,0,0,2.173-6.7Zm-5.926-2.79h3.22a1.058,1.058,0,0,1,0,2.115H2.158Zm3.8,7.335h-3.8V94.319h3.8a1.531,1.531,0,0,1,0,3.062Z" transform="translate(0 -87.888)" fill="#0067ff"/>
  <path id="Path_7521" data-name="Path 7521" d="M254.887,155.875a4.427,4.427,0,1,0-4.425,4.568,4.385,4.385,0,0,0,3.68-2.03,4.615,4.615,0,0,0,.279-.495.187.187,0,0,0-.169-.268l-2.175-.005a.184.184,0,0,0-.128.053,2.059,2.059,0,0,1-1.487.588,2.307,2.307,0,0,1-2.213-1.886h6.2a.433.433,0,0,0,.433-.433Zm-4.425-2.41a2.236,2.236,0,0,1,1.9,1.089h-3.79A2.236,2.236,0,0,1,250.462,153.466Z" transform="translate(-235.786 -148.666)" fill="#0067ff"/>
  <path id="Path_7522" data-name="Path 7522" d="M298.471,100.541h-3.925a.332.332,0,0,1-.332-.332v-.985a.332.332,0,0,1,.332-.332h3.925a.332.332,0,0,1,.332.332v.985A.332.332,0,0,1,298.471,100.541Z" transform="translate(-281.956 -98.434)" fill="#0067ff"/>
</svg>
