<svg xmlns="http://www.w3.org/2000/svg" width="22.042" height="26.894" viewBox="0 0 22.042 26.894">
  <g id="Group_3829" data-name="Group 3829" transform="translate(-1636.494 -29)">
    <g id="notification-bell-outline-interface-symbol" transform="translate(1614.799 32.523)">
      <g id="_x36__27_" transform="translate(21.857)">
        <g id="Group_3828" data-name="Group 3828" transform="translate(0)">
          <path id="Path_7569" data-name="Path 7569" d="M40.473,13.962V7.757a7.757,7.757,0,1,0-15.513,0v6.205l-3.1,6.205h7.059a3.878,3.878,0,0,0,7.6,0h7.059Zm-7.757,7.757a2.319,2.319,0,0,1-2.184-1.551H34.9A2.321,2.321,0,0,1,32.716,21.719Zm-8.532-3.1,2.327-4.654V7.757a6.205,6.205,0,0,1,12.411,0v6.205l2.327,4.654H24.184Z" transform="translate(-21.857)" fill="#333" stroke="#fff" stroke-width="0.2"/>
        </g>
      </g>
    </g>
    <circle id="Ellipse_2194" data-name="Ellipse 2194" cx="4.5" cy="4.5" r="4.5" transform="translate(1648 30)" fill="#1e428a" stroke="#fff" stroke-width="2"/>
  </g>
</svg>
