<svg xmlns="http://www.w3.org/2000/svg" width="93" height="93" viewBox="0 0 93 93">
  <g id="Group_9652" data-name="Group 9652" transform="translate(13266 5032)">
    <g id="Group_9651" data-name="Group 9651">
      <g id="Ellipse_2412" data-name="Ellipse 2412" transform="translate(-13266 -5032)" fill="#1e428a" stroke="#1e428a" stroke-width="1">
        <circle cx="46.5" cy="46.5" r="46.5" stroke="none"/>
        <circle cx="46.5" cy="46.5" r="46" fill="none"/>
      </g>
      <path id="Client" d="M8845.672-3434.915a18.841,18.841,0,0,1,1.9-5.439,22.453,22.453,0,0,1,3.916-5.342,24.443,24.443,0,0,1,11.8-6.592c.863-.2,1.746-.366,2.766-.562h0c.5-.1,1.086-.208,1.729-.336a19.867,19.867,0,0,1-4.475-4.958,25.078,25.078,0,0,1-2.623-5.735,4.856,4.856,0,0,0-3.266-2.31c-2.906-.636-3.4-2.229-3.293-4.764.313-7.161.387-13.658.225-19.866a9.487,9.487,0,0,1,3.189-7.793,30.685,30.685,0,0,1,8.658-5.538,23.517,23.517,0,0,1,9.01-1.851c7.908,0,15.041,4.258,20.113,11.991a4.81,4.81,0,0,1,.527,2.485c.066,2.606.109,5.2.15,8.059.057,4.212.129,8.987.295,13.559a2.844,2.844,0,0,1-.561,2.319,2.858,2.858,0,0,1-2.125,1.085,5.954,5.954,0,0,0-5,4.827,30.769,30.769,0,0,1-3.07,6.056c-.49.841-1.064,1.79-1.58,2.764.125.021.291.047.453.081h.063c.518.1,1.221.227,1.938.3a24.145,24.145,0,0,1,20.392,15.172c-.394.346-.664.584-1.085.957-.828.731.938-.8-1.618,1.418a21.689,21.689,0,0,0-7.71-10.9,26.049,26.049,0,0,0-15.471-4.05c-1.654,0-3.389.079-5.314.244a39.177,39.177,0,0,1,.086,5.353l0,.018a21.509,21.509,0,0,0,1.4,10.262,5.4,5.4,0,0,0,1.24-3.087c.049-1.319.049-2.673.043-3.868,0-1.413,0-2.875.074-4.31,0-.384.383-.759.742-1.13a5.551,5.551,0,0,0,.451-.513,5.349,5.349,0,0,0,.391.452l.016.017a1.88,1.88,0,0,1,.615,1.042c.031.809.061,1.618.08,2.305a46.891,46.891,0,0,1-.209,8.474,6.382,6.382,0,0,1-2.113,3.066,17.5,17.5,0,0,0-1.26,1.357c-.34-.3-.715-.6-1.047-.868h0a11.165,11.165,0,0,1-2.225-2.157,6.265,6.265,0,0,1-.74-3.3c-.062-3.152-.047-6.244-.043-9.516v-3.776a29.694,29.694,0,0,0-3.441-.2,22.373,22.373,0,0,0-13.1,3.906,19.876,19.876,0,0,0-7.549,11.057c-.164.618-.344,1.3-.544,2.225A20.783,20.783,0,0,1,8845.672-3434.915Zm17.052-44.666v3.118c.016,2.364.025,4.594-.027,6.888a17.51,17.51,0,0,0,.834,5.76,19.888,19.888,0,0,0,2.6,5.178,12.6,12.6,0,0,0,4.385,4.012,10.824,10.824,0,0,0,5.145,1.33,10.038,10.038,0,0,0,5.08-1.375,10.829,10.829,0,0,0,3.957-4.12,24.262,24.262,0,0,0,2.818-9.513,71.4,71.4,0,0,0,.027-9.909v-.019c-.025-.452-.051-.9-.068-1.356Zm29.248.045a2.179,2.179,0,0,0-1.2.777,2.8,2.8,0,0,0-.271,1.541c-.172,2.014-.137,4.081-.111,6.079,0,.678.02,1.532.02,2.332a3.427,3.427,0,0,0,2.43.151c.645-.5,1.156-.89,1.209-1.455a57.6,57.6,0,0,0-.023-6.361,5.658,5.658,0,0,0-.453-2.595c-.314-.672-1.6-.469-1.6-.469Zm-34.541.4c-.2,0-.408,0-.648.023,0,.8.016,1.6.029,2.3v.016c.025,1.742.049,3.39-.068,5.051a3.019,3.019,0,0,0,.545,2.394,3.239,3.239,0,0,0,2.486.764h.242c0-.739-.016-1.487-.02-2.21v-.214c0-1.858-.033-3.774.043-5.666a2.337,2.337,0,0,0-.486-1.835,2.838,2.838,0,0,0-2.141-.613Zm29.967-17.807a6.082,6.082,0,0,0-2.1.376c-2.334.864-4.744,1.764-6.877,2.557-6.078,2.26-12.365,4.615-18.6,6.78a3.955,3.955,0,0,0-2.529,1.82,20.5,20.5,0,0,0-.059,2.938h36.051c0-1.071.023-2.146.045-3.012v-.034a58.347,58.347,0,0,0-.1-6.046,5.8,5.8,0,0,0-1.916-3.9,5.829,5.829,0,0,0-3.908-1.477Zm-12.555-6.667h0a23.968,23.968,0,0,0-9.217,2.486,17.329,17.329,0,0,0-6.951,5.385,7.346,7.346,0,0,0-1.646,3.13c-.156.656-.189,2.212-.4,4.336l30.176-11.448a22.977,22.977,0,0,0-11.961-3.9Z" transform="translate(-22094.359 -1514.445)" fill="#fff" stroke="#1e428a" stroke-linecap="round" stroke-width="0.1"/>
    </g>
  </g>
</svg>
