<svg xmlns="http://www.w3.org/2000/svg" width="24.103" height="24.118" viewBox="0 0 24.103 24.118">
  <g id="brickwall" transform="translate(0.152 0.162)">
    <path id="Union_429" data-name="Union 429" d="M1.191,23.8A1.192,1.192,0,0,1,0,22.608V20.09A1.192,1.192,0,0,1,1.191,18.9h2.6c0-.023-.018-.046-.018-.069V16.312a1.192,1.192,0,0,1,1.193-1.193h2.6c0-.023-.014-.046-.014-.069V12.527A1.187,1.187,0,0,1,8.75,11.34h6.3a1.188,1.188,0,0,1,1.186,1.187V15.05c0,.023-.01.046-.01.069h2.6a1.191,1.191,0,0,1,1.191,1.193v2.517c0,.023-.016.046-.016.069h2.6A1.192,1.192,0,0,1,23.8,20.09v2.518A1.192,1.192,0,0,1,22.607,23.8Zm15.121-1.192h6.295V20.09H16.313Zm-7.562,0h6.3V20.09H8.75Zm-7.559,0H7.486V20.09H1.191Zm11.336-3.779h6.3V16.312h-6.3Zm-7.557,0h6.3V16.312h-6.3ZM8.75,15.05h6.3V12.527H8.75ZM1.191,13.393.35,12.55a1.19,1.19,0,0,1,0-1.686L3.295,7.923a1.187,1.187,0,0,1,1.68,0l.844-.843a.585.585,0,0,1,.5-.167l2.65.379L9.6,6.661,7.918,4.975A1.195,1.195,0,0,1,7.924,3.29a1.25,1.25,0,0,1,.385-.258L15.465.09a1.189,1.189,0,0,1,1.553,1.554L14.07,8.794a1.112,1.112,0,0,1-.258.39,1.2,1.2,0,0,1-1.686,0L10.445,7.5,9.6,8.341a.584.584,0,0,1-.5.166L6.451,8.129l-.633.631a1.194,1.194,0,0,1,0,1.686L2.873,13.393a1.2,1.2,0,0,1-1.682,0Zm0-1.686.838.843L4.975,9.6,4.133,8.76ZM12.549,4.557a.59.59,0,0,1,0,.837l-1.26,1.261,1.68,1.686,2.949-7.15L8.766,4.133l1.68,1.686,1.262-1.262a.587.587,0,0,1,.842,0Z" transform="translate(0 0.006)" fill="#1e428a" stroke="#f4f4f8" stroke-width="0.3"/>
  </g>
</svg>
