<svg xmlns="http://www.w3.org/2000/svg" width="34" height="34" viewBox="0 0 34 34">
  <path id="_Built_up_Area" data-name=" Built up Area" d="M2333.973,3376.868l-2.971-2.227a.66.66,0,1,1,.792-1.056l1.914,1.435V3354.6l-1.9,1.512a.66.66,0,1,1-.823-1.032l2.971-2.366a.66.66,0,0,1,.823,0l2.971,2.366a.66.66,0,1,1-.823,1.032l-1.9-1.512v20.417l1.914-1.435a.66.66,0,1,1,.792,1.056l-2.971,2.227a.659.659,0,0,1-.792,0Zm-28.652.132a1.321,1.321,0,0,1-1.32-1.32V3353.4a1.321,1.321,0,0,1,1.32-1.32h21.951a1.321,1.321,0,0,1,1.321,1.32v22.281a1.321,1.321,0,0,1-1.321,1.32Zm0-1.32h21.951V3353.4H2305.32Zm1.039-25.682-2.228-2.971a.662.662,0,0,1,0-.792l2.228-2.971a.66.66,0,0,1,1.057.792l-1.436,1.914H2326.4l-1.513-1.9a.66.66,0,1,1,1.032-.823l2.367,2.971a.663.663,0,0,1,0,.823l-2.367,2.971a.66.66,0,1,1-1.032-.823l1.513-1.9H2305.98l1.436,1.915a.66.66,0,0,1-1.057.792Z" transform="translate(-2304 -3343)" fill="#898989"/>
</svg>
