<svg xmlns="http://www.w3.org/2000/svg" width="18.287" height="25.22" viewBox="0 0 18.287 25.22">
  <path id="Build_up_Area" data-name="Build up Area" d="M1727.97,2662.467a.971.971,0,0,1-.97-.97v-16.375a.971.971,0,0,1,.97-.97H1744.1a.97.97,0,0,1,.97.97V2661.5a.97.97,0,0,1-.97.97Zm0-.97H1744.1v-16.375H1727.97Zm14.455-18.786a.485.485,0,0,1-.077-.681l1.112-1.4h-15l1.055,1.407a.485.485,0,0,1-.777.582l-1.636-2.183a.485.485,0,0,1,0-.582l1.636-2.184a.485.485,0,0,1,.777.582l-1.055,1.407h15l-1.112-1.4a.485.485,0,0,1,.76-.6l1.739,2.183a.485.485,0,0,1,0,.6l-1.739,2.183a.486.486,0,0,1-.682.076Z" transform="translate(-1726.886 -2637.347)" fill="#898989" stroke="#fff" stroke-width="0.2"/>
</svg>
