<svg xmlns="http://www.w3.org/2000/svg" width="44.298" height="53.015" viewBox="0 0 44.298 53.015">
  <path id="Estimate_" data-name="Estimate " d="M-6077.551,4430.315a5.458,5.458,0,0,1-5.45-5.449V4383.45a5.458,5.458,0,0,1,5.45-5.45h32.7a5.457,5.457,0,0,1,5.45,5.45v41.416a5.457,5.457,0,0,1-5.45,5.449Zm-3.27-46.865v41.416a3.275,3.275,0,0,0,3.27,3.27h32.7a3.275,3.275,0,0,0,3.271-3.27V4383.45a3.274,3.274,0,0,0-3.271-3.27h-32.7A3.274,3.274,0,0,0-6080.821,4383.45Zm25.069,38.146a1.09,1.09,0,0,1-1.09-1.09,1.091,1.091,0,0,1,1.09-1.09h6.539a1.091,1.091,0,0,1,1.09,1.09,1.09,1.09,0,0,1-1.09,1.09Zm-11.671-.319-2.5-2.5-2.5,2.5a1.082,1.082,0,0,1-.769.319,1.1,1.1,0,0,1-.772-.319,1.09,1.09,0,0,1,0-1.541l2.5-2.5-2.5-2.5a1.092,1.092,0,0,1,0-1.542,1.092,1.092,0,0,1,1.542,0l2.5,2.5,2.5-2.5a1.093,1.093,0,0,1,1.542,0,1.093,1.093,0,0,1,0,1.542l-2.5,2.5,2.5,2.5a1.091,1.091,0,0,1,0,1.541,1.089,1.089,0,0,1-.771.319A1.093,1.093,0,0,1-6067.423,4421.277Zm11.671-6.221a1.091,1.091,0,0,1-1.09-1.09,1.089,1.089,0,0,1,1.09-1.089h6.539a1.089,1.089,0,0,1,1.09,1.089,1.091,1.091,0,0,1-1.09,1.09Zm-15.259-7.628v-2.18h-2.18a1.091,1.091,0,0,1-1.09-1.09,1.091,1.091,0,0,1,1.09-1.09h2.18v-2.18a1.09,1.09,0,0,1,1.089-1.09,1.09,1.09,0,0,1,1.09,1.09v2.18h2.18a1.091,1.091,0,0,1,1.09,1.09,1.091,1.091,0,0,1-1.09,1.09h-2.18v2.18a1.089,1.089,0,0,1-1.09,1.09A1.089,1.089,0,0,1-6071.011,4407.428Zm15.259-2.18a1.091,1.091,0,0,1-1.09-1.09,1.091,1.091,0,0,1,1.09-1.09h6.539a1.091,1.091,0,0,1,1.09,1.09,1.091,1.091,0,0,1-1.09,1.09Zm-17.438-9.809a3.274,3.274,0,0,1-3.27-3.27v-4.36a3.272,3.272,0,0,1,3.27-3.268h23.977a3.272,3.272,0,0,1,3.27,3.268v4.36a3.274,3.274,0,0,1-3.27,3.27Zm-1.09-7.63v4.36a1.091,1.091,0,0,0,1.09,1.09h23.977a1.09,1.09,0,0,0,1.09-1.09v-4.36a1.091,1.091,0,0,0-1.09-1.09h-23.977A1.091,1.091,0,0,0-6074.281,4387.809Z" transform="translate(6083.351 -4377.65)" fill="#fff" stroke="#fff" stroke-width="0.7"/>
</svg>
