<svg xmlns="http://www.w3.org/2000/svg" width="13.651" height="13.651" viewBox="0 0 13.651 13.651">
  <path id="Calendar" d="M11.892,1.067H10.665V.427a.427.427,0,0,0-.853,0v.64H3.839V.427a.427.427,0,0,0-.853,0v.64H1.76A1.762,1.762,0,0,0,0,2.826v9.065a1.762,1.762,0,0,0,1.76,1.76H11.892a1.762,1.762,0,0,0,1.76-1.76V2.826A1.762,1.762,0,0,0,11.892,1.067ZM1.76,1.92H2.986v.427a.427.427,0,1,0,.853,0V1.92H9.812v.427a.427.427,0,0,0,.853,0V1.92h1.226a.908.908,0,0,1,.907.907V3.839H.853V2.826A.908.908,0,0,1,1.76,1.92ZM11.892,12.8H1.76a.908.908,0,0,1-.907-.907v-7.2H12.8v7.2A.908.908,0,0,1,11.892,12.8Z" fill="#898989"/>
</svg>
