<svg xmlns="http://www.w3.org/2000/svg" width="20.703" height="17.043" viewBox="0 0 20.703 17.043">
  <path id="Camera" d="M-6727.669,15851.544a1.841,1.841,0,0,1-1.83-1.834v-10.94a1.841,1.841,0,0,1,1.83-1.83h3.66a.6.6,0,0,0,.35-.219l.652-1.349a1.768,1.768,0,0,1,1.44-.871h4.837a1.761,1.761,0,0,1,1.44.871l.652,1.349a.493.493,0,0,0,.35.219h3.66a1.841,1.841,0,0,1,1.83,1.83v10.944a1.908,1.908,0,0,1-1.874,1.83Zm-.609-12.73v10.944a.594.594,0,0,0,.609.608h17a.6.6,0,0,0,.613-.608v-10.944a.6.6,0,0,0-.613-.608h-3.66a1.772,1.772,0,0,1-1.44-.871l-.652-1.353a.491.491,0,0,0-.35-.219h-4.837a.6.6,0,0,0-.35.219l-.652,1.353a1.771,1.771,0,0,1-1.44.871h-3.616A.594.594,0,0,0-6728.278,15838.813Zm3.66,4.842a5.448,5.448,0,0,1,5.45-5.45,5.447,5.447,0,0,1,5.446,5.45,5.446,5.446,0,0,1-5.446,5.446A5.447,5.447,0,0,1-6724.618,15843.655Zm1.177,0a4.278,4.278,0,0,0,4.273,4.269,4.277,4.277,0,0,0,4.269-4.269,4.277,4.277,0,0,0-4.269-4.272A4.278,4.278,0,0,0-6723.44,15843.655Z" transform="translate(6729.499 -15834.501)" fill="#333"/>
</svg>
