<svg xmlns="http://www.w3.org/2000/svg" width="22.809" height="30.391" viewBox="0 0 22.809 30.391">
  <g id="Group_4875" data-name="Group 4875" transform="translate(0.25 0.262)">
    <path id="Path_8024" data-name="Path 8024" d="M3570.282,856.917c-.286-.109-.535-.2-.781-.3-1.677-.669-3.352-1.343-5.034-2a.762.762,0,0,0-.507.006c-1.822.712-3.638,1.44-5.456,2.164-.1.039-.2.072-.345.126v-.535q0-4.232.006-8.465a.594.594,0,0,0-.278-.552,10.878,10.878,0,0,1-4.768-9.638,11.113,11.113,0,1,1,17.449,9.628.607.607,0,0,0-.292.578c.009,2.886.005,5.772.005,8.659Zm-6.078-9.563a9.1,9.1,0,1,0-9.086-9.12A9.12,9.12,0,0,0,3564.2,847.354Zm-4,6.571c.125-.046.225-.081.323-.12,1.116-.448,2.235-.892,3.347-1.351a.8.8,0,0,1,.672-.008c.711.3,1.432.585,2.15.873.5.2,1.009.4,1.54.613v-5.3a11.2,11.2,0,0,1-8.031,0Z" transform="translate(-3553.112 -827.151)" fill="#333" stroke="#f0f2f7" stroke-width="0.5"/>
    <path id="Path_8025" data-name="Path 8025" d="M3655.765,949.147l-3.706-3.618,1.333-1.439,2.352,2.288,5.235-5.327,1.441,1.443Z" transform="translate(-3645.654 -933.676)" fill="#333" stroke="#f0f2f7" stroke-width="0.5"/>
  </g>
</svg>
