<svg xmlns="http://www.w3.org/2000/svg" width="187.715" height="98.65" viewBox="0 0 187.715 98.65">
  <g id="Client_Detail" data-name="Client Detail" transform="translate(57 11.114)">
    <g id="Group_6744" data-name="Group 6744" transform="translate(-57 38.211)">
      <path id="Path_9497" data-name="Path 9497" d="M556.2,297.2c-5.473-3.16-14.319-3.176-19.758-.036-3.789,2.188-4.917,5.33-3.405,8.1l-3.454,1.995,1.149.663-17.569,10.143.022,4.135,6.57.012-.014-2.545,4.311.007-.014-2.488,4.311.008-.013-2.489,4.415.009,4.872-2.813,1.149.663,3.454-1.995c4.8.872,10.246.222,14.036-1.966C561.7,305.471,561.669,300.364,556.2,297.2Zm-2.667,5.128a6.85,6.85,0,0,1-6.2-.011c-1.717-.992-1.725-2.593-.02-3.578a6.848,6.848,0,0,1,6.2.011C555.227,299.746,555.236,301.348,553.53,302.333Z" transform="translate(-502.173 -273.984)" fill="#92b4d1" opacity="0.2"/>
      <path id="Path_9498" data-name="Path 9498" d="M554.608,296.347c-5.473-3.159-14.318-3.176-19.757-.036-3.79,2.189-4.917,5.33-3.406,8.1l-3.454,1.995,1.149.663-17.568,10.143.022,4.135,6.57.012-.014-2.545,4.31.008-.013-2.489,4.311.008-.014-2.489,4.415.008,4.872-2.813,1.149.664,3.454-1.995c4.8.872,10.246.221,14.035-1.966C560.109,304.614,560.081,299.506,554.608,296.347Zm-2.666,5.128a6.847,6.847,0,0,1-6.2-.011c-1.717-.992-1.725-2.593-.02-3.578a6.85,6.85,0,0,1,6.2.012C553.639,298.888,553.648,300.49,551.942,301.475Z" transform="translate(-501.502 -273.622)" fill="#72b5e8"/>
      <path id="Path_9499" data-name="Path 9499" d="M554.608,292.916c-5.473-3.16-14.318-3.176-19.757-.036-3.79,2.188-4.917,5.33-3.406,8.1l-3.454,1.995,1.149.663-17.568,10.143.022,4.136,6.57.012-.014-2.545,4.31.008-.013-2.488,4.311.007-.014-2.489,4.415.009,4.872-2.813,1.149.663,3.454-1.995c4.8.873,10.246.222,14.035-1.966C560.109,301.183,560.081,296.076,554.608,292.916Zm-2.666,5.129a6.849,6.849,0,0,1-6.2-.012c-1.717-.991-1.725-2.593-.02-3.577a6.848,6.848,0,0,1,6.2.011C553.639,295.458,553.648,297.06,551.942,298.045Z" transform="translate(-501.502 -272.172)" fill="#d1ebff"/>
      <path id="Path_9500" data-name="Path 9500" d="M513.59,317.612l-.013-2.318,18.72-10.807-1.149-.664,2.7-1.557-.539-.99c-1.255-2.3-.145-4.753,2.969-6.551a18.806,18.806,0,0,1,9.245-2.19,19.037,19.037,0,0,1,9.358,2.226c2.286,1.32,3.545,3,3.545,4.736,0,1.715-1.238,3.374-3.484,4.67a18.79,18.79,0,0,1-9.234,2.186h0a22.588,22.588,0,0,1-4.017-.355l-.417-.076-3.244,1.872-1.148-.663-5.181,2.991-5.268-.009.014,2.488-4.311-.008.013,2.488-4.311-.007.014,2.545Zm36.064-24.2a7.435,7.435,0,0,0-3.658.89,3.021,3.021,0,0,0,.02,5.578,7.984,7.984,0,0,0,7.352.011,3.02,3.02,0,0,0-.02-5.577A7.494,7.494,0,0,0,549.654,293.41Z" transform="translate(-502.349 -273.017)" fill="#a8cff0" opacity="0.5"/>
      <g id="Group_6738" data-name="Group 6738" transform="translate(11.228 19.518)">
        <path id="Path_9501" data-name="Path 9501" d="M532.3,314l-.487-.281-18.232,10.526,0,.561Z" transform="translate(-513.577 -301.486)" fill="#72b5e8" opacity="0.5"/>
        <path id="Path_9502" data-name="Path 9502" d="M568.382,303.971a7.984,7.984,0,0,0,7.352.011,3.3,3.3,0,0,0,1.851-2.778,2.68,2.68,0,0,0-.022-.282,3.39,3.39,0,0,1-1.829,2.5,7.984,7.984,0,0,1-7.352-.011,3.423,3.423,0,0,1-1.848-2.518,2.524,2.524,0,0,0-.022.282A3.326,3.326,0,0,0,568.382,303.971Z" transform="translate(-535.944 -296.065)" fill="#72b5e8" opacity="0.5"/>
        <path id="Path_9503" data-name="Path 9503" d="M550.346,295.288a18.807,18.807,0,0,1,9.245-2.19,22.673,22.673,0,0,1,3.87.327c.089,0,.174-.015.263-.015a7.494,7.494,0,0,1,3.693.9,4.482,4.482,0,0,1,.9.683c.212.108.427.213.629.329,2.162,1.248,3.391,2.822,3.52,4.455.008-.094.026-.188.026-.282,0-1.734-1.259-3.416-3.545-4.736a19.036,19.036,0,0,0-9.358-2.226,18.806,18.806,0,0,0-9.245,2.19c-2.384,1.377-3.589,3.136-3.461,4.918C547.021,298.057,548.213,296.52,550.346,295.288Z" transform="translate(-527.647 -292.535)" fill="#72b5e8" opacity="0.5"/>
        <path id="Path_9504" data-name="Path 9504" d="M546.7,310.048l-.233-.428-2.464,1.423.487.282Z" transform="translate(-526.434 -299.754)" fill="#72b5e8" opacity="0.5"/>
        <path id="Path_9505" data-name="Path 9505" d="M520.953,332.542l.01,1.982h0l-.011-1.982Z" transform="translate(-516.694 -309.439)" fill="#72b5e8" opacity="0.5"/>
        <path id="Path_9506" data-name="Path 9506" d="M535.836,323.95l.01,1.926h0l-.01-1.926Z" transform="translate(-522.982 -305.809)" fill="#72b5e8" opacity="0.5"/>
        <path id="Path_9507" data-name="Path 9507" d="M528.395,328.246l.01,1.926h0l-.01-1.926Z" transform="translate(-519.838 -307.624)" fill="#72b5e8" opacity="0.5"/>
      </g>
      <g id="Group_6740" data-name="Group 6740" transform="translate(0 16.134)">
        <path id="Path_9508" data-name="Path 9508" d="M533.162,303.639v2.492l.816-1.682Z" transform="translate(-510.625 -293.843)" fill="#72b5e8"/>
        <path id="Path_9509" data-name="Path 9509" d="M546.923,294.79c-3.887-3.862-12.441-5.193-19.106-2.973-4.644,1.547-7.137,4.41-6.912,7.311l-4.233,1.41.815.81-21.529,7.172-1.824,3.993,6.354.989,1.122-2.457,4.169.649,1.1-2.4,4.169.649,1.1-2.4,4.27.665,5.97-1.989.815.81,4.233-1.41a23.014,23.014,0,0,0,14.462.191C548.558,303.582,550.81,298.652,546.923,294.79Zm-4.869,4.55c-2.09.7-4.773.279-5.992-.933s-.513-2.757,1.578-3.454,4.773-.279,5.992.933S544.144,298.644,542.054,299.34Z" transform="translate(-494.134 -288.394)" fill="#92b4d1" opacity="0.2" style="mix-blend-mode: multiply;isolation: isolate"/>
        <path id="Path_9510" data-name="Path 9510" d="M546.923,294.155c-3.887-3.862-12.441-5.193-19.106-2.973-4.644,1.547-7.137,4.409-6.912,7.31l-4.233,1.41.815.811-21.529,7.172-1.824,3.993,6.354.989,1.122-2.457,4.169.648,1.1-2.4,4.169.649,1.1-2.4,4.27.664,5.97-1.989.815.811,4.233-1.41a23.011,23.011,0,0,0,14.462.191C548.558,302.947,550.81,298.017,546.923,294.155Zm-4.869,4.55c-2.09.7-4.773.279-5.992-.933s-.513-2.757,1.578-3.454,4.773-.279,5.992.932S544.144,298.009,542.054,298.7Z" transform="translate(-494.134 -288.126)" fill="#72b5e8"/>
        <path id="Path_9511" data-name="Path 9511" d="M546.923,290.724c-3.887-3.862-12.441-5.193-19.106-2.973-4.644,1.547-7.137,4.41-6.912,7.311l-4.233,1.41.815.81-21.529,7.172-1.824,3.993,6.354.989,1.122-2.457,4.169.648,1.1-2.4,4.169.648,1.1-2.4,4.27.665,5.97-1.989.815.811,4.233-1.411a23.015,23.015,0,0,0,14.462.191C548.558,299.516,550.81,294.586,546.923,290.724Zm-4.869,4.55c-2.09.7-4.773.279-5.992-.932s-.513-2.758,1.578-3.454,4.773-.279,5.992.933S544.144,294.578,542.054,295.274Z" transform="translate(-494.134 -286.676)" fill="#d1ebff"/>
        <path id="Path_9512" data-name="Path 9512" d="M497.839,308.368l.754-1.65,23.186-7.723-.816-.811,3.059-1.019-.089-1.143c-.176-2.271,2.145-4.55,5.913-5.805a21.6,21.6,0,0,1,13.426.143,8.753,8.753,0,0,0-1.891-.2,8.468,8.468,0,0,0-2.64.412,4.341,4.341,0,0,0-3.1,2.9,3.161,3.161,0,0,0,.952,2.99,6.987,6.987,0,0,0,4.851,1.7,8.445,8.445,0,0,0,2.638-.412,4.34,4.34,0,0,0,3.1-2.9,3.164,3.164,0,0,0-.953-2.99l-.054-.054a8.852,8.852,0,0,1,1.279,1.039,4.074,4.074,0,0,1,1.382,3.77c-.456,1.944-2.64,3.743-5.842,4.81a20.7,20.7,0,0,1-6.461,1h0a20.731,20.731,0,0,1-7.034-1.174l-.482-.176-3.862,1.287-.816-.811-6.49,2.162-5.017-.781-1.1,2.4-4.168-.648-1.1,2.4-4.169-.649-1.122,2.457Z" transform="translate(-495.699 -287.75)" fill="#a8cff0" opacity="0.5"/>
        <g id="Group_6739" data-name="Group 6739" transform="translate(2.139 1.467)" opacity="0.5">
          <path id="Path_9513" data-name="Path 9513" d="M582.4,294.921c.147.126.3.251.428.383a4.609,4.609,0,0,1,1.448,2.731,4.277,4.277,0,0,0-1.448-3.308,8.849,8.849,0,0,0-1.279-1.039l.054.054A3.567,3.567,0,0,1,582.4,294.921Z" transform="translate(-533.207 -291.106)" fill="#72b5e8"/>
          <path id="Path_9514" data-name="Path 9514" d="M564.2,300.253a3.328,3.328,0,0,1-1.011-2.051,3.214,3.214,0,0,0,1.011,2.628,6.987,6.987,0,0,0,4.851,1.7,8.448,8.448,0,0,0,2.639-.412,4.341,4.341,0,0,0,3.1-2.9,2.924,2.924,0,0,0,.059-.938,3,3,0,0,1-.059.36,4.341,4.341,0,0,1-3.1,2.9,8.451,8.451,0,0,1-2.639.412A6.987,6.987,0,0,1,564.2,300.253Z" transform="translate(-525.443 -293.013)" fill="#72b5e8"/>
          <path id="Path_9515" data-name="Path 9515" d="M543.025,296.1c.174-2.1,2.418-4.139,5.907-5.3a20.749,20.749,0,0,1,6.475-1,22.2,22.2,0,0,1,4.234.405c.274-.025.549-.043.826-.043a8.754,8.754,0,0,1,1.891.2,21.6,21.6,0,0,0-13.426-.143c-3.768,1.255-6.089,3.534-5.913,5.805Z" transform="translate(-516.925 -289.217)" fill="#72b5e8"/>
          <path id="Path_9516" data-name="Path 9516" d="M540.941,303.568l-.044-.563-3.016,1,.436.432Z" transform="translate(-514.758 -295.043)" fill="#72b5e8"/>
          <path id="Path_9517" data-name="Path 9517" d="M498.592,314.555l23.186-7.723-.436-.432-22.75,7.578-.754,1.65.246.038Z" transform="translate(-497.839 -296.477)" fill="#72b5e8"/>
        </g>
        <path id="Path_9518" data-name="Path 9518" d="M494.134,324.375v1.981l6.354.989v-1.981Z" transform="translate(-494.134 -302.605)" fill="#a8cff0" opacity="0.5"/>
        <path id="Path_9519" data-name="Path 9519" d="M507.08,321.832v1.981l4.169.649v-1.981Z" transform="translate(-499.604 -301.531)" fill="#a8cff0" opacity="0.5"/>
        <path id="Path_9520" data-name="Path 9520" d="M516.2,318.795v1.981l4.169.649v-1.981Z" transform="translate(-503.457 -300.247)" fill="#a8cff0" opacity="0.5"/>
        <path id="Path_9521" data-name="Path 9521" d="M525.319,315.757v1.981l4.27.665v-1.981Z" transform="translate(-507.311 -298.964)" fill="#a8cff0" opacity="0.5"/>
        <path id="Path_9522" data-name="Path 9522" d="M543.051,313.464v1.981l.816.811v-1.981Z" transform="translate(-514.803 -297.995)" fill="#a8cff0" opacity="0.5"/>
      </g>
      <g id="Group_6743" data-name="Group 6743" transform="translate(41.47)">
        <path id="Path_9525" data-name="Path 9525" d="M572.707,290.512l.722-.106a4.539,4.539,0,0,1-.75-2.761,13.387,13.387,0,0,1,6.068-10.464,5.106,5.106,0,0,1,2.471-.773c1.678,0,2.68,1.383,2.68,3.7a12.942,12.942,0,0,1-2.578,7.173l.252.163c.421.409.6.707,1.04,1.12l-.041.111a14.863,14.863,0,0,0,3.162-8.567c0-3.362-1.772-5.534-4.514-5.534a6.82,6.82,0,0,0-3.388,1.019,15.186,15.186,0,0,0-6.986,12.052,6.936,6.936,0,0,0,.543,2.822Z" transform="translate(-568.017 -265.428)" fill="#2672ab"/>
        <path id="Path_9526" data-name="Path 9526" d="M572.544,287.458a13.649,13.649,0,0,1,6.315-10.808c1.9-1.088,3.735-1.225,5.175-.386.109.063.206.14.307.212a3.911,3.911,0,0,0-1-.843c-1.44-.839-3.277-.7-5.175.386a13.649,13.649,0,0,0-6.315,10.808C571.841,288.612,572.538,289.023,572.544,287.458Z" transform="translate(-568.441 -265.646)" fill="#3f92d1"/>
        <path id="Path_9527" data-name="Path 9527" d="M593.157,283.557a2.922,2.922,0,0,0-1.071-2.644c-.035-.02-.076-.033-.113-.051a3.808,3.808,0,0,1,.5,2.078,11.88,11.88,0,0,1-2.369,6.61.569.569,0,0,0,.2.806h0a.306.306,0,0,0,.4-.094A12.759,12.759,0,0,0,593.157,283.557Z" transform="translate(-576.118 -268.085)" fill="#3f92d1"/>
      </g>
      <path id="Path_9528" data-name="Path 9528" d="M555.077,320.785v1.981l-1.149-.663v-1.981Z" transform="translate(-519.399 -284.673)" fill="#a8cff0" opacity="0.5"/>
      <path id="Path_9529" data-name="Path 9529" d="M537.847,324.978v1.981l4.415.008v-1.981Z" transform="translate(-512.604 -286.726)" fill="#a8cff0" opacity="0.5"/>
      <path id="Path_9530" data-name="Path 9530" d="M534.716,329.282v1.981l-4.311-.008v-1.981Z" transform="translate(-509.46 -288.541)" fill="#a8cff0" opacity="0.5"/>
      <path id="Path_9531" data-name="Path 9531" d="M527.274,333.579v1.981l-4.311-.008v-1.981Z" transform="translate(-506.316 -290.356)" fill="#a8cff0" opacity="0.5"/>
      <path id="Path_9532" data-name="Path 9532" d="M518.18,337.97v1.981h-6.57v-1.993Z" transform="translate(-501.518 -292.21)" fill="#a8cff0" opacity="0.5"/>
    </g>
    <g id="Group_6757" data-name="Group 6757" transform="translate(6.994 -11.114)">
      <path id="Path_9556" data-name="Path 9556" d="M381.649,215.506l17.435,10.284,7.973.688,16.616,9.077,29.251-10.421L492.715,208l-61.981-36Z" transform="translate(-368.995 -136.905)" fill="#92b4d1" opacity="0.273"/>
      <g id="Group_6750" data-name="Group 6750" transform="translate(34.175 10.453)">
        <path id="Path_9557" data-name="Path 9557" d="M418.917,129.324l49.755,28.947,28.605,4.085-49.786-28.375Z" transform="translate(-418.917 -129.324)" fill="#0a5e9d"/>
        <path id="Path_9558" data-name="Path 9558" d="M505.05,179.453v48.828l5.14-2.9.008-1.075L528.48,213.48l1.113.413,4.077-2.417V183.538Z" transform="translate(-455.311 -150.505)" fill="#a8cff0"/>
        <path id="Path_9559" data-name="Path 9559" d="M468.671,158.272V207.1l-49.755-28.965V129.324Z" transform="translate(-418.917 -129.324)" fill="#d1ebff"/>
      </g>
      <path id="Path_9560" data-name="Path 9560" d="M511.922,206.028l21.772-13.08v25.939l-1.2.708-1.114-.413L513.1,230l-.008,1.075-1.171.693Z" transform="translate(-424.039 -145.754)" fill="#f0f8ff"/>
      <path id="Path_9561" data-name="Path 9561" d="M532.247,221.2V197.736l-18.282,10.983v23.308Z" transform="translate(-424.902 -147.777)" fill="#0ba19f"/>
      <path id="Path_9562" data-name="Path 9562" d="M513.964,208.719v23.308L532.246,221.2V197.736Zm17.7,12.157-17.126,10.138V209.045l17.126-10.289Z" transform="translate(-424.902 -147.778)" fill="#e6e7e8" style="mix-blend-mode: multiply;isolation: isolate"/>
      <g id="Group_6751" data-name="Group 6751" transform="translate(89.062 51.138)" style="mix-blend-mode: multiply;isolation: isolate">
        <path id="Path_9563" data-name="Path 9563" d="M532.247,200.383v-.6l-18.282,10.983v.443Z" transform="translate(-513.965 -199.779)" fill="#e6e7e8"/>
        <path id="Path_9564" data-name="Path 9564" d="M532.247,203.588v-.6l-18.282,10.983v.443Z" transform="translate(-513.965 -201.133)" fill="#e6e7e8"/>
        <path id="Path_9565" data-name="Path 9565" d="M532.247,206.792v-.6l-18.282,10.983v.443Z" transform="translate(-513.965 -202.487)" fill="#e6e7e8"/>
        <path id="Path_9566" data-name="Path 9566" d="M532.247,210v-.6l-18.282,10.983v.443Z" transform="translate(-513.965 -203.841)" fill="#e6e7e8"/>
        <path id="Path_9567" data-name="Path 9567" d="M532.247,213.2v-.6L513.965,223.58v.443Z" transform="translate(-513.965 -205.195)" fill="#e6e7e8"/>
        <path id="Path_9568" data-name="Path 9568" d="M532.247,216.406v-.6l-18.282,10.983v.443Z" transform="translate(-513.965 -206.549)" fill="#e6e7e8"/>
        <path id="Path_9569" data-name="Path 9569" d="M532.247,219.61v-.6l-18.282,10.983v.443Z" transform="translate(-513.965 -207.903)" fill="#e6e7e8"/>
        <path id="Path_9570" data-name="Path 9570" d="M532.247,222.814v-.6l-18.282,10.983v.443Z" transform="translate(-513.965 -209.257)" fill="#e6e7e8"/>
        <path id="Path_9571" data-name="Path 9571" d="M532.247,226.019v-.6L513.965,236.4v.443Z" transform="translate(-513.965 -210.611)" fill="#e6e7e8"/>
        <path id="Path_9572" data-name="Path 9572" d="M532.247,229.223v-.6L513.965,239.6v.443Z" transform="translate(-513.965 -211.965)" fill="#e6e7e8"/>
        <path id="Path_9573" data-name="Path 9573" d="M532.247,232.428v-.6l-18.282,10.983v.443Z" transform="translate(-513.965 -213.319)" fill="#e6e7e8"/>
        <path id="Path_9574" data-name="Path 9574" d="M532.247,235.632v-.6l-18.282,10.983v.443Z" transform="translate(-513.965 -214.673)" fill="#e6e7e8"/>
      </g>
      <g id="Group_6755" data-name="Group 6755" transform="translate(0 0)">
        <path id="Path_9575" data-name="Path 9575" d="M410.643,202.98v31.1l-50.908-29.057v-31.27Z" transform="translate(-359.735 -137.642)" fill="#d1ebff"/>
        <path id="Path_9576" data-name="Path 9576" d="M410.643,176.856l23.876-36.576-50.908-29.057-23.876,36.4Z" transform="translate(-359.735 -111.223)" fill="#2672ab"/>
        <path id="Path_9577" data-name="Path 9577" d="M410.643,198.117l23.876-36.576L410.5,197.226l-50.767-28.34Z" transform="translate(-359.735 -132.484)" fill="#3f92d1"/>
        <path id="Path_9578" data-name="Path 9578" d="M365.9,204.317V184l10.871,6.373v20.267Z" transform="translate(-362.342 -141.974)" fill="#fff"/>
        <path id="Path_9579" data-name="Path 9579" d="M376.458,192.557V210.1l-8.511-4.952V187.568Z" transform="translate(-363.205 -143.481)" fill="#a8cff0"/>
        <path id="Path_9580" data-name="Path 9580" d="M447.893,228.69v-30.8L471.665,161v54.381Z" transform="translate(-396.985 -132.257)" fill="#a8cff0"/>
        <path id="Path_9581" data-name="Path 9581" d="M433.836,157.687l-21.994,12.864v49.189l3.582-2.1V186.52Z" transform="translate(-381.752 -130.856)" fill="#a8cff0"/>
        <path id="Path_9582" data-name="Path 9582" d="M369.82,205.068l7.429,4.322V193.021l-7.429-4.355Z" transform="translate(-363.996 -143.945)" fill="#3f92d1"/>
        <path id="Path_9583" data-name="Path 9583" d="M369.82,205.068l7.429-12.047-7.429-4.355Z" transform="translate(-363.996 -143.945)" fill="#72b5e8" opacity="0.3"/>
        <path id="Path_9584" data-name="Path 9584" d="M369.82,188.666v16.4l7.429,4.322V193.021Zm6.84,19.7-6.249-3.636V189.7l6.249,3.663Z" transform="translate(-363.996 -143.945)" fill="#2672ab" opacity="0.5"/>
        <g id="Group_6752" data-name="Group 6752" transform="translate(4.546 46.191)">
          <path id="Path_9585" data-name="Path 9585" d="M375.9,191.425l-.405-.214V210.22l.405.214Z" transform="translate(-370.942 -191.211)" fill="#fff"/>
          <path id="Path_9586" data-name="Path 9586" d="M367.608,197.182v.511l9,5.143v-.511Z" transform="translate(-367.608 -193.734)" fill="#fff"/>
          <path id="Path_9587" data-name="Path 9587" d="M367.608,206.607v.511l9,5.143v-.511Z" transform="translate(-367.608 -197.717)" fill="#fff"/>
        </g>
        <path id="Path_9588" data-name="Path 9588" d="M399.323,172.625v49.189l-17.11-9.954V162.6Z" transform="translate(-369.233 -132.929)" fill="#d1ebff"/>
        <path id="Path_9589" data-name="Path 9589" d="M423.247,236.926V216.611l10.871,6.373V243.25Z" transform="translate(-386.571 -155.753)" fill="#fff"/>
        <path id="Path_9590" data-name="Path 9590" d="M433.8,225.167v17.539l-8.511-4.952V220.177Z" transform="translate(-387.434 -157.26)" fill="#a8cff0"/>
        <path id="Path_9591" data-name="Path 9591" d="M387.615,186.706V172l10.871,6.373v14.661Z" transform="translate(-371.515 -136.902)" fill="#fff"/>
        <path id="Path_9592" data-name="Path 9592" d="M398.169,180.552v11.933l-8.511-4.952V175.563Z" transform="translate(-372.379 -138.409)" fill="#a8cff0"/>
        <path id="Path_9593" data-name="Path 9593" d="M427.163,237.677,434.592,242V225.631l-7.429-4.355Z" transform="translate(-388.226 -157.724)" fill="#3f92d1"/>
        <path id="Path_9594" data-name="Path 9594" d="M427.163,237.677l7.429-12.047-7.429-4.355Z" transform="translate(-388.226 -157.724)" fill="#72b5e8" opacity="0.3"/>
        <path id="Path_9595" data-name="Path 9595" d="M391.531,187.457l7.429,4.322V181.016l-7.429-4.355Z" transform="translate(-373.17 -138.873)" fill="#3f92d1"/>
        <path id="Path_9596" data-name="Path 9596" d="M427.163,221.275v16.4L434.592,242V225.63Zm6.84,19.7-6.25-3.636V222.3l6.25,3.663Z" transform="translate(-388.226 -157.724)" fill="#2672ab" opacity="0.5"/>
        <path id="Path_9597" data-name="Path 9597" d="M391.531,187.457l7.429-6.441-7.429-4.355Z" transform="translate(-373.17 -138.873)" fill="#72b5e8" opacity="0.3"/>
        <path id="Path_9598" data-name="Path 9598" d="M391.531,176.661v10.8l7.429,4.323V181.016Zm6.84,14.093-6.249-3.636v-9.427l6.249,3.663Z" transform="translate(-373.17 -138.873)" fill="#2672ab" opacity="0.5"/>
        <path id="Path_9599" data-name="Path 9599" d="M459.277,219.54l12.629-7.227v27.245l-12.629,7.178Z" transform="translate(-401.795 -153.937)" fill="#f0f8ff"/>
        <path id="Path_9600" data-name="Path 9600" d="M461.321,221.723v24.469l10.269-5.806V215.88Z" transform="translate(-402.659 -155.444)" fill="#d1ebff"/>
        <path id="Path_9601" data-name="Path 9601" d="M470.606,240.267V216.878l-9.285,5.267V245.5Z" transform="translate(-402.659 -155.866)" fill="#0ba19f"/>
        <path id="Path_9602" data-name="Path 9602" d="M461.32,222.144V245.5l9.286-5.234V216.878Zm8.7,17.778-8.105,4.568v-22l8.105-4.6Z" transform="translate(-402.658 -155.866)" fill="#e6e7e8" style="mix-blend-mode: multiply;isolation: isolate"/>
        <path id="Path_9603" data-name="Path 9603" d="M399.323,163.268,421.316,150.4l-17.11-9.954-21.994,12.788Z" transform="translate(-369.233 -123.572)" fill="#2672ab"/>
        <path id="Path_9604" data-name="Path 9604" d="M399.323,170.551l21.994-12.864L399.4,169.8l-17.191-9.283Z" transform="translate(-369.233 -130.856)" fill="#3f92d1"/>
        <g id="Group_6753" data-name="Group 6753" transform="translate(37.534 64.886)">
          <path id="Path_9605" data-name="Path 9605" d="M433.029,223.8l-.405-.214v19.008l.405.214Z" transform="translate(-428.067 -223.586)" fill="#fff"/>
          <path id="Path_9606" data-name="Path 9606" d="M424.733,229.557v.511l9,5.143V234.7Z" transform="translate(-424.733 -226.109)" fill="#fff"/>
          <path id="Path_9607" data-name="Path 9607" d="M424.733,238.982v.511l9,5.143v-.511Z" transform="translate(-424.733 -230.092)" fill="#fff"/>
        </g>
        <path id="Path_9608" data-name="Path 9608" d="M387.58,223.592V203.277l10.871,6.373v20.267Z" transform="translate(-371.501 -150.119)" fill="#fff"/>
        <path id="Path_9609" data-name="Path 9609" d="M398.134,211.833v17.539l-8.511-4.952V206.844Z" transform="translate(-372.364 -151.626)" fill="#a8cff0"/>
        <path id="Path_9610" data-name="Path 9610" d="M391.5,224.344l7.43,4.322V212.3l-7.43-4.355Z" transform="translate(-373.155 -152.09)" fill="#3f92d1"/>
        <path id="Path_9611" data-name="Path 9611" d="M391.5,224.344l7.43-12.047-7.43-4.355Z" transform="translate(-373.155 -152.09)" fill="#72b5e8" opacity="0.3"/>
        <path id="Path_9612" data-name="Path 9612" d="M391.5,207.942v16.4l7.43,4.322V212.3Zm6.84,19.7L392.086,224V208.972l6.249,3.663Z" transform="translate(-373.155 -152.09)" fill="#2672ab" opacity="0.5"/>
        <g id="Group_6754" data-name="Group 6754" transform="translate(16.938 57.187)">
          <path id="Path_9613" data-name="Path 9613" d="M397.363,210.467l-.405-.213v19.008l.405.214Z" transform="translate(-392.4 -210.253)" fill="#fff"/>
          <path id="Path_9614" data-name="Path 9614" d="M389.066,216.224v.511l9,5.143v-.511Z" transform="translate(-389.066 -212.776)" fill="#fff"/>
          <path id="Path_9615" data-name="Path 9615" d="M389.066,225.649v.511l9,5.143v-.511Z" transform="translate(-389.066 -216.758)" fill="#fff"/>
        </g>
      </g>
      <g id="Group_6756" data-name="Group 6756" transform="translate(50.901 81.632)">
        <path id="Path_9616" data-name="Path 9616" d="M454.411,269.737v1.434L478.1,257.73V256.3Z" transform="translate(-450.64 -254.153)" fill="#a8cff0"/>
        <path id="Path_9617" data-name="Path 9617" d="M451.659,277.954v1.434l-3.778-2.219v-1.426Z" transform="translate(-447.881 -262.371)" fill="#d1ebff"/>
        <path id="Path_9618" data-name="Path 9618" d="M447.881,265.959l3.778,2.211,23.68-13.441-3.687-2.143Z" transform="translate(-447.881 -252.586)" fill="#f0f8ff"/>
      </g>
      <path id="Path_9619" data-name="Path 9619" d="M464.143,242.119a1.337,1.337,0,0,1-.606,1.046c-.336.193-.607.039-.607-.346a1.336,1.336,0,0,1,.607-1.047C463.872,241.579,464.143,241.734,464.143,242.119Z" transform="translate(-403.339 -166.349)" fill="#a7a9ac" style="mix-blend-mode: multiply;isolation: isolate"/>
      <path id="Path_9620" data-name="Path 9620" d="M532.143,241.119a1.337,1.337,0,0,1-.606,1.046c-.336.193-.607.039-.607-.346a1.337,1.337,0,0,1,.607-1.047C531.872,240.579,532.143,240.734,532.143,241.119Z" transform="translate(-432.071 -165.927)" fill="#a7a9ac" style="mix-blend-mode: multiply;isolation: isolate"/>
      <path id="Path_9621" data-name="Path 9621" d="M418.044,186.52l18.412-28.833-13.236,31.8Z" transform="translate(-384.373 -130.856)" fill="#084c94" opacity="0.3"/>
      <path id="Path_9622" data-name="Path 9622" d="M447.881,265.959l27.458-11.23-3.687-2.143Z" transform="translate(-396.98 -170.953)" fill="#92b4d1" opacity="0.2"/>
      <path id="Path_9623" data-name="Path 9623" d="M545.624,197.3v23.469l1.114.413V196.7Z" transform="translate(-438.279 -147.338)" fill="#d1ebff"/>
      <path id="Path_9624" data-name="Path 9624" d="M397.529,178.05l-.405-.214v14.031l.405.214Z" transform="translate(-375.533 -139.369)" fill="#fff"/>
      <path id="Path_9625" data-name="Path 9625" d="M389.233,184.882v.511l9,5.143v-.511Z" transform="translate(-372.199 -142.346)" fill="#fff"/>
    </g>
  </g>
</svg>
