<svg id="clock" xmlns="http://www.w3.org/2000/svg" width="14.457" height="14.457" viewBox="0 0 14.457 14.457">
  <g id="Group_11637" data-name="Group 11637" transform="translate(6.669 3.354)">
    <g id="Group_11636" data-name="Group 11636">
      <path id="Path_12210" data-name="Path 12210" d="M239.3,123.93l-2.016-1.512v-3.08a.56.56,0,0,0-1.12,0v3.36a.559.559,0,0,0,.224.448l2.24,1.68a.56.56,0,0,0,.672-.9Z" transform="translate(-236.169 -118.779)" fill="#898989"/>
    </g>
  </g>
  <g id="Group_11639" data-name="Group 11639">
    <g id="Group_11638" data-name="Group 11638">
      <path id="Path_12211" data-name="Path 12211" d="M7.229,0a7.229,7.229,0,1,0,7.229,7.229A7.236,7.236,0,0,0,7.229,0Zm0,13.337a6.109,6.109,0,1,1,6.109-6.109A6.116,6.116,0,0,1,7.229,13.337Z" fill="#898989"/>
    </g>
  </g>
</svg>
