<?xml version="1.0" encoding="utf-8"?>
<!-- Generator: Adobe Illustrator 15.1.0, SVG Export Plug-In . SVG Version: 6.00 Build 0)  -->
<!DOCTYPE svg PUBLIC "-//W3C//DTD SVG 1.1//EN" "http://www.w3.org/Graphics/SVG/1.1/DTD/svg11.dtd">
<svg version="1.1" id="Warstwa_1" xmlns="http://www.w3.org/2000/svg" xmlns:xlink="http://www.w3.org/1999/xlink" x="0px" y="0px"
	 width="40.834px" height="43.729px" viewBox="0 0 40.834 43.729" enable-background="new 0 0 40.834 43.729" xml:space="preserve">
<path fill="#1E428A" d="M9.142,43.729V31.652H4.192C1.881,31.652,0,29.771,0,27.459V4.192C0,1.881,1.881,0,4.192,0h32.449
	c2.312,0,4.192,1.881,4.192,4.192v23.267c0,2.312-1.881,4.193-4.192,4.193H22.114L9.142,43.729z M4.192,3C3.535,3,3,3.535,3,4.192
	v23.267c0,0.658,0.535,1.193,1.192,1.193h7.949v8.185l8.792-8.185h15.708c0.658,0,1.192-0.535,1.192-1.193V4.192
	C37.834,3.535,37.299,3,36.642,3H4.192z"/>
</svg>
