<svg xmlns="http://www.w3.org/2000/svg" width="16.17" height="14.877" viewBox="0 0 16.17 14.877">
  <path id="Path_8" data-name="Path 8" d="M13.947-1.332H2.223A2.226,2.226,0,0,0,0,.891V8.066a2.226,2.226,0,0,0,2.215,2.223v3.256l4.679-3.256h7.053A2.226,2.226,0,0,0,16.17,8.066V.891A2.226,2.226,0,0,0,13.947-1.332Zm1.276,9.4a1.277,1.277,0,0,1-1.276,1.276H6.6l-3.434,2.39V9.342h-.94A1.277,1.277,0,0,1,.947,8.066V.891A1.277,1.277,0,0,1,2.223-.385H13.947A1.277,1.277,0,0,1,15.223.891Zm0,0" transform="translate(0 1.332)" fill="#898989"/>
</svg>
