<svg xmlns="http://www.w3.org/2000/svg" width="20.684" height="30.323" viewBox="0 0 20.684 30.323">
  <path id="Consultant" d="M17.977,29.261q-1.92-.644-3.836-1.3c-.34-.115-.693-.2-1.021-.343a1.292,1.292,0,0,0-1,0c-1.535.52-3.08,1.011-4.617,1.523a1.367,1.367,0,0,1-.909-.005C4.864,28.558,3.131,27.983,1.4,27.4c-.372-.125-.44-.223-.441-.62s0-.787,0-1.181c0-.338.166-.508.469-.507s.456.175.461.516c0,.266-.011.533.008.8a.308.308,0,0,0,.147.23c1.47.5,2.944.988,4.418,1.477a.394.394,0,0,0,.1-.008c0-.346,0-.7,0-1.046,0-.465,0-1.093,0-1.795,0-.21,0-.419,0-.628,0-2.206,0-4.847.008-5.578a.338.338,0,0,0-.278-.391c-1.348-.439-2.691-.894-4.036-1.342-.108-.036-.219-.064-.363-.1,0,.88,0,1.725,0,2.569,0,.343-.158.52-.452.527a.426.426,0,0,1-.475-.441c-.007-1.112-.011-2.225,0-3.336,0-.429.277-.587.708-.442,1.7.571,3.4,1.148,5.106,1.709a.9.9,0,0,0,.523,0c1.627-.522,3.245-1.071,4.876-1.582a1.533,1.533,0,0,1,.875-.011c1.756.565,3.5,1.168,5.248,1.756a.519.519,0,0,1,.4.565c-.015.422,0,.846,0,1.269,0,.335-.169.514-.465.514s-.461-.179-.465-.513c0-.276-.007-.552,0-.827a.233.233,0,0,0-.186-.276c-1.439-.474-2.873-.96-4.31-1.441a1.231,1.231,0,0,0-.179-.025v4.046q0,2.524,0,5.048c0,.149-.011.266.189.331,1.431.464,2.856.947,4.283,1.422a1.738,1.738,0,0,0,.2.04V26.019c0-.167,0-.334,0-.5a.464.464,0,1,1,.927,0c.01.629.005,1.259.006,1.889q0,.664,0,1.329c0,.4-.126.588-.4.588A1.038,1.038,0,0,1,17.977,29.261Zm-6.941-11.67c-1.106.368-2.209.742-3.318,1.1-.191.061-.228.154-.227.335.008,1.2.007,7.467.005,8.667,0,.014,0,.028,0,.042,0,.13,0,.263,0,.4.116-.028.206-.043.293-.072,1.382-.46,2.763-.923,4.146-1.38.154-.051.238-.106.238-.3q-.011-4.487-.008-8.975c0-.048-.008-.1-.016-.187Zm7.178,6.98a1.372,1.372,0,0,1-1.38-1.343c0-.186,0-.373,0-.56l-.024,0a5.566,5.566,0,0,1,.1-.9,1.4,1.4,0,0,1,2.728.386c.006.363.008.727,0,1.09a1.364,1.364,0,0,1-1.408,1.33ZM17.776,23.2a.46.46,0,0,0,.916.011,8.209,8.209,0,0,0,0-1.056.423.423,0,0,0-.449-.41.437.437,0,0,0-.463.428c-.017.165,0,.333,0,.5h0C17.772,22.848,17.758,23.026,17.776,23.2ZM1.419,24.571A1.362,1.362,0,0,1,.026,23.215c0-.187,0-.373,0-.56l-.026,0a5.539,5.539,0,0,1,.091-.872A1.367,1.367,0,0,1,1.649,20.8a1.384,1.384,0,0,1,1.176,1.362c0,.354,0,.707,0,1.061a1.365,1.365,0,0,1-1.4,1.346ZM.965,22.183a9.658,9.658,0,0,0,0,1,.441.441,0,0,0,.453.441.448.448,0,0,0,.466-.459c.012-.156,0-.313,0-.47h0c0-.166.01-.334,0-.5a.451.451,0,0,0-.46-.454H1.415A.439.439,0,0,0,.965,22.183Zm15.241-5.4a2.919,2.919,0,0,0-1.71-1.154c-.881-.192-1.774-.329-2.664-.479a.772.772,0,0,0-.275.064l-1.681.414a12.742,12.742,0,0,1-1.5-.333,1.908,1.908,0,0,0-1.042-.063c-.676.134-1.362.217-2.033.372a6.751,6.751,0,0,0-1.021.407c-.053.022-.1.06-.154.081a.532.532,0,0,1-.673-.171c-.123-.245-.031-.475.251-.666a5.084,5.084,0,0,1,2.226-.717c.49-.067.979-.147,1.464-.242a.3.3,0,0,0,.182-.221c.017-.462.02-.925,0-1.387a.493.493,0,0,0-.184-.3,4.442,4.442,0,0,1-1.6-2.663c-.065-.348.071-.6.362-.652.25-.045.457.141.525.471a3.24,3.24,0,0,0,6.366.174c.023-.106.035-.214.062-.318a.425.425,0,0,1,.485-.33.393.393,0,0,1,.392.429,2.616,2.616,0,0,1-.1.607,4.109,4.109,0,0,1-1.519,2.277.441.441,0,0,0-.2.414c.011.422.008.846,0,1.269,0,.164.056.214.214.236.749.107,1.5.2,2.242.356a3.65,3.65,0,0,1,2.289,1.508.628.628,0,0,1,.129.454.574.574,0,0,1-.343.373.284.284,0,0,1-.045,0A.64.64,0,0,1,16.205,16.781Zm-7.77-2.545a.255.255,0,0,0,.144.179,3.488,3.488,0,0,0,2.5,0,.26.26,0,0,0,.146-.177c.014-.4.007-.8.007-1.229A4.492,4.492,0,0,1,8.428,13C8.428,13.435,8.422,13.836,8.435,14.236ZM9.42,8.511H5.22a1.772,1.772,0,0,1-.4-.044A1.411,1.411,0,0,1,3.768,6.83a1.469,1.469,0,0,1,.773-1.051A.37.37,0,0,0,4.7,5.544a5.106,5.106,0,0,1,2.7-3.972,2.784,2.784,0,0,1,.3-.15q.217-.1.45-.187A.57.57,0,0,0,8.427.853a2.666,2.666,0,0,1,0-.371A.372.372,0,0,1,8.635.063,1.756,1.756,0,0,1,9.369.006c.244,0,.489,0,.733,0h.178a1.807,1.807,0,0,1,.728.054.371.371,0,0,1,.213.422,2.636,2.636,0,0,1,0,.371.57.57,0,0,0,.281.382q.227.085.439.182a2.8,2.8,0,0,1,.327.162A5.106,5.106,0,0,1,14.95,5.544a.369.369,0,0,0,.158.236,1.472,1.472,0,0,1,.774,1.053A1.414,1.414,0,0,1,14.862,8.46a1.746,1.746,0,0,1-.433.052ZM8.7,7.566h5.686c.452,0,.684-.314.519-.681a.447.447,0,0,0-.1-.141.632.632,0,0,0-.4-.123l-.948,0H6.589l-1.35,0a.632.632,0,0,0-.4.123.447.447,0,0,0-.1.141c-.165.367.067.679.519.68l1.422,0ZM5.707,5.706h8.234a2.449,2.449,0,0,0-.043-.4c-.112-.333-.218-.654-.34-.966A3.969,3.969,0,0,0,11.23,2.23c0,.662,0,1.3,0,1.931,0,.342-.119.525-.364.562a.639.639,0,0,1-.1.009c-.317.006-.479-.179-.479-.559q0-1.446,0-2.893V.974H9.362c0,.1,0,.2,0,.305q0,1.447,0,2.893c0,.38-.161.565-.479.56a.639.639,0,0,1-.1-.01c-.244-.038-.362-.22-.363-.561,0-.635,0-1.269,0-1.931A3.97,3.97,0,0,0,6.087,4.342c-.12.31-.226.628-.336.958A2.463,2.463,0,0,0,5.707,5.706Z" transform="translate(0.546 0.498)" fill="#1e428a" stroke="rgba(0,0,0,0)" stroke-miterlimit="10" stroke-width="1"/>
</svg>
