<svg xmlns="http://www.w3.org/2000/svg" width="33.684" height="49.321" viewBox="0 0 33.684 49.321">
  <path id="Consultant" d="M29.877,48.221q-3.191-1.061-6.376-2.135c-.565-.189-1.152-.328-1.7-.566a2.164,2.164,0,0,0-1.666.005c-2.552.856-5.118,1.667-7.673,2.51a2.29,2.29,0,0,1-1.511-.009c-2.873-.965-5.752-1.912-8.629-2.866-.618-.205-.731-.367-.733-1.022s-.006-1.3,0-1.946c.006-.557.275-.838.78-.835s.758.288.765.85c.005.438-.018.878.013,1.313A.507.507,0,0,0,3.4,43.9c2.444.824,4.894,1.628,7.343,2.434a.66.66,0,0,0,.167-.014c0-.57,0-1.147,0-1.724,0-.766,0-1.8,0-2.957-.007-.346-.007-.69,0-1.035,0-3.635,0-7.988.013-9.193a.558.558,0,0,0-.463-.644c-2.24-.724-4.472-1.472-6.708-2.211-.18-.06-.364-.105-.6-.173,0,1.45,0,2.842,0,4.233,0,.565-.263.858-.751.868a.706.706,0,0,1-.789-.727c-.011-1.833-.019-3.666,0-5.5.008-.706.46-.967,1.177-.729,2.827.94,5.651,1.892,8.486,2.816a1.511,1.511,0,0,0,.869,0c2.7-.86,5.393-1.765,8.1-2.607a2.568,2.568,0,0,1,1.454-.019c2.918.932,5.817,1.924,8.722,2.894a.856.856,0,0,1,.672.932c-.025.7,0,1.394-.007,2.091-.005.552-.282.846-.773.848s-.766-.294-.773-.845c-.006-.455-.011-.909,0-1.362a.385.385,0,0,0-.309-.455c-2.391-.781-4.775-1.581-7.163-2.374a2.061,2.061,0,0,0-.3-.041v6.667q0,4.16,0,8.319c0,.245-.019.438.314.545,2.378.765,4.746,1.561,7.119,2.344a2.911,2.911,0,0,0,.333.066V42.878c0-.275-.008-.551,0-.826a.77.77,0,1,1,1.541,0c.016,1.037.009,2.075.01,3.113q0,1.095,0,2.19c0,.654-.21.969-.666.969A1.738,1.738,0,0,1,29.877,48.221ZM18.341,28.989c-1.837.606-3.671,1.222-5.514,1.809-.317.1-.379.254-.377.552.013,1.978.011,12.3.009,14.283,0,.024,0,.046,0,.069,0,.214,0,.433,0,.66.192-.046.343-.071.486-.119,2.3-.758,4.591-1.521,6.89-2.274.256-.084.4-.175.4-.493q-.019-7.394-.014-14.79c0-.079-.013-.159-.026-.308Zm11.929,11.5a2.272,2.272,0,0,1-2.293-2.212c-.008-.307,0-.615,0-.923l-.04,0a9.1,9.1,0,0,1,.16-1.485,2.323,2.323,0,0,1,4.534.636c.01.6.013,1.2,0,1.8a2.258,2.258,0,0,1-2.34,2.192Zm-.728-2.259a.765.765,0,0,0,1.522.018,13.415,13.415,0,0,0,0-1.74.7.7,0,0,0-.746-.676.724.724,0,0,0-.769.7,8.2,8.2,0,0,0,0,.823h0C29.536,37.652,29.514,37.945,29.542,38.233ZM2.358,40.491A2.254,2.254,0,0,1,.044,38.257c-.007-.308,0-.615,0-.923L0,37.33a9.054,9.054,0,0,1,.151-1.437,2.272,2.272,0,0,1,2.59-1.611A2.287,2.287,0,0,1,4.7,36.526c.006.583.008,1.166-.005,1.748a2.26,2.26,0,0,1-2.329,2.217ZM1.6,36.556a15.781,15.781,0,0,0,0,1.645.73.73,0,0,0,.753.727.742.742,0,0,0,.774-.756c.02-.257,0-.516,0-.775h0c0-.274.016-.55,0-.823a.747.747,0,0,0-.764-.749H2.352A.727.727,0,0,0,1.6,36.556Zm25.329-8.9a4.853,4.853,0,0,0-2.842-1.9c-1.464-.317-2.949-.542-4.427-.79a1.293,1.293,0,0,0-.458.105l-2.794.682a21.331,21.331,0,0,1-2.5-.548,3.2,3.2,0,0,0-1.732-.1c-1.123.222-2.264.358-3.378.612a11.276,11.276,0,0,0-1.7.671c-.089.036-.166.1-.256.133a.889.889,0,0,1-1.119-.282c-.2-.4-.051-.783.418-1.1a8.5,8.5,0,0,1,3.7-1.182c.814-.11,1.627-.242,2.434-.4a.5.5,0,0,0,.3-.364c.029-.761.033-1.524,0-2.285a.811.811,0,0,0-.306-.488,7.31,7.31,0,0,1-2.654-4.389c-.108-.573.119-.988.6-1.074.415-.074.759.233.872.776a5.394,5.394,0,0,0,10.581.287c.038-.174.058-.352.1-.523a.706.706,0,0,1,.807-.543.65.65,0,0,1,.652.707,4.278,4.278,0,0,1-.165,1,6.769,6.769,0,0,1-2.525,3.752.725.725,0,0,0-.334.682c.019.7.014,1.395,0,2.091-.007.27.093.352.355.389,1.244.177,2.5.333,3.727.586a6.069,6.069,0,0,1,3.8,2.485,1.029,1.029,0,0,1,.215.747.95.95,0,0,1-.569.615.475.475,0,0,1-.075.006A1.067,1.067,0,0,1,26.932,27.654ZM14.019,23.459a.421.421,0,0,0,.239.294,5.843,5.843,0,0,0,4.154,0,.429.429,0,0,0,.243-.292c.023-.657.011-1.316.011-2.025a7.527,7.527,0,0,1-4.659-.01C14.008,22.14,14,22.8,14.019,23.459Zm1.636-9.435H8.675a2.969,2.969,0,0,1-.666-.073,2.206,2.206,0,0,1-1.726-1.728,2.18,2.18,0,0,1-.02-.97A2.422,2.422,0,0,1,7.546,9.524a.609.609,0,0,0,.263-.388,8.415,8.415,0,0,1,4.48-6.546,4.644,4.644,0,0,1,.5-.248q.361-.165.747-.308a.939.939,0,0,0,.464-.628,4.356,4.356,0,0,1,0-.612A.612.612,0,0,1,14.352.1,2.943,2.943,0,0,1,15.571.009c.406.006.812.005,1.218,0h.3A3.028,3.028,0,0,1,18.294.1a.61.61,0,0,1,.354.695,4.308,4.308,0,0,1,0,.612.94.94,0,0,0,.467.63q.377.14.729.3a4.661,4.661,0,0,1,.544.267,8.414,8.414,0,0,1,4.456,6.533.608.608,0,0,0,.263.388,2.427,2.427,0,0,1,1.286,1.736,2.179,2.179,0,0,1-.021.965A2.2,2.2,0,0,1,24.7,13.941a2.926,2.926,0,0,1-.72.085Zm-1.2-1.556h9.45c.752,0,1.137-.517.863-1.122a.737.737,0,0,0-.16-.232,1.057,1.057,0,0,0-.66-.2l-1.576,0H10.95l-2.244,0a1.056,1.056,0,0,0-.66.2.737.737,0,0,0-.16.232c-.274.6.111,1.119.863,1.121l2.363,0ZM9.485,9.4H23.17a4,4,0,0,0-.072-.667c-.185-.549-.362-1.077-.564-1.592a6.577,6.577,0,0,0-3.87-3.47c0,1.091,0,2.136,0,3.181,0,.564-.2.865-.606.926a1.072,1.072,0,0,1-.169.016c-.526.01-.8-.3-.8-.922q0-2.383,0-4.767V1.6H15.56c0,.162,0,.333,0,.5q0,2.385,0,4.767c0,.626-.268.932-.8.923a1.071,1.071,0,0,1-.171-.016c-.4-.062-.6-.362-.6-.924,0-1.046,0-2.092,0-3.183a6.58,6.58,0,0,0-3.876,3.481c-.2.51-.375,1.034-.559,1.579A4.025,4.025,0,0,0,9.485,9.4Z" transform="translate(0.546 0.497)" fill="#333" stroke="rgba(0,0,0,0)" stroke-width="1"/>
</svg>
