<svg id="Contractor" xmlns="http://www.w3.org/2000/svg" width="39.79" height="41.705" viewBox="0 0 39.79 41.705">
  <path id="Path_143" data-name="Path 143" d="M1464.433-474.426c-.609-.484-.667-.7-.38-1.428.727-1.855,1.385-3.74,2.2-5.556a8.218,8.218,0,0,1,7.578-5.143c1.072-.054,2.148-.01,3.223-.016.779,0,1.059-.344,1.123-1.121a4.387,4.387,0,0,0-.976-3.186,16.7,16.7,0,0,1-3.394-9.547c-.01-.282,0-.564,0-.894-.568,0-1.122,0-1.675,0-.609,0-.989-.325-.992-.835s.379-.847.978-.855c.2,0,.4,0,.573,0,.111-.828.156-1.63.332-2.4a10.8,10.8,0,0,1,6.74-7.95.956.956,0,0,0,.712-.785,2.532,2.532,0,0,1,2.439-1.974,11.737,11.737,0,0,1,2.233.086,2.376,2.376,0,0,1,1.969,1.983.808.808,0,0,0,.592.649,10.845,10.845,0,0,1,7.015,9.049c.03.215.052.431.063.648s0,.429,0,.7c.276,0,.516-.007.756,0a.85.85,0,0,1,.882.868.844.844,0,0,1-.885.819c-.582.01-1.164,0-1.774,0,0,.357.015.678,0,1a17.646,17.646,0,0,1-4.078,10.381,1.105,1.105,0,0,0-.288.8c.025.515,0,1.031.008,1.547a.927.927,0,0,0,1.011,1.016c.993.012,1.986,0,2.979.005a8.49,8.49,0,0,1,8.094,5.5c.684,1.711,1.344,3.432,2.014,5.149.308.79.239,1.017-.455,1.487h-.408c-.219-.242-.527-.447-.643-.731-.706-1.73-1.357-3.482-2.046-5.219a6.565,6.565,0,0,0-5.36-4.4,29.277,29.277,0,0,0-3.907-.107.626.626,0,0,0-.318.158c-1.832,1.339-3.664,2.676-5.482,4.031a.76.76,0,0,0-.261.529c-.021,1.547-.031,3.095,0,4.642a1.069,1.069,0,0,1-.595,1.091h-.49a1.106,1.106,0,0,1-.588-1.137c.031-1.52.006-3.04.016-4.561a.622.622,0,0,0-.276-.578c-1.824-1.325-3.638-2.665-5.463-3.991a.957.957,0,0,0-.516-.177c-.965-.013-1.934-.042-2.9.01a6.565,6.565,0,0,0-6.012,4.1c-.8,1.79-1.432,3.656-2.171,5.475a4.321,4.321,0,0,1-.625.857Zm11.053-26.88c0,.406-.018.784,0,1.16a15.219,15.219,0,0,0,1.412,5.436,13.414,13.414,0,0,0,3.636,5.039,4.646,4.646,0,0,0,6.066.307,10.017,10.017,0,0,0,1.836-1.72,16.414,16.414,0,0,0,3.562-8.171,19.938,19.938,0,0,0,.1-2.051Zm11.749-10.393c0,.18,0,.313,0,.446,0,.828,0,1.656,0,2.484a1.478,1.478,0,0,1-.05.44.891.891,0,0,1-.953.6.882.882,0,0,1-.757-.915c-.006-1.561,0-3.121,0-4.682a.967.967,0,0,0-1.088-1.075c-.367,0-.734,0-1.1,0-.849,0-1.184.335-1.185,1.184,0,1.506,0,3.013,0,4.519a.9.9,0,0,1-.873.972.9.9,0,0,1-.889-.961c-.007-.855,0-1.71,0-2.565,0-.141-.013-.282-.022-.474a9.194,9.194,0,0,0-4.816,4.443,8.862,8.862,0,0,0-.974,4.211h18.491A9.087,9.087,0,0,0,1487.235-511.7Zm-8.269,26.152a1.092,1.092,0,0,0,.125.134c1.5,1.1,3,2.2,4.494,3.313.2.149.316.05.46-.056q1.427-1.052,2.856-2.1l1.727-1.272a3,3,0,0,1-.92-2.544,6.376,6.376,0,0,1-7.853,0A2.943,2.943,0,0,1,1478.966-485.547Z" transform="translate(-1463.887 516.131)" fill="#333"/>
</svg>
