<svg id="Contractor" xmlns="http://www.w3.org/2000/svg" width="24" height="25.155" viewBox="0 0 24 25.155">
  <path id="Path_143" data-name="Path 143" d="M1464.217-490.976c-.367-.292-.4-.42-.229-.861.438-1.119.835-2.256,1.326-3.351a4.957,4.957,0,0,1,4.571-3.1c.647-.033,1.3-.006,1.944-.01.47,0,.639-.207.677-.676a2.646,2.646,0,0,0-.589-1.922,10.076,10.076,0,0,1-2.047-5.759c-.006-.17,0-.34,0-.539-.343,0-.677,0-1.01,0-.368,0-.6-.2-.6-.5s.229-.511.59-.516c.121,0,.243,0,.345,0,.067-.5.094-.983.2-1.449a6.517,6.517,0,0,1,4.066-4.8.576.576,0,0,0,.429-.473,1.527,1.527,0,0,1,1.471-1.191,7.08,7.08,0,0,1,1.347.052,1.433,1.433,0,0,1,1.187,1.2.488.488,0,0,0,.357.392,6.541,6.541,0,0,1,4.231,5.458c.018.129.032.26.038.391s0,.259,0,.42c.167,0,.312,0,.456,0a.513.513,0,0,1,.532.523.509.509,0,0,1-.534.494c-.351.006-.7,0-1.07,0,0,.215.009.409,0,.6a10.643,10.643,0,0,1-2.46,6.262.667.667,0,0,0-.174.484c.015.31,0,.622,0,.933a.559.559,0,0,0,.61.613c.6.007,1.2,0,1.8,0a5.121,5.121,0,0,1,4.882,3.32c.412,1.032.81,2.07,1.214,3.106.186.476.144.613-.274.9h-.246c-.132-.146-.318-.27-.388-.441-.426-1.044-.819-2.1-1.234-3.148a3.96,3.96,0,0,0-3.233-2.651,17.657,17.657,0,0,0-2.357-.064.377.377,0,0,0-.192.1c-1.1.807-2.21,1.614-3.307,2.432a.459.459,0,0,0-.157.319c-.012.933-.019,1.867,0,2.8a.645.645,0,0,1-.359.658h-.3a.667.667,0,0,1-.354-.686c.019-.917,0-1.834.01-2.751a.376.376,0,0,0-.167-.349c-1.1-.8-2.194-1.608-3.295-2.407a.578.578,0,0,0-.311-.107c-.582-.008-1.166-.025-1.747.006a3.96,3.96,0,0,0-3.627,2.474c-.483,1.08-.864,2.2-1.309,3.3a2.608,2.608,0,0,1-.377.517Zm6.667-16.213c0,.245-.011.473,0,.7a9.178,9.178,0,0,0,.852,3.279,8.092,8.092,0,0,0,2.193,3.039,2.8,2.8,0,0,0,3.659.185,6.039,6.039,0,0,0,1.107-1.037,9.9,9.9,0,0,0,2.148-4.928,12.047,12.047,0,0,0,.062-1.237Zm7.086-6.269c0,.108,0,.189,0,.269,0,.5,0,1,0,1.5a.892.892,0,0,1-.03.265.537.537,0,0,1-.575.364.532.532,0,0,1-.456-.552c0-.941,0-1.883,0-2.824a.583.583,0,0,0-.656-.649c-.222,0-.443,0-.664,0-.512,0-.714.2-.715.714,0,.909,0,1.817,0,2.726a.541.541,0,0,1-.526.586.543.543,0,0,1-.536-.579c0-.516,0-1.031,0-1.547,0-.085-.008-.17-.013-.286a5.545,5.545,0,0,0-2.9,2.68,5.344,5.344,0,0,0-.588,2.54h11.153A5.481,5.481,0,0,0,1477.97-513.458Zm-4.988,15.774a.662.662,0,0,0,.075.081c.9.666,1.81,1.328,2.711,2,.121.09.191.03.277-.034l1.723-1.267,1.042-.767a1.806,1.806,0,0,1-.555-1.534,3.846,3.846,0,0,1-4.736,0A1.775,1.775,0,0,1,1472.982-497.684Z" transform="translate(-1463.887 516.131)" fill="#1e428a"/>
</svg>
