<svg xmlns="http://www.w3.org/2000/svg" width="12.92" height="12.922" viewBox="0 0 12.92 12.922">
  <g id="Group_10211" data-name="Group 10211" transform="translate(-1694.081 -770)">
    <g id="Group_7149" data-name="Group 7149" transform="translate(1694.082 770)">
      <path id="Path_8021" data-name="Path 8021" d="M2988.754,793.967h4.989a.476.476,0,0,1,.548.544q0,4.989,0,9.978c0,.381-.172.552-.556.552h-9.977a.473.473,0,0,1-.541-.537v-9.978c0-.392.168-.559.563-.559h4.974Zm4.607.933h-9.209v9.211h9.209Z" transform="translate(-2983.218 -792.119)" fill="#333"/>
      <path id="Path_8022" data-name="Path 8022" d="M3057.267,730.95h-9.585a.955.955,0,0,1-.2-.012.459.459,0,0,1,.073-.908c.24-.008.481,0,.721,0h9.356c.393,0,.558.167.558.562q0,4.967,0,9.934a1.1,1.1,0,0,1-.009.2.46.46,0,0,1-.913-.092c0-.721,0-1.442,0-2.163v-7.52Z" transform="translate(-3045.273 -730.025)" fill="#333"/>
      <path id="Path_8023" data-name="Path 8023" d="M3066.808,893.057v.168c0,.543,0,1.086,0,1.629a.463.463,0,1,1-.923.005q0-.814,0-1.629v-.172h-2.254a.464.464,0,1,1,0-.923h2.251c0-.059,0-.11,0-.161q0-.814,0-1.629a.464.464,0,1,1,.923-.006c0,.591,0,1.181,0,1.794h2.247a.465.465,0,1,1,0,.923h-2.244Z" transform="translate(-3060.811 -885.211)" fill="#333"/>
    </g>
  </g>
</svg>
