<svg xmlns="http://www.w3.org/2000/svg" width="53.512" height="36.942" viewBox="0 0 53.512 36.942">
  <g id="Crown" transform="translate(-1099.244 -262.058)">
    <g id="crown_1_" data-name="crown (1)" transform="translate(1102 185.187)">
      <path id="Path_9490" data-name="Path 9490" d="M47.461,90.339a1.406,1.406,0,0,0-1.57-.11L34.219,96.978,25.212,81.692a1.406,1.406,0,0,0-2.423,0L13.782,96.978,2.11,90.229A1.406,1.406,0,0,0,.055,91.836L6.09,112.8a1.406,1.406,0,0,0,1.351,1.017H40.559A1.406,1.406,0,0,0,41.91,112.8l6.036-20.96A1.406,1.406,0,0,0,47.461,90.339Z" transform="translate(0)" fill="#ffa73b"/>
      <path id="Path_9491" data-name="Path 9491" d="M279.46,90.339a1.406,1.406,0,0,0-1.57-.11l-11.672,6.748-9.007-15.285A1.406,1.406,0,0,0,256,81v32.813h16.559a1.406,1.406,0,0,0,1.351-1.017l6.036-20.96A1.406,1.406,0,0,0,279.46,90.339Z" transform="translate(-232)" fill="#ffc02e"/>
      <path id="Path_9492" data-name="Path 9492" d="M19.781,263.241l13.272,7.673,7.964-6.759a1.408,1.408,0,0,1,1.821,0l7.964,6.759,13.272-7.673-1.122,3.9-11.6,6.706a1.4,1.4,0,0,1-1.614-.145l-7.811-6.627L34.117,273.7a1.405,1.405,0,0,1-1.614.145l-11.6-6.705h0Z" transform="translate(-17.927 -165.155)" fill="#f8eb76"/>
      <path id="Path_9493" data-name="Path 9493" d="M264.876,270.913l-7.964-6.759a1.4,1.4,0,0,0-.91-.334v3.251l7.811,6.627a1.4,1.4,0,0,0,1.614.145l11.6-6.706,1.122-3.9Z" transform="translate(-232.001 -165.155)" fill="#fad557"/>
    </g>
    <path id="Path_9494" data-name="Path 9494" d="M2.756,37.6a2.756,2.756,0,1,0,2.755,2.756A2.759,2.759,0,0,0,2.756,37.6Zm0,0" transform="translate(1147.246 233.972)" fill="#ffc02e"/>
    <path id="Path_9495" data-name="Path 9495" d="M2.756,37.6a2.756,2.756,0,1,0,2.755,2.756A2.759,2.759,0,0,0,2.756,37.6Zm0,0" transform="translate(1123.245 224.46)" fill="#ffc02e"/>
    <path id="Path_9496" data-name="Path 9496" d="M2.756,37.6a2.756,2.756,0,1,0,2.755,2.756A2.759,2.759,0,0,0,2.756,37.6Zm0,0" transform="translate(1099.244 233.972)" fill="#ffc02e"/>
  </g>
</svg>
