<svg xmlns="http://www.w3.org/2000/svg" width="15.87" height="15.87" viewBox="0 0 15.87 15.87">
  <g id="dashboard" transform="translate(-1.15 -1.15)">
    <path id="Subtraction_23" data-name="Subtraction 23" d="M-2246.354-5254.813a3.529,3.529,0,0,1-3.525-3.525,3.529,3.529,0,0,1,3.525-3.525,3.529,3.529,0,0,1,3.524,3.525A3.535,3.535,0,0,1-2246.354-5254.813Zm0-5.88a2.358,2.358,0,0,0-2.356,2.354,2.358,2.358,0,0,0,2.356,2.354,2.357,2.357,0,0,0,2.355-2.354A2.357,2.357,0,0,0-2246.354-5260.693Zm-5.88,5.88h-5.88a.587.587,0,0,1-.586-.586v-5.879a.587.587,0,0,1,.586-.586h5.88a.586.586,0,0,1,.585.586v5.879A.586.586,0,0,1-2252.234-5254.813Zm-5.3-5.88v4.709h4.709v-4.709Zm14.115-2.939h-5.88a.586.586,0,0,1-.585-.586v-5.879a.586.586,0,0,1,.585-.586h5.88a.586.586,0,0,1,.585.586v5.879A.586.586,0,0,1-2243.415-5263.632Zm-5.3-5.881v4.71H-2244v-4.71Zm-3.524,5.881h-5.88a.587.587,0,0,1-.586-.586v-5.879a.587.587,0,0,1,.586-.586h5.88a.586.586,0,0,1,.585.586v5.879A.586.586,0,0,1-2252.234-5263.632Zm-5.3-5.881v4.71h4.709v-4.71Z" transform="translate(2259.851 5271.833)" fill="#898989"/>
  </g>
</svg>
