<svg xmlns="http://www.w3.org/2000/svg" width="10.244" height="11" viewBox="0 0 10.244 11">
  <g id="Delete" transform="translate(521.216 -101.635)">
    <path id="Path_7770" data-name="Path 7770" d="M-520.119,166.408h-.684a.373.373,0,0,1-.413-.362.371.371,0,0,1,.415-.371h9.419a.369.369,0,0,1,.387.489.364.364,0,0,1-.352.243c-.236,0-.472,0-.723,0,0,.055,0,.1,0,.15q0,3.648,0,7.3a1.312,1.312,0,0,1-.416,1,1.225,1.225,0,0,1-.859.346q-2.749,0-5.5,0a1.284,1.284,0,0,1-1.277-1.322q0-2.228,0-4.456,0-1.46,0-2.921Zm.732,0v.1q0,3.682,0,7.365a.555.555,0,0,0,.592.6h5.372a.563.563,0,0,0,.62-.625q0-3.654,0-7.308v-.127Z" transform="translate(0 -62.573)" fill="#898989"/>
    <path id="Path_7771" data-name="Path 7771" d="M-375.637,102.369h-1.406a.376.376,0,0,1-.423-.364.372.372,0,0,1,.417-.369h2.857a.364.364,0,0,1,.369.268.344.344,0,0,1-.149.4.5.5,0,0,1-.237.064c-.476.006-.952,0-1.429,0Z" transform="translate(-140.458)" fill="#898989"/>
    <path id="Path_7772" data-name="Path 7772" d="M-366.575,264.227q0-1.094,0-2.188a.365.365,0,0,1,.3-.368.361.361,0,0,1,.4.218.491.491,0,0,1,.033.178q0,2.171,0,4.342a.369.369,0,0,1-.363.39.368.368,0,0,1-.368-.4Q-366.576,265.315-366.575,264.227Z" transform="translate(-151.099 -156.365)" fill="#898989"/>
    <path id="Path_7773" data-name="Path 7773" d="M-259.905,264.222q0,1.088,0,2.176a.36.36,0,0,1-.194.338.339.339,0,0,1-.359-.009.375.375,0,0,1-.179-.348q0-1.048,0-2.1,0-1.117,0-2.234a.368.368,0,0,1,.5-.375.37.37,0,0,1,.233.371q0,1.088,0,2.176Z" transform="translate(-254.611 -156.348)" fill="#898989"/>
  </g>
</svg>
