<svg xmlns="http://www.w3.org/2000/svg" width="33.929" height="40.758" viewBox="0 0 33.929 40.758">
  <path id="Architect_project" data-name="Architect project" d="M1.5,40.758h0l-1.5,0c.1-.914.2-1.723.3-2.472a10.213,10.213,0,0,1,1.078-3.29,11.934,11.934,0,0,1,2.083-2.838,13.013,13.013,0,0,1,6.266-3.5c.389-.086.806-.168,1.175-.241l.282-.056.152-.026.289-.057.21-.041.292-.057.105-.023-.083-.066a10.542,10.542,0,0,1-2.38-2.63A13.6,13.6,0,0,1,8.38,22.4a2.635,2.635,0,0,0-1.773-1.266,2.067,2.067,0,0,1-1.454-.867,2.839,2.839,0,0,1-.267-1.625c.166-3.846.2-7.313.115-10.6A5.02,5.02,0,0,1,6.688,3.929,16.346,16.346,0,0,1,11.29.982,12.466,12.466,0,0,1,16.076,0c4.2,0,8,2.263,10.7,6.372a2.567,2.567,0,0,1,.277,1.3c.027,1.243.046,2.426.069,3.925l.006.374c.028,1.961.067,4.647.158,7.235a1.484,1.484,0,0,1-1.391,1.767c-1.617.251-2.251,1.224-2.706,2.607a16.871,16.871,0,0,1-1.61,3.185l-.021.036-.02.033-.03.051-.027.045c-.243.411-.521.877-.776,1.345l-.033.063.069.01.073.013.015,0h0l.161.03.026,0c.4.076.736.128,1.035.161A12.8,12.8,0,0,1,33.49,38.513c.165.727.309,1.46.438,2.242H32.343c-.032-.156-.069-.329-.118-.547-.869-3.836-2.443-6.518-4.812-8.2-2.056-1.459-4.764-2.169-8.277-2.169-.875,0-1.8.042-2.841.128l-.05.007,0,.049a20.882,20.882,0,0,1,.042,2.849v.049a11.446,11.446,0,0,0,.756,5.458l.036.073.05-.062a2.956,2.956,0,0,0,.673-1.678c.026-.686.026-1.4.022-2.066,0-.752,0-1.53.036-2.294.011-.188.209-.39.383-.567l.007-.006.042-.043.01-.011c.052-.054.105-.11.152-.167.047.062.1.119.168.2l.007.01a.964.964,0,0,1,.323.521c.009.451.025.866.037,1.168l0,.061v.037a24.488,24.488,0,0,1-.113,4.476,3.373,3.373,0,0,1-1.109,1.6c-.208.208-.446.448-.647.687-.13-.115-.264-.224-.425-.353l-.093-.076-.006,0a5.94,5.94,0,0,1-1.177-1.14,3.352,3.352,0,0,1-.386-1.734c-.03-1.58-.026-3.092-.02-4.9v-1.04c0-.122,0-.246,0-.371,0-.255,0-.516,0-.771V29.88l-.046,0a16.005,16.005,0,0,0-1.843-.112,11.974,11.974,0,0,0-7.015,2.093,10.634,10.634,0,0,0-4.044,5.926A21.31,21.31,0,0,0,1.5,40.757ZM9.372,13.993v.053c0,.347,0,.753,0,1.358v.3c.007,1.186.014,2.412-.013,3.672a9.289,9.289,0,0,0,.444,3.092A10.756,10.756,0,0,0,11.2,25.243,6.8,6.8,0,0,0,13.562,27.4a5.82,5.82,0,0,0,2.766.715,5.4,5.4,0,0,0,2.738-.742,5.832,5.832,0,0,0,2.127-2.215,12.943,12.943,0,0,0,1.513-5.1,37.672,37.672,0,0,0,.013-5.25V14.8l-.032-.758,0-.049ZM25.266,14a1.267,1.267,0,0,0-.25.02,1.214,1.214,0,0,0-.676.435,1.525,1.525,0,0,0-.151.845V15.3a32.275,32.275,0,0,0-.06,3.243l0,.211,0,.193,0,.152c0,.225,0,.458,0,.687v.033l.033.013a2.633,2.633,0,0,0,.891.168.767.767,0,0,0,.451-.1c.34-.258.632-.48.666-.808a18.278,18.278,0,0,0,.013-2.456l-.012-.363,0-.067c-.007-.176-.012-.343-.016-.513a3.064,3.064,0,0,0-.24-1.4C25.815,14.05,25.506,14,25.266,14ZM6.6,14.23c-.106,0-.221,0-.35.01l-.046,0v.049c0,.4.006.8.012,1.149v.1c.016.871.032,1.772-.036,2.672a1.669,1.669,0,0,0,.31,1.315,1.761,1.761,0,0,0,1.362.425H7.9l.052,0h.075V19.9c0-.328,0-.714-.006-1.18v-.149c-.01-.973-.02-1.978.022-2.985a1.316,1.316,0,0,0-.273-1.015A1.564,1.564,0,0,0,6.6,14.23Zm15.986-9.5a3.337,3.337,0,0,0-1.144.2l-1.008.375c-.812.3-1.67.621-2.427.9l-.23.086c-3.22,1.2-6.55,2.443-9.919,3.616a2.172,2.172,0,0,0-1.381,1l-.007.01v.025c0,.046,0,.091-.007.136l0,.052c0,.034,0,.069-.006.1l0,.038a8.9,8.9,0,0,0-.011,1.231l0,.046,19.28-.007h.049V12.5c0-.456.007-.967.021-1.52l0-.195v-.01a30.71,30.71,0,0,0-.05-3.128A3.149,3.149,0,0,0,22.586,4.73ZM15.836,1.1h0v.072a12.9,12.9,0,0,0-4.882,1.332A9.266,9.266,0,0,0,7.223,5.4l-.037.051-.009.012-.083.112-.011.014a3.572,3.572,0,0,0-.747,1.5A8.46,8.46,0,0,0,6.227,8.1l-.006.079c-.026.367-.058.769-.1,1.227l-.01.079L22.283,3.349l.092-.033-.082-.053a12.388,12.388,0,0,0-6.385-2.09L15.836,1.1Z" fill="#333"/>
</svg>
