<svg xmlns="http://www.w3.org/2000/svg" width="11.091" height="13.3" viewBox="0 0 11.091 13.3">
  <g id="Group_6808" data-name="Group 6808" transform="translate(0.15 0.15)">
    <path id="Path_8108" data-name="Path 8108" d="M-592,57.934V50.545a3.994,3.994,0,0,1,.306-.392q1.935-1.946,3.88-3.883a3.152,3.152,0,0,1,.359-.27h5.205c.027.01.053.021.08.028a1.214,1.214,0,0,1,.8.606,3.166,3.166,0,0,1,.158.407V57.959c-.01.032-.02.063-.029.1a1.22,1.22,0,0,1-.8.878c-.07.026-.142.045-.214.068h-8.709a.338.338,0,0,0-.057-.024,1.2,1.2,0,0,1-.921-.813C-591.963,58.089-591.979,58.01-592,57.934Zm1.019-6.515c0,.05-.005.083-.005.117q0,3.1,0,6.195c0,.188.071.258.262.258h8.238c.2,0,.265-.07.265-.269q0-5.211,0-10.422c0-.215-.072-.285-.291-.285h-4.063v.172c0,.973.006,1.946-.005,2.92a1.514,1.514,0,0,1-.115.589,1.2,1.2,0,0,1-1.189.726q-1.473,0-2.945,0Zm3.394-3.913-2.876,2.9c.012,0,.053,0,.094,0h2.475c.243,0,.307-.066.307-.311q0-1.231,0-2.462Z" transform="translate(592 -46)" fill="#1e428a" stroke="#1e428a" stroke-width="0.3"/>
  </g>
</svg>
