<svg xmlns="http://www.w3.org/2000/svg" width="11.496" height="19.708" viewBox="0 0 11.496 19.708">
  <path id="Union_427" data-name="Union 427" d="M18285.557-2849.292a.5.5,0,0,1-.5-.5.5.5,0,0,1,.5-.5h10a.5.5,0,0,1,.5.5.5.5,0,0,1-.5.5Zm4.279-3.738-5.1-5.1a.567.567,0,0,1,0-.813.582.582,0,0,1,.813,0l4.119,4.124v-13.61a.573.573,0,0,1,.574-.569.568.568,0,0,1,.574.569v13.61l4.123-4.124a.577.577,0,0,1,.809,0,.574.574,0,0,1,0,.813l-5.107,5.1a.542.542,0,0,1-.4.172A.558.558,0,0,1,18289.836-2853.029Z" transform="translate(-18284.563 2868.999)" fill="#333"/>
</svg>
