<svg xmlns="http://www.w3.org/2000/svg" width="13.376" height="18.712" viewBox="0 0 13.376 18.712">
  <g id="Group_6799" data-name="Group 6799" transform="translate(844.22 -636.215)">
    <path id="Path_8016" data-name="Path 8016" d="M-682.476,788.92v-4.454q0-3.5,0-7.006a.759.759,0,0,0-.748-.839.759.759,0,0,0-.751.835q0,5.565,0,11.129v.337l-1.254-1.438c-.349-.4-.695-.8-1.045-1.2a.77.77,0,0,0-1.117-.137.768.768,0,0,0-.013,1.125q1.781,2.052,3.566,4.1a.751.751,0,0,0,1.227,0q1.786-2.048,3.569-4.1a.784.784,0,0,0,.189-.821.744.744,0,0,0-1.276-.219c-.582.653-1.149,1.319-1.723,1.979C-682.044,788.429-682.239,788.649-682.476,788.92Z" transform="translate(-154.385 -140.406)" fill="#333"/>
    <g id="Rectangle_2826" data-name="Rectangle 2826" transform="translate(-844.12 653.729)" fill="#333" stroke="#333" stroke-width="0.1">
      <rect width="13.176" height="1.098" rx="0.549" stroke="none"/>
      <rect x="-0.05" y="-0.05" width="13.276" height="1.198" rx="0.599" fill="none"/>
    </g>
  </g>
</svg>
