<svg xmlns="http://www.w3.org/2000/svg" width="378.398" height="379.144" viewBox="0 0 378.398 379.144">
  <g id="Group_1421" data-name="Group 1421" transform="translate(-659.002 -2125.8)">
    <path id="path0" d="M78.944,9.2a41.707,41.707,0,0,1-4.4,1.04A11.981,11.981,0,0,0,70.72,11.4,4.885,4.885,0,0,1,68.795,12.4a4.218,4.218,0,0,0-2.034,1.27,1.339,1.339,0,0,1-.966.728c-.317,0-.871.45-1.232,1s-.9,1-1.209,1-.554.174-.554.386A4.933,4.933,0,0,1,61.6,18.4a4.4,4.4,0,0,0-1.2,1.752,2.361,2.361,0,0,1-.8,1.25,5.789,5.789,0,0,0-1.237,2.362,7.123,7.123,0,0,1-1.1,2.378c-.669.748-1.313,186.119-.66,189.758l.233,1.3h5.135c4.988,0,5.143-.026,5.377-.9.133-.5.244-42.5.247-93.344l0-92.443,1.188-2.226A13.064,13.064,0,0,1,77.8,21.145c2.674-.7,7.036-.732,97.131-.738l94.331-.007,1.169,1.169,1.169,1.169.013,18.531c.014,21.187.3,24.557,2.384,28.531,2.331,4.437,5.641,8.338,8.342,9.831.8.445,1.911,1.056,2.461,1.358s2.1,1.014,3.45,1.581l2.45,1.03h21.25c20.717,0,21.27.02,22.05.8,1.719,1.719,1.118,62.4-.618,62.4-.269,0-.586.373-.706.83a1.586,1.586,0,0,1-1.009,1.037,1.549,1.549,0,0,0-1,1,1.549,1.549,0,0,1-1,1,1.549,1.549,0,0,0-1,1,1.549,1.549,0,0,1-1,1,1.549,1.549,0,0,0-1,1,1.549,1.549,0,0,1-1,1,1.549,1.549,0,0,0-1,1,1.549,1.549,0,0,1-1,1,1.549,1.549,0,0,0-1,1,1.549,1.549,0,0,1-1,1,1.549,1.549,0,0,0-1,1,1.549,1.549,0,0,1-1,1,1.549,1.549,0,0,0-1,1,1.549,1.549,0,0,1-1,1,1.549,1.549,0,0,0-1,1,1.549,1.549,0,0,1-1,1,1.549,1.549,0,0,0-1,1,1.549,1.549,0,0,1-1,1,1.549,1.549,0,0,0-1,1,1.549,1.549,0,0,1-1,1,1.549,1.549,0,0,0-1,1,1.549,1.549,0,0,1-1,1,1.549,1.549,0,0,0-1,1,1.549,1.549,0,0,1-1,1,1.549,1.549,0,0,0-1,1,1.585,1.585,0,0,1-1.037,1.009c-.457.12-.83.386-.83.592,0,.491-51.041,51.532-51.532,51.532-.206,0-.472.373-.592.83a1.586,1.586,0,0,1-1.009,1.037,1.549,1.549,0,0,0-1,1,1.549,1.549,0,0,1-1,1,1.549,1.549,0,0,0-1,1,1.549,1.549,0,0,1-1,1,1.549,1.549,0,0,0-1,1,1.549,1.549,0,0,1-1,1,1.549,1.549,0,0,0-1,1,1.549,1.549,0,0,1-1,1,1.549,1.549,0,0,0-1,1,1.549,1.549,0,0,1-1,1,1.549,1.549,0,0,0-1,1,1.549,1.549,0,0,1-1,1,1.549,1.549,0,0,0-1,1,1.586,1.586,0,0,1-1.037,1.009c-.457.12-.83.462-.83.761s-.422.821-.938,1.159a5.023,5.023,0,0,0-1.479,2.309,15.169,15.169,0,0,1-1.026,2.495,19.643,19.643,0,0,0-.894,4.667,21.4,21.4,0,0,1-.991,5,21.656,21.656,0,0,0-1,5,21.354,21.354,0,0,1-1.022,5.037,16.027,16.027,0,0,0-.881,4.333,32.08,32.08,0,0,1-.954,5.376c-1.591,5.2,1.6,8.131,7.9,7.248,1.7-.239,3.951-.542,5-.674a15.257,15.257,0,0,0,3.27-.806,25.2,25.2,0,0,1,4.93-.971,25.471,25.471,0,0,0,4.931-.969,27.079,27.079,0,0,1,4.954-1.019c8.947-1.133,4.5,2.569,42.92-35.767L333.24,214.2l.78.944c1.012,1.226,1.252,83.967.245,84.8-.386.321-18.365.474-64.572.549-60.995.1-64.071.139-64.765.823a12.759,12.759,0,0,1-1.45,1.211c-1.179.8-1.458,3.191-1.468,12.549-.01,8.8-.018,8.887-.975,10l-.965,1.122-14.735.2-14.735.2v10.8l15.039.2c11.932.159,15.176.313,15.7.749.579.48.661,1.663.661,9.48,0,11.269.277,12.772,2.541,13.8,2.387,1.084,180.349,1.209,183.048.129,2.826-1.131,2.811-.975,2.811-30.053,0-26.688-.109-28.509-1.751-29.383a4.637,4.637,0,0,1-1.316-1.087c-.414-.562-2.749-.648-20.381-.753-13.48-.08-20.081-.257-20.433-.549-.42-.349-.519-9.743-.519-49.451V201.461l19.8-19.881c10.89-10.935,19.8-20.084,19.8-20.331a2.4,2.4,0,0,1,.719-1.168c3.824-3.824,5.173-17.288,2.236-22.316a7.878,7.878,0,0,1-.955-2.1c0-.747-4.844-6.868-5.435-6.868a7.214,7.214,0,0,1-1.626-1.2,5.116,5.116,0,0,0-1.9-1.2,3.719,3.719,0,0,1-1.554-.8,12.591,12.591,0,0,0-4.554-1.409c-1.942-.332-3.983-.756-4.534-.941a3.213,3.213,0,0,0-1.811-.038c-.445.165-2.482.587-4.526.938a13.067,13.067,0,0,0-4.742,1.446,3.731,3.731,0,0,1-1.559.807,5.116,5.116,0,0,0-1.9,1.2,5.7,5.7,0,0,1-1.768,1.2c-.22,0-.7.45-1.056,1s-.848,1-1.083,1a3.842,3.842,0,0,0-1.447.8c-2.152,1.692-2.107,2.264-2.107-27,0-14.8-.111-27.456-.247-28.134-.395-1.976-63.919-65.354-66.847-66.693l-2.13-.974-98.488.025c-54.27.014-98.872.181-99.344.371m216.1,31.6c5.257,5.281,9.774,9.826,10.039,10.1s.714.715,1,.98.735.714,1,1,.714.735,1,1,.735.714,1,1,.714.735,1,1,.735.714,1,1,.714.735,1,1,.735.714,1,1,.714.735,1,1,.735.714,1,1,.714.735,1,1,.735.714,1,1,.714.735,1,1,.739.714,1.008,1c.623.661,1.369,1.407,2.03,2.03.286.269.736.727,1,1.017s.81.831,1.211,1.2c1.28,1.178,1.528,1.957.841,2.644-.9.9-31.011.94-32.571.039-.55-.317-1.432-.77-1.96-1.007-1.217-.545-3.5-2.887-5.046-5.169L283.4,63.87l-.125-15.78c-.069-8.68-.03-16.03.087-16.335.649-1.691,2.149-.529,11.68,9.046M82.3,84.675c-.918.241-1.046,12.235-.143,13.425.5.661,3.964.7,62.763.7h62.231l.246-1.7a67.565,67.565,0,0,0,.124-7.1l-.121-5.4-62.2-.054c-34.21-.03-62.515.028-62.9.129m0,50c-1.086.285-1.058,12.477.031,13.463.675.61,5.593.662,62.61.662H206.82l.4-1.053a38.85,38.85,0,0,0,.29-7.1l-.11-6.047-62.2-.054c-34.21-.03-62.515.028-62.9.129m287.585.488c9.649,2.507,12.134,13.956,4.674,21.537-2.3,2.334-2.608,2.161-10.789-6.008-8.015-8-8.729-9.04-7.283-10.592,2.62-2.812,4.75-4.184,7.614-4.906,1.594-.4,2.9-.741,2.9-.755s1.3.312,2.885.724m-13.866,23.6c7.657,7.686,7.765,7.839,6.629,9.472-.467.67-22.567,22.951-49.113,49.514L265.27,266.039l-1.416-.759c-1.868-1-15.854-15.121-15.854-16.006,0-.38,22.1-22.78,49.376-50.043l49.376-49.356,1.524,1.321c.838.726,4.323,4.129,7.743,7.562M82.1,184.664c-.817.331-.7,12.279.129,13.107.566.566,6.812.629,62.781.629h62.154l.237-1.3a63.042,63.042,0,0,0,.118-6.9l-.119-5.6-62.4-.069c-34.32-.038-62.625.022-62.9.133M13.932,200.649C11.955,201.693,12,199.518,12,294.12c0,94.878-.086,90.955,2.1,92.68l1.267,1,89.216.117c49.069.065,89.992.007,90.941-.128,3.1-.441,4.275-1.946,4.275-5.461v-2.936l-89.31-89.31c-49.121-49.12-89.768-89.483-90.326-89.7a10.848,10.848,0,0,0-6.232.263m12.751,21.9a3.6,3.6,0,0,0,1.217,1.009c.5.26.9.736.9,1.058s.165.586.367.586c.487,0,3.633,3.035,3.633,3.5,0,.2.45.573,1,.823s1,.73,1,1.064.165.609.367.609c.487,0,3.633,3.035,3.633,3.5,0,.2.45.573,1,.823s1,.7,1,1,.45.75,1,1,1,.73,1,1.064.165.609.367.609c.487,0,3.633,3.035,3.633,3.5,0,.2.45.573,1,.823s1,.73,1,1.064.165.609.367.609c.487,0,3.633,3.035,3.633,3.5,0,.2.45.573,1,.823s1,.73,1,1.064.165.609.367.609c.487,0,3.633,3.035,3.633,3.5,0,.2.45.573,1,.823s1,.7,1,1,.45.75,1,1,1,.73,1,1.064.165.609.367.609c.487,0,3.633,3.035,3.633,3.5,0,.2.45.573,1,.823s1,.73,1,1.064.165.609.367.609c.487,0,3.633,3.035,3.633,3.5,0,.2.45.573,1,.823s1,.73,1,1.064.165.609.367.609c.487,0,3.633,3.035,3.633,3.5,0,.2.45.573,1,.823s1,.7,1,1,.45.75,1,1,1,.73,1,1.064.165.609.367.609c.487,0,3.633,3.035,3.633,3.5,0,.2.45.573,1,.823s1,.73,1,1.064.165.609.367.609c.487,0,3.633,3.035,3.633,3.5,0,.2.45.573,1,.823s1,.73,1,1.064.165.609.367.609c.487,0,3.633,3.035,3.633,3.5,0,.2.45.573,1,.823s1,.7,1,1,.45.75,1,1,1,.7,1,1,.45.75,1,1,1,.7,1,1,.45.75,1,1,1,.7,1,1,.45.75,1,1,1,.73,1,1.064.165.609.367.609c.487,0,3.633,3.035,3.633,3.5,0,.2.45.573,1,.823s1,.73,1,1.064.165.609.367.609c.487,0,3.633,3.035,3.633,3.5,0,.2.45.573,1,.823s1,.7,1,1,.45.75,1,1,1,.7,1,1,.45.75,1,1,1,.7,1,1,.45.75,1,1,1,.7,1,1,.45.75,1,1,1,.73,1,1.064.165.609.367.609c.487,0,3.633,3.035,3.633,3.5,0,.2.45.573,1,.823s1,.73,1,1.064.165.609.367.609c.487,0,3.633,3.035,3.633,3.5,0,.2.45.573,1,.823s1,.7,1,1,.45.75,1,1,1,.7,1,1,.45.75,1,1,1,.7,1,1,.45.75,1,1,1,.7,1,1,.45.75,1,1,1,.73,1,1.064.165.609.367.609c.487,0,3.633,3.035,3.633,3.5,0,.2.45.573,1,.823s1,.73,1,1.064.165.609.367.609c.487,0,3.633,3.035,3.633,3.5,0,.2.45.573,1,.823s1,.7,1,1,.45.75,1,1,1,.7,1,1,.45.75,1,1,1,.7,1,1,.45.75,1,1,1,.7,1,1,.45.75,1,1,1,.73,1,1.064.165.609.367.609c.487,0,3.633,3.035,3.633,3.5,0,.2.45.573,1,.823s1,.718,1,1.037a.993.993,0,0,0,.7.813c1.295.429,3.481,3.447,3.022,4.174-.738,1.17-2.825,1.2-77.322,1.209-71.854.005-76.92-.074-77.643-1.215-.861-1.36-.416-152.686.452-153.554.852-.852,1.981-.618,2.674.556m218.025,40.836c4.688,3.089,7.417,7.463,5.292,8.48-4.141,1.982-10.166.878-9.192-1.684a25.689,25.689,0,0,0,.809-3.9c.575-4.056.889-4.351,3.091-2.9m-192.856,26c-1.785,1.662-1.832,2.43-1.842,29.821C50,349.82,49.9,349.192,54.932,349.8c2.974.36,53.151.062,53.868-.319,3.042-1.618,3.708-6.384,1.27-9.083-1.438-1.59-1.649-1.814-2.151-2.279-.285-.264-.735-.714-1-1s-.714-.735-1-1-.735-.714-1-1-.714-.735-1-1-.735-.714-1-1-.714-.735-1-1-.735-.714-1-1-.714-.735-1-1-.735-.714-1-1-.714-.735-1-1-.735-.714-1-1-.714-.735-1-1-.735-.714-1-1-.714-.735-1-1-.735-.714-1-1-.714-.735-1-1-.735-.714-1-1-.714-.735-1-1-.735-.714-1-1-.714-.735-1-1-.735-.714-1-1-.714-.735-1-1-.735-.714-1-1-.714-.735-1-1-.735-.714-1-1-.714-.735-1-1-.735-.714-1-1-.714-.735-1-1-.735-.714-1-1-.714-.735-1-1-.735-.714-1-1-.714-.735-1-1-.735-.714-1-1-.714-.735-1-1-.735-.714-1-1-.714-.735-1-1-.735-.714-1-1-.714-.735-1-1-.735-.714-1-1-.714-.735-1-1-.735-.714-1-1-.714-.735-1-1-.735-.714-1-1-.714-.735-1-1-.735-.714-1-1-.714-.735-1-1-.735-.714-1-1a13.309,13.309,0,0,0-1.059-1,2.674,2.674,0,0,1-.738-.955c-.373-1.119-6.016-.953-7.27.215m25.21,33.956c13.072,13.072,13.7,13.77,13.006,14.4-1.217,1.1-27.86,1-28.454-.112-.737-1.377-.548-26.057.209-27.137.993-1.418.854-1.536,15.239,12.849m148.964-10.924c.7.376.774.882.774,5.554,0,6.459-.026,6.432,6.106,6.432,5.183,0,5.094.087,5.094-5.02,0-7.139.25-7.38,7.642-7.38,6.953,0,6.756-.174,6.763,5.962.009,7.02-.479,6.481,5.745,6.349l5.25-.111.2-5.259c.274-7.164.042-6.941,7.217-6.941,7.408,0,7.323-.068,7.49,6.058.188,6.919-.248,6.343,4.8,6.337,6.488-.009,5.974.474,6.157-5.78.2-6.97-.157-6.615,6.708-6.615,7.3,0,6.987-.274,7.171,6.255.177,6.314-.009,6.115,5.727,6.132,5.531.017,5.529.018,5.529-5.156,0-6.941.3-7.231,7.442-7.231,6.724,0,6.556-.153,6.563,5.962.009,7.02-.479,6.481,5.745,6.349l5.25-.111.2-5.259c.274-7.164.042-6.941,7.217-6.941,7.408,0,7.323-.068,7.49,6.058.188,6.919-.248,6.343,4.8,6.337,6.488-.009,5.974.474,6.157-5.78.2-6.96-.142-6.615,6.61-6.615,7.8,0,6.925-2.46,6.925,19.591v18.764l-.889.622c-.8.559-9.23.623-81.938.623H214.924l-.762-.842c-1-1.11-1.2-36.9-.213-38.1.646-.778,10.7-.983,12.077-.247" transform="translate(647 2117)" fill="#0cdc52" fill-rule="evenodd"/>
  </g>
</svg>