<svg xmlns="http://www.w3.org/2000/svg" width="17.118" height="17.11" viewBox="0 0 17.118 17.11">
  <path id="edit-tools" d="M14.75.641a2.3,2.3,0,0,0-3.243,0l-.812.816-8.64,8.636-.018.019s0,.009-.009.009-.023.027-.032.041,0,0,0,.009-.014.023-.023.037,0,.009-.009.014-.009.023-.014.037,0,0,0,.009L.024,16.032a.451.451,0,0,0,.11.468.461.461,0,0,0,.326.133.541.541,0,0,0,.147-.023l5.76-1.922s0,0,.009,0a.166.166,0,0,0,.041-.019.016.016,0,0,0,.009,0l.046-.028c.014-.009.028-.023.041-.032s.009,0,.009-.009.014-.009.019-.018l9.452-9.452a2.3,2.3,0,0,0,0-3.242ZM6.22,13.611,3.028,10.419,11.017,2.43l3.192,3.192ZM2.579,11.268l2.789,2.788L1.18,15.45ZM15.347,4.48l-.486.491L11.668,1.779l.491-.491a1.376,1.376,0,0,1,1.944,0l1.247,1.247A1.38,1.38,0,0,1,15.347,4.48Zm0,0" transform="translate(0.156 0.327)" fill="#333" stroke="#333" stroke-width="0.3"/>
</svg>