<svg xmlns="http://www.w3.org/2000/svg" width="21.844" height="16.383" viewBox="0 0 21.844 16.383">
  <path id="email" d="M19.8,59.882H2.048A2.05,2.05,0,0,0,0,61.93V74.217a2.05,2.05,0,0,0,2.048,2.048H19.8a2.05,2.05,0,0,0,2.048-2.048V61.93A2.05,2.05,0,0,0,19.8,59.882Zm0,1.365a.679.679,0,0,1,.262.053l-9.136,7.918L1.786,61.3a.679.679,0,0,1,.262-.053Zm0,13.653H2.048a.683.683,0,0,1-.683-.683V62.743l9.11,7.9a.684.684,0,0,0,.895,0l9.11-7.9V74.217A.683.683,0,0,1,19.8,74.9Z" transform="translate(0 -59.882)" fill="#05d94e"/>
</svg>
