<svg xmlns="http://www.w3.org/2000/svg" width="217.438" height="147.04" viewBox="0 0 217.438 147.04">
  <g id="Previous_projects_not_shared_yet" data-name="Previous projects not shared yet" transform="translate(-539.249 -463.442)">
    <path id="Path_13981" data-name="Path 13981" d="M20.564,128.3c.576-14.311,7.875-28.558,19.808-35.322,14.831-8.406,33.1-8.343,40.478-13.81,13.33-9.874,18.862-29.321,29.8-40.6,15.415-15.9,56.617-16.083,70.669.98,8.233,10,9.977,24.017,14.487,37.436,2.284,6.8,7.628,15.066,11.574,18.065,4.777,3.63,15.826,10.876,19.435,15.484,27.192,34.709-3.289,63.2-7.668,63.2-13.531,0-118.244-.026-140.53,0-31.55.035-33.144-.24-43.254-8.182C25.874,158.1,20.1,139.877,20.564,128.3" transform="translate(518.712 436.742)" fill="#e7e9ee"/>
    <g id="contruction" transform="translate(539.249 468.985)">
      <g id="Group_13593" data-name="Group 13593" transform="translate(0 0)">
        <path id="Path_13970" data-name="Path 13970" d="M31.446,44.982,59.973,21.988l2.9,3.606L34.346,48.588Zm39.7-23.874,44.117,21.227L113.269,46.5,69.152,25.276Zm49.121,32.98v18.76h-4.639V54.088Z" transform="translate(-26.298 -18.467)" fill="#bbdefb" fill-rule="evenodd"/>
        <path id="Path_13971" data-name="Path 13971" d="M317.534,183.007H306.516a1.745,1.745,0,0,0-1.74,1.74v11.018a1.745,1.745,0,0,0,1.74,1.74h11.018a1.745,1.745,0,0,0,1.74-1.74V184.747A1.745,1.745,0,0,0,317.534,183.007Z" transform="translate(-220.376 -133.423)" fill="#1ad95d" fill-rule="evenodd"/>
        <path id="Path_13972" data-name="Path 13972" d="M317.534,183.007h-.278v10.714a1.745,1.745,0,0,1-1.74,1.74h-10.74v.3a1.745,1.745,0,0,0,1.74,1.74h11.018a1.745,1.745,0,0,0,1.74-1.74V184.747A1.745,1.745,0,0,0,317.534,183.007Z" transform="translate(-220.376 -133.423)" fill="#16c353" fill-rule="evenodd"/>
        <path id="Path_13973" data-name="Path 13973" d="M107.961,129.2l15.828,15.828-1.64,1.64,1.64,1.64L109.6,162.491l14.188,14.188-1.64,1.64,1.64,1.64L109.6,194.146l14.188,14.188-1.64,1.64,1.64,1.64-15.828,15.828-3.28-3.28,14.188-14.188-14.188-14.188,1.64-1.64-1.64-1.64,14.188-14.188-14.188-14.188,1.64-1.64-1.64-1.64,14.188-14.188-14.188-14.188Z" transform="translate(-78.298 -95.214)" fill="#90caf9" fill-rule="evenodd"/>
        <path id="Path_13974" data-name="Path 13974" d="M103.944,37.353l6.388-23.632A2.317,2.317,0,0,1,112.571,12v0h7.914a2.32,2.32,0,0,1,2.32,2.32V37.951h-4.639V16.639h-3.822l-5.923,21.91ZM122.8,47.621V148.7a2.32,2.32,0,0,1-2.32,2.32H104.657a2.32,2.32,0,0,1-2.32-2.32V47.621h4.639v98.76h11.189V47.621Z" transform="translate(-76.634 -12)" fill="#bbdefb" fill-rule="evenodd"/>
        <path id="Path_13975" data-name="Path 13975" d="M77.062,462.379h32.654a1.745,1.745,0,0,1,1.74,1.74v7.429a1.745,1.745,0,0,1-1.74,1.74H77.062a1.745,1.745,0,0,1-1.74-1.74v-7.429A1.745,1.745,0,0,1,77.062,462.379Z" transform="translate(-57.452 -331.791)" fill="#bbdefb" fill-rule="evenodd"/>
        <path id="Path_13976" data-name="Path 13976" d="M108.556,462.379h1.16a1.745,1.745,0,0,1,1.74,1.74v7.429a1.745,1.745,0,0,1-1.74,1.74H77.062a1.745,1.745,0,0,1-1.74-1.74v-1.16h31.494a1.745,1.745,0,0,0,1.74-1.74Z" transform="translate(-57.452 -331.791)" fill="#60b7ff" fill-rule="evenodd"/>
        <path id="Path_13977" data-name="Path 13977" d="M75.088,108.461l-6.609-9.67,3.824-2.61,5.031,7.36,7.7-7.7,1.64,1.64,1.64-1.64,8.03,8.029,8.029-8.029,1.64,1.64,1.64-1.64,8.029,8.029,8.03-8.029,1.64,1.64,1.64-1.64,8.03,8.029,8.029-8.029,3.28,3.28-9.67,9.67-1.64-1.64-1.64,1.64-8.029-8.03-8.03,8.03-1.64-1.64-1.64,1.64-8.03-8.03-8.029,8.03-1.64-1.64L94.7,108.8l-8.03-8.03-8.03,8.03L77,107.157Z" transform="translate(-52.593 -71.535)" fill="#bbdefb" fill-rule="evenodd"/>
        <path id="Path_13978" data-name="Path 13978" d="M128.144,94.132l11.46,9.585a2.316,2.316,0,0,1-1.486,4.091v0H45.266a2.32,2.32,0,0,1-2.32-2.32v-9.67a2.32,2.32,0,0,1,2.32-2.32h81.291a2.312,2.312,0,0,1,1.587.629Zm3.591,9.041-6.014-5.03H47.585v5.03Z" transform="translate(-34.463 -69.871)" fill="#90caf9" fill-rule="evenodd"/>
        <path id="Path_13979" data-name="Path 13979" d="M31.479,85.178H15.04a1.353,1.353,0,0,0-1.349,1.349v16.44a1.353,1.353,0,0,0,1.349,1.349h16.44a1.353,1.353,0,0,0,1.349-1.349V86.526A1.352,1.352,0,0,0,31.479,85.178Z" transform="translate(-13.691 -63.96)" fill="#8ac9fe" fill-rule="evenodd"/>
        <path id="Path_13980" data-name="Path 13980" d="M31.48,85.178H30.5v15.458a1.353,1.353,0,0,1-1.349,1.349H13.692v.982a1.353,1.353,0,0,0,1.349,1.349H31.48a1.353,1.353,0,0,0,1.349-1.349V86.526A1.352,1.352,0,0,0,31.48,85.178Z" transform="translate(-13.692 -63.96)" fill="#60b7ff" fill-rule="evenodd"/>
      </g>
    </g>
    <g id="modern-house" transform="translate(605.869 512.211)">
      <g id="Group_13584" data-name="Group 13584" transform="translate(4.83 47.944)">
        <path id="Path_13933" data-name="Path 13933" d="M56.8,300.014H16.927V285.49L19.78,273.5l-2.853-11.986v-7.873a1.816,1.816,0,0,1,1.816-1.816H56.8Z" transform="translate(-16.927 -251.828)" fill="#90caf9"/>
        <path id="Path_13934" data-name="Path 13934" d="M126.667,251.828v48.185H138.08l-2.853-48.185Z" transform="translate(-95.356 -251.828)" fill="#7fbbeb"/>
        <path id="Path_13935" data-name="Path 13935" d="M42.137,309.761H16.927V285.788h25.21a2.581,2.581,0,0,1,2.581,2.581V307.18A2.58,2.58,0,0,1,42.137,309.761Z" transform="translate(-16.927 -276.099)" fill="#1e428a"/>
        <path id="Path_13936" data-name="Path 13936" d="M77.59,295.635H67.2v-9.847h-4.28v23.973H67.2v-9.847H77.59Z" transform="translate(-49.8 -276.099)" fill="#90caf9"/>
      </g>
      <g id="Group_13586" data-name="Group 13586" transform="translate(67.816 11.984)">
        <path id="Path_13937" data-name="Path 13937" d="M237.685,125.791h16.554v84.146H237.685Z" transform="translate(-237.685 -125.791)" fill="#bbdefb"/>
        <g id="Group_13585" data-name="Group 13585" transform="translate(0 8.617)">
          <path id="Path_13938" data-name="Path 13938" d="M237.685,155.991h16.554v25.282H237.685Z" transform="translate(-237.685 -155.991)" fill="#1e428a"/>
          <path id="Path_13939" data-name="Path 13939" d="M237.685,301.174h16.554V335.39H237.685Z" transform="translate(-237.685 -259.751)" fill="#1e428a"/>
        </g>
      </g>
      <path id="Path_13940" data-name="Path 13940" d="M343.191,309.557H290.512V268.035l27.76-2.853,24.919,2.853Z" transform="translate(-207.624 -213.427)" fill="#1e428a"/>
      <g id="Group_13587" data-name="Group 13587" transform="translate(44.7 0)">
        <path id="Path_13941" data-name="Path 13941" d="M156.667,179.918h24.6V85.6a1.816,1.816,0,0,0-1.816-1.816H158.484a1.816,1.816,0,0,0-1.816,1.816v6.35l5.706,37.716-5.706,37.716v12.531Z" transform="translate(-156.667 -83.788)" fill="#bbdefb"/>
        <path id="Path_13942" data-name="Path 13942" d="M215.074,83.788h-8.56A1.816,1.816,0,0,1,208.33,85.6v94.314h8.56V85.6A1.816,1.816,0,0,0,215.074,83.788Z" transform="translate(-192.292 -83.788)" fill="#7fbbeb"/>
        <path id="Path_13943" data-name="Path 13943" d="M167.484,187.842H156.667V112.409h10.817a1.482,1.482,0,0,1,1.482,1.482v72.468A1.482,1.482,0,0,1,167.484,187.842Z" transform="translate(-156.667 -104.243)" fill="#1e428a"/>
      </g>
      <path id="Path_13944" data-name="Path 13944" d="M445.146,268.035v41.522h8.56V268.035l-4.6-2.853Z" transform="translate(-318.138 -213.427)" fill="#7fbbeb"/>
      <path id="Path_13945" data-name="Path 13945" d="M143.942,417.492H2.14a2.14,2.14,0,0,1,0-4.28h141.8a2.14,2.14,0,0,1,0,4.28Z" transform="translate(0 -319.222)" fill="#152543"/>
      <g id="Group_13589" data-name="Group 13589" transform="translate(82.888 0)">
        <path id="Path_13946" data-name="Path 13946" d="M347.151,138.4H290.512V85.6a1.816,1.816,0,0,1,1.816-1.816H347.06a1.816,1.816,0,0,1,1.816,1.816v8.053l-2.853,16.736,2.853,16.736v9.542A1.726,1.726,0,0,1,347.151,138.4Z" transform="translate(-290.512 -83.788)" fill="#7fbbeb"/>
        <path id="Path_13947" data-name="Path 13947" d="M361.835,118.377h36.044v33.471H361.835a2.758,2.758,0,0,1-2.758-2.758V121.135A2.758,2.758,0,0,1,361.835,118.377Z" transform="translate(-339.514 -108.508)" fill="#1e428a"/>
        <path id="Path_13948" data-name="Path 13948" d="M467.266,83.788h-8.56a1.816,1.816,0,0,1,1.816,1.816V136.67A1.726,1.726,0,0,1,458.8,138.4h8.56a1.726,1.726,0,0,0,1.726-1.726v-9.542l-2.853-16.736,2.853-16.736V85.6A1.816,1.816,0,0,0,467.266,83.788Z" transform="translate(-410.717 -83.788)" fill="#bbdefb"/>
        <g id="Group_13588" data-name="Group 13588" transform="translate(19.563 9.869)">
          <path id="Path_13949" data-name="Path 13949" d="M465.073,118.377h8.56v33.471h-8.56Z" transform="translate(-434.831 -118.377)" fill="#7fbbeb"/>
          <path id="Path_13950" data-name="Path 13950" d="M359.077,137.252h15.351v14.6h4.28V118.377h-4.28v14.6H359.077Z" transform="translate(-359.077 -118.377)" fill="#7fbbeb"/>
        </g>
      </g>
      <g id="Group_13590" data-name="Group 13590" transform="translate(82.888 63.543)" opacity="0.34">
        <path id="Path_13951" data-name="Path 13951" d="M290.512,340.315h52.679v4.28H290.512Z" transform="translate(-290.512 -330.666)" fill="#fff"/>
        <path id="Path_13952" data-name="Path 13952" d="M290.512,306.5h52.679v4.28H290.512Z" transform="translate(-290.512 -306.498)" fill="#fff"/>
        <path id="Path_13953" data-name="Path 13953" d="M290.512,374.132h52.679v4.28H290.512Z" transform="translate(-290.512 -354.835)" fill="#fff"/>
      </g>
      <g id="Group_13591" data-name="Group 13591" transform="translate(127.008 63.543)" opacity="0.6">
        <path id="Path_13954" data-name="Path 13954" d="M445.146,340.315h8.56v4.28h-8.56Z" transform="translate(-445.146 -330.666)" fill="#fff"/>
        <path id="Path_13955" data-name="Path 13955" d="M445.146,306.5h8.56v4.28h-8.56Z" transform="translate(-445.146 -306.498)" fill="#fff"/>
        <path id="Path_13956" data-name="Path 13956" d="M445.146,374.132h8.56v4.28h-8.56Z" transform="translate(-445.146 -354.835)" fill="#fff"/>
      </g>
    </g>
  </g>
</svg>
