<svg xmlns="http://www.w3.org/2000/svg" xmlns:xlink="http://www.w3.org/1999/xlink" width="325.696" height="242.679" viewBox="0 0 325.696 242.679">
  <defs>
    <clipPath id="clip-path">
      <rect id="Rectangle_4479" data-name="Rectangle 4479" width="112.795" height="60.681" fill="#eff2fa"/>
    </clipPath>
    <clipPath id="clip-path-3">
      <rect id="Rectangle_4480" data-name="Rectangle 4480" width="153.076" height="165.315" fill="none"/>
    </clipPath>
    <clipPath id="clip-path-4">
      <rect id="Rectangle_4483" data-name="Rectangle 4483" width="121.728" height="149.763" fill="#ced6e8"/>
    </clipPath>
    <clipPath id="clip-path-5">
      <rect id="Rectangle_4484" data-name="Rectangle 4484" width="51.896" height="54.405" fill="none"/>
    </clipPath>
    <clipPath id="clip-path-6">
      <rect id="Rectangle_4485" data-name="Rectangle 4485" width="42.625" height="12.888" fill="none"/>
    </clipPath>
    <clipPath id="clip-path-7">
      <rect id="Rectangle_4487" data-name="Rectangle 4487" width="105.548" height="158.597" fill="#eff2fa"/>
    </clipPath>
    <clipPath id="clip-path-8">
      <rect id="Rectangle_4488" data-name="Rectangle 4488" width="96.173" height="158.597" fill="#ced6e8"/>
    </clipPath>
  </defs>
  <g id="Updates" transform="translate(0 -1.82)">
    <g id="Group_10692" data-name="Group 10692">
      <g id="Group_10689" data-name="Group 10689">
        <g id="Group_10693" data-name="Group 10693">
          <g id="Group_10627" data-name="Group 10627" transform="translate(31.978 34.384)" opacity="0.66">
            <g id="Group_10626" data-name="Group 10626">
              <g id="Group_10695" data-name="Group 10695">
                <path id="Path_11671" data-name="Path 11671" d="M121.6,84.841l-6.047-.462a31.12,31.12,0,0,0-4.14-12.643l4.6-3.95a5.562,5.562,0,1,0-7.245-8.441l-4.6,3.949A31.128,31.128,0,0,0,92.3,57.282l.462-6.047a5.562,5.562,0,1,0-11.092-.846l-.462,6.047a31.124,31.124,0,0,0-12.643,4.14l-3.95-4.6a5.562,5.562,0,1,0-8.441,7.245l3.949,4.6a31.128,31.128,0,0,0-6.012,11.868l-6.047-.462a5.562,5.562,0,0,0-.846,11.092l6.047.462a31.132,31.132,0,0,0,4.14,12.643l-4.6,3.95a5.562,5.562,0,0,0,7.245,8.442l4.6-3.95a31.128,31.128,0,0,0,11.868,6.012l-.462,6.047a5.562,5.562,0,0,0,11.092.846l.461-6.047a31.132,31.132,0,0,0,12.643-4.14l3.95,4.6a5.562,5.562,0,1,0,8.442-7.245l-3.95-4.6a31.128,31.128,0,0,0,6.012-11.868l6.047.462a5.562,5.562,0,1,0,.846-11.092M82.689,110.174A22.66,22.66,0,1,1,107.008,89.3a22.66,22.66,0,0,1-24.319,20.87" transform="translate(-42.084 -45.25)" fill="#eff2fa"/>
                <path id="Path_11672" data-name="Path 11672" d="M305.116,303.358a4.641,4.641,0,0,1-4.413-3.237l-1.086-3.431a22.235,22.235,0,0,1-8.312-.717l-1.658,3.194a4.635,4.635,0,0,1-8.227-4.27l1.657-3.194a22.265,22.265,0,0,1-5.371-6.384l-3.43,1.087a4.634,4.634,0,1,1-2.8-8.836l3.431-1.087a22.255,22.255,0,0,1,.717-8.312l-3.194-1.658a4.634,4.634,0,0,1,4.27-8.227l3.194,1.658a22.284,22.284,0,0,1,6.385-5.371l-1.087-3.43a4.634,4.634,0,0,1,8.836-2.8l1.087,3.431a22.222,22.222,0,0,1,8.312.717l1.658-3.194a4.635,4.635,0,1,1,8.227,4.27l-1.658,3.193a22.292,22.292,0,0,1,5.371,6.385l3.43-1.086a4.634,4.634,0,1,1,2.8,8.836l-3.431,1.086a22.259,22.259,0,0,1-.717,8.313l3.194,1.656a4.635,4.635,0,0,1-4.27,8.228l-3.193-1.657a22.278,22.278,0,0,1-6.386,5.37l1.087,3.431a4.642,4.642,0,0,1-4.424,6.036m-4.431-8.33,1.467,4.634a3.115,3.115,0,0,0,5.94-1.881l-1.468-4.633.562-.3a20.806,20.806,0,0,0,6.845-5.757l.388-.5,4.315,2.238A3.114,3.114,0,1,0,321.6,283.3l-4.315-2.239.188-.606a20.8,20.8,0,0,0,.769-8.91l-.082-.631,4.634-1.467a3.115,3.115,0,1,0-1.88-5.939l-4.634,1.468-.3-.563a20.8,20.8,0,0,0-5.758-6.844l-.5-.388,2.24-4.314A3.115,3.115,0,0,0,306.435,250l-2.239,4.314-.607-.188a20.837,20.837,0,0,0-8.91-.768l-.631.082-1.467-4.634a3.115,3.115,0,1,0-5.94,1.881l1.468,4.633-.562.3a20.823,20.823,0,0,0-6.844,5.757l-.388.5L276,259.634a3.115,3.115,0,0,0-2.868,5.53l4.314,2.239-.188.607a20.8,20.8,0,0,0-.769,8.909l.082.631-4.634,1.467a3.115,3.115,0,0,0,1.881,5.939l4.634-1.467.3.562A20.811,20.811,0,0,0,284.5,290.9l.5.388L282.77,295.6a3.114,3.114,0,0,0,5.529,2.869l2.239-4.314.607.188a20.838,20.838,0,0,0,8.909.769Zm-3.337-4.242a16.59,16.59,0,1,1,5.014-.78,16.473,16.473,0,0,1-5.014.78m.036-31.586a15.049,15.049,0,1,0,6.9,1.7,15.069,15.069,0,0,0-6.9-1.7" transform="translate(-96.392 -93.243)" fill="#eff2fa"/>
                <path id="Path_11673" data-name="Path 11673" d="M358.165,259.07a5.975,5.975,0,0,1-5.909-6.826l.726-5a29.721,29.721,0,0,1-9.91-5.9l-4.046,3.02a5.968,5.968,0,0,1-7.138-9.565l4.047-3.02A29.678,29.678,0,0,1,333.1,220.6l-5-.726a5.967,5.967,0,0,1,1.715-11.811l5,.726a29.7,29.7,0,0,1,5.9-9.91l-3.02-4.046a5.968,5.968,0,1,1,9.565-7.138l3.02,4.046a29.714,29.714,0,0,1,11.178-2.836l.726-5a5.967,5.967,0,0,1,11.811,1.715l-.726,5a29.7,29.7,0,0,1,9.911,5.9l4.046-3.02a5.967,5.967,0,1,1,7.137,9.565l-4.046,3.02a29.689,29.689,0,0,1,2.835,11.178l5,.726a5.967,5.967,0,0,1-1.716,11.811l-5-.726a29.713,29.713,0,0,1-5.9,9.91l3.02,4.046a5.967,5.967,0,1,1-9.565,7.137l-3.02-4.045a29.715,29.715,0,0,1-11.178,2.836l-.726,5a5.977,5.977,0,0,1-5.9,5.11m-14.988-19.7.464.435a28.241,28.241,0,0,0,10.424,6.206l.6.2-.907,6.248a4.448,4.448,0,0,0,8.8,1.28l.907-6.249.635-.021a28.225,28.225,0,0,0,11.758-2.983l.569-.284,3.776,5.06a4.448,4.448,0,1,0,7.128-5.321l-3.776-5.06.435-.464A28.233,28.233,0,0,0,390.2,228l.2-.6,6.248.907a4.448,4.448,0,1,0,1.279-8.8l-6.248-.907-.021-.635a28.222,28.222,0,0,0-2.983-11.758l-.284-.568,5.059-3.777a4.447,4.447,0,1,0-5.321-7.128h0l-5.06,3.776-.465-.434a28.217,28.217,0,0,0-10.423-6.206l-.6-.2.907-6.248a4.448,4.448,0,0,0-8.8-1.279l-.907,6.248-.635.021a28.234,28.234,0,0,0-11.758,2.983l-.568.284-3.777-5.059a4.447,4.447,0,1,0-7.128,5.321l3.776,5.059-.434.464a28.22,28.22,0,0,0-6.206,10.424l-.2.6-6.248-.907a4.448,4.448,0,0,0-1.279,8.8l6.248.907.021.635a28.23,28.23,0,0,0,2.984,11.759l.284.568-5.061,3.776a4.448,4.448,0,1,0,5.321,7.128Zm19.975,1.53a21.954,21.954,0,1,1,13.117-4.355,21.961,21.961,0,0,1-13.117,4.355m-.071-42.427a20.514,20.514,0,1,0,2.984.217,20.818,20.818,0,0,0-2.984-.217m12.733,37.463h0Z" transform="translate(-109.54 -77.321)" fill="#eff2fa"/>
              </g>
            </g>
          </g>
          <g id="Group_10639" data-name="Group 10639" transform="translate(0 132.368)" opacity="0.81">
            <g id="Group_10638" data-name="Group 10638">
              <g id="Group_10637" data-name="Group 10637" clip-path="url(#clip-path)">
                <path id="Path_11683" data-name="Path 11683" d="M37.657,223.958H20.113a.76.76,0,1,1,0-1.52H37.657a.76.76,0,0,1,0,1.52" transform="translate(-4.647 -185.784)" fill="#eff2fa"/>
                <path id="Path_11684" data-name="Path 11684" d="M37.657,199.958H20.113a.76.76,0,1,1,0-1.52H37.657a.76.76,0,0,1,0,1.52" transform="translate(-4.647 -180.02)" fill="#eff2fa"/>
                <path id="Path_11685" data-name="Path 11685" d="M110.734,234.88H2.06A2.062,2.062,0,0,1,0,232.82V176.261A2.063,2.063,0,0,1,2.06,174.2H110.734a2.063,2.063,0,0,1,2.06,2.061V232.82a2.062,2.062,0,0,1-2.06,2.061M2.06,175.72a.542.542,0,0,0-.541.541V232.82a.542.542,0,0,0,.541.541H110.734a.541.541,0,0,0,.54-.541V176.261a.541.541,0,0,0-.54-.541Z" transform="translate(0 -174.2)" fill="#eff2fa"/>
                <g id="Group_10636" data-name="Group 10636" opacity="0.66">
                  <g id="Group_10635" data-name="Group 10635">
                    <g id="Group_10634" data-name="Group 10634" clip-path="url(#clip-path)">
                      <path id="Path_11686" data-name="Path 11686" d="M110.734,234.88H2.06A2.062,2.062,0,0,1,0,232.82V176.261A2.063,2.063,0,0,1,2.06,174.2H110.734a2.063,2.063,0,0,1,2.06,2.061V232.82a2.062,2.062,0,0,1-2.06,2.061M2.06,175.72a.542.542,0,0,0-.541.541V232.82a.542.542,0,0,0,.541.541H110.734a.541.541,0,0,0,.54-.541V176.261a.541.541,0,0,0-.54-.541Z" transform="translate(0 -174.2)" fill="#eff2fa"/>
                    </g>
                  </g>
                </g>
                <path id="Path_11687" data-name="Path 11687" d="M103.714,235.6h-83.6a.76.76,0,1,1,0-1.52h83.6a.76.76,0,1,1,0,1.52" transform="translate(-4.647 -188.58)" fill="#eff2fa"/>
                <path id="Path_11688" data-name="Path 11688" d="M103.714,212.31h-83.6a.76.76,0,1,1,0-1.52h83.6a.76.76,0,1,1,0,1.52" transform="translate(-4.647 -182.987)" fill="#eff2fa"/>
                <path id="Path_11689" data-name="Path 11689" d="M115.89,223.958H70.818a.76.76,0,1,1,0-1.52H115.89a.76.76,0,1,1,0,1.52" transform="translate(-16.823 -185.784)" fill="#eff2fa"/>
                <path id="Path_11690" data-name="Path 11690" d="M115.89,199.958H70.818a.76.76,0,1,1,0-1.52H115.89a.76.76,0,1,1,0,1.52" transform="translate(-16.823 -180.02)" fill="#eff2fa"/>
                <path id="Path_11691" data-name="Path 11691" d="M120.528,188.84h-30.4a.76.76,0,0,1,0-1.52h30.4a.76.76,0,0,1,0,1.52" transform="translate(-21.461 -177.351)" fill="#eff2fa"/>
              </g>
            </g>
          </g>
          <g id="Group_10642" data-name="Group 10642" transform="translate(153.479 58.636)" opacity="0.14">
            <g id="Group_10641" data-name="Group 10641">
              <g id="Group_10640" data-name="Group 10640" clip-path="url(#clip-path-3)">
                <path id="Path_11692" data-name="Path 11692" d="M285.815,242.284,202.671,192.99a1.406,1.406,0,0,1-.492-1.928L269.3,77.856a1.406,1.406,0,0,1,1.928-.492l83.144,49.294a1.407,1.407,0,0,1,.492,1.928L287.742,241.792a1.408,1.408,0,0,1-1.928.492" transform="translate(-201.982 -77.167)" fill="#3e479b"/>
              </g>
            </g>
          </g>
          <rect id="Rectangle_4482" data-name="Rectangle 4482" width="134.421" height="99.471" transform="translate(160.563 196.414) rotate(-79.556)" fill="#fff"/>
          <g id="Group_10648" data-name="Group 10648" transform="translate(160.795 64.452)" opacity="0.39">
            <g id="Group_10647" data-name="Group 10647">
              <g id="Group_10646" data-name="Group 10646" clip-path="url(#clip-path-4)">
                <path id="Path_11695" data-name="Path 11695" d="M307.819,234.559l-95.057-17.522a1.406,1.406,0,0,1-1.128-1.638L235.491,85.972a1.406,1.406,0,0,1,1.638-1.128l95.057,17.522A1.406,1.406,0,0,1,333.314,104L309.457,233.431a1.407,1.407,0,0,1-1.638,1.128" transform="translate(-211.61 -84.82)" fill="#ced6e8"/>
              </g>
            </g>
          </g>
          <path id="Union_439" data-name="Union 439" d="M-1966.133-22476.422l-72.708-13.4a.76.76,0,0,1-.612-.883.76.76,0,0,1,.889-.611l72.7,13.4a.761.761,0,0,1,.612.885.759.759,0,0,1-.748.617A.535.535,0,0,1-1966.133-22476.422Zm2.617-14.211-32.746-6.031a.758.758,0,0,1-.606-.889.755.755,0,0,1,.884-.611l32.746,6.037a.769.769,0,0,1,.612.889.767.767,0,0,1-.748.623A.623.623,0,0,1-1963.517-22490.633Zm-38.353-6.953-34.372-6.338a.761.761,0,0,1-.612-.885.754.754,0,0,1,.889-.605l34.366,6.332a.762.762,0,0,1,.612.889.757.757,0,0,1-.748.617A.637.637,0,0,1-2001.87-22497.586Zm40.93-7.035-72.7-13.4a.761.761,0,0,1-.612-.885.76.76,0,0,1,.889-.605l72.7,13.4a.758.758,0,0,1,.612.883.759.759,0,0,1-.748.623A1.254,1.254,0,0,1-1960.94-22504.621Zm-36.2-18.66-34.372-6.332a.767.767,0,0,1-.612-.885.767.767,0,0,1,.889-.611l34.372,6.338a.752.752,0,0,1,.606.883.763.763,0,0,1-.748.623A.646.646,0,0,1-1997.135-22523.281Zm45.557-21.6-23.8-4.389a.757.757,0,0,1-.606-.885.758.758,0,0,1,.884-.611l23.8,4.391a.754.754,0,0,1,.606.883.759.759,0,0,1-.748.623A1.067,1.067,0,0,1-1951.578-22544.877Zm1.524-8.264-23.8-4.389a.752.752,0,0,1-.606-.883.755.755,0,0,1,.884-.611l23.792,4.389a.762.762,0,0,1,.612.883.757.757,0,0,1-.748.623A1.063,1.063,0,0,1-1950.054-22553.141Zm1.4-7.6-23.792-4.389a.761.761,0,0,1-.612-.885.751.751,0,0,1,.884-.605l23.8,4.383a.753.753,0,0,1,.606.885.759.759,0,0,1-.748.623A1.067,1.067,0,0,1-1948.656-22560.74Z" transform="translate(2216.467 22658.553)" fill="#b6bccb" stroke="rgba(0,0,0,0)" stroke-miterlimit="10" stroke-width="1"/>
          <g id="Group_10651" data-name="Group 10651" transform="translate(186.197 66.332)" opacity="0.14">
            <g id="Group_10650" data-name="Group 10650">
              <g id="Group_10649" data-name="Group 10649" clip-path="url(#clip-path-5)">
                <path id="Path_11699" data-name="Path 11699" d="M287.055,141.675l-40.768-7.515a1.522,1.522,0,0,1-1.222-1.774l8.082-43.844a1.522,1.522,0,0,1,1.774-1.222l40.769,7.515a1.523,1.523,0,0,1,1.221,1.774l-8.082,43.844a1.522,1.522,0,0,1-1.773,1.222" transform="translate(-245.04 -87.295)" fill="#3e479b"/>
              </g>
            </g>
          </g>
          <path id="Path_11700" data-name="Path 11700" d="M285.685,139.174l-38.866-7.164a1.523,1.523,0,0,1-1.221-1.774l7.651-41.51a1.524,1.524,0,0,1,1.774-1.222l38.865,7.165a1.522,1.522,0,0,1,1.222,1.774l-7.652,41.51a1.522,1.522,0,0,1-1.774,1.222" transform="translate(-58.971 -21.007)" fill="#ced6e8"/>
          <g id="Group_10654" data-name="Group 10654" transform="translate(193.556 66.464)" opacity="0.07">
            <g id="Group_10653" data-name="Group 10653">
              <g id="Group_10652" data-name="Group 10652" clip-path="url(#clip-path-6)">
                <path id="Path_11701" data-name="Path 11701" d="M296.587,100.358l-41.862-7.716.73-3.961a1.478,1.478,0,0,1,1.722-1.185l39.006,7.19a1.425,1.425,0,0,1,1.144,1.66Z" transform="translate(-254.725 -87.469)" fill="#ecf1f7"/>
              </g>
            </g>
          </g>
          <path id="Path_11702" data-name="Path 11702" d="M268.2,111.9a4.912,4.912,0,0,1-.894-.082l-.579-.106a5.684,5.684,0,0,1-4.554-6.612l1.462-7.932a1.14,1.14,0,0,1,2.242.413l-1.461,7.932a3.4,3.4,0,0,0,2.723,3.956l.58.107a2.641,2.641,0,0,0,3.074-2.118l3.7-20.077a2.728,2.728,0,0,0-2.185-3.174l-.991-.182a2.9,2.9,0,0,0-3.371,2.321l-.09.5a1.14,1.14,0,0,1-2.242-.413l.091-.5a5.179,5.179,0,0,1,6.025-4.149l.991.182a5.01,5.01,0,0,1,4.015,5.828l-3.7,20.078A4.929,4.929,0,0,1,268.2,111.9" transform="translate(-62.936 -19.618)" fill="#8b9ec4"/>
          <path id="Path_11703" data-name="Path 11703" d="M270.424,98.133a.443.443,0,0,1-.07-.006l-15.189-2.8a.38.38,0,0,1,.138-.747l15.19,2.8a.38.38,0,0,1-.068.754" transform="translate(-61.2 -22.71)" fill="#fff"/>
          <path id="Path_11716" data-name="Path 11716" d="M103.112,2.395H200.1a3.537,3.537,0,0,1,3.537,3.537V148.79a12.2,12.2,0,0,1-12.2,12.2H124.094a26,26,0,0,1-26-26V7.416a5.021,5.021,0,0,1,5.021-5.021" transform="translate(-23.555 -0.575)" fill="#fff"/>
          <g id="Group_10660" data-name="Group 10660" transform="translate(74.536 1.82)" opacity="0.39">
            <g id="Group_10659" data-name="Group 10659">
              <g id="Group_10658" data-name="Group 10658" clip-path="url(#clip-path-7)">
                <path id="Path_11717" data-name="Path 11717" d="M99.326,2.395H201.744a1.9,1.9,0,0,1,1.9,1.9V149.358a11.634,11.634,0,0,1-11.634,11.634H121.782A23.69,23.69,0,0,1,98.092,137.3V3.63a1.234,1.234,0,0,1,1.234-1.235" transform="translate(-98.092 -2.395)" fill="#eff2fa"/>
              </g>
            </g>
          </g>
          <g id="Group_10663" data-name="Group 10663" transform="translate(83.912 1.82)" opacity="0.39">
            <g id="Group_10662" data-name="Group 10662">
              <g id="Group_10661" data-name="Group 10661" clip-path="url(#clip-path-8)">
                <path id="Path_11718" data-name="Path 11718" d="M111.267,2.395H205.1a1.5,1.5,0,0,1,1.5,1.5v145.86a11.237,11.237,0,0,1-11.238,11.238H133.724A23.294,23.294,0,0,1,110.43,137.7V3.232a.837.837,0,0,1,.837-.837" transform="translate(-110.43 -2.395)" fill="#ced6e8"/>
              </g>
            </g>
          </g>
          <path id="Union_438" data-name="Union 438" d="M-2036.8-22475.488a.759.759,0,0,1-.759-.758.759.759,0,0,1,.759-.76h60.956a.76.76,0,0,1,.765.76.76.76,0,0,1-.765.758Zm28.029-12.844h-29.932a.759.759,0,0,1-.759-.76.759.759,0,0,1,.759-.758h32.384a.759.759,0,0,1,.759.758.759.759,0,0,1-.759.76Zm-29.167-12.822a.759.759,0,0,1-.759-.76.759.759,0,0,1,.759-.758h63.374a.759.759,0,0,1,.759.758.759.759,0,0,1-.759.76Zm18.2-14.617a.759.759,0,0,1-.759-.76.758.758,0,0,1,.759-.758h45.172a.758.758,0,0,1,.759.758.759.759,0,0,1-.759.76Zm-18.2,0a.759.759,0,0,1-.759-.76.757.757,0,0,1,.759-.758h13.74a.757.757,0,0,1,.759.758.759.759,0,0,1-.759.76Zm48.791-12.822a.759.759,0,0,1-.759-.76.759.759,0,0,1,.759-.758h12.709a.759.759,0,0,1,.759.758.759.759,0,0,1-.759.76Zm-48.349,0a.759.759,0,0,1-.759-.76.759.759,0,0,1,.759-.758h41.717a.759.759,0,0,1,.759.758.759.759,0,0,1-.759.76Zm.7-10.857a.759.759,0,0,1-.759-.76.759.759,0,0,1,.759-.758h60.956a.76.76,0,0,1,.765.758.76.76,0,0,1-.765.76Zm33.018-12.84a.76.76,0,0,1-.759-.764.759.759,0,0,1,.759-.76h27.474a.76.76,0,0,1,.765.76.761.761,0,0,1-.765.764Zm-33.715,0a.76.76,0,0,1-.759-.764.759.759,0,0,1,.759-.76h23.073a.759.759,0,0,1,.759.76.76.76,0,0,1-.759.764Zm.7-12.822a.763.763,0,0,1-.759-.764.763.763,0,0,1,.759-.76h60.956a.764.764,0,0,1,.765.76.764.764,0,0,1-.765.764Z" transform="translate(2139.909 22593.244)" fill="#b6bccb" stroke="rgba(0,0,0,0)" stroke-miterlimit="10" stroke-width="1"/>
          <path id="Path_11736" data-name="Path 11736" d="M304.887,142.716a2.282,2.282,0,0,1,.228-.186,56.253,56.253,0,1,0-10.285,10.243l6.493-6.492Zm-44.2,13.635a48.093,48.093,0,1,1,48.093-48.093,48.093,48.093,0,0,1-48.093,48.093" transform="translate(-49.123 -12.52)" fill="#3ae074"/>
          <path id="Path_11737" data-name="Path 11737" d="M260.443,164.9a56.882,56.882,0,1,1,56.882-56.882,56.329,56.329,0,0,1-11.848,34.736l-.143.141a1.4,1.4,0,0,0-.147.117l-10.133,10.123A56.337,56.337,0,0,1,260.443,164.9m0-112.244a55.362,55.362,0,1,0,0,110.724,54.827,54.827,0,0,0,33.645-11.419l10.023-10.022a2.171,2.171,0,0,1,.226-.194A54.823,54.823,0,0,0,315.8,108.018a55.425,55.425,0,0,0-55.362-55.362m0,104.215A48.853,48.853,0,1,1,309.3,108.018a48.908,48.908,0,0,1-48.853,48.853m0-96.187a47.333,47.333,0,1,0,47.333,47.333,47.387,47.387,0,0,0-47.333-47.333" transform="translate(-48.882 -12.28)" fill="#3ae074"/>
          <path id="Union_437" data-name="Union 437" d="M-2038.836-22552.812a2.146,2.146,0,0,1,0-3.035l.108-.107,6.49-6.49a2.137,2.137,0,0,0-.629,1.518,2.139,2.139,0,0,1,.629-1.518l3.562-3.568a2.285,2.285,0,0,1,.232-.182,2.137,2.137,0,0,1,2.8.182l2.532,2.531a59.927,59.927,0,0,0-6.955,6.248,51.331,51.331,0,0,0-6.134,7.063Z" transform="translate(2284.439 22696.207)" fill="#ced6e8" stroke="rgba(0,0,0,0)" stroke-miterlimit="10" stroke-width="1"/>
          <path id="Path_11741" data-name="Path 11741" d="M380.4,213.991l-39.521-39.952c-.143-.144-.575.047-1.2.469a59.893,59.893,0,0,0-6.951,6.246,51.6,51.6,0,0,0-6.134,7.063c-.284.476-.394.805-.269.931L365.848,228.7a10.21,10.21,0,0,0,14.55,0,10.48,10.48,0,0,0,0-14.709" transform="translate(-78.351 -41.782)" fill="#8b9ec4"/>
          <g id="Group_10694" data-name="Group 10694" transform="translate(58.238 3)">
            <path id="Path_11747" data-name="Path 11747" d="M126.192,183.785H85.417a5.167,5.167,0,0,1-5.167-5.167v-3.389a5.186,5.186,0,0,0-5.186-5.186H56.23a5.186,5.186,0,0,0-5.186,5.186v53.824a4.83,4.83,0,0,0,4.83,4.83h70.317a4.83,4.83,0,0,0,4.83-4.83V188.615a4.83,4.83,0,0,0-4.83-4.83" transform="translate(-12.258 -40.834)" fill="#8b9ec4"/>
            <path id="Path_11751" data-name="Path 11751" d="M49.009,193.061a.479.479,0,0,1-.479-.479V180.824a3.306,3.306,0,0,1,3.3-3.3H65.711a.479.479,0,1,1,0,.958H51.832a2.347,2.347,0,0,0-2.344,2.344v11.758a.479.479,0,0,1-.479.479" transform="translate(-5.904 -45.189)" fill="#fff"/>
          </g>
        </g>
      </g>
    </g>
  </g>
</svg>
