<svg xmlns="http://www.w3.org/2000/svg" width="16.855" height="16.855" viewBox="0 0 16.855 16.855">
  <path id="Open" d="M-10393.819,13.146a1.056,1.056,0,0,1,.115-1.45l4.166-4.25-4.281-4.2a1,1,0,0,1-.119-1.416,1.052,1.052,0,0,1,1.451.119l4.252,4.166,4.2-4.285a.988.988,0,0,1,1.412-.114,1.056,1.056,0,0,1-.115,1.45l-4.168,4.25,4.283,4.2a.994.994,0,0,1,.113,1.416,1.058,1.058,0,0,1-1.451-.119l-4.248-4.166-4.2,4.279a1.16,1.16,0,0,1-.814.364A.813.813,0,0,1-10393.819,13.146Z" transform="translate(7359.266 7348.756) rotate(45)" fill="#898989"/>
</svg>
