<svg xmlns="http://www.w3.org/2000/svg" width="30.338" height="34.394" viewBox="0 0 30.338 34.394">
  <g id="Exterior_3D_Design" data-name="Exterior 3D Design" transform="translate(0.5 0.5)">
    <path id="Path_8982" data-name="Path 8982" d="M31,24.718V8.935a.978.978,0,0,1,.487-.846L45.178.133a.978.978,0,0,1,.983,0L59.851,8.09a.978.978,0,0,1,.487.846V24.718a.978.978,0,0,1-.5.853L46.148,33.256a.978.978,0,0,1-.957,0L31.5,25.571a.978.978,0,0,1-.5-.853ZM45.669,2.11,33.93,8.932,45.669,15.7,57.408,8.932Zm8.8,10.772-3.912,2.255v6.747l3.912-2.251Zm3.912-2.255-1.956,1.127V20.2a.978.978,0,0,1-.49.848l-5.868,3.377a.978.978,0,0,1-1.466-.848V16.264l-1.956,1.127V30.733l11.735-6.587Zm-13.691,20.1V17.392L32.956,10.628V24.145Z" transform="translate(-31 -0.001)" fill="#898989" stroke="#f0f2f7" stroke-width="1"/>
    <path id="Path_8983" data-name="Path 8983" d="M91.489,100.888a.978.978,0,0,1,.978,0c.822.475,4.192,2.408,5.868,3.375a.978.978,0,0,1,.489.847v4.517a.978.978,0,0,1-1.466.848L91.49,107.1a.977.977,0,0,1-.49-.848v-4.517A.978.978,0,0,1,91.489,100.888Zm1.467,4.8,3.912,2.25v-2.261c-1.1-.634-2.672-1.537-3.912-2.249Z" transform="translate(-87.088 -83.794)" fill="#898989" stroke="#f0f2f7" stroke-width="1"/>
    <path id="Path_8984" data-name="Path 8984" d="M163.713,306.868h-4.89V309.8a.978.978,0,1,1-1.956,0v-2.934h-4.89a.978.978,0,0,1,0-1.956h4.89v-2.934a.978.978,0,1,1,1.956,0v2.934h4.89a.978.978,0,0,1,0,1.956Z" transform="translate(-143.177 -297.023)" fill="#898989" stroke="#f0f2f7" stroke-width="1"/>
  </g>
</svg>
