<?xml version="1.0" encoding="utf-8"?>
<!-- Generator: Adobe Illustrator 15.1.0, SVG Export Plug-In . SVG Version: 6.00 Build 0)  -->
<!DOCTYPE svg PUBLIC "-//W3C//DTD SVG 1.1//EN" "http://www.w3.org/Graphics/SVG/1.1/DTD/svg11.dtd">
<svg version="1.1" id="Warstwa_1" xmlns="http://www.w3.org/2000/svg" xmlns:xlink="http://www.w3.org/1999/xlink" x="0px" y="0px"
	 width="107.889px" height="64.703px" viewBox="0 0 107.889 64.703" enable-background="new 0 0 107.889 64.703"
	 xml:space="preserve">
<g>
	<path fill="none" stroke="#000000" stroke-width="2" stroke-linecap="round" stroke-linejoin="round" stroke-miterlimit="10" d="
		M71.884,14.942c14,6.243,23.669,17.409,23.669,17.409S76.924,53.863,53.943,53.863c-3.041,0-6.006-0.377-8.861-1.03"/>
	<path fill="none" stroke="#000000" stroke-width="2" stroke-linecap="round" stroke-linejoin="round" stroke-miterlimit="10" d="
		M35.976,49.748c-13.984-6.245-23.64-17.396-23.64-17.396S30.964,10.84,53.943,10.84c3.07,0,6.063,0.384,8.945,1.05"/>
	<path fill="none" stroke="#000000" stroke-width="2" stroke-linecap="round" stroke-linejoin="round" stroke-miterlimit="10" d="
		M65.63,22.5c2.246,2.66,3.6,6.098,3.6,9.852c0,8.441-6.845,15.285-15.286,15.285c-1.962,0-3.838-0.37-5.562-1.044"/>
	<path fill="none" stroke="#000000" stroke-width="2" stroke-linecap="round" stroke-linejoin="round" stroke-miterlimit="10" d="
		M42.125,42.045c-2.166-2.638-3.467-6.014-3.467-9.693c0-8.44,6.844-15.284,15.285-15.284c2.098,0,4.097,0.423,5.917,1.188"/>
</g>
<line fill="none" stroke="#000000" stroke-width="2" stroke-linecap="round" stroke-linejoin="round" stroke-miterlimit="10" x1="36.167" y1="57.369" x2="71.721" y2="7.334"/>
</svg>
