<svg xmlns="http://www.w3.org/2000/svg" width="19.447" height="19.447" viewBox="0 0 19.447 19.447">
  <path id="Type" d="M6.672,19.047H.808a.809.809,0,0,1,0-1.618h.445V7.6a.827.827,0,0,1,.566-.77L6.956,5.273V.809A.812.812,0,0,1,7.764,0h9.179a.813.813,0,0,1,.81.809V17.43h.484a.812.812,0,0,1,.809.809.848.848,0,0,1-.85.809ZM11.687,4.166a.845.845,0,0,1,.324.647V17.43h4.124V1.619H8.572V4.782L11,4.045A.752.752,0,0,1,11.24,4,.71.71,0,0,1,11.687,4.166ZM10.433,17.43V5.905L2.872,8.169v9.26H5.863V14.477a.809.809,0,1,1,1.618,0V17.43h2.953Z" transform="translate(0.201 0.2)" fill="#333" stroke="#fff" stroke-width="0.4"/>
</svg>
