<?xml version="1.0" encoding="utf-8"?>
<!-- Generator: Adobe Illustrator 15.1.0, SVG Export Plug-In . SVG Version: 6.00 Build 0)  -->
<!DOCTYPE svg PUBLIC "-//W3C//DTD SVG 1.1//EN" "http://www.w3.org/Graphics/SVG/1.1/DTD/svg11.dtd">
<svg version="1.1" id="Warstwa_1" xmlns="http://www.w3.org/2000/svg" xmlns:xlink="http://www.w3.org/1999/xlink" x="0px" y="0px"
	 width="1840.721px" height="1291.941px" viewBox="548.341 -186.379 1840.721 1291.941"
	 enable-background="new 548.341 -186.379 1840.721 1291.941" xml:space="preserve">
<g>
	<rect x="783.59" y="-186.379" fill="#8D9CC4" width="860.334" height="606.749"/>
	<rect x="813.378" y="-154.845" fill="#EFF2FA" width="800.758" height="543.68"/>
	<g>
		<defs>
			<rect id="SVGID_1_" x="548.341" y="-186.379" width="1840.721" height="1291.941"/>
		</defs>
		<clipPath id="SVGID_2_">
			<use xlink:href="#SVGID_1_"  overflow="visible"/>
		</clipPath>
		<path clip-path="url(#SVGID_2_)" fill="#8D9CC4" d="M1447.743,1071.408h-18.885l-118.014-40.789
			c-50.242-17.363-83.946-64.675-83.946-117.832V411.029c0-7.076-5.438-13.164-12.505-13.498
			c-7.548-0.355-13.778,5.658-13.778,13.127v502.121c0,53.158-33.705,100.469-83.946,117.832l-118.034,40.797h-21.493
			c-7.075,0-13.164,5.437-13.498,12.506c-0.355,7.547,5.659,13.777,13.128,13.777h23.983c0.029,0,0.059,0.004,0.087,0.004
			s0.056-0.004,0.083-0.004h52.612c6.948,0,12.946-5.26,13.438-12.191c0.24-3.388-0.817-6.516-2.709-8.965l86.72-29.975
			c40.66-14.054,84.859-14.054,125.52,0l84.695,29.273c-2.16,2.43-3.442,5.654-3.316,9.19c0.253,7.134,6.365,12.667,13.502,12.667
			h55.182c0.026,0,0.056,0.004,0.082,0.004c0.03,0,0.058-0.004,0.087-0.004h21.378c7.468,0,13.481-6.23,13.126-13.777
			C1460.907,1076.844,1454.821,1071.408,1447.743,1071.408"/>
		<rect x="1200.616" y="420.37" clip-path="url(#SVGID_2_)" fill="#0C3563" width="26.282" height="24.389"/>
		<path clip-path="url(#SVGID_2_)" fill="#0C3563" d="M1537.625,326.798h-35.756v-72.6h35.756V326.798z M1502.892,325.777h33.711
			v-70.555h-33.711V325.777z"/>
		<path clip-path="url(#SVGID_2_)" fill="#0C3563" d="M1512.815,326.799h-487.443c-0.282,0-0.511-0.229-0.511-0.511
			c0-0.282,0.229-0.511,0.511-0.511h486.421V186.177h-40.437V24.571h-39.416v87.544h-32.735v32.217h-58.038v-18.709h-24.822V51.356
			h-66.432V-74.518l-51.508-17.07v83.513h-13v-62.63l-51.506,19.495v73.886h-48.625v-53.789h-49.894v53.789h-9.497v31.281h-40.569
			v106.719c0,0.283-0.229,0.512-0.51,0.512c-0.282,0-0.512-0.229-0.512-0.512V52.934h40.568V21.653h9.498v-53.787h51.938v53.787
			h46.579v-73.569l53.551-20.268v63.087h10.957v-83.907l53.55,17.745V50.335h66.434V124.6h24.822v18.71h55.993v-32.217h32.735V23.55
			h41.459v161.604h40.438V326.799z"/>
		<path clip-path="url(#SVGID_2_)" fill="#0C3563" d="M1243.084-55.036h-36.458v-13.997h36.458V-55.036z M1207.649-56.057h34.413
			v-11.955h-34.413V-56.057z"/>
		<path clip-path="url(#SVGID_2_)" fill="#0C3563" d="M1243.084-30.657h-36.458v-13.999h36.458V-30.657z M1207.649-31.68h34.413
			v-11.953h-34.413V-31.68z"/>
		<path clip-path="url(#SVGID_2_)" fill="#0C3563" d="M1243.084-8.725h-36.458v-13.999h36.458V-8.725z M1207.649-9.748h34.413
			v-11.954h-34.413V-9.748z"/>
		<path clip-path="url(#SVGID_2_)" fill="#0C3563" d="M1472.376,103.581h-33.796V82.528h33.796V103.581z M1439.602,102.558h31.754
			V83.551h-31.754V102.558z"/>
		<path clip-path="url(#SVGID_2_)" fill="#0C3563" d="M1472.376,165.063h-41.815v-21.052h41.815V165.063z M1431.584,164.043h39.771
			v-19.009h-39.771V164.043z"/>
		<path clip-path="url(#SVGID_2_)" fill="#0C3563" d="M1472.376,195.322h-41.815v-21.053h41.815V195.322z M1431.584,194.299h39.771
			v-19.007h-39.771V194.299z"/>
		<path clip-path="url(#SVGID_2_)" fill="#0C3563" d="M1473.042,226.978h-41.815v-21.053h41.815V226.978z M1432.248,225.956h39.771
			v-19.009h-39.771V225.956z"/>
		<path clip-path="url(#SVGID_2_)" fill="#0C3563" d="M1473.042,257.981h-41.815v-21.053h41.815V257.981z M1432.248,256.958h39.771
			v-19.009h-39.771V256.958z"/>
		<path clip-path="url(#SVGID_2_)" fill="#0C3563" d="M1473.042,289.636h-41.815v-21.052h41.815V289.636z M1432.248,288.616h39.771
			v-19.009h-39.771V288.616z"/>
		<path clip-path="url(#SVGID_2_)" fill="#0C3563" d="M1179.509-8.725h-38.292v-13.999h38.292V-8.725z M1142.24-9.748h36.246
			v-11.954h-36.246V-9.748z"/>
		<path clip-path="url(#SVGID_2_)" fill="#0C3563" d="M1179.509-30.459h-38.292v-13.999h38.292V-30.459z M1142.24-31.482h36.246
			v-11.954h-36.246V-31.482z"/>
		<path clip-path="url(#SVGID_2_)" fill="#0C3563" d="M1243.986,12.54h-102.769V-1.459h102.769V12.54z M1142.24,11.517h100.724
			V-0.436H1142.24V11.517z"/>
		<path clip-path="url(#SVGID_2_)" fill="#0C3563" d="M1243.986,32.052h-102.769V18.053h102.769V32.052z M1142.24,31.029h100.724
			V19.075H1142.24V31.029z"/>
		<path clip-path="url(#SVGID_2_)" fill="#0C3563" d="M1243.986,50.936h-102.769V37.433h102.769V50.936z M1142.24,49.914h100.724
			V38.455H1142.24V49.914z"/>
		<path clip-path="url(#SVGID_2_)" fill="#0C3563" d="M1472.376,134.807h-41.815v-21.052h41.815V134.807z M1431.584,133.785h39.771
			v-19.009h-39.771V133.785z"/>
		<path clip-path="url(#SVGID_2_)" fill="#0C3563" d="M1307.195,76.079h-9.926V62.506h9.926V76.079z M1298.289,75.057h7.882V63.528
			h-7.882V75.057z"/>
		<path clip-path="url(#SVGID_2_)" fill="#0C3563" d="M1290.541,76.079h-9.926V62.506h9.926V76.079z M1281.638,75.057h7.882V63.528
			h-7.882V75.057z"/>
		<path clip-path="url(#SVGID_2_)" fill="#0C3563" d="M1274.262,76.079h-9.927V62.506h9.927V76.079z M1265.358,75.057h7.885V63.528
			h-7.885V75.057z"/>
		<path clip-path="url(#SVGID_2_)" fill="#0C3563" d="M1258.827,76.079h-9.929V62.506h9.929V76.079z M1249.922,75.057h7.882V63.528
			h-7.882V75.057z"/>
		<path clip-path="url(#SVGID_2_)" fill="#0C3563" d="M1243.096,76.079h-9.927V62.506h9.927V76.079z M1234.191,75.057h7.883V63.528
			h-7.883V75.057z"/>
		<path clip-path="url(#SVGID_2_)" fill="#0C3563" d="M1227.183,76.079h-9.926V62.506h9.926V76.079z M1218.279,75.057h7.884V63.528
			h-7.884V75.057z"/>
		<path clip-path="url(#SVGID_2_)" fill="#0C3563" d="M1210.531,76.079h-9.929V62.506h9.929V76.079z M1201.626,75.057h7.883V63.528
			h-7.883V75.057z"/>
		<path clip-path="url(#SVGID_2_)" fill="#0C3563" d="M1194.253,76.079h-9.927V62.506h9.927V76.079z M1185.348,75.057h7.882V63.528
			h-7.882V75.057z"/>
		<path clip-path="url(#SVGID_2_)" fill="#0C3563" d="M1178.818,76.079h-9.928V62.506h9.928V76.079z M1169.912,75.057h7.882V63.528
			h-7.882V75.057z"/>
		<path clip-path="url(#SVGID_2_)" fill="#0C3563" d="M1163.085,76.079h-9.926V62.506h9.926V76.079z M1154.18,75.057h7.882V63.528
			h-7.882V75.057z"/>
		<path clip-path="url(#SVGID_2_)" fill="#0C3563" d="M1146.691,76.079h-9.926V62.506h9.926V76.079z M1137.786,75.057h7.882V63.528
			h-7.882V75.057z"/>
		<path clip-path="url(#SVGID_2_)" fill="#0C3563" d="M1130.039,76.079h-9.929V62.506h9.929V76.079z M1121.135,75.057h7.882V63.528
			h-7.882V75.057z"/>
		<path clip-path="url(#SVGID_2_)" fill="#0C3563" d="M1113.761,76.079h-9.928V62.506h9.928V76.079z M1104.856,75.057h7.883V63.528
			h-7.883V75.057z"/>
		<path clip-path="url(#SVGID_2_)" fill="#0C3563" d="M1098.325,76.079h-9.929V62.506h9.929V76.079z M1089.42,75.057h7.883V63.528
			h-7.883V75.057z"/>
		<path clip-path="url(#SVGID_2_)" fill="#0C3563" d="M1082.593,76.079h-9.928V62.506h9.928V76.079z M1073.688,75.057h7.884V63.528
			h-7.884V75.057z"/>
		<path clip-path="url(#SVGID_2_)" fill="#0C3563" d="M1066.681,76.079h-9.927V62.506h9.927V76.079z M1057.776,75.057h7.883V63.528
			h-7.883V75.057z"/>
		<path clip-path="url(#SVGID_2_)" fill="#0C3563" d="M1050.031,76.079h-9.929V62.506h9.929V76.079z M1041.125,75.057h7.882V63.528
			h-7.882V75.057z"/>
		<path clip-path="url(#SVGID_2_)" fill="#0C3563" d="M1033.749,76.079h-9.926V62.506h9.926V76.079z M1024.844,75.057h7.882V63.528
			h-7.882V75.057z"/>
		<path clip-path="url(#SVGID_2_)" fill="#0C3563" d="M1018.314,76.079h-9.927V62.506h9.927V76.079z M1009.409,75.057h7.882V63.528
			h-7.882V75.057z"/>
		<path clip-path="url(#SVGID_2_)" fill="#0C3563" d="M1002.581,76.079h-9.926V62.506h9.926V76.079z M993.678,75.057h7.883V63.528
			h-7.883V75.057z"/>
		<path clip-path="url(#SVGID_2_)" fill="#0C3563" d="M1307.195,98.228h-9.926V84.656h9.926V98.228z M1298.289,97.206h7.882V85.677
			h-7.882V97.206z"/>
		<path clip-path="url(#SVGID_2_)" fill="#0C3563" d="M1290.541,98.228h-9.926V84.656h9.926V98.228z M1281.638,97.206h7.882V85.677
			h-7.882V97.206z"/>
		<path clip-path="url(#SVGID_2_)" fill="#0C3563" d="M1274.262,98.228h-9.927V84.656h9.927V98.228z M1265.358,97.206h7.885V85.677
			h-7.885V97.206z"/>
		<path clip-path="url(#SVGID_2_)" fill="#0C3563" d="M1258.827,98.228h-9.929V84.656h9.929V98.228z M1249.922,97.206h7.882V85.677
			h-7.882V97.206z"/>
		<path clip-path="url(#SVGID_2_)" fill="#0C3563" d="M1243.096,98.228h-9.927V84.656h9.927V98.228z M1234.191,97.206h7.883V85.677
			h-7.883V97.206z"/>
		<path clip-path="url(#SVGID_2_)" fill="#0C3563" d="M1227.183,98.228h-9.926V84.656h9.926V98.228z M1218.279,97.206h7.884V85.677
			h-7.884V97.206z"/>
		<path clip-path="url(#SVGID_2_)" fill="#0C3563" d="M1210.531,98.228h-9.929V84.656h9.929V98.228z M1201.626,97.206h7.883V85.677
			h-7.883V97.206z"/>
		<path clip-path="url(#SVGID_2_)" fill="#0C3563" d="M1194.253,98.228h-9.927V84.656h9.927V98.228z M1185.348,97.206h7.882V85.677
			h-7.882V97.206z"/>
		<path clip-path="url(#SVGID_2_)" fill="#0C3563" d="M1178.818,98.228h-9.928V84.656h9.928V98.228z M1169.912,97.206h7.882V85.677
			h-7.882V97.206z"/>
		<path clip-path="url(#SVGID_2_)" fill="#0C3563" d="M1163.085,98.228h-9.926V84.656h9.926V98.228z M1154.18,97.206h7.882V85.677
			h-7.882V97.206z"/>
		<path clip-path="url(#SVGID_2_)" fill="#0C3563" d="M1146.691,98.228h-9.926V84.656h9.926V98.228z M1137.786,97.206h7.882V85.677
			h-7.882V97.206z"/>
		<path clip-path="url(#SVGID_2_)" fill="#0C3563" d="M1130.039,98.228h-9.929V84.656h9.929V98.228z M1121.135,97.206h7.882V85.677
			h-7.882V97.206z"/>
		<path clip-path="url(#SVGID_2_)" fill="#0C3563" d="M1113.761,98.228h-9.928V84.656h9.928V98.228z M1104.856,97.206h7.883V85.677
			h-7.883V97.206z"/>
		<path clip-path="url(#SVGID_2_)" fill="#0C3563" d="M1098.325,98.228h-9.929V84.656h9.929V98.228z M1089.42,97.206h7.883V85.677
			h-7.883V97.206z"/>
		<path clip-path="url(#SVGID_2_)" fill="#0C3563" d="M1082.593,98.228h-9.928V84.656h9.928V98.228z M1073.688,97.206h7.884V85.677
			h-7.884V97.206z"/>
		<path clip-path="url(#SVGID_2_)" fill="#0C3563" d="M1066.681,98.228h-9.927V84.656h9.927V98.228z M1057.776,97.206h7.883V85.677
			h-7.883V97.206z"/>
		<path clip-path="url(#SVGID_2_)" fill="#0C3563" d="M1050.031,98.228h-9.929V84.656h9.929V98.228z M1041.125,97.206h7.882V85.677
			h-7.882V97.206z"/>
		<path clip-path="url(#SVGID_2_)" fill="#0C3563" d="M1033.749,98.228h-9.926V84.656h9.926V98.228z M1024.844,97.206h7.882V85.677
			h-7.882V97.206z"/>
		<path clip-path="url(#SVGID_2_)" fill="#0C3563" d="M1018.314,98.228h-9.927V84.656h9.927V98.228z M1009.409,97.206h7.882V85.677
			h-7.882V97.206z"/>
		<path clip-path="url(#SVGID_2_)" fill="#0C3563" d="M1002.581,98.228h-9.926V84.656h9.926V98.228z M993.678,97.206h7.883V85.677
			h-7.883V97.206z"/>
		<path clip-path="url(#SVGID_2_)" fill="#0C3563" d="M1307.195,120.038h-9.926v-13.575h9.926V120.038z M1298.289,119.017h7.882
			v-11.531h-7.882V119.017z"/>
		<path clip-path="url(#SVGID_2_)" fill="#0C3563" d="M1290.541,120.038h-9.926v-13.575h9.926V120.038z M1281.638,119.017h7.882
			v-11.531h-7.882V119.017z"/>
		<path clip-path="url(#SVGID_2_)" fill="#0C3563" d="M1274.262,120.038h-9.927v-13.575h9.927V120.038z M1265.358,119.017h7.885
			v-11.531h-7.885V119.017z"/>
		<path clip-path="url(#SVGID_2_)" fill="#0C3563" d="M1258.827,120.038h-9.929v-13.575h9.929V120.038z M1249.922,119.017h7.882
			v-11.531h-7.882V119.017z"/>
		<path clip-path="url(#SVGID_2_)" fill="#0C3563" d="M1243.096,120.038h-9.927v-13.575h9.927V120.038z M1234.191,119.017h7.883
			v-11.531h-7.883V119.017z"/>
		<path clip-path="url(#SVGID_2_)" fill="#0C3563" d="M1227.183,120.038h-9.926v-13.575h9.926V120.038z M1218.279,119.017h7.884
			v-11.531h-7.884V119.017z"/>
		<path clip-path="url(#SVGID_2_)" fill="#0C3563" d="M1210.531,120.038h-9.929v-13.575h9.929V120.038z M1201.626,119.017h7.883
			v-11.531h-7.883V119.017z"/>
		<path clip-path="url(#SVGID_2_)" fill="#0C3563" d="M1194.253,120.038h-9.927v-13.575h9.927V120.038z M1185.348,119.017h7.882
			v-11.531h-7.882V119.017z"/>
		<path clip-path="url(#SVGID_2_)" fill="#0C3563" d="M1178.818,120.038h-9.928v-13.575h9.928V120.038z M1169.912,119.017h7.882
			v-11.531h-7.882V119.017z"/>
		<path clip-path="url(#SVGID_2_)" fill="#0C3563" d="M1163.085,120.038h-9.926v-13.575h9.926V120.038z M1154.18,119.017h7.882
			v-11.531h-7.882V119.017z"/>
		<path clip-path="url(#SVGID_2_)" fill="#0C3563" d="M1146.691,120.038h-9.926v-13.575h9.926V120.038z M1137.786,119.017h7.882
			v-11.531h-7.882V119.017z"/>
		<path clip-path="url(#SVGID_2_)" fill="#0C3563" d="M1130.039,120.038h-9.929v-13.575h9.929V120.038z M1121.135,119.017h7.882
			v-11.531h-7.882V119.017z"/>
		<path clip-path="url(#SVGID_2_)" fill="#0C3563" d="M1113.761,120.038h-9.928v-13.575h9.928V120.038z M1104.856,119.017h7.883
			v-11.531h-7.883V119.017z"/>
		<path clip-path="url(#SVGID_2_)" fill="#0C3563" d="M1098.325,120.038h-9.929v-13.575h9.929V120.038z M1089.42,119.017h7.883
			v-11.531h-7.883V119.017z"/>
		<path clip-path="url(#SVGID_2_)" fill="#0C3563" d="M1082.593,120.038h-9.928v-13.575h9.928V120.038z M1073.688,119.017h7.884
			v-11.531h-7.884V119.017z"/>
		<path clip-path="url(#SVGID_2_)" fill="#0C3563" d="M1066.681,120.038h-9.927v-13.575h9.927V120.038z M1057.776,119.017h7.883
			v-11.531h-7.883V119.017z"/>
		<path clip-path="url(#SVGID_2_)" fill="#0C3563" d="M1050.031,120.038h-9.929v-13.575h9.929V120.038z M1041.125,119.017h7.882
			v-11.531h-7.882V119.017z"/>
		<path clip-path="url(#SVGID_2_)" fill="#0C3563" d="M1033.749,120.038h-9.926v-13.575h9.926V120.038z M1024.844,119.017h7.882
			v-11.531h-7.882V119.017z"/>
		<path clip-path="url(#SVGID_2_)" fill="#0C3563" d="M1018.314,120.038h-9.927v-13.575h9.927V120.038z M1009.409,119.017h7.882
			v-11.531h-7.882V119.017z"/>
		<path clip-path="url(#SVGID_2_)" fill="#0C3563" d="M1002.581,120.038h-9.926v-13.575h9.926V120.038z M993.678,119.017h7.883
			v-11.531h-7.883V119.017z"/>
		<path clip-path="url(#SVGID_2_)" fill="#0C3563" d="M1307.195,143.21h-9.926v-13.573h9.926V143.21z M1298.289,142.187h7.882
			v-11.529h-7.882V142.187z"/>
		<path clip-path="url(#SVGID_2_)" fill="#0C3563" d="M1290.541,143.21h-9.926v-13.573h9.926V143.21z M1281.638,142.187h7.882
			v-11.529h-7.882V142.187z"/>
		<path clip-path="url(#SVGID_2_)" fill="#0C3563" d="M1274.262,143.21h-9.927v-13.573h9.927V143.21z M1265.358,142.187h7.885
			v-11.529h-7.885V142.187z"/>
		<path clip-path="url(#SVGID_2_)" fill="#0C3563" d="M1258.827,143.21h-9.929v-13.573h9.929V143.21z M1249.922,142.187h7.882
			v-11.529h-7.882V142.187z"/>
		<path clip-path="url(#SVGID_2_)" fill="#0C3563" d="M1243.096,143.21h-9.927v-13.573h9.927V143.21z M1234.191,142.187h7.883
			v-11.529h-7.883V142.187z"/>
		<path clip-path="url(#SVGID_2_)" fill="#0C3563" d="M1227.183,143.21h-9.926v-13.573h9.926V143.21z M1218.279,142.187h7.884
			v-11.529h-7.884V142.187z"/>
		<path clip-path="url(#SVGID_2_)" fill="#0C3563" d="M1210.531,143.21h-9.929v-13.573h9.929V143.21z M1201.626,142.187h7.883
			v-11.529h-7.883V142.187z"/>
		<path clip-path="url(#SVGID_2_)" fill="#0C3563" d="M1194.253,143.21h-9.927v-13.573h9.927V143.21z M1185.348,142.187h7.882
			v-11.529h-7.882V142.187z"/>
		<path clip-path="url(#SVGID_2_)" fill="#0C3563" d="M1178.818,143.21h-9.928v-13.573h9.928V143.21z M1169.912,142.187h7.882
			v-11.529h-7.882V142.187z"/>
		<path clip-path="url(#SVGID_2_)" fill="#0C3563" d="M1163.085,143.21h-9.926v-13.573h9.926V143.21z M1154.18,142.187h7.882
			v-11.529h-7.882V142.187z"/>
		<path clip-path="url(#SVGID_2_)" fill="#0C3563" d="M1146.691,143.21h-9.926v-13.573h9.926V143.21z M1137.786,142.187h7.882
			v-11.529h-7.882V142.187z"/>
		<path clip-path="url(#SVGID_2_)" fill="#0C3563" d="M1130.039,143.21h-9.929v-13.573h9.929V143.21z M1121.135,142.187h7.882
			v-11.529h-7.882V142.187z"/>
		<path clip-path="url(#SVGID_2_)" fill="#0C3563" d="M1113.761,143.21h-9.928v-13.573h9.928V143.21z M1104.856,142.187h7.883
			v-11.529h-7.883V142.187z"/>
		<path clip-path="url(#SVGID_2_)" fill="#0C3563" d="M1098.325,143.21h-9.929v-13.573h9.929V143.21z M1089.42,142.187h7.883
			v-11.529h-7.883V142.187z"/>
		<path clip-path="url(#SVGID_2_)" fill="#0C3563" d="M1082.593,143.21h-9.928v-13.573h9.928V143.21z M1073.688,142.187h7.884
			v-11.529h-7.884V142.187z"/>
		<path clip-path="url(#SVGID_2_)" fill="#0C3563" d="M1066.681,143.21h-9.927v-13.573h9.927V143.21z M1057.776,142.187h7.883
			v-11.529h-7.883V142.187z"/>
		<path clip-path="url(#SVGID_2_)" fill="#0C3563" d="M1050.031,143.21h-9.929v-13.573h9.929V143.21z M1041.125,142.187h7.882
			v-11.529h-7.882V142.187z"/>
		<path clip-path="url(#SVGID_2_)" fill="#0C3563" d="M1033.749,143.21h-9.926v-13.573h9.926V143.21z M1024.844,142.187h7.882
			v-11.529h-7.882V142.187z"/>
		<path clip-path="url(#SVGID_2_)" fill="#0C3563" d="M1018.314,143.21h-9.927v-13.573h9.927V143.21z M1009.409,142.187h7.882
			v-11.529h-7.882V142.187z"/>
		<path clip-path="url(#SVGID_2_)" fill="#0C3563" d="M1002.581,143.21h-9.926v-13.573h9.926V143.21z M993.678,142.187h7.883
			v-11.529h-7.883V142.187z"/>
		<path clip-path="url(#SVGID_2_)" fill="#0C3563" d="M1307.195,165.357h-9.926v-13.573h9.926V165.357z M1298.289,164.335h7.882
			v-11.529h-7.882V164.335z"/>
		<path clip-path="url(#SVGID_2_)" fill="#0C3563" d="M1290.541,165.357h-9.926v-13.573h9.926V165.357z M1281.638,164.335h7.882
			v-11.529h-7.882V164.335z"/>
		<path clip-path="url(#SVGID_2_)" fill="#0C3563" d="M1274.262,165.357h-9.927v-13.573h9.927V165.357z M1265.358,164.335h7.885
			v-11.529h-7.885V164.335z"/>
		<path clip-path="url(#SVGID_2_)" fill="#0C3563" d="M1258.827,165.357h-9.929v-13.573h9.929V165.357z M1249.922,164.335h7.882
			v-11.529h-7.882V164.335z"/>
		<path clip-path="url(#SVGID_2_)" fill="#0C3563" d="M1243.096,165.357h-9.927v-13.573h9.927V165.357z M1234.191,164.335h7.883
			v-11.529h-7.883V164.335z"/>
		<path clip-path="url(#SVGID_2_)" fill="#0C3563" d="M1227.183,165.357h-9.926v-13.573h9.926V165.357z M1218.279,164.335h7.884
			v-11.529h-7.884V164.335z"/>
		<path clip-path="url(#SVGID_2_)" fill="#0C3563" d="M1210.531,165.357h-9.929v-13.573h9.929V165.357z M1201.626,164.335h7.883
			v-11.529h-7.883V164.335z"/>
		<path clip-path="url(#SVGID_2_)" fill="#0C3563" d="M1194.253,165.357h-9.927v-13.573h9.927V165.357z M1185.348,164.335h7.882
			v-11.529h-7.882V164.335z"/>
		<path clip-path="url(#SVGID_2_)" fill="#0C3563" d="M1178.818,165.357h-9.928v-13.573h9.928V165.357z M1169.912,164.335h7.882
			v-11.529h-7.882V164.335z"/>
		<path clip-path="url(#SVGID_2_)" fill="#0C3563" d="M1163.085,165.357h-9.926v-13.573h9.926V165.357z M1154.18,164.335h7.882
			v-11.529h-7.882V164.335z"/>
		<path clip-path="url(#SVGID_2_)" fill="#0C3563" d="M1146.691,165.357h-9.926v-13.573h9.926V165.357z M1137.786,164.335h7.882
			v-11.529h-7.882V164.335z"/>
		<path clip-path="url(#SVGID_2_)" fill="#0C3563" d="M1130.039,165.357h-9.929v-13.573h9.929V165.357z M1121.135,164.335h7.882
			v-11.529h-7.882V164.335z"/>
		<path clip-path="url(#SVGID_2_)" fill="#0C3563" d="M1113.761,165.357h-9.928v-13.573h9.928V165.357z M1104.856,164.335h7.883
			v-11.529h-7.883V164.335z"/>
		<path clip-path="url(#SVGID_2_)" fill="#0C3563" d="M1098.325,165.357h-9.929v-13.573h9.929V165.357z M1089.42,164.335h7.883
			v-11.529h-7.883V164.335z"/>
		<path clip-path="url(#SVGID_2_)" fill="#0C3563" d="M1082.593,165.357h-9.928v-13.573h9.928V165.357z M1073.688,164.335h7.884
			v-11.529h-7.884V164.335z"/>
		<path clip-path="url(#SVGID_2_)" fill="#0C3563" d="M1066.681,165.357h-9.927v-13.573h9.927V165.357z M1057.776,164.335h7.883
			v-11.529h-7.883V164.335z"/>
		<path clip-path="url(#SVGID_2_)" fill="#0C3563" d="M1050.031,165.357h-9.929v-13.573h9.929V165.357z M1041.125,164.335h7.882
			v-11.529h-7.882V164.335z"/>
		<path clip-path="url(#SVGID_2_)" fill="#0C3563" d="M1018.314,165.357h-9.214c-0.393,0-0.714-0.32-0.714-0.713v-12.86h9.928
			V165.357z M1009.409,164.335h7.882v-11.529h-7.882V164.335z"/>
		<path clip-path="url(#SVGID_2_)" fill="#0C3563" d="M1033.749,165.357h-9.928v-13.573h9.928V165.357z M1024.844,164.335h7.882
			v-11.529h-7.882V164.335z"/>
		<path clip-path="url(#SVGID_2_)" fill="#0C3563" d="M1002.581,164.248l-9.926-1.706v-10.758h9.926V164.248z M993.678,161.681
			l7.883,1.354v-10.229h-7.883V161.681z"/>
		<path clip-path="url(#SVGID_2_)" fill="#0C3563" d="M1307.195,187.168h-9.926v-13.574h9.926V187.168z M1298.289,186.145h7.882
			v-11.528h-7.882V186.145z"/>
		<path clip-path="url(#SVGID_2_)" fill="#0C3563" d="M1290.541,187.168h-9.926v-13.574h9.926V187.168z M1281.638,186.145h7.882
			v-11.528h-7.882V186.145z"/>
		<path clip-path="url(#SVGID_2_)" fill="#0C3563" d="M1274.262,187.168h-9.927v-13.574h9.927V187.168z M1265.358,186.145h7.885
			v-11.528h-7.885V186.145z"/>
		<path clip-path="url(#SVGID_2_)" fill="#0C3563" d="M1258.827,187.168h-9.929v-13.574h9.929V187.168z M1249.922,186.145h7.882
			v-11.528h-7.882V186.145z"/>
		<path clip-path="url(#SVGID_2_)" fill="#0C3563" d="M1243.096,187.168h-9.927v-13.574h9.927V187.168z M1234.191,186.145h7.883
			v-11.528h-7.883V186.145z"/>
		<path clip-path="url(#SVGID_2_)" fill="#0C3563" d="M1227.183,187.168h-9.926v-13.574h9.926V187.168z M1218.279,186.145h7.884
			v-11.528h-7.884V186.145z"/>
		<path clip-path="url(#SVGID_2_)" fill="#0C3563" d="M1210.531,187.168h-9.929v-13.574h9.929V187.168z M1201.626,186.145h7.883
			v-11.528h-7.883V186.145z"/>
		<path clip-path="url(#SVGID_2_)" fill="#0C3563" d="M1194.253,187.168h-9.927v-13.574h9.927V187.168z M1185.348,186.145h7.882
			v-11.528h-7.882V186.145z"/>
		<path clip-path="url(#SVGID_2_)" fill="#0C3563" d="M1178.818,187.168h-9.928v-13.574h9.928V187.168z M1169.912,186.145h7.882
			v-11.528h-7.882V186.145z"/>
		<path clip-path="url(#SVGID_2_)" fill="#0C3563" d="M1163.085,187.168h-9.926v-13.574h9.926V187.168z M1154.18,186.145h7.882
			v-11.528h-7.882V186.145z"/>
		<path clip-path="url(#SVGID_2_)" fill="#0C3563" d="M1146.691,187.168h-9.926v-13.574h9.926V187.168z M1137.786,186.145h7.882
			v-11.528h-7.882V186.145z"/>
		<path clip-path="url(#SVGID_2_)" fill="#0C3563" d="M1130.039,187.168h-9.929v-13.574h9.929V187.168z M1121.135,186.145h7.882
			v-11.528h-7.882V186.145z"/>
		<path clip-path="url(#SVGID_2_)" fill="#0C3563" d="M1113.761,187.168h-9.928v-13.574h9.928V187.168z M1104.856,186.145h7.883
			v-11.528h-7.883V186.145z"/>
		<path clip-path="url(#SVGID_2_)" fill="#0C3563" d="M1098.325,187.168h-9.929v-13.574h9.929V187.168z M1089.42,186.145h7.883
			v-11.528h-7.883V186.145z"/>
		<path clip-path="url(#SVGID_2_)" fill="#0C3563" d="M1082.593,187.168h-9.928v-13.574h9.928V187.168z M1073.688,186.145h7.884
			v-11.528h-7.884V186.145z"/>
		<path clip-path="url(#SVGID_2_)" fill="#0C3563" d="M1066.681,187.168h-9.927v-13.574h9.927V187.168z M1057.776,186.145h7.883
			v-11.528h-7.883V186.145z"/>
		<path clip-path="url(#SVGID_2_)" fill="#0C3563" d="M1050.031,187.168h-9.929v-13.574h9.929V187.168z M1041.125,186.145h7.882
			v-11.528h-7.882V186.145z"/>
		<path clip-path="url(#SVGID_2_)" fill="#0C3563" d="M919.031,231.492h-20.834v-82.71h20.834V231.492z M899.219,230.471h18.789
			v-80.667h-18.789V230.471z"/>
		<path clip-path="url(#SVGID_2_)" fill="#0C3563" d="M1399.21,144.277h-31.277v-33.24h14.691V84.928h2.096v26.108h14.49V144.277z
			 M1368.954,143.254h29.233V112.06h-14.49l-0.051-26.111v26.111h-14.692V143.254z"/>
		<path clip-path="url(#SVGID_2_)" fill="#0C3563" d="M1415.695,112.145V23.586h7.531v-8.717h2.095v8.717h36.45v-8.717h2.095v8.717
			h8.511v21.052l-32.774,0.057v8.737l32.774-0.059v21.055h-40.437v37.687L1415.695,112.145z M1416.715,24.607v86.513l14.202-0.024
			V73.404h40.438V54.398l-32.775,0.057v-10.78l32.775-0.058v-19.01h-8.514l-0.051-8.716v8.716h-38.493l-0.052-8.716v8.716H1416.715z
			 M1471.866,44.128h0.009H1471.866z"/>
		<path clip-path="url(#SVGID_2_)" fill="#0C3563" d="M1032.115,282.294c-0.282,0-0.511-0.231-0.511-0.513v-112.55l-113.171-19.434
			c-0.279-0.048-0.466-0.312-0.418-0.591c0.048-0.276,0.313-0.464,0.59-0.417l114.021,19.58v113.412
			C1032.625,282.063,1032.398,282.294,1032.115,282.294"/>
		<path clip-path="url(#SVGID_2_)" fill="#0C3563" d="M1032.625,326.798H889.889v-96.327h142.736V326.798z M890.911,325.777h140.691
			v-94.285H890.911V325.777z"/>
		<path clip-path="url(#SVGID_2_)" fill="#0C3563" d="M1032.625,205.51H889.889v-31.998h142.736V205.51z M890.911,204.488h140.691
			v-29.953H890.911V204.488z"/>
		<path clip-path="url(#SVGID_2_)" fill="#0C3563" d="M1022.976,267.039h-8.301V255.76h8.301V267.039z M1015.698,266.017h6.257
			v-9.236h-6.257V266.017z"/>
		<path clip-path="url(#SVGID_2_)" fill="#0C3563" d="M1009.367,267.039h-8.303V255.76h8.303V267.039z M1002.088,266.017h6.256
			v-9.236h-6.256V266.017z"/>
		<path clip-path="url(#SVGID_2_)" fill="#0C3563" d="M996.061,267.039h-8.302V255.76h8.302V267.039z M988.782,266.017h6.256v-9.236
			h-6.256V266.017z"/>
		<path clip-path="url(#SVGID_2_)" fill="#0C3563" d="M983.444,267.039h-8.3V255.76h8.3V267.039z M976.167,266.017h6.255v-9.236
			h-6.255V266.017z"/>
		<path clip-path="url(#SVGID_2_)" fill="#0C3563" d="M970.586,267.039h-8.299V255.76h8.299V267.039z M963.309,266.017h6.256v-9.236
			h-6.256V266.017z"/>
		<path clip-path="url(#SVGID_2_)" fill="#0C3563" d="M957.582,267.039h-8.3V255.76h8.3V267.039z M950.303,266.017h6.257v-9.236
			h-6.257V266.017z"/>
		<path clip-path="url(#SVGID_2_)" fill="#0C3563" d="M943.972,267.039h-8.3V255.76h8.3V267.039z M936.693,266.017h6.257v-9.236
			h-6.257V266.017z"/>
		<path clip-path="url(#SVGID_2_)" fill="#0C3563" d="M930.667,267.039h-8.3V255.76h8.3V267.039z M923.387,266.017h6.256v-9.236
			h-6.256V266.017z"/>
		<path clip-path="url(#SVGID_2_)" fill="#0C3563" d="M918.05,267.039h-8.299V255.76h8.299V267.039z M910.773,266.017h6.257v-9.236
			h-6.257V266.017z"/>
		<path clip-path="url(#SVGID_2_)" fill="#0C3563" d="M905.193,267.039h-8.302V255.76h8.302V267.039z M897.914,266.017h6.256v-9.236
			h-6.256V266.017z"/>
		<path clip-path="url(#SVGID_2_)" fill="#0C3563" d="M1022.976,285.143h-8.301v-11.281h8.301V285.143z M1015.698,284.121h6.257
			v-9.236h-6.257V284.121z"/>
		<path clip-path="url(#SVGID_2_)" fill="#0C3563" d="M1009.367,285.143h-8.303v-11.281h8.303V285.143z M1002.088,284.121h6.256
			v-9.236h-6.256V284.121z"/>
		<path clip-path="url(#SVGID_2_)" fill="#0C3563" d="M996.061,285.143h-8.302v-11.281h8.302V285.143z M988.782,284.121h6.256
			v-9.236h-6.256V284.121z"/>
		<path clip-path="url(#SVGID_2_)" fill="#0C3563" d="M983.444,285.143h-8.3v-11.281h8.3V285.143z M976.167,284.121h6.255v-9.236
			h-6.255V284.121z"/>
		<path clip-path="url(#SVGID_2_)" fill="#0C3563" d="M970.586,285.143h-8.299v-11.281h8.299V285.143z M963.309,284.121h6.256
			v-9.236h-6.256V284.121z"/>
		<path clip-path="url(#SVGID_2_)" fill="#0C3563" d="M957.582,285.143h-8.3v-11.281h8.3V285.143z M950.303,284.121h6.257v-9.236
			h-6.257V284.121z"/>
		<path clip-path="url(#SVGID_2_)" fill="#0C3563" d="M943.972,285.143h-8.3v-11.281h8.3V285.143z M936.693,284.121h6.257v-9.236
			h-6.257V284.121z"/>
		<path clip-path="url(#SVGID_2_)" fill="#0C3563" d="M930.667,285.143h-8.3v-11.281h8.3V285.143z M923.387,284.121h6.256v-9.236
			h-6.256V284.121z"/>
		<path clip-path="url(#SVGID_2_)" fill="#0C3563" d="M918.05,285.143h-8.299v-11.281h8.299V285.143z M910.773,284.121h6.257v-9.236
			h-6.257V284.121z"/>
		<path clip-path="url(#SVGID_2_)" fill="#0C3563" d="M905.193,285.143h-8.302v-11.281h8.302V285.143z M897.914,284.121h6.256
			v-9.236h-6.256V284.121z"/>
		<path clip-path="url(#SVGID_2_)" fill="#0C3563" d="M1022.976,223.441h-8.301v-11.282h8.301V223.441z M1015.698,222.419h6.257
			v-9.237h-6.257V222.419z"/>
		<path clip-path="url(#SVGID_2_)" fill="#0C3563" d="M1009.367,223.441h-8.303v-11.282h8.303V223.441z M1002.088,222.419h6.256
			v-9.237h-6.256V222.419z"/>
		<path clip-path="url(#SVGID_2_)" fill="#0C3563" d="M996.061,223.441h-8.302v-11.282h8.302V223.441z M988.782,222.419h6.256
			v-9.237h-6.256V222.419z"/>
		<path clip-path="url(#SVGID_2_)" fill="#0C3563" d="M983.444,223.441h-8.3v-11.282h8.3V223.441z M976.167,222.419h6.255v-9.237
			h-6.255V222.419z"/>
		<path clip-path="url(#SVGID_2_)" fill="#0C3563" d="M970.586,223.441h-8.299v-11.282h8.299V223.441z M963.309,222.419h6.256
			v-9.237h-6.256V222.419z"/>
		<path clip-path="url(#SVGID_2_)" fill="#0C3563" d="M957.582,223.441h-8.3v-11.282h8.3V223.441z M950.303,222.419h6.257v-9.237
			h-6.257V222.419z"/>
		<path clip-path="url(#SVGID_2_)" fill="#0C3563" d="M943.972,223.441h-8.3v-11.282h8.3V223.441z M936.693,222.419h6.257v-9.237
			h-6.257V222.419z"/>
		<path clip-path="url(#SVGID_2_)" fill="#0C3563" d="M930.667,223.441h-8.3v-11.282h8.3V223.441z M923.387,222.419h6.256v-9.237
			h-6.256V222.419z"/>
		<path clip-path="url(#SVGID_2_)" fill="#0C3563" d="M1022.976,248.664h-8.301v-11.28h8.301V248.664z M1015.698,247.641h6.257
			v-9.235h-6.257V247.641z"/>
		<path clip-path="url(#SVGID_2_)" fill="#0C3563" d="M1009.367,248.664h-8.303v-11.28h8.303V248.664z M1002.088,247.641h6.256
			v-9.235h-6.256V247.641z"/>
		<path clip-path="url(#SVGID_2_)" fill="#0C3563" d="M996.061,248.664h-8.302v-11.28h8.302V248.664z M988.782,247.641h6.256v-9.235
			h-6.256V247.641z"/>
		<path clip-path="url(#SVGID_2_)" fill="#0C3563" d="M983.444,248.664h-8.3v-11.28h8.3V248.664z M976.167,247.641h6.255v-9.235
			h-6.255V247.641z"/>
		<path clip-path="url(#SVGID_2_)" fill="#0C3563" d="M970.586,248.664h-8.299v-11.28h8.299V248.664z M963.309,247.641h6.256v-9.235
			h-6.256V247.641z"/>
		<path clip-path="url(#SVGID_2_)" fill="#0C3563" d="M957.582,248.664h-8.3v-11.28h8.3V248.664z M950.303,247.641h6.257v-9.235
			h-6.257V247.641z"/>
		<path clip-path="url(#SVGID_2_)" fill="#0C3563" d="M943.972,248.664h-8.3v-11.28h8.3V248.664z M936.693,247.641h6.257v-9.235
			h-6.257V247.641z"/>
		<path clip-path="url(#SVGID_2_)" fill="#0C3563" d="M930.667,248.664h-8.3v-11.28h8.3V248.664z M923.387,247.641h6.256v-9.235
			h-6.256V247.641z"/>
		<path clip-path="url(#SVGID_2_)" fill="#0C3563" d="M918.05,248.664h-8.299v-11.28h8.299V248.664z M910.773,247.641h6.257v-9.235
			h-6.257V247.641z"/>
		<path clip-path="url(#SVGID_2_)" fill="#0C3563" d="M905.193,248.664h-8.302v-11.28h8.302V248.664z M897.914,247.641h6.256v-9.235
			h-6.256V247.641z"/>
		<path clip-path="url(#SVGID_2_)" fill="#0C3563" d="M1022.976,302.968h-8.301v-11.281h8.301V302.968z M1015.698,301.945h6.257
			v-9.236h-6.257V301.945z"/>
		<path clip-path="url(#SVGID_2_)" fill="#0C3563" d="M1009.367,302.968h-8.303v-11.281h8.303V302.968z M1002.088,301.945h6.256
			v-9.236h-6.256V301.945z"/>
		<path clip-path="url(#SVGID_2_)" fill="#0C3563" d="M996.061,302.968h-8.302v-11.281h8.302V302.968z M988.782,301.945h6.256
			v-9.236h-6.256V301.945z"/>
		<path clip-path="url(#SVGID_2_)" fill="#0C3563" d="M983.444,302.968h-8.3v-11.281h8.3V302.968z M976.167,301.945h6.255v-9.236
			h-6.255V301.945z"/>
		<path clip-path="url(#SVGID_2_)" fill="#0C3563" d="M970.586,302.968h-8.299v-11.281h8.299V302.968z M963.309,301.945h6.256
			v-9.236h-6.256V301.945z"/>
		<path clip-path="url(#SVGID_2_)" fill="#0C3563" d="M957.582,302.968h-8.3v-11.281h8.3V302.968z M950.303,301.945h6.257v-9.236
			h-6.257V301.945z"/>
		<path clip-path="url(#SVGID_2_)" fill="#0C3563" d="M943.972,302.968h-8.3v-11.281h8.3V302.968z M936.693,301.945h6.257v-9.236
			h-6.257V301.945z"/>
		<path clip-path="url(#SVGID_2_)" fill="#0C3563" d="M930.667,302.968h-8.3v-11.281h8.3V302.968z M923.387,301.945h6.256v-9.236
			h-6.256V301.945z"/>
		<path clip-path="url(#SVGID_2_)" fill="#0C3563" d="M918.05,302.968h-8.299v-11.281h8.299V302.968z M910.773,301.945h6.257v-9.236
			h-6.257V301.945z"/>
		<path clip-path="url(#SVGID_2_)" fill="#0C3563" d="M905.193,302.968h-8.302v-11.281h8.302V302.968z M897.914,301.945h6.256
			v-9.236h-6.256V301.945z"/>
		<path clip-path="url(#SVGID_2_)" fill="#0C3563" d="M928.747,151.568l-3.121-0.535v-23.526h3.121V151.568z M926.65,150.17
			l1.076,0.187v-21.828h-1.076V150.17z"/>
		<path clip-path="url(#SVGID_2_)" fill="#0C3563" d="M1021.813,193.819h-7.138v-11.604h7.138V193.819z M1015.698,192.796h5.095
			v-9.56h-5.095V192.796z"/>
		<path clip-path="url(#SVGID_2_)" fill="#0C3563" d="M961.096,193.819h-7.138v-11.604h7.138V193.819z M954.979,192.796h5.095v-9.56
			h-5.095V192.796z"/>
		<path clip-path="url(#SVGID_2_)" fill="#0C3563" d="M912.794,193.819h-7.138v-11.604h7.138V193.819z M906.679,192.796h5.093v-9.56
			h-5.093V192.796z"/>
		<path clip-path="url(#SVGID_2_)" fill="#0C3563" d="M1410.022,326.246h-204.965v-120.32h204.965V326.246z M1206.079,325.222
			h202.92V206.947h-202.92V325.222z"/>
		<path clip-path="url(#SVGID_2_)" fill="#0C3563" d="M1224.953,235.779h-11.896v-17.624h11.896V235.779z M1214.078,234.756h9.852
			v-15.579h-9.852V234.756z"/>
		<path clip-path="url(#SVGID_2_)" fill="#0C3563" d="M1244.127,235.779h-11.896v-17.624h11.896V235.779z M1233.253,234.756h9.852
			v-15.579h-9.852V234.756z"/>
		<path clip-path="url(#SVGID_2_)" fill="#0C3563" d="M1263.429,235.779h-11.896v-17.624h11.896V235.779z M1252.554,234.756h9.854
			v-15.579h-9.854V234.756z"/>
		<path clip-path="url(#SVGID_2_)" fill="#0C3563" d="M1282.604,235.779h-11.897v-17.624h11.897V235.779z M1271.729,234.756h9.853
			v-15.579h-9.853V234.756z"/>
		<path clip-path="url(#SVGID_2_)" fill="#0C3563" d="M1302.351,235.779h-11.896v-17.624h11.896V235.779z M1291.478,234.756h9.853
			v-15.579h-9.853V234.756z"/>
		<path clip-path="url(#SVGID_2_)" fill="#0C3563" d="M1321.526,235.779h-11.895v-17.624h11.895V235.779z M1310.651,234.756h9.853
			v-15.579h-9.853V234.756z"/>
		<path clip-path="url(#SVGID_2_)" fill="#0C3563" d="M1340.827,235.779h-11.896v-17.624h11.896V235.779z M1329.954,234.756h9.852
			v-15.579h-9.852V234.756z"/>
		<path clip-path="url(#SVGID_2_)" fill="#0C3563" d="M1360.001,235.779h-11.896v-17.624h11.896V235.779z M1349.127,234.756h9.852
			v-15.579h-9.852V234.756z"/>
		<path clip-path="url(#SVGID_2_)" fill="#0C3563" d="M1380.113,235.779h-11.898v-17.624h11.898V235.779z M1369.238,234.756h9.852
			v-15.579h-9.852V234.756z"/>
		<path clip-path="url(#SVGID_2_)" fill="#0C3563" d="M1399.286,235.779h-11.897v-17.624h11.897V235.779z M1388.411,234.756h9.852
			v-15.579h-9.852V234.756z"/>
		<path clip-path="url(#SVGID_2_)" fill="#0C3563" d="M1224.953,260.331h-11.896v-17.624h11.896V260.331z M1214.078,259.309h9.852
			v-15.581h-9.852V259.309z"/>
		<path clip-path="url(#SVGID_2_)" fill="#0C3563" d="M1244.127,260.331h-11.896v-17.624h11.896V260.331z M1233.253,259.309h9.852
			v-15.581h-9.852V259.309z"/>
		<path clip-path="url(#SVGID_2_)" fill="#0C3563" d="M1263.429,260.331h-11.896v-17.624h11.896V260.331z M1252.554,259.309h9.854
			v-15.581h-9.854V259.309z"/>
		<path clip-path="url(#SVGID_2_)" fill="#0C3563" d="M1282.604,260.331h-11.897v-17.624h11.897V260.331z M1271.729,259.309h9.853
			v-15.581h-9.853V259.309z"/>
		<path clip-path="url(#SVGID_2_)" fill="#0C3563" d="M1302.351,260.331h-11.896v-17.624h11.896V260.331z M1291.478,259.309h9.853
			v-15.581h-9.853V259.309z"/>
		<path clip-path="url(#SVGID_2_)" fill="#0C3563" d="M1321.526,260.331h-11.895v-17.624h11.895V260.331z M1310.651,259.309h9.853
			v-15.581h-9.853V259.309z"/>
		<path clip-path="url(#SVGID_2_)" fill="#0C3563" d="M1340.827,260.331h-11.896v-17.624h11.896V260.331z M1329.954,259.309h9.852
			v-15.581h-9.852V259.309z"/>
		<path clip-path="url(#SVGID_2_)" fill="#0C3563" d="M1360.001,260.331h-11.896v-17.624h11.896V260.331z M1349.127,259.309h9.852
			v-15.581h-9.852V259.309z"/>
		<path clip-path="url(#SVGID_2_)" fill="#0C3563" d="M1380.113,260.331h-11.898v-17.624h11.898V260.331z M1369.238,259.309h9.852
			v-15.581h-9.852V259.309z"/>
		<path clip-path="url(#SVGID_2_)" fill="#0C3563" d="M1399.286,260.331h-11.897v-17.624h11.897V260.331z M1388.411,259.309h9.852
			v-15.581h-9.852V259.309z"/>
		<path clip-path="url(#SVGID_2_)" fill="#0C3563" d="M1224.953,286.705h-11.896v-17.623h11.896V286.705z M1214.078,285.683h9.852
			v-15.579h-9.852V285.683z"/>
		<path clip-path="url(#SVGID_2_)" fill="#0C3563" d="M1244.127,286.705h-11.896v-17.623h11.896V286.705z M1233.253,285.683h9.852
			v-15.579h-9.852V285.683z"/>
		<path clip-path="url(#SVGID_2_)" fill="#0C3563" d="M1263.429,286.705h-11.896v-17.623h11.896V286.705z M1252.554,285.683h9.854
			v-15.579h-9.854V285.683z"/>
		<path clip-path="url(#SVGID_2_)" fill="#0C3563" d="M1282.604,286.705h-11.897v-17.623h11.897V286.705z M1271.729,285.683h9.853
			v-15.579h-9.853V285.683z"/>
		<path clip-path="url(#SVGID_2_)" fill="#0C3563" d="M1302.351,286.705h-11.896v-17.623h11.896V286.705z M1291.478,285.683h9.853
			v-15.579h-9.853V285.683z"/>
		<path clip-path="url(#SVGID_2_)" fill="#0C3563" d="M1321.526,286.705h-11.895v-17.623h11.895V286.705z M1310.651,285.683h9.853
			v-15.579h-9.853V285.683z"/>
		<path clip-path="url(#SVGID_2_)" fill="#0C3563" d="M1340.827,286.705h-11.896v-17.623h11.896V286.705z M1329.954,285.683h9.852
			v-15.579h-9.852V285.683z"/>
		<path clip-path="url(#SVGID_2_)" fill="#0C3563" d="M1360.001,286.705h-11.896v-17.623h11.896V286.705z M1349.127,285.683h9.852
			v-15.579h-9.852V285.683z"/>
		<path clip-path="url(#SVGID_2_)" fill="#0C3563" d="M1380.113,286.705h-11.898v-17.623h11.898V286.705z M1369.238,285.683h9.852
			v-15.579h-9.852V285.683z"/>
		<path clip-path="url(#SVGID_2_)" fill="#0C3563" d="M1399.286,286.705h-11.897v-17.623h11.897V286.705z M1388.411,285.683h9.852
			v-15.579h-9.852V285.683z"/>
		<path clip-path="url(#SVGID_2_)" fill="#0C3563" d="M1224.953,311.26h-11.896v-17.625h11.896V311.26z M1214.078,310.236h9.852
			v-15.581h-9.852V310.236z"/>
		<path clip-path="url(#SVGID_2_)" fill="#0C3563" d="M1244.127,311.26h-11.896v-17.625h11.896V311.26z M1233.253,310.236h9.852
			v-15.581h-9.852V310.236z"/>
		<path clip-path="url(#SVGID_2_)" fill="#0C3563" d="M1263.429,311.26h-11.896v-17.625h11.896V311.26z M1252.554,310.236h9.854
			v-15.581h-9.854V310.236z"/>
		<path clip-path="url(#SVGID_2_)" fill="#0C3563" d="M1282.604,311.26h-11.897v-17.625h11.897V311.26z M1271.729,310.236h9.853
			v-15.581h-9.853V310.236z"/>
		<path clip-path="url(#SVGID_2_)" fill="#0C3563" d="M1302.351,311.26h-11.896v-17.625h11.896V311.26z M1291.478,310.236h9.853
			v-15.581h-9.853V310.236z"/>
		<path clip-path="url(#SVGID_2_)" fill="#0C3563" d="M1321.526,311.26h-11.895v-17.625h11.895V311.26z M1310.651,310.236h9.853
			v-15.581h-9.853V310.236z"/>
		<path clip-path="url(#SVGID_2_)" fill="#0C3563" d="M1340.827,311.26h-11.896v-17.625h11.896V311.26z M1329.954,310.236h9.852
			v-15.581h-9.852V310.236z"/>
		<path clip-path="url(#SVGID_2_)" fill="#0C3563" d="M1360.001,311.26h-11.896v-17.625h11.896V311.26z M1349.127,310.236h9.852
			v-15.581h-9.852V310.236z"/>
		<path clip-path="url(#SVGID_2_)" fill="#0C3563" d="M1380.113,311.26h-11.898v-17.625h11.898V311.26z M1369.238,310.236h9.852
			v-15.581h-9.852V310.236z"/>
		<path clip-path="url(#SVGID_2_)" fill="#0C3563" d="M1399.286,311.26h-11.897v-17.625h11.897V311.26z M1388.411,310.236h9.852
			v-15.581h-9.852V310.236z"/>
		<path clip-path="url(#SVGID_2_)" fill="#0C3563" d="M1382.322,206.948h-43.579v-16.224l43.579-16.684V206.948z M1339.764,205.926
			h41.534v-30.401l-41.534,15.901V205.926z"/>
		<path clip-path="url(#SVGID_2_)" fill="#0C3563" d="M1130.016,326.799h-98.412v-107.17l98.412,34.068V326.799z M1032.624,325.777
			h96.37v-71.35l-96.37-33.362V325.777z"/>
		<path clip-path="url(#SVGID_2_)" fill="#0C3563" d="M1127.443,260.798h-93.267v-4.295h93.267V260.798z M1035.198,259.777h91.225
			v-2.25h-91.225V259.777z"/>
		<path clip-path="url(#SVGID_2_)" fill="#0C3563" d="M1127.443,271.322h-93.267v-4.296h93.267V271.322z M1035.198,270.298h91.225
			v-2.252h-91.225V270.298z"/>
		<path clip-path="url(#SVGID_2_)" fill="#0C3563" d="M1127.443,281.845h-93.267v-4.298h93.267V281.845z M1035.198,280.822h91.225
			v-2.252h-91.225V280.822z"/>
		<path clip-path="url(#SVGID_2_)" fill="#0C3563" d="M1127.443,292.367h-93.267v-4.296h93.267V292.367z M1035.198,291.345h91.225
			v-2.252h-91.225V291.345z"/>
		<path clip-path="url(#SVGID_2_)" fill="#0C3563" d="M1127.443,302.888h-93.267v-4.294h93.267V302.888z M1035.198,301.866h91.225
			v-2.251h-91.225V301.866z"/>
		<path clip-path="url(#SVGID_2_)" fill="#0C3563" d="M1127.443,313.412h-93.267v-4.296h93.267V313.412z M1035.198,312.389h91.225
			v-2.251h-91.225V312.389z"/>
		<path clip-path="url(#SVGID_2_)" fill="#0C3563" d="M1390.505,206.948h-9.207v-32.679h9.207V206.948z M1382.323,205.925h7.16
			v-30.633h-7.16V205.925z"/>
		<path clip-path="url(#SVGID_2_)" fill="#0C3563" d="M1373.329,202.049h-17.623v-11.896h17.623V202.049z M1356.728,201.027h15.58
			v-9.85h-15.58V201.027z"/>
		<path clip-path="url(#SVGID_2_)" fill="#0C3563" d="M1046.979,21.181h-6.666v-48.898h6.666V21.181z M1041.336,20.159h4.62v-46.855
			h-4.62V20.159z"/>
		<path clip-path="url(#SVGID_2_)" fill="#0C3563" d="M1058.203,21.181h-6.666v-48.898h6.666V21.181z M1052.56,20.159h4.622v-46.855
			h-4.622V20.159z"/>
		<path clip-path="url(#SVGID_2_)" fill="#0C3563" d="M1069.276,21.181h-6.666v-48.898h6.666V21.181z M1063.631,20.159h4.622
			v-46.855h-4.622V20.159z"/>
		<path clip-path="url(#SVGID_2_)" fill="#0C3563" d="M1080.734,21.181h-6.666v-48.898h6.666V21.181z M1075.091,20.159h4.622
			v-46.855h-4.622V20.159z"/>
		<path clip-path="url(#SVGID_2_)" fill="#EE9358" d="M993.657,1076.664l22.885-0.309c0,0-34.41-38.195-44.974-57.63l-29.054-53.657
			l-38.035,9.404l48.273,68.41L993.657,1076.664z"/>
		<path clip-path="url(#SVGID_2_)" fill="#131F2D" d="M778.978,32.452c-8.772-4.986-19.287-5.531-26.639-5.097
			c1.894-1.954,5.618-2.666,5.618-2.666c-4.56-0.678-14.738,3.844-14.738,3.844c-63.43-24.44-48.023,67.87-46.691,89.567
			c1.323,21.696-46.69,29.868-79.691,46.962c-62.964,32.62-68.496,76.298-68.496,76.298c0.491,0.288,1.004,0.618,1.548,0.993
			c3.124-5.293,9.556-15.23,14.979-16.731c-0.205,0.482-6.408,13.684-8.724,21.249c18.576,14.13,53.324,45.439,77.544,67.639
			c-0.108-4.339,0.065-10.499,1.65-13.75l2.992,18.015c12.959,11.915,21.896,20.297,21.896,20.297
			c-1.602-17.535,79.3-110.064,121.51-137.777c10.274-15.127,13.926-41.849,14.2-43.952c-1.773,21.188-5.398,33.073-8.639,39.765
			C823.04,164.213,802.232,45.664,778.978,32.452"/>
		<path clip-path="url(#SVGID_2_)" fill="#EE9358" d="M779.236,202.675c0.213,0.095-20.379,10.786-35.867,6.551
			c-14.569-3.974-24.088-22.863-23.887-22.905c6.171-1.227,7.949-9.706,7.818-46.137l2.79,0.549l46.897,9.286
			c0,0-1.067,14.76-1.098,28.662C775.857,190.356,776.565,201.427,779.236,202.675"/>
		<path clip-path="url(#SVGID_2_)" fill="#3CE374" d="M726.203,47.744c0,0,23.134-24.628,52.179-1.26
			C778.382,46.484,761.479,43.56,726.203,47.744"/>
		<path clip-path="url(#SVGID_2_)" fill="#E17E3F" d="M776.987,150.018c0,0-1.067,14.76-1.098,28.662
			c-26.244-0.738-40.115-24.679-45.799-37.948L776.987,150.018z"/>
		<path clip-path="url(#SVGID_2_)" fill="#131F2D" d="M725.246,135.627c0,0-13.753-21.731-17.054-40.311
			c-2.357-13.266,4.399-62.437,53.812-55.356c0,0,14.352,1.415,27.843,10.524c10.727,7.246,26.21,22.89,8.898,65.799l-4.496,14.495
			L725.246,135.627z"/>
		<path clip-path="url(#SVGID_2_)" fill="#8D9CC4" d="M963.907,999.972l-24.859,0.762l-26.907,0.823c0,0-62.154-69.2-97.02-180.131
			c-0.813-2.577-1.668-5.187-2.576-7.829c-19.08-55.635-58.636-125.469-79.48-188.678c-3.317-10.068-6.298-19.545-8.97-28.516
			c-0.856-2.873-1.69-5.694-2.483-8.473c-15.361-53.373-19.809-88.418-23.909-125.859l133.103,1.066
			C830.806,463.138,872.523,718.947,963.907,999.972"/>
		<path clip-path="url(#SVGID_2_)" fill="#E7F1FD" d="M827.15,376.787c1.766,71.605,10.508,102.355,10.508,102.355
			s-64.446,32.745-141.042,8.641c-0.902-0.283,4.966-295.889,26.688-304.035c4.997,6.221,19.887,12.271,33.136,11.974
			c15.258-0.337,20.205-6.868,19.414-13.999C792.112,190.769,824.625,274.264,827.15,376.787"/>
		<path clip-path="url(#SVGID_2_)" fill="#EE9358" d="M785.75,163.184c0,0-62.091,1.024-62.133-37.653
			c-0.044-38.677-8.086-64.594,31.555-66.882c39.643-2.288,47.362,12.461,50.516,25.367
			C808.842,96.921,801.9,161.919,785.75,163.184"/>
		<path clip-path="url(#SVGID_2_)" fill="#131F2D" d="M803.841,62.511c-9.581-11.615-16.826-9.089-20.894-5.6
			c-13.419-20.05-55.827,8.944-55.827,8.944c-20.868,19.879-24.165,43.649-24.165,43.649s11.318,6.991,37.407,0.282
			c20.532-5.281,35.433-34.504,40.851-46.716c3.691,3.282,11.483,10.867,13.818,18.295c3.094,9.849,4.487,30.123,10.396,29.434
			C805.427,110.8,818.235,79.958,803.841,62.511"/>
		<path clip-path="url(#SVGID_2_)" fill="#EE9358" d="M1035.602,227.376c0,0,8.753-31.547,43.434-27.089
			c3.979,1.247,15.61,5.885,8.178,18.334c-5.479,9.179-7.853,4.444-16.472,16.777c-8.619,12.334-17.975,15.12-28.665,13.643
			L1035.602,227.376z"/>
		<path clip-path="url(#SVGID_2_)" fill="#EE9358" d="M739.232,1074.457c-2.114-11.621-6.133-31.72-6.133-31.72l0.931-71.31h-43.31
			l16.206,68.254c0.334,3.168,1.22,15.465-3.33,28.502c0,0-4.158,18.951,14.505,19.303
			C736.766,1087.839,741.344,1086.079,739.232,1074.457"/>
		<path clip-path="url(#SVGID_2_)" fill="#131F2D" d="M703.596,1068.183c0,0-3.698,20.004-1.586,29.512h19.029h20.183
			c0,0,0.166-21.721-3.268-29.996C737.954,1067.699,724.726,1087.552,703.596,1068.183"/>
		<path clip-path="url(#SVGID_2_)" fill="#131F2D" d="M1016.923,1076.556c-0.127-0.055-0.254-0.117-0.38-0.201
			c-9.16,0.285-18.383-3.075-26.74-12.479c-25.419-28.642-39.708-31.838-44.694-31.827c-4.29,8.841-9.028,18.782-2.933,29.979
			l9.103,35.666h9.817l0.098-33.671c6.467,1.703,12.772,4.797,15.582,10.419c6.867,13.733,11.637,23.252,18.014,23.252h44.117
			C1038.906,1097.695,1038.052,1086.064,1016.923,1076.556"/>
		<path clip-path="url(#SVGID_2_)" fill="#3CE374" d="M1035.602,227.376c0,0-40.757,22.787-55.315,29.358
			c-8.299,3.748-27.397,12.688-40.856,19.01c-8.561,4.023-18.74,1.821-24.892-5.365c-22.096-25.811-79.346-81.789-138.421-88.656
			l0.075,0.145l-0.339-0.145c0,0,35.924,88.746,36.98,106.707c1.056,17.959,4.226,293.703,4.226,293.703s-2.114,12.678,22.186,7.396
			c24.299-5.283,30.639-10.564,30.639-10.564s-23.243-170.094-16.903-229.259c1.247-11.661,0.11-24.774-2.512-38.312
			c35.989,21.891,78.578,31.622,78.578,31.622s31.839-13.891,75.362-45.782c13.661-10.01,37.668-48.193,37.668-48.193
			L1035.602,227.376z"/>
		<path clip-path="url(#SVGID_2_)" fill="#818FB2" d="M939.048,1000.734l-26.907,0.823c0,0-62.154-69.2-97.02-180.132
			c-0.813-2.576-1.668-5.187-2.576-7.828c-19.08-55.635-58.636-125.469-79.48-188.678c-3.317-10.068-6.298-19.545-8.971-28.516
			c-0.855-2.873-1.689-5.693-2.482-8.473l22.166-16.818c0,0,66.548,107.762,87.148,209.174
			C848.824,868.377,920.495,974.374,939.048,1000.734"/>
		<path clip-path="url(#SVGID_2_)" fill="#8D9CC4" d="M746.091,789.732c0.38,49.316-2.112,162.699-8.536,209.639H713.72
			c-13.174,0-19.745-0.189-19.745-0.189c-16.111-81.615-27.574-149.145-35.92-207.336c-6.847-47.754-12.933-88.693-17.611-123.938
			c-4.713-35.467-7.989-65.164-9.161-90.256c-0.18-3.951-0.317-7.797-0.391-11.525c-0.074-3.752-0.095-7.396-0.063-10.936
			l130.054-12.678C759.244,628.922,745.88,761.069,746.091,789.732"/>
		<path clip-path="url(#SVGID_2_)" fill="#818FB2" d="M713.72,999.371c-13.174,0-19.745-0.189-19.745-0.189
			c-16.111-81.615-27.574-149.145-35.92-207.336c-6.847-47.754-12.933-88.693-17.611-123.938
			c-4.713-35.467-7.989-65.164-9.161-90.256l47.721,28.07c0,0-30.458,10.746-18.837,92.096
			C671.789,779.168,697.546,987.854,713.72,999.371"/>
		<path clip-path="url(#SVGID_2_)" fill="#3CE374" d="M719.862,576.851c0,0-9.16,33.1-40.853,28.873
			c-31.695-4.227-76.766-23.244-76.766-23.244s13.545-42.796,30.386-99.022c20.389-68.071,45.628-155.824,57.525-211.173
			c3.339-15.509,5.622-28.46,6.466-37.737l26.684-50.801c0,0,38.819,87.778,40.931,109.964
			C766.346,315.897,719.862,576.851,719.862,576.851"/>
		<path clip-path="url(#SVGID_2_)" fill="#818FB2" d="M718.457,340.198c-1.416,35.919-9.867,105.65-85.227,142.975
			c-0.202,0.094-0.403,0.201-0.602,0.286c20.39-68.071,45.628-155.824,57.525-211.173
			C703.994,292.971,719.228,320.42,718.457,340.198"/>
		<path clip-path="url(#SVGID_2_)" fill="#EE9358" d="M854.824,320.55c-0.039,4.306-12.461,34.326-34.343,52.253
			c-4.238,3.473-7.632,5.158-10.337,5.624c-35.633,12.196-66.553,18.529-91.656,21.613v-39.754
			c31.009-1.988,69.211-4.063,84.938-4.907c2.588-4.121,5.623-9.957,6.641-15.853c1.88-10.938,7.737-19.043,22.989-21.05
			C848.309,316.469,854.863,316.256,854.824,320.55"/>
		<path clip-path="url(#SVGID_2_)" fill="#3CE374" d="M723.304,183.748c0,0-64.719,4.314-80.214,38.826
			c-15.495,34.513-20.424,149.318-0.703,183.125c0,0,27.15,7.734,75.172-1.247c0.588-0.109,1.18-0.223,1.775-0.337
			c0,0,15.32-37.506,1.584-44.901c0,0-40.498,2.112-36.272-11.269C688.872,334.563,723.304,183.748,723.304,183.748"/>
		<path clip-path="url(#SVGID_2_)" fill="#FFA400" d="M1895.414,417.503h18.977c8.82-4.006,56.335-24.587,102.007-24.837
			c32.953-0.181,70.503,24.438,72.762,24.703c5.728,0.674-19.089,0.899-19.089,0.899s-37.191-16.455-53.898-16.844
			c-15.929-0.37-51.286,11.208-65.413,16.079h106.352c8.893,0,16.17,7.274,16.17,16.168v121.272c0,8.894-7.277,16.17-16.17,16.17
			h-161.696c-8.894,0-16.168-7.276-16.168-16.17V433.671C1879.246,424.777,1886.521,417.503,1895.414,417.503"/>
		<path clip-path="url(#SVGID_2_)" fill="#FC801C" d="M1947.966,417.503h161.695c8.893,0,16.171,7.274,16.171,16.168v121.272
			c0,8.894-7.278,16.17-16.171,16.17h-161.695c-8.893,0-16.171-7.276-16.171-16.17V433.671
			C1931.795,424.777,1939.073,417.503,1947.966,417.503"/>
		<path clip-path="url(#SVGID_2_)" fill="#FFA400" d="M2176.433,382.955l-34.839,6.2c-3.447,0.614-5.909,3.226-5.454,5.783
			l124.804,701.152c0.456,2.559,3.665,4.146,7.112,3.533l34.838-6.201c3.464-0.615,5.91-3.21,5.454-5.77l-124.804-701.151
			C2183.09,383.943,2179.897,382.338,2176.433,382.955"/>
		<path clip-path="url(#SVGID_2_)" fill="#364154" d="M2176.433,382.955l-34.839,6.2c-3.447,0.614-5.909,3.226-5.454,5.783
			l3.869,21.728l47.402-8.437l-3.867-21.728C2183.09,383.943,2179.897,382.338,2176.433,382.955"/>
		<path clip-path="url(#SVGID_2_)" fill="#364154" d="M2260.944,1096.09c0.456,2.559,3.665,4.146,7.112,3.533l34.838-6.201
			c3.465-0.615,5.91-3.21,5.454-5.771l-3.336-18.739l-47.402,8.438L2260.944,1096.09z"/>
		<path clip-path="url(#SVGID_2_)" fill="#131F2D" d="M2167.489,431.947c-1.976,0.353-3.378,1.833-3.118,3.293l109.854,617.161
			c0.259,1.461,2.087,2.367,4.061,2.017c1.974-0.352,3.377-1.833,3.118-3.294l-109.854-617.161
			C2171.29,432.501,2169.46,431.596,2167.489,431.947"/>
		<path clip-path="url(#SVGID_2_)" fill="#F4F4F4" d="M1530.556,521.303l-37.965-0.511c-0.428-0.136-0.839-0.217-1.284-0.22
			c-0.421,0.003-0.823,0.052-1.227,0.181c-4.974,1.512-8.906,12.317-9.019,25.446c-0.015,0.694-0.009,1.361,0.009,2.037
			c0.122,5.789,1.005,11.032,2.386,15.125c1.493,4.379,3.572,7.42,5.931,8.322c0.051,0.027,0.101,0.043,0.139,0.061
			c0.443,0.156,0.89,0.242,1.347,0.244c0.435,0.006,0.868-0.07,1.303-0.215l331.946,4.477l0.341-25.388l0.335-25.584
			L1530.556,521.303z"/>
		<path clip-path="url(#SVGID_2_)" fill="#EFF2FA" d="M1675.405,569.464c-69.992,5.837-112.183-25.367-144.848-48.16l-37.966-0.511
			c-0.428-0.137-0.839-0.217-1.284-0.221c-0.421,0.004-0.823,0.053-1.227,0.182c-4.974,1.512-8.906,12.316-9.019,25.446
			c-0.015,0.694-0.01,1.361,0.009,2.036c0.122,5.789,1.005,11.034,2.386,15.124c2.473,4.668,4.756,7.748,5.931,8.324
			c0.051,0.027,0.101,0.043,0.139,0.062c0.444,0.155,0.89,0.241,1.347,0.243c0.435,0.006,0.868-0.07,1.303-0.215l331.946,4.477
			l0.341-25.389C1819.6,552.182,1786.649,560.197,1675.405,569.464"/>
		<path clip-path="url(#SVGID_2_)" fill="#EFF2FA" d="M1825.349,524.967c-5.542-0.046-10.134,11.427-10.254,25.629
			c-0.121,14.201,4.276,25.75,9.818,25.797c5.543,0.047,10.135-11.426,10.256-25.627
			C1835.288,536.566,1830.892,525.013,1825.349,524.967"/>
		<rect x="1371.967" y="590.816" clip-path="url(#SVGID_2_)" fill="#8D9CC4" width="25.848" height="508.939"/>
		<rect x="2068.796" y="590.816" clip-path="url(#SVGID_2_)" fill="#8D9CC4" width="25.85" height="508.939"/>
		<rect x="1309.306" y="571.114" clip-path="url(#SVGID_2_)" fill="#8D9CC4" width="857.745" height="25.849"/>
		<rect x="1371.967" y="596.961" clip-path="url(#SVGID_2_)" fill="#35488B" width="25.848" height="19.424"/>
		<rect x="2068.796" y="596.961" clip-path="url(#SVGID_2_)" fill="#35488B" width="25.85" height="19.424"/>
		<path clip-path="url(#SVGID_2_)" fill="#F4F4F4" d="M1756.183,520.552l0.015,25.588l0.006,25.396l-331.976,0.127
			c-0.425,0.152-0.859,0.236-1.296,0.232c-0.458,0.006-0.906-0.076-1.35-0.221c-4.655-1.563-8.35-11.299-8.777-23.398
			c-0.031-0.667-0.041-1.343-0.043-2.031c-0.071-13.126,3.72-23.992,8.665-25.567c0.406-0.133,0.812-0.196,1.232-0.202
			c0.437,0.003,0.854,0.07,1.285,0.207L1756.183,520.552z"/>
		<path clip-path="url(#SVGID_2_)" fill="#EFF2FA" d="M1756.198,546.14l0.006,25.396l-331.976,0.127
			c-0.426,0.152-0.859,0.235-1.296,0.232c-0.458,0.006-0.906-0.076-1.35-0.221c-4.655-1.563-8.35-11.299-8.776-23.398
			c15.255,5.591,101.028,25.177,191.742,0.134C1712.152,518.703,1751.355,547.528,1756.198,546.14"/>
		<path clip-path="url(#SVGID_2_)" fill="#EFF2FA" d="M1756.727,520.24c-5.543,0.029-9.976,11.566-9.898,25.768
			c0.075,14.2,4.632,25.687,10.175,25.658s9.976-11.566,9.898-25.766C1766.824,531.697,1762.269,520.209,1756.727,520.24"/>
		<path clip-path="url(#SVGID_2_)" fill="#131F2D" d="M2385.847,1105.562H601.966c-1.767,0-3.215-2.041-3.215-4.533
			s1.448-4.533,3.215-4.533h1783.881c1.77,0,3.216,2.041,3.216,4.533S2387.616,1105.562,2385.847,1105.562"/>
	</g>
</g>
</svg>
