<?xml version="1.0" encoding="utf-8"?>
<!-- Generator: Adobe Illustrator 15.1.0, SVG Export Plug-In . SVG Version: 6.00 Build 0)  -->
<!DOCTYPE svg PUBLIC "-//W3C//DTD SVG 1.1//EN" "http://www.w3.org/Graphics/SVG/1.1/DTD/svg11.dtd">
<svg version="1.1" id="Warstwa_1" xmlns="http://www.w3.org/2000/svg" xmlns:xlink="http://www.w3.org/1999/xlink" x="0px" y="0px"
	 width="1737.682px" height="1116.124px" viewBox="0 0 1737.682 1116.124" enable-background="new 0 0 1737.682 1116.124"
	 xml:space="preserve">
<g>
	<g>
		<defs>
			<rect id="SVGID_1_" width="1737.682" height="1116.124"/>
		</defs>
		<clipPath id="SVGID_2_">
			<use xlink:href="#SVGID_1_"  overflow="visible"/>
		</clipPath>
		<path clip-path="url(#SVGID_2_)" fill="#EFF2FA" d="M602.178,234.568h-8.232v-75.217l-2.585-0.229v-29.894l0.745-2.475
			L232.163,18.324L81.905,119.701l1.446,2.143c-4.873,0-8.861,3.987-8.861,8.86v51.686c0,4.874,3.988,8.861,8.861,8.861h75.313
			c4.873,0,8.861-3.987,8.861-8.861v-20.674h50.209v951.021h59.069V161.716h242.983l67.738,72.852h-13.896
			c-4.874,0-8.86,3.988-8.86,8.861v8.86c0,4.873,3.986,8.861,8.86,8.861h28.55c4.873,0,8.861-3.988,8.861-8.861v-8.86
			C611.039,238.556,607.051,234.568,602.178,234.568 M233.02,23.98l349.381,105.248h-415.01c-0.71-4.175-4.357-7.384-8.727-7.384
			H87.971L233.02,23.98z M562.024,161.716l26.751,2.366v64.243l-61.932-66.609H562.024z"/>
		<path clip-path="url(#SVGID_2_)" fill="#FC801C" d="M466.969,1112.578H207.091c12.517-9.235,57.434-41.447,98.117-58.842
			c16.858-7.206,32.989-11.868,45.782-11.292C391.572,1044.264,448.451,1095.021,466.969,1112.578"/>
		<path clip-path="url(#SVGID_2_)" fill="#FB9D39" d="M384.359,1112.578H124.48c17.699-13.065,100.228-72.089,143.9-70.134
			c11.394,0.514,24.073,4.885,36.827,11.292C337.879,1070.15,371.037,1099.946,384.359,1112.578"/>
		<path clip-path="url(#SVGID_2_)" fill="#EFF2FA" d="M1641.658,288.897L1641.658,288.897l0.991-1.469l-103.068-69.541
			l-246.902,74.378l0.512,1.697v20.506l-1.773,0.157v51.595h-5.647c-3.343,0-6.078,2.735-6.078,6.078v6.078
			c0,3.343,2.735,6.078,6.078,6.078h19.585c3.341,0,6.076-2.735,6.076-6.078v-6.078c0-3.343-2.735-6.078-6.076-6.078h-9.533
			l46.465-49.972h166.673v652.35h40.52v-652.35h34.441v14.181c0,3.343,2.734,6.078,6.077,6.078h51.661
			c3.344,0,6.078-2.735,6.078-6.078v-35.454C1647.736,291.633,1645.002,288.897,1641.658,288.897 M1538.993,221.769l99.495,67.129
			h-48.491c-2.997,0-5.499,2.201-5.985,5.065h-284.677L1538.993,221.769z M1294.963,361.938v-44.067l18.351-1.623h24.132
			L1294.963,361.938z"/>
		<rect x="812.011" y="52.849" clip-path="url(#SVGID_2_)" fill="#EFF2FA" width="340.884" height="1060.763"/>
		<rect x="812.009" y="199.214" clip-path="url(#SVGID_2_)" fill="#FAFBFF" width="246.737" height="155.404"/>
	</g>
	<g>
		<defs>
			<rect id="SVGID_3_" x="812.009" y="199.214" width="246.737" height="155.404"/>
		</defs>
		<clipPath id="SVGID_4_">
			<use xlink:href="#SVGID_3_"  overflow="visible"/>
		</clipPath>
		<rect x="812.011" y="199.214" clip-path="url(#SVGID_4_)" fill="#FAFBFF" width="246.732" height="155.401"/>
	</g>
	<g>
		<defs>
			<rect id="SVGID_5_" width="1737.682" height="1116.124"/>
		</defs>
		<clipPath id="SVGID_6_">
			<use xlink:href="#SVGID_5_"  overflow="visible"/>
		</clipPath>
		<rect x="812.009" y="483.779" clip-path="url(#SVGID_6_)" fill="#FAFBFF" width="246.737" height="155.401"/>
	</g>
	<g>
		<defs>
			<rect id="SVGID_7_" x="812.009" y="483.779" width="246.737" height="155.401"/>
		</defs>
		<clipPath id="SVGID_8_">
			<use xlink:href="#SVGID_7_"  overflow="visible"/>
		</clipPath>
		<rect x="812.011" y="483.779" clip-path="url(#SVGID_8_)" fill="#FAFBFF" width="246.732" height="155.401"/>
	</g>
	<g>
		<defs>
			<rect id="SVGID_9_" width="1737.682" height="1116.124"/>
		</defs>
		<clipPath id="SVGID_10_">
			<use xlink:href="#SVGID_9_"  overflow="visible"/>
		</clipPath>
		<rect x="812.009" y="764.668" clip-path="url(#SVGID_10_)" fill="#FAFBFF" width="246.737" height="155.402"/>
	</g>
	<g>
		<defs>
			<rect id="SVGID_11_" x="812.009" y="764.668" width="246.737" height="155.403"/>
		</defs>
		<clipPath id="SVGID_12_">
			<use xlink:href="#SVGID_11_"  overflow="visible"/>
		</clipPath>
		<rect x="812.011" y="764.668" clip-path="url(#SVGID_12_)" fill="#FAFBFF" width="246.732" height="155.402"/>
	</g>
	<g>
		<defs>
			<rect id="SVGID_13_" width="1737.682" height="1116.124"/>
		</defs>
		<clipPath id="SVGID_14_">
			<use xlink:href="#SVGID_13_"  overflow="visible"/>
		</clipPath>
		<polygon clip-path="url(#SVGID_14_)" fill="#EFF2FA" points="1577.848,919.075 1531.845,919.075 1531.845,775.373 
			1152.895,775.373 1152.895,52.851 1058.743,52.851 1058.743,1114.209 1152.895,1114.209 1152.895,1113.612 1531.845,1113.612 
			1577.848,1113.612 		"/>
		<path clip-path="url(#SVGID_14_)" fill="#1E2E50" d="M1735.977,1116.124H1.705c-0.937,0-1.705-0.768-1.705-1.705
			s0.768-1.704,1.705-1.704h1734.272c0.937,0,1.705,0.767,1.705,1.704S1736.913,1116.124,1735.977,1116.124"/>
		<path clip-path="url(#SVGID_14_)" fill="#0C3563" d="M1223.357,1112.742c0,0,0.677-14.683,4.615-22.559
			c3.938-7.876,35.44-2.461,35.44-2.461s7.262,13.136,6.276,24.95L1223.357,1112.742z"/>
		<path clip-path="url(#SVGID_14_)" fill="#0C3563" d="M1138.814,1112.742c0,0,0.677-14.683,4.615-22.559
			c3.937-7.876,35.44-2.461,35.44-2.461s7.261,13.136,6.277,24.95L1138.814,1112.742z"/>
		<path clip-path="url(#SVGID_14_)" fill="#EE9358" d="M1243.773,489.61c-3.935,2.851-39.554,21.442-39.554,21.442l-37.563-26.78
			c0,0,11.408-1.66,11.711-1.75c3.39-0.945,3.233-10.034,3.662-19.714c0.067-1.492,0.148-2.997,0.259-4.49l36.778-1.336l0.03,0.458
			c0.029,0.465,0.066,0.952,0.103,1.462l0.074,1.049c0.022,0.361,0.052,0.723,0.081,1.099c0.665,8.506,2.082,20.52,4.798,21.923
			C1225.698,483.771,1236.168,483.646,1243.773,489.61"/>
		<path clip-path="url(#SVGID_14_)" fill="#E17E3F" d="M1219.355,461.051c-3.036,6.069-9.791,16.636-19.811,16.288
			c-9.569-0.339-15.019-9.037-17.515-14.531c0.067-1.491,0.148-2.998,0.259-4.49l36.778-1.335l0.03,0.457l0.103,1.463l0.074,1.048
			C1219.297,460.313,1219.326,460.675,1219.355,461.051"/>
		<path clip-path="url(#SVGID_14_)" fill="#0D458D" d="M1177.914,376.32c0,0,17.74-17.665,38.67,0.358
			C1216.584,376.678,1204.14,374.095,1177.914,376.32"/>
		<path clip-path="url(#SVGID_14_)" fill="#D04B3E" d="M1171.33,441.3c0,0-5.615-11.632-9.084-25.177
			c-2.477-9.67-0.209-46.373,36.689-43.88c0,0,10.682,0.249,21.152,6.234c8.328,4.759,20.634,15.457,10.223,48.118l-2.52,10.957
			L1171.33,441.3z"/>
		<path clip-path="url(#SVGID_14_)" fill="#EE9358" d="M1222.951,456.716c-9.526,9.107-21.359,21.243-46.867-1.2
			c-4.99-4.391-4.652-11.142-4.943-20.837c-0.35-11.478-3.112-18.505-1.83-25.121c1.523-7.914,8.291-11.49,22.339-12.713
			c25.791-2.238,38.826,3.572,37.095,16.37C1224.88,441.779,1232.638,447.454,1222.951,456.716"/>
		<path clip-path="url(#SVGID_14_)" fill="#D04B3E" d="M1201.932,396.375c0,0,15.289-0.321,18.779,4.789s3.976,10.832,5.734,13.712
			c1.76,2.882,1.469,6.116,1.469,6.116l3.393-22.819l-20.692-4.113L1201.932,396.375z"/>
		<path clip-path="url(#SVGID_14_)" fill="#3CE374" d="M1291.104,522.255c0,0-6.528,19.241-32.999,22.764
			c-0.715,0.095-1.454,0.176-2.199,0.25h-107.802c0,0-0.2-0.059-0.577-0.177c-4.186-1.329-29.94-10.152-32.649-26.655
			c0,0,13.541-27.807,23.878-31.256c3.013-1.011,7.185-1.764,11.57-2.333c4.482-0.576,9.2-0.959,13.158-1.21
			c5.449-0.34,9.45-0.429,9.45-0.429s8.396,17.021,28.826,16.769c20.431-0.245,25.165-16.518,25.165-16.518s5.737,0.163,13.355,0.99
			c4.202,0.449,8.972,1.1,13.675,2.038c7.968,1.587,15.728,3.98,20.166,7.583C1285.934,503.669,1291.104,522.255,1291.104,522.255"
			/>
		<path clip-path="url(#SVGID_14_)" fill="#8D9CC4" d="M1265.459,671.073c-1.146-6.374-2.854-16.074-4.193-24.605
			c0.01-0.115,3.996-48.17,5.471-56.283c1.478-8.121-8.558-52.314-8.558-52.314c-2.333-6.763-6.291-8.83-9.326-8.83l5.103-42.552
			c-4.703-0.938-9.473-1.588-13.674-2.038l-2.444,44.59l-0.037,0.642c-5.59,0.311-12.56,0.686-19.05,0.975
			c-6.49,0.295-12.5,0.51-16.2,0.51c-7.524,0-24.787-0.864-36.253-1.493l-0.046-0.634l-2.769-45.403
			c-3.957,0.252-8.675,0.636-13.156,1.211l4.872,44.192v0.007c-3.211,0-6.903,5.7-7.413,8.868l-0.497,13.826
			c-2.426,6.96-7.454,22.422-8.289,33.273c-1.104,14.35,4.89,64.262,4.931,64.607c-0.219,5.95-0.641,13.555-1.453,20.912
			c-4.504,12.205-23.717,68.963-21.76,145.281c1.824,71.245,2.902,192.98,11.297,252.087c1.365,9.593,2.919,17.536,4.703,23.347
			c0.899,2.928,3.432,5.051,6.466,5.473c9.627,1.334,31.326,3.793,40.664,0.398c4.476-1.633,7.679-26.479,9.946-58.509
			c2.171-30.709,3.478-68.026,4.201-97.813c0.007,0,0.007-0.008,0.007-0.008c0.584-23.753,0.806-42.706,0.806-49.722
			c0-15.875,3.751-62.45,4.991-89.844c0.037-0.775,1.167-0.783,1.218-0.016v0.008c1.883,32.525,8.454,81.848,8.559,92.806
			c0.244,26.581-1.303,197.36,10.314,203.097c8.883,4.386,29.816,1.069,39.816-0.283c3.617-0.489,6.588-3.068,7.607-6.573
			c12.495-42.97,13.601-192.28,15.707-274.448C1288.947,740.567,1270.303,684.334,1265.459,671.073"/>
		<path clip-path="url(#SVGID_14_)" fill="#EE9358" d="M1167.551,701.804c-3.69,2.953-15.748,1.721-20.423-2.215
			c-4.682-3.944-14.028-2.71-16.245-4.186c-0.153-0.104-43.688-51.695-48.405-73.402c-4.764-21.907,25.37-82.195,33.896-98.631
			c6.314,13.334,27.343,20.534,31.093,21.723c0.379,0.117,0.576,0.176,0.576,0.176h1.167c-7.096,19.184-28.309,53.717-36.481,66.727
			c-2.031,3.234-2.289,7.281-0.681,10.75c10.499,22.515,20.771,41.506,25.268,54.662c0.893,1.463,2.813,4.076,5.131,3.722
			c3.206-0.494,13.542-2.71,18.712,4.918C1166.325,693.682,1171.243,698.85,1167.551,701.804"/>
		<path clip-path="url(#SVGID_14_)" fill="#FFA400" d="M1233.82,376.841c0,0-2.836-3.852-7.919-8.172
			c-0.805-0.694-1.671-1.396-2.592-2.092c-9.347-7.111-24.306-14.054-42.34-6.53c-4.888,2.037-8.95,4.804-12.323,8.008
			c-0.799,0.757-1.555,1.532-2.271,2.335c-15.636,17.347-14.312,44.555-14.312,44.555l90.224-0.966
			C1242.581,388.79,1233.82,376.841,1233.82,376.841"/>
		<path clip-path="url(#SVGID_14_)" fill="#FC801C" d="M1216.943,414.249c-0.253-3.794-1.979-34.924,8.958-45.568
			c-0.805-0.701-0.613-0.58-1.534-1.28c-11.662,12.24-12.41,42.896-12.365,46.901l-28.841,0.308
			c-0.855-22.097-13.05-44.099-14.515-46.555c-0.8,0.756-0.951,0.904-1.664,1.708c2.116,3.722,10.079,25.026,10.84,44.905
			l-25.758,0.276c0,0,24.03,6.211,42.129,5.987c18.1-0.226,48.096-6.953,48.096-6.953L1216.943,414.249z"/>
		<path clip-path="url(#SVGID_14_)" fill="#D04B3E" d="M1170.965,533.698c-9.23,17.722-35.442,21.045-35.442,21.045
			c8.492-20.675-8.617-27.194-19.198-48.363c-10.581-21.17,8.122-35.199,8.122-35.199c-11.57,2.216-13.785,17.72-13.785,17.72
			c-0.981-10.336,7.635-27.806,34.955-31.254c20.002-2.526,24.83-9.266,25.982-12.701c0.45,4.453,1.528,7.938,4.52,10.566
			c2.112,1.862,4.135,3.478,6.063,4.889c-0.046,0.805-0.081,1.609-0.119,2.407c-0.118,2.724-0.192,5.405-0.317,7.864
			c-3.574,4.26-3.47,8.794-2.865,11.644c0.377,1.773,0.945,2.894,0.945,2.894c2.865,3.98,4.32,7.893,4.74,11.806
			C1185.834,508.728,1177.883,520.415,1170.965,533.698"/>
		<path clip-path="url(#SVGID_14_)" fill="#3CE374" d="M1265.252,669.913l-3.986-23.443c-19.413,7.202-37.769,10.342-53.973,11.207
			c-1.904-3.517-5.387-6.099-9.609-6.709l-14.317-2.072c-5.651-0.816-10.971,2.125-13.455,6.93
			c-13.749-2.128-23.032-5.248-25.972-6.32l-0.008,0.125l-1.426,20.586v0.051c8.269,2.199,16.201,3.91,23.781,5.211l-0.423,2.865
			c-1.051,7.119,3.859,13.746,10.978,14.813l15.866,2.378c7.567,1.135,14.483-4.455,14.96-12.092l0.277-4.415
			C1238.19,678.874,1258.289,672.513,1265.252,669.913"/>
		<path clip-path="url(#SVGID_14_)" fill="#EE9358" d="M1323.267,622.001c-4.718,21.708-48.253,73.298-48.408,73.4
			c-0.376,0.252-0.967,0.429-1.706,0.563c-0.027,0.008-0.052,0.008-0.08,0.014c-3.597,0.621-10.61,0.361-14.458,3.611
			c-4.674,3.936-16.739,5.169-20.431,2.215c-3.691-2.953,1.234-8.121,6.402-15.757c5.169-7.628,15.506-5.411,18.703-4.918
			c1.903,0.288,3.552-1.425,4.563-2.856c0.021-0.029,0.037-0.053,0.06-0.082c0.191-0.28,0.369-0.547,0.51-0.783
			c4.4-12.869,14.316-31.299,24.563-53.162c2.055-4.371,1.751-9.495-0.811-13.594c-6.846-10.936-20.741-33.654-29.684-51.884
			c-1.04-5.272-2.081-10.227-2.887-13.977c19.641-3.16,27.771-15.107,30.399-20.203
			C1299.284,542.597,1327.918,600.603,1323.267,622.001"/>
		<path clip-path="url(#SVGID_14_)" fill="#3CE374" d="M1617.955,715.581c-6.586,1.521-36.343,1.883-57.238-2.813
			c-4.356-0.975-8.336-2.172-11.629-3.625c-3.936-1.735-6.903-3.832-8.417-6.357c-2.362-3.936-6.684-17.404-11.764-35.064
			c-13.991-48.652-33.683-129.044-33.683-129.044s39.539,8.069,47.904,14.958c8.373,6.889,15.757,116.168,23.628,119.122
			c1.159,0.436,3.161,1.35,5.722,2.613c0.127,0.059,0.251,0.126,0.377,0.186c1.529,0.752,3.249,1.625,5.11,2.584
			c16.325,8.387,43.343,23.502,46.141,26.861C1627.799,709.431,1627.555,713.366,1617.955,715.581"/>
		<path clip-path="url(#SVGID_14_)" fill="#3CE374" d="M1542.088,600.891c0-1.86-0.184-3.722-0.523-5.589
			c-5.088-27.977-45.543-56.625-46.34-56.625l-0.008,0.582c0,4.276-6.741,12.168-17.123,12.848
			c-12.316,0.805-27.518-6.221-27.518-13.317c-0.073,0-6.92,0.927-9.238,1.186c-9.873,1.122-29.571,6.453-38.012,12.832
			c-8.027,6.062,3.316,44.288,10.337,71.355c2.976,11.453,5.168,20.904,4.808,25.09c-0.179,2.046-2.017,29.832-3.655,54.965
			c-1.358,20.734-2.584,39.658-2.622,40.847c-0.088,2.354,11.623,10.603,31.285,16.835c4.748,1.508,9.968,2.895,15.595,4.047
			c10.093,2.074,21.508,3.411,33.928,3.367c4.062-0.016,7.908-0.222,11.541-0.584
			C1532.629,765.975,1542.25,733.968,1542.088,600.891"/>
		<path clip-path="url(#SVGID_14_)" fill="#EE9358" d="M1450.587,538.461c-0.237-10.866-0.06-23.841,1.409-34.802l43.372,7.088
			c0,0,0.046,13.242-0.144,27.93c0.025,0.002,1.179,13.62-15.603,15.615C1462.844,556.285,1450.134,548.976,1450.587,538.461"/>
		<path clip-path="url(#SVGID_14_)" fill="#0C3563" d="M1486.871,1112.746c-5.453-3.357-2.25-28.229-2.25-28.229
			s25.543-20.279,28.986-4.666c3.443,15.611,24.106,22.691,35.878,24.646c8.125,1.349,11.124,5.552,11.896,8.218L1486.871,1112.746z
			"/>
		<path clip-path="url(#SVGID_14_)" fill="#818FB2" d="M1447.141,685.065c0,41.592-20.157,30.384-32.325,19.152
			c1.639-25.133,2.79-114.158,2.79-114.158S1447.141,625.501,1447.141,685.065"/>
		<path clip-path="url(#SVGID_14_)" fill="#818FB2" d="M1577.966,678.139c-0.807,5.833-10.021,22.815-17.249,34.63
			c-4.356-0.975-8.336-2.171-11.629-3.625c-3.936-1.734-6.903-3.833-8.418-6.357c-2.361-3.936-6.683-17.404-11.763-35.065
			c3.76-21.737,7.332-43.202,7.332-43.202l1.109-14.398c0,1.107,16.855,64.365,24.491,65.841c4.6,0.894,7.863-0.192,10.64-0.591
			c0.126,0.06,0.251,0.125,0.377,0.185C1574.385,676.308,1576.105,677.18,1577.966,678.139"/>
		<path clip-path="url(#SVGID_14_)" fill="#0C3563" d="M1408.604,1112.746c-5.454-3.357-2.25-28.229-2.25-28.229
			s25.543-20.279,28.986-4.666c3.442,15.611,24.107,22.691,35.879,24.646c8.125,1.349,11.078,5.552,11.848,8.218L1408.604,1112.746z
			"/>
		<path clip-path="url(#SVGID_14_)" fill="#0C3563" d="M1446.455,491.152c0,0-28.953-45.65,26.644-48.671
			c0,0,20.852,2.454,25.572-2.266c0,0,16.175,24.583,1.069,50.937C1484.636,517.506,1446.455,491.152,1446.455,491.152"/>
		<path clip-path="url(#SVGID_14_)" fill="#EE9358" d="M1494.08,514.974c-4.215,3.316-16.571,6.608-20.143,6.994
			c0,0-18.324-4.086-21.654-6.096c-5.158-3.127-4.826-9.456-5.091-18.254c-0.317-10.415-1.367-18.595-0.204-24.6
			c1.382-7.183,5.937-11.27,18.687-12.38c23.405-2.03,33.157,3.829,33.564,11.678c0.105,2.107,0.204,4.117,0.272,6.018
			C1500.447,502.806,1498.515,511.485,1494.08,514.974"/>
		<path clip-path="url(#SVGID_14_)" fill="#0C3563" d="M1499.723,486.355c-0.227,14.178-4.049,22.569-6.821,23.63
			c-3.188,1.22-6.941,2.23-10.855,2.9c-1.318,0.155-2.582,0.112-2.567-0.637c0.044-2.236,3.031-4.992,0.811-6.972
			c-2.328-2.077-14.828-2.777-15.836,1.755c-0.491,2.209,3.541,6.111,0.778,6.201c-0.839-0.143-1.662-0.306-2.446-0.51
			c-4.553-1.186-8.125-3.341-9.63-4.248c-5.159-3.127-4.819-7.922-5.963-16.649c-0.739-5.648-0.739-2.587,0,5.792
			c0.774,8.769-0.739,14.397,5.092,18.255c3.242,2.146,21.924,10.54,21.924,10.54c-0.271-4.445,15.658-8.122,19.872-11.438
			C1497.994,511.899,1499.957,504.786,1499.723,486.355"/>
		<path clip-path="url(#SVGID_14_)" fill="#8D9CC4" d="M1412.197,745.063c-0.089,2.355,11.622,10.602,31.284,16.835
			c1.584,0.506,3.225,0.99,4.91,1.459c0.022,0.007,0.038,0.024,0.04,0.048c1.835,21.521,6.801,51.924,11.278,81.265v0.007
			c1.16,7.605,2.282,15.137,3.316,22.425c2.731,19.286,4.776,36.859,4.998,49.508v0.133c0.097,5.804-4.798,20.283-5.168,23.628
			c-0.229,2.044-0.413,4.209-0.546,6.475c-0.531,9.061-0.318,19.767,0.413,31.196c3.212,49.885,16.392,113.71,21.095,116.427
			c9.348,5.404,26.361-0.008,35.007-1.27c3.58-0.533,6.445-3.582,6.261-7.192c-4.223-82.786,7.908-198.082,16.977-268.96
			c0.235-1.844,0.471-3.653,0.699-5.434c1.087-8.357,1.803-16.162,2.252-23.199c0.414-6.172,0.614-11.777,0.702-16.635
			c0.022-1.514,0.037-2.963,0.044-4.326c0.022-4.438-3.506-33.486-3.669-166.562c-0.004-3.075-2.521-5.59-5.595-5.59h-81.38
			c-7.865,0-14.192,6.436-14.094,14.298c0.127,10.152-0.239,24.326-2.443,37.854c-3.004,18.477-9.437,35.738-22.711,39.894
			c-0.015,0.005-0.026,0.012-0.033,0.026c-0.06,0.135-0.423,0.942-1.005,2.289c-0.003,0.006-0.005,0.014-0.005,0.014
			c-0.126,3.349-0.266,6.748-0.42,10.215c-0.03,0.695-0.06,1.396-0.097,2.098c-0.015,0.414-0.037,0.82-0.06,1.232
			c-0.028,0.701-0.066,1.41-0.103,2.119c-0.051,1.166-0.111,2.341-0.178,3.529c-0.052,0.93-0.103,1.862-0.154,2.799
			c-0.096,1.803-0.208,3.625-0.325,5.463c-0.03,0.592-0.067,1.175-0.111,1.773c-0.155,2.377-0.316,4.792-0.502,7.221
			c-0.052,0.748-0.109,1.492-0.17,2.246c-0.021,0.361-0.052,0.723-0.081,1.086c-0.074,0.951-0.146,1.904-0.229,2.863
			c-0.081,1.012-0.17,2.03-0.258,3.057C1411.813,739.112,1412.293,742.442,1412.197,745.063"/>
		<path clip-path="url(#SVGID_14_)" fill="#818FB2" d="M1462.724,978.041c3.212,49.885,16.394,113.71,21.095,116.427
			c9.349,5.404,26.36-0.008,35.006-1.271c3.581-0.531,6.446-3.581,6.263-7.191c-4.225-82.786,7.907-198.082,16.975-268.959
			c0.236-1.846,0.472-3.653,0.701-5.435c1.085-8.357,1.802-16.163,2.252-23.199c-4.312-28.102-28.647-29.607-50.719,28.523
			C1497.028,836.223,1461.992,966.611,1462.724,978.041"/>
		<path clip-path="url(#SVGID_14_)" fill="#8D9CC4" d="M1411.285,914.263c-0.669,5.767-7.419,19.479-8.229,22.744
			c-11.159,44.871-4.994,151.265,0.538,155.519c8.558,6.585,26.136,3.455,34.87,3.338c3.62-0.052,6.858-2.703,7.149-6.304
			c6.86-84.771,35.289-201.202,53.571-269.693c9.205-34.5,10.509-59.869,10.509-59.869s-85.442-52.348-94.683-23.75
			C1406.834,761.553,1416.438,869.983,1411.285,914.263"/>
		<path clip-path="url(#SVGID_14_)" fill="#FFA400" d="M1498.309,429.716c-0.589-0.663-1.215-1.305-1.875-1.928
			c-2.787-2.648-6.143-4.933-10.18-6.617c-14.896-6.214-27.253-0.478-34.973,5.396c-0.762,0.574-1.478,1.154-2.143,1.727
			c-4.197,3.568-6.541,6.751-6.541,6.751s-7.236,9.87-6.994,30.677l74.527,0.797
			C1510.131,466.519,1511.225,444.046,1498.309,429.716"/>
		<path clip-path="url(#SVGID_14_)" fill="#FC801C" d="M1456.518,465.937l4.094,0.047c0.086-1.188-0.115-28.236-10.204-38.736
			c-0.761,0.574-0.604,0.472-1.269,1.046C1458.72,437.542,1456.537,465.658,1456.518,465.937"/>
		<path clip-path="url(#SVGID_14_)" fill="#FC801C" d="M1488.903,466.292c0.851-16.561,7.194-33.963,8.905-37.056
			c-0.589-0.681-0.714-0.807-1.374-1.448c-1.188,2.044-10.908,20.065-11.936,38.456l-48.896-0.522c0,0,24.777,5.555,39.727,5.742
			c14.95,0.185,34.801-4.946,34.801-4.946L1488.903,466.292z"/>
		<path clip-path="url(#SVGID_14_)" fill="#818FB2" d="M1438.411,540.371c0,0,25.181,29.335,26.658,54.933l-12.83,0.68
			c0,0-3.23-28.508-22.182-53.858c0,0,2.965-0.719,3.95-0.915C1435.328,540.949,1438.411,540.371,1438.411,540.371"/>
		<path clip-path="url(#SVGID_14_)" fill="#818FB2" d="M1501.193,539.969c18.038,27.298,19.973,55.888,19.973,55.888l12.948-0.223
			c-1.063-20.12-13.704-42.252-20.682-52.738C1513.433,542.896,1504.472,540.632,1501.193,539.969"/>
		<path clip-path="url(#SVGID_14_)" fill="#FFA400" d="M1473.074,821.489h-10.398c-4.834-2.193-30.869-13.473-55.897-13.609
			c-18.057-0.099-38.634,13.392-39.871,13.537c-3.138,0.369,10.46,0.492,10.46,0.492s20.379-9.018,29.535-9.23
			c8.729-0.203,28.104,6.143,35.844,8.811h-58.277c-4.872,0-8.859,3.986-8.859,8.859v66.455c0,4.873,3.987,8.86,8.859,8.86h88.605
			c4.873,0,8.86-3.987,8.86-8.86v-66.455C1481.935,825.476,1477.947,821.489,1473.074,821.489"/>
		<path clip-path="url(#SVGID_14_)" fill="#FC801C" d="M1444.277,821.489h-88.604c-4.875,0-8.861,3.986-8.861,8.859v66.455
			c0,4.873,3.986,8.86,8.861,8.86h88.604c4.873,0,8.86-3.987,8.86-8.86v-66.455C1453.138,825.476,1449.15,821.489,1444.277,821.489"
			/>
		<path clip-path="url(#SVGID_14_)" fill="#3CE374" d="M1418.256,697.847c0.635,30.036-3.109,89.852-3.109,89.852h-17.72
			c-8.366-42.086-11.319-69.164-11.319-83.93c0-2.91,0.015-5.619,0.037-8.123c0.11-12.611,0.45-19.936,0.45-19.936
			c-3.322-76.414,11.939-117.275,16.731-122.902c4.8-5.626,26.729-10.684,26.729-10.684s7.244,21.112,10.198,38.092
			c2.953,16.984-23.23,88.34-22.152,112.727C1418.168,694.464,1418.218,696.104,1418.256,697.847"/>
		<path clip-path="url(#SVGID_14_)" fill="#FFA347" d="M1648.256,718.292h-14.331c-1.419,0-2.585,1.172-2.585,2.596v390.248
			c0,1.424,1.166,2.59,2.585,2.59h14.331c1.425,0,2.584-1.166,2.584-2.59V720.888
			C1650.84,719.464,1649.681,718.292,1648.256,718.292"/>
		<path clip-path="url(#SVGID_14_)" fill="#0D458D" d="M1648.256,718.292h-14.331c-1.419,0-2.585,1.172-2.585,2.596v12.094h19.5
			v-12.094C1650.84,719.464,1649.681,718.292,1648.256,718.292"/>
		<path clip-path="url(#SVGID_14_)" fill="#0D458D" d="M1631.34,1111.136c0,1.424,1.166,2.59,2.585,2.59h14.331
			c1.425,0,2.584-1.166,2.584-2.59v-10.43h-19.5V1111.136z"/>
		<path clip-path="url(#SVGID_14_)" fill="#FC801C" d="M1641.212,743.864c-0.813,0-1.478,0.664-1.478,1.477v343.501
			c0,0.813,0.665,1.478,1.478,1.478c0.812,0,1.476-0.664,1.476-1.478V745.341C1642.688,744.528,1642.023,743.864,1641.212,743.864"
			/>
		<path clip-path="url(#SVGID_14_)" fill="#EE9358" d="M1415.147,787.698c0,0,3.744-59.814,3.108-89.852
			c-14.168-4.571-25.6-3.568-32.111-2.203c-0.022,2.506-0.037,5.216-0.037,8.123c0,14.768,2.953,41.844,11.319,83.932
			c-3.691,15.506-3.446,32.242,2.952,35.195c6.399,2.953,27.566-8.122,27.32-13.045
			C1427.453,804.927,1415.147,787.698,1415.147,787.698"/>
		<path clip-path="url(#SVGID_14_)" fill="#EE9358" d="M1657.611,718.538c-1.729-6.334-3.012-9.845-7.371-12.922
			c-6.336-4.471-13.859-3.262-19.466-2.275c-4.286,0.752-8.774-0.686-10.654-1.408c-9.93-6.617-34.854-20.262-47.265-26.377
			c-8.469,4.908-18.872,14.625-23.768,33.588c19.103,8.425,60.907,8.277,68.868,6.438c0,0,7.369,5.355,12.975,5.85
			c2.123,0.186,4.798-0.432,7.301-1.271c3.938-1.317,8.166-0.005,10.999,3.495c2.726,3.369,6.281,5.219,7.756,5.219
			C1659.271,728.874,1658.697,722.524,1657.611,718.538"/>
		<path clip-path="url(#SVGID_14_)" fill="#FFA400" d="M153.23,795.404H64.625c-4.872,0-8.861,3.987-8.861,8.86v66.454
			c0,4.874,3.989,8.86,8.861,8.86h88.605c4.873,0,8.86-3.986,8.86-8.86v-66.454C162.09,799.392,158.104,795.404,153.23,795.404"/>
		<path clip-path="url(#SVGID_14_)" fill="#FC801C" d="M182.026,795.404H93.422c-4.873,0-8.861,3.987-8.861,8.86v66.454
			c0,4.874,3.988,8.86,8.861,8.86h88.604c4.873,0,8.861-3.986,8.861-8.86v-66.454C190.887,799.392,186.899,795.404,182.026,795.404"
			/>
		<path clip-path="url(#SVGID_14_)" fill="#FFA400" d="M74.225,795.774c0,0,21.044-15.506,24.182-15.137
			c3.137,0.369,8.121,1.477,8.121,1.477L87.7,796.329L74.225,795.774z"/>
		<path clip-path="url(#SVGID_14_)" fill="#3CE374" d="M240.321,550.843c-8.44-6.38-28.14-11.711-38.011-12.834
			c-2.319-0.258-9.252-0.287-9.327-0.287c0,7.095-15.113,13.223-27.43,12.418c-10.381-0.678-17.122-8.572-17.122-12.847
			l-0.008-0.015c-0.798,0-41.253,28.08-46.34,56.057c-0.34,1.868-0.524,3.729-0.524,5.59C101.396,732,93.334,752.41,95.881,752.365
			c0,0,15.137,11.646,43.224,14.399c3.632,0.36,7.48,0.567,11.541,0.582c12.42,0.045,23.834-1.291,33.928-3.367
			c5.626-1.151,10.846-2.541,15.594-4.047c19.664-6.23,31.373-14.478,31.286-16.834c-0.097-2.621,0.383-5.951,0.058-9.688
			c-1.225-14.088-1.898-26.396-2.415-38.794c21.34,1.876,33.648-0.235,33.648-0.235
			C280.222,656.776,251.736,559.468,240.321,550.843 M235.337,659.161c-1.3,0.348-2.711,0.68-4.216,0.997
			c-1.041,0.229-2.127,0.442-3.249,0.649c-0.022-0.51-0.037-1.026-0.059-1.529c-0.288-6.971-0.613-13.607-1.071-19.92
			c-0.384-5.287-0.857-10.346-1.477-15.174C232.626,643.597,237.759,658.511,235.337,659.161"/>
		<path clip-path="url(#SVGID_14_)" fill="#EE9358" d="M148.43,537.29c0,0-31.255,4.734-44.712,15.949
			C90.261,564.453,88.9,635.86,84.414,656.046c-0.882,3.962-1.674,10.361-2.357,18.157c-2.407,27.396,0.477,65.383,2.863,79.428
			c0.252,3.384,0.124,8.357-1.836,13.255c-3.444,8.614-4.183,11.075,1.97,15.998c6.153,4.922,12.798,11.813,17.475,9.844
			c3.607-1.519,2.966-25.442,2.486-36.301c5.399-23.209,14.142-66.768,22.372-108.979C138.367,591.168,148.43,537.29,148.43,537.29"
			/>
		<path clip-path="url(#SVGID_14_)" fill="#3CE374" d="M148.431,537.293c0,0-5.804,31.048-13.401,70.625
			c-2.408,12.56-4.999,25.976-7.642,39.532c-10.758,21.081-19.988,35.412-22.838,32.718c-5.819-5.494-16.031-6.173-22.491-5.967
			c0.679-7.798,1.477-14.192,2.355-18.156c0.355-1.595,0.687-3.507,1.012-5.687c3.765-25.398,5.9-86.795,18.29-97.116
			c6.52-5.427,17.211-9.341,26.507-11.939h0.007c4.748-1.322,9.134-2.297,12.412-2.961
			C146.186,537.633,148.431,537.293,148.431,537.293"/>
		<path clip-path="url(#SVGID_14_)" fill="#818FB2" d="M104.55,680.168c-5.817-5.493-16.029-6.171-22.493-5.965
			c0.682-7.796,1.475-14.195,2.358-18.158c0.354-1.595,0.688-3.509,1.011-5.687l32.248-77.846
			C117.674,572.513,107.401,682.865,104.55,680.168"/>
		<path clip-path="url(#SVGID_14_)" fill="#EE9358" d="M193.064,536.497c0.237-10.867,0.058-23.842-1.411-34.803l-43.372,7.088
			c0,0,0.001,13.234,0.192,27.922c-0.027,0.004-0.043,0.005-0.043,0.005s-1.183,13.624,15.597,15.618
			C180.807,554.32,193.516,547.011,193.064,536.497"/>
		<path clip-path="url(#SVGID_14_)" fill="#0C3563" d="M156.767,1112.715c5.452-3.356,2.263-28.402,2.263-28.402
			s-25.543-20.277-28.987-4.666c-3.443,15.611-24.108,22.693-35.878,24.647c-8.125,1.349-10.626,5.861-11.395,8.527
			L156.767,1112.715z"/>
		<path clip-path="url(#SVGID_14_)" fill="#818FB2" d="M231.128,660.194c0,0-8.122,10.979-9.783,10.979
			c-1.661,0-22.151-7.937-16.274-25.687c5.877-17.751,20.195-21.302,20.195-21.302c0.619,4.828,1.092,9.887,1.476,15.174
			c0.458,6.313,0.783,12.95,1.07,19.921c0.023,0.502,0.038,1.019,0.06,1.528c1.122-0.207,2.208-0.422,3.249-0.649L231.128,660.194z"
			/>
		<path clip-path="url(#SVGID_14_)" fill="#0C3563" d="M235.033,1112.715c5.453-3.356,2.263-28.402,2.263-28.402
			s-25.543-20.277-28.986-4.666c-3.443,15.611-24.108,22.693-35.879,24.647c-8.125,1.349-10.625,5.861-11.395,8.527
			L235.033,1112.715z"/>
		<path clip-path="url(#SVGID_14_)" fill="#D04B3E" d="M197.195,489.188c0,0,28.953-45.649-26.643-48.671
			c0,0-20.852,2.455-25.572-2.265c0,0-16.175,24.582-1.07,50.936C159.015,515.542,197.195,489.188,197.195,489.188"/>
		<path clip-path="url(#SVGID_14_)" fill="#EE9358" d="M149.569,513.009c4.215,3.316,16.571,6.608,20.144,6.994
			c0,0,18.322-4.086,21.653-6.096c5.159-3.126,4.827-9.455,5.092-18.255c0.317-10.415,1.366-18.594,0.203-24.599
			c-1.382-7.183-5.936-11.27-18.686-12.379c-23.406-2.032-33.157,3.829-33.565,11.677c-0.106,2.106-0.203,4.117-0.272,6.019
			C143.202,500.841,145.135,509.521,149.569,513.009"/>
		<path clip-path="url(#SVGID_14_)" fill="#D04B3E" d="M143.927,484.392c0.226,14.177,4.05,22.568,6.82,23.629
			c3.19,1.22,6.944,2.23,10.857,2.901c1.318,0.155,2.581,0.111,2.566-0.637c-0.043-2.236-3.03-4.993-0.81-6.973
			c2.329-2.077,14.829-2.777,15.836,1.755c0.491,2.21-3.539,6.111-0.778,6.201c0.839-0.144,1.661-0.306,2.447-0.51
			c4.552-1.186,8.125-3.341,9.629-4.248c5.159-3.127,4.821-7.922,5.963-16.65c0.739-5.646,0.739-2.586,0,5.794
			c-0.774,8.769,0.739,14.396-5.091,18.254c-3.244,2.147-21.925,10.54-21.925,10.54c0.272-4.445-15.658-8.122-19.872-11.439
			C145.656,509.935,143.693,502.821,143.927,484.392"/>
		<path clip-path="url(#SVGID_14_)" fill="#8D9CC4" d="M231.453,743.099c0.089,2.355-11.622,10.604-31.285,16.834
			c-1.583,0.508-3.225,0.99-4.91,1.46c-0.022,0.006-0.038,0.024-0.04,0.048c-1.834,21.521-6.8,51.924-11.279,81.265v0.008
			c-1.159,7.604-2.281,15.137-3.316,22.424c-2.731,19.286-4.777,36.859-4.998,49.508v0.133c-0.096,5.804,4.799,20.283,5.168,23.628
			c0.229,2.045,0.414,4.208,0.547,6.476c0.531,9.06,0.318,19.766-0.413,31.195c-3.213,49.885-16.393,113.71-21.096,116.427
			c-9.348,5.404-26.36-0.008-35.006-1.271c-3.581-0.531-6.446-3.581-6.261-7.191c4.223-82.786-7.908-198.083-16.976-268.96
			c-0.236-1.844-0.472-3.653-0.701-5.433c-1.086-8.358-1.802-16.163-2.252-23.2c-0.413-6.172-0.613-11.777-0.702-16.635
			c-0.022-1.514-0.037-2.961-0.043-4.326c-0.023-4.438,3.506-33.486,3.668-166.563c0.004-3.075,2.522-5.59,5.596-5.59h81.38
			c7.865,0,14.192,6.437,14.094,14.299c-0.127,10.152,0.239,24.326,2.443,37.854c3.004,18.477,9.437,35.738,22.712,39.894
			c0.014,0.005,0.025,0.013,0.031,0.026c0.061,0.133,0.423,0.943,1.006,2.289c0.003,0.006,0.005,0.014,0.005,0.021
			c0.125,3.342,0.265,6.741,0.42,10.209c0.03,0.694,0.059,1.396,0.096,2.097c0.015,0.413,0.037,0.819,0.059,1.232
			c0.029,0.701,0.067,1.41,0.104,2.119c0.051,1.166,0.11,2.341,0.177,3.531c0.052,0.93,0.103,1.859,0.155,2.797
			c0.096,1.802,0.206,3.625,0.325,5.465c0.029,0.591,0.066,1.174,0.11,1.771c0.156,2.377,0.318,4.792,0.502,7.221
			c0.052,0.746,0.111,1.492,0.17,2.246c0.022,0.361,0.052,0.723,0.081,1.084c0.074,0.953,0.148,1.906,0.229,2.865
			c0.082,1.012,0.17,2.03,0.259,3.057C231.837,737.147,231.356,740.478,231.453,743.099"/>
		<path clip-path="url(#SVGID_14_)" fill="#818FB2" d="M180.926,976.077c-3.212,49.884-16.392,113.709-21.096,116.426
			c-9.347,5.404-26.36-0.008-35.005-1.271c-3.582-0.531-6.446-3.581-6.262-7.191c4.224-82.786-7.907-198.083-16.975-268.959
			c-0.236-1.845-0.473-3.653-0.701-5.435c-1.085-8.357-1.802-16.162-2.252-23.199c4.312-28.102,28.649-29.607,50.719,28.523
			C158.812,837.492,181.657,964.646,180.926,976.077"/>
		<path clip-path="url(#SVGID_14_)" fill="#8D9CC4" d="M232.366,912.297c0.668,5.767,7.418,19.48,8.228,22.745
			c11.157,44.871,4.994,151.264-0.538,155.519c-8.558,6.584-26.136,3.455-34.871,3.336c-3.62-0.051-6.858-2.702-7.15-6.302
			c-6.86-84.77-35.288-201.201-53.57-269.693c-9.206-34.5-10.51-59.867-10.51-59.867s85.444-52.35,94.684-23.752
			C236.816,759.588,227.212,868.019,232.366,912.297"/>
		<path clip-path="url(#SVGID_14_)" fill="#FFA400" d="M201.052,433.079c0,0-2.343-3.182-6.541-6.749
			c-0.665-0.575-1.38-1.153-2.142-1.729c-7.72-5.874-20.077-11.609-34.973-5.394c-4.036,1.684-7.393,3.969-10.18,6.616
			c-0.66,0.623-1.285,1.265-1.875,1.928c-12.916,14.33-11.822,36.803-11.822,36.803l74.529-0.797
			C208.289,442.95,201.052,433.079,201.052,433.079"/>
		<path clip-path="url(#SVGID_14_)" fill="#FC801C" d="M187.133,463.972c-0.021-0.278-2.202-28.396,7.378-37.642
			c-0.666-0.575-0.507-0.473-1.268-1.048c-10.089,10.501-10.29,37.55-10.205,38.737L187.133,463.972z"/>
		<path clip-path="url(#SVGID_14_)" fill="#FC801C" d="M159.206,464.279c-0.706-18.253-10.781-36.429-11.99-38.456
			c-0.66,0.623-0.785,0.746-1.374,1.409c1.748,3.075,8.326,20.673,8.954,37.094l-21.277,0.227c0,0,19.851,5.132,34.801,4.946
			c14.95-0.185,39.727-5.742,39.727-5.742L159.206,464.279z"/>
		<path clip-path="url(#SVGID_14_)" fill="#818FB2" d="M205.239,538.406c0,0-25.182,29.335-26.659,54.931h12.799
			c0,0,3.261-27.826,22.212-53.177L205.239,538.406z"/>
		<path clip-path="url(#SVGID_14_)" fill="#818FB2" d="M142.642,538.342c-18.038,27.298-20.18,54.993-20.18,54.993h-12.796
			c1.063-20.12,13.579-41.549,20.556-52.032h0.007C134.978,539.982,139.364,539.006,142.642,538.342"/>
		<path clip-path="url(#SVGID_14_)" fill="#FFA400" d="M272.637,696.899c-0.48-9.75-1.813-21.348-4.357-35.137
			c-0.007,6.645-0.44,12.93-1.414,18.613c3.166,25.236,1.942,44.525-3.681,55.445c-3.485,6.772-8.308,11.968-14.147,15.445
			c2.977-2.895,5.602-6.346,7.821-10.324c4.324-7.746,8.301-22.164,6.827-48.761c-0.297,0.759-0.609,1.487-0.94,2.199
			c0,0-1.096,0.188-3.208,0.405c0.867,19.445-1.21,34.336-6.176,43.246c-3.762,6.754-8.87,11.793-14.967,15
			c1.922-1.9,3.688-4.039,5.326-6.426c5.128-7.537,10.479-22.355,10.71-51.434c-1.279,0.074-2.7,0.135-4.256,0.176
			c-0.237,22.292-3.525,38.883-9.716,47.949c-0.284,0.419-0.582,0.838-0.886,1.244c4.695-8.059,9.188-22.665,9.418-49.174
			c-1.333,0.021-2.754,0.035-4.263,0.021c-0.223,22.272-3.525,38.849-9.709,47.909c-3.876,5.676-8.734,9.837-14.316,12.4
			c-1.705-0.291-3.45-0.676-5.202-1.144c-0.238-0.054-0.474-0.114-0.704-0.19c-0.027-0.006-0.047-0.012-0.075-0.02
			c-0.229-0.061-0.467-0.128-0.696-0.195c-2.139-0.623-4.216-1.334-6.225-2.131c-24.62-9.777-38.747-31.791-40.122-49.892
			c-0.973-12.854,0.069-31.995,2.667-52.812c5.115-41.029,16.258-88.592,29.809-107.494c0.231-0.32,0.447-0.63,0.677-0.928
			c0,0,0-0.007,0.007-0.007c0.284-0.372,0.569-0.738,0.86-1.076c0.5-0.603,0.994-1.164,1.501-1.679
			c0.007-0.006,0.007-0.006,0.014-0.013c1.062-1.088,2.125-1.948,3.159-2.585c0.285,0.17,0.596,0.379,0.934,0.651
			c0.88,0.669,1.928,1.691,3.139,3.232c0.007,0.016,0.021,0.022,0.028,0.035c1.413,0.305,2.882,0.657,4.383,1.035
			c0.697,0.19,1.415,0.373,2.132,0.583c0.047,0.005,0.088,0.012,0.135,0.033c0.169,0.034,0.339,0.089,0.5,0.136
			c0.881,0.243,1.76,0.5,2.646,0.763c0.501,0.156,1.008,0.312,1.509,0.468c0.595,0.189,1.184,0.379,1.773,0.574
			c0.642,0.218,1.285,0.434,1.922,0.657c0.675,0.237,1.352,0.48,2.015,0.731c-0.014-0.021-0.027-0.041-0.04-0.062
			c-7.977-12.57-13.647-15.5-17.328-15.324c-0.575,0.027-1.142,0.102-1.725,0.231c-0.67-0.176-1.285-0.25-1.847-0.25
			c-1.231,0.005-2.469,0.235-3.707,0.682c-3.789,0.366-7.774,2.76-11.902,7.165c-0.283,0.291-0.561,0.603-0.845,0.92
			c-2.293,2.585-4.587,5.732-6.873,9.336c-0.014,0.022-0.027,0.042-0.041,0.062c-21.82,34.486-42.165,111.094-43.375,146.952
			c-0.955,28.377,20.892,53.747,42.968,64.139c2.159,1.015,4.303,1.896,6.421,2.633c1.198,0.419,2.382,0.791,3.559,1.123
			c0.027,0.007,0.048,0.014,0.074,0.021c4.574,1.285,9.019,1.921,13.281,1.921c0.914,0,1.814-0.027,2.706-0.088
			c0.922,0.061,1.834,0.088,2.741,0.088c4.012,0,7.869-0.561,11.509-1.678c0.575-0.025,1.149-0.068,1.718-0.107
			c0.487-0.049,0.975-0.088,1.448-0.149c0.933-0.108,1.861-0.25,2.774-0.419c2.673,0.013,5.277-0.182,7.794-0.602
			c7.929-1.301,14.966-4.711,20.723-10.069c3.627-3.368,6.746-7.509,9.256-12.38C270.458,731.403,273.719,718.806,272.637,696.899
			 M144.047,694.354c1.07-31.738,18.424-99.146,37.611-135.539c-0.669,1.611-1.346,3.275-2.01,4.986
			c-18.131,38.403-33.362,99.477-34.396,130.342c-0.44,12.909,3.843,25.188,10.723,35.723
			C147.688,718.237,143.675,705.226,144.047,694.354 M189.736,753.459c-27.305-12.854-40.919-39.464-40.249-59.104
			c0.582-17.436,6.09-45.649,14.113-73.564c-6.258,30.175-9.749,60.781-8.89,79.586c1.083,23.809,17.997,43.605,36.887,53.916
			C190.975,754.034,190.366,753.757,189.736,753.459 M158.932,700.091c-1.245-27.225,7.361-82.041,20.087-121.363
			c1.428-4.398,2.903-8.606,4.425-12.564c0.569-1.205,1.137-2.374,1.705-3.531c-9.797,26.833-17.157,65.182-20.351,97.385
			c-1.637,16.651-2.158,31.658-1.333,42.592c1.489,19.647,13.734,36.061,28.781,46.502
			C171.266,737.513,159.696,716.877,158.932,700.091"/>
		<path clip-path="url(#SVGID_14_)" fill="#EE9358" d="M231.128,660.191c-0.694,0.103-13.778,2.492-14.494,2.595
			c-21.793,3.195-51.114,4.603-54.167,4.744c-0.286-0.268-10.689-9.957-14.745-9.957c-4.113,0-15.968,4.321-17.178,7.643
			c-1.209,3.324-1.693,9.304,1.694,10.633c3.387,1.33,17.42,4.652,21.049,4.984c0.495,0.045,1.092,0.045,1.742-0.016
			c26.065,7.659,48.503,11.428,65.791,13.202c1.543,0.162,10.461,1.321,18.381,1.239
			C238.927,680.212,233.86,666.313,231.128,660.191"/>
		<path clip-path="url(#SVGID_14_)" fill="#EFF2FA" d="M707.223,349.603v-5.724h-12.53v-37.788h-10.371v37.788H658.05v-37.788
			h-10.37v37.788h-28.562v-37.788h-10.371v37.788h-26.271v-37.788h-10.369v37.788h-13.742v5.724h13.742v18.398h-13.742v5.725h13.742
			v18.398h-13.742v5.726h13.742v18.397h-13.742v5.725h13.742v18.398h-13.742v5.725h13.742v18.397h-13.742v5.726h13.742v14.885
			h-13.742v5.726h13.742v18.397h-13.742v5.726h13.742v18.397h-13.742v5.725h13.742v18.397h-13.742v5.725h13.742v18.398h-13.742
			v5.725h13.742v18.397h-13.742v5.724h13.742v17.559h-13.742v5.727h13.742v18.396h-13.742v5.727h13.742v18.396h-13.742v5.725h13.742
			v18.398h-13.742v5.725h13.742v18.397h-13.742v5.726h13.742v18.397h-13.742v5.725h13.742v14.886h-13.742v5.726h13.742v18.397
			h-13.742v5.726h13.742v18.397h-13.742v5.725h13.742v18.397h-13.742v5.726h13.742v18.396h-13.742v5.727h13.742v18.396h-13.742
			v5.727h13.742v16.412h-13.742v5.725h13.742v18.398h-13.742v5.725h13.742v18.397h-13.742v5.726h13.742v18.396h-13.742v5.726h13.742
			v18.396h-13.742v5.726h13.742v18.397h-13.742v5.726h13.742v14.886h-13.742v5.727h13.742v18.396h-13.742v5.726h13.742v18.397
			h-13.742v5.725h148.858v-5.725h-12.53v-18.397h12.53v-5.726h-12.53v-18.396h12.53v-5.727h-12.53v-14.886h12.53v-5.726h-12.53
			v-18.397h12.53v-5.726h-12.53v-18.396h12.53v-5.726h-12.53v-18.396h12.53v-5.726h-12.53v-18.397h12.53v-5.725h-12.53V918.7h12.53
			v-5.725h-12.53v-16.412h12.53v-5.727h-12.53V872.44h12.53v-5.727h-12.53v-18.396h12.53v-5.726h-12.53v-18.397h12.53v-5.725h-12.53
			v-18.397h12.53v-5.726h-12.53v-18.397h12.53v-5.726h-12.53v-14.886h12.53v-5.725h-12.53v-18.397h12.53v-5.726h-12.53v-18.397
			h12.53v-5.725h-12.53V682.97h12.53v-5.725h-12.53v-18.396h12.53v-5.727h-12.53v-18.396h12.53v-5.727h-12.53V611.44h12.53v-5.724
			h-12.53v-18.397h12.53v-5.725h-12.53v-18.398h12.53v-5.725h-12.53v-18.397h12.53v-5.725h-12.53v-18.397h12.53v-5.726h-12.53
			v-18.397h12.53v-5.726h-12.53v-14.885h12.53v-5.726h-12.53v-18.397h12.53v-5.725h-12.53v-18.398h12.53v-5.725h-12.53V397.85h12.53
			v-5.726h-12.53v-18.398h12.53v-5.725h-12.53v-18.398H707.223z M647.68,368.001h-28.561v-18.398h28.561V368.001z M619.118,1059.926
			h28.561v18.396h-28.561V1059.926z M647.68,1102.445h-28.561v-18.398h28.561V1102.445z M619.118,1039.313h28.561v14.886h-28.561
			V1039.313z M619.118,1015.19h28.561v18.396h-28.561V1015.19z M619.118,991.068h28.561v18.396h-28.561V991.068z M619.118,966.946
			h28.561v18.396h-28.561V966.946z M619.118,942.823h28.561v18.396h-28.561V942.823z M619.118,918.7h28.561v18.396h-28.561V918.7z
			 M619.118,896.563h28.561v16.411h-28.561V896.563z M619.118,872.44h28.561v18.396h-28.561V872.44z M619.118,848.317h28.561v18.396
			h-28.561V848.317z M619.118,824.194h28.561v18.396h-28.561V824.194z M619.118,800.072h28.561v18.396h-28.561V800.072z
			 M619.118,775.949h28.561v18.397h-28.561V775.949z M619.118,755.338h28.561v14.886h-28.561V755.338z M619.118,731.216h28.561
			v18.397h-28.561V731.216z M619.118,707.093h28.561v18.397h-28.561V707.093z M619.118,682.97h28.561v18.398h-28.561V682.97z
			 M619.118,658.849h28.561v18.396h-28.561V658.849z M619.118,634.726h28.561v18.397h-28.561V634.726z M619.118,611.44h28.561
			v17.559h-28.561V611.44z M619.118,587.319h28.561v18.396h-28.561V587.319z M619.118,563.196h28.561v18.396h-28.561V563.196z
			 M619.118,539.074h28.561v18.396h-28.561V539.074z M619.118,514.952h28.561v18.396h-28.561V514.952z M619.118,490.829h28.561
			v18.397h-28.561V490.829z M619.118,470.218h28.561v14.885h-28.561V470.218z M619.118,446.095h28.561v18.398h-28.561V446.095z
			 M619.118,421.972h28.561v18.398h-28.561V421.972z M619.118,397.85h28.561v18.398h-28.561V397.85z M619.118,373.726h28.561v18.398
			h-28.561V373.726z M582.476,349.603h26.271v18.398h-26.271V349.603z M582.476,373.726h26.271v18.398h-26.271V373.726z
			 M582.476,397.85h26.271v18.398h-26.271V397.85z M582.476,421.972h26.271v18.398h-26.271V421.972z M582.476,446.095h26.271v18.398
			h-26.271V446.095z M582.476,470.218h26.271v14.885h-26.271V470.218z M582.476,490.829h26.271v18.397h-26.271V490.829z
			 M582.476,514.952h26.271v18.396h-26.271V514.952z M582.476,539.074h26.271v18.396h-26.271V539.074z M582.476,563.196h26.271
			v18.396h-26.271V563.196z M582.476,587.319h26.271v18.396h-26.271V587.319z M582.476,611.44h26.271v17.559h-26.271V611.44z
			 M582.476,634.726h26.271v18.397h-26.271V634.726z M582.476,658.849h26.271v18.396h-26.271V658.849z M582.476,682.97h26.271
			v18.398h-26.271V682.97z M582.476,707.093h26.271v18.397h-26.271V707.093z M582.476,731.216h26.271v18.397h-26.271V731.216z
			 M582.476,755.338h26.271v14.886h-26.271V755.338z M582.476,775.949h26.271v18.397h-26.271V775.949z M582.476,800.072h26.271
			v18.396h-26.271V800.072z M582.476,824.194h26.271v18.396h-26.271V824.194z M582.476,848.317h26.271v18.396h-26.271V848.317z
			 M582.476,872.44h26.271v18.396h-26.271V872.44z M582.476,896.563h26.271v16.411h-26.271V896.563z M582.476,918.7h26.271v18.396
			h-26.271V918.7z M582.476,942.823h26.271v18.396h-26.271V942.823z M582.476,966.946h26.271v18.396h-26.271V966.946z
			 M582.476,991.068h26.271v18.396h-26.271V991.068z M582.476,1015.19h26.271v18.396h-26.271V1015.19z M582.476,1039.313h26.271
			v14.886h-26.271V1039.313z M582.476,1059.926h26.271v18.396h-26.271V1059.926z M582.476,1084.048h26.271v18.397h-26.271V1084.048z
			 M684.321,1102.445H658.05v-18.398h26.271V1102.445z M684.321,1078.322H658.05v-18.396h26.271V1078.322z M684.321,1054.199H658.05
			v-14.886h26.271V1054.199z M684.321,1033.588H658.05v-18.397h26.271V1033.588z M684.321,1009.465H658.05v-18.396h26.271V1009.465z
			 M684.321,985.343H658.05v-18.396h26.271V985.343z M684.321,961.221H658.05v-18.396h26.271V961.221z M684.321,937.099H658.05
			v-18.397h26.271V937.099z M684.321,912.976H658.05v-16.411h26.271V912.976z M684.321,890.837H658.05v-18.396h26.271V890.837z
			 M684.321,866.714H658.05v-18.396h26.271V866.714z M684.321,842.592H658.05v-18.397h26.271V842.592z M684.321,818.47H658.05
			v-18.396h26.271V818.47z M684.321,794.347H658.05V775.95h26.271V794.347z M684.321,770.224H658.05v-14.886h26.271V770.224z
			 M684.321,749.613H658.05v-18.397h26.271V749.613z M684.321,725.49H658.05v-18.397h26.271V725.49z M684.321,701.368H658.05V682.97
			h26.271V701.368z M684.321,677.245H658.05v-18.396h26.271V677.245z M684.321,653.122H658.05v-18.398h26.271V653.122z
			 M684.321,628.999H658.05V611.44h26.271V628.999z M684.321,605.717H658.05v-18.397h26.271V605.717z M684.321,581.595H658.05
			v-18.397h26.271V581.595z M684.321,557.471H658.05v-18.396h26.271V557.471z M684.321,533.349H658.05v-18.396h26.271V533.349z
			 M684.321,509.226H658.05v-18.397h26.271V509.226z M684.321,485.103H658.05v-14.885h26.271V485.103z M684.321,464.492H658.05
			v-18.398h26.271V464.492z M684.321,440.37H658.05v-18.398h26.271V440.37z M684.321,416.247H658.05v-18.398h26.271V416.247z
			 M684.321,392.124H658.05v-18.398h26.271V392.124z M684.321,368.001H658.05v-18.398h26.271V368.001z"/>
		<rect x="829.655" clip-path="url(#SVGID_14_)" fill="#EFF2FA" width="3.671" height="65.329"/>
		<rect x="1032.983" clip-path="url(#SVGID_14_)" fill="#EFF2FA" width="3.67" height="65.329"/>
		<rect x="855.347" clip-path="url(#SVGID_14_)" fill="#EFF2FA" width="3.67" height="65.329"/>
		<rect x="1051.334" clip-path="url(#SVGID_14_)" fill="#EFF2FA" width="3.67" height="65.329"/>
		<path clip-path="url(#SVGID_14_)" fill="#0D458D" d="M313.583,962.945c-1.171-0.268-2.346,0.471-2.613,1.64l-19.812,86.521
			c-5.351,0.158-10.792,5.953-12.64,14.024l-1.887,8.241c-0.099,0.43-0.217,0.945-0.257,1.388l22,5.037
			c0.211-0.402,0.329-0.918,0.428-1.348l1.887-8.243c1.844-8.049-0.516-15.616-5.28-18.116l19.813-86.53
			C315.489,964.39,314.752,963.214,313.583,962.945"/>
		<path clip-path="url(#SVGID_14_)" fill="#FB9D39" d="M256.008,1074.625c0,0,45.694-11.836,60.282-2.202
			c14.59,9.634-7.431,19.819-7.431,19.819L256.008,1074.625z"/>
		<path clip-path="url(#SVGID_14_)" fill="#3CE374" d="M608.874,552.867c-8.735,26.736-56.338,72.95-62.917,77.56
			c0,0-11.075-18.461-8.86-28.797c1.81-8.44,20.342-38.521,26.685-53.304c0.332-0.769,0.627-1.499,0.887-2.178
			c0.871-2.266,1.328-4.024,1.226-5.065c-0.318-3.213-10.411-11.025-22.144-20.291c-15.248-12.05-33.265-26.544-36.188-36.564
			c-5.169-17.721-23.074-87.888-23.074-87.888s44.486,9.621,57.038,20.697c12.554,11.075,66.453,103.37,68.668,126.999
			C610.438,546.613,609.951,549.596,608.874,552.867"/>
		<path clip-path="url(#SVGID_14_)" fill="#EE9358" d="M608.874,552.867c-8.735,26.736-56.338,72.95-62.917,77.56
			c0,0-11.075-18.461-8.86-28.797c1.905-8.877,22.313-41.703,27.571-55.481C572.575,544.774,591.145,543.091,608.874,552.867"/>
		<path clip-path="url(#SVGID_14_)" fill="#EE9358" d="M484.503,390.175l-0.029,5.449c0,0,1.482,17.041-19.501,19.53
			c-20.984,2.496-36.785-5.117-36.217-18.267c1.89-10.183,3.868-18.703,4.01-27.128c0.051-3.131-0.163-6.453-0.746-10.204
			l40.662-0.813l11.976,1.957L484.503,390.175z"/>
		<path clip-path="url(#SVGID_14_)" fill="#E17E3F" d="M484.657,360.7l-0.155,29.475c-4.318,2.007-9.191,3.233-14.656,3.233
			c-18.688,0-30.768-13.704-37.08-23.649c0.052-3.131-0.163-6.454-0.746-10.204l40.661-0.813L484.657,360.7z"/>
		<path clip-path="url(#SVGID_14_)" fill="#0C3563" d="M448.662,1112.765c0,0-1.974-15.375-6.545-24.517
			c-4.57-9.141-33.657-3.323-33.657-3.323s-5.816,4.984-7.063,28.254L448.662,1112.765z"/>
		<path clip-path="url(#SVGID_14_)" fill="#0C3563" d="M547.761,1112.715c-6.835-4.172-2.946-35.292-2.946-35.292
			s31.847-25.479,36.226-5.973c4.379,19.508,30.254,28.265,44.984,30.654c10.167,1.648,13.314,7.279,14.29,10.61H547.761z"/>
		<path clip-path="url(#SVGID_14_)" fill="#8D9CC4" d="M481.796,882.908c1.296,7.142,2.118,13.001,2.337,17.202
			c2.96,57.746,48.608,189.782,56.774,192.862c12.634,4.767,32.529-5.368,42.938-8.684c4.313-1.378,7.224-5.728,6.264-10.14
			c-22.605-103.927-30.915-253.575-33.938-342.176c-1.526-44.625-9.188-75.453-9.188-75.453s-111.336-29.705-111.996,7.871
			C434.401,697.644,471.866,828.054,481.796,882.908"/>
		<path clip-path="url(#SVGID_14_)" fill="#818FB2" d="M481.796,882.908l74.375-150.935c-1.526-44.625-9.188-75.453-9.188-75.453
			s-111.336-29.705-111.996,7.871C434.401,697.644,471.866,828.054,481.796,882.908"/>
		<path clip-path="url(#SVGID_14_)" fill="#8D9CC4" d="M506.567,664.524l-58.857,426.577c0,0-25.848,6.232-45.949,1.247
			c0,0-17.232-226.874-15.796-281.723c1.436-54.848-12.367-146.765,3.15-156.902C404.633,643.589,506.567,664.524,506.567,664.524"
			/>
		<path clip-path="url(#SVGID_14_)" fill="#3CE374" d="M550.188,665.313c0,0-30.073,17.536-73.637,17.041
			c-16.983-0.191-31.758-1.461-44.296-3.33c-34.938-5.183-52.571-14.938-52.431-18.568c0.118-3.279,0.347-14.17,0.761-18.852
			c5.552-64.031,2.68-113.834,10.152-151.248c0.089-0.45,0.178-0.901,0.272-1.344c9.887-47.564,25.386-74.892,33.078-86.101
			c2.815-4.09,4.579-6.025,4.667-6.025c0,8.875,18.903,16.54,34.313,15.535c12.979-0.848,21.404-10.72,21.404-16.067l0.016-0.015
			c1.063,0,58.553,39.96,58.604,77.095C543.292,639.847,553.378,665.372,550.188,665.313"/>
		<path clip-path="url(#SVGID_14_)" fill="#818FB2" d="M432.337,678.479c-0.03,0.185-0.052,0.37-0.082,0.546
			c-34.938-5.184-52.571-14.936-52.43-18.568c0.117-3.279,0.346-14.17,0.76-18.852c5.551-64.031,2.68-113.835,10.152-151.248
			C409.078,514.871,446.779,579.073,432.337,678.479"/>
		<path clip-path="url(#SVGID_14_)" fill="#E5F2FD" d="M528.045,598.885l-4.696,15.624l-4.667,15.506L316,569.048
			c-0.288,0.015-0.569-0.016-0.835-0.096c-0.281-0.082-0.539-0.215-0.783-0.385c-2.554-1.81-3.019-8.432-1.055-15.896
			c0.103-0.414,0.221-0.828,0.347-1.248c2.371-8.026,6.683-13.963,9.99-14.013c0.273-0.008,0.532,0.028,0.79,0.102
			c0.266,0.081,0.509,0.2,0.746,0.362L528.045,598.885z"/>
		<path clip-path="url(#SVGID_14_)" fill="#B5D4F5" d="M523.349,614.509l-4.666,15.506L316,569.048
			c-0.288,0.016-0.569-0.016-0.834-0.098c-0.281-0.08-0.539-0.213-0.783-0.383c-2.555-1.809-3.021-8.433-1.055-15.896
			c8.283,6.217,47.853,33.722,115.392,47.1C498.531,613.601,520.137,614.465,523.349,614.509"/>
		<path clip-path="url(#SVGID_14_)" fill="#A2CDFC" d="M528.434,598.795c-3.389-1.002-8.216,5.228-10.781,13.909
			c-2.563,8.684-1.896,16.533,1.493,17.535c3.39,1,8.218-5.227,10.782-13.91C532.491,607.646,531.823,599.796,528.434,598.795"/>
		<path clip-path="url(#SVGID_14_)" fill="#E5F2FD" d="M326.669,532.148l-23.894-3.876c-0.259-0.125-0.511-0.215-0.79-0.259
			c-0.267-0.036-0.524-0.044-0.791,0c-3.277,0.487-6.771,6.933-8.069,15.203c-0.074,0.436-0.133,0.857-0.185,1.285
			c-0.467,3.663-0.399,7.051,0.088,9.761c0.531,2.903,1.559,5.014,2.961,5.805c0.029,0.021,0.06,0.035,0.082,0.051
			c0.265,0.141,0.539,0.236,0.826,0.28c0.272,0.044,0.554,0.036,0.842-0.015l208.922,33.898l2.591-15.979l2.606-16.104
			L326.669,532.148z"/>
		<path clip-path="url(#SVGID_14_)" fill="#B5D4F5" d="M413.509,576.081c-44.687-2.871-68.373-26.5-86.84-43.933l-23.895-3.876
			c-0.259-0.125-0.51-0.214-0.789-0.258c-0.266-0.036-0.524-0.044-0.791,0c-3.277,0.487-6.771,6.932-8.069,15.203
			c-0.074,0.435-0.133,0.856-0.186,1.284c-0.466,3.663-0.398,7.052,0.089,9.762c1.122,3.175,2.274,5.331,2.962,5.804
			c0.028,0.021,0.059,0.035,0.08,0.051c0.267,0.141,0.539,0.236,0.827,0.279c0.273,0.045,0.555,0.037,0.841-0.014l208.923,33.898
			l2.592-15.979C506.063,578.681,484.532,580.651,413.509,576.081"/>
		<path clip-path="url(#SVGID_14_)" fill="#A2CDFC" d="M512.236,562.057c-3.492-0.549-7.46,6.258-8.866,15.201
			c-1.404,8.944,0.285,16.641,3.777,17.188c3.491,0.549,7.461-6.256,8.867-15.201C517.418,570.301,515.729,562.605,512.236,562.057"
			/>
		<path clip-path="url(#SVGID_14_)" fill="#EE9358" d="M437.912,623.536c-48.46-7.708-80.49-28.014-93.641-37.834
			c-4.49-3.354-6.778-5.486-6.778-5.486c-24.831-52.202,20.091-143.73,28.302-159.244c8.86-16.732,62.961-24.085,62.961-24.085
			s-8.639,25.414-12.014,58.545c-3.374,33.131-39.377,97.708-37.9,103.127c0.369,1.368,4.718,4.232,11.061,7.85
			c18.807,10.706,55.148,27.97,57.356,32.023C450.213,603.845,437.912,623.536,437.912,623.536"/>
		<path clip-path="url(#SVGID_14_)" fill="#EE9358" d="M447.262,598.43c0,0,27.073-10.83,33.72-6.399
			c6.644,4.43,17.72,11.076,17.72,15.506s-14.029,16.244-25.843,19.937c-11.814,3.69-34.949-3.938-34.949-3.938L447.262,598.43z"/>
		<path clip-path="url(#SVGID_14_)" fill="#3CE374" d="M416.742,455.432c-3.374,33.132-39.377,97.709-37.9,103.128
			c0.369,1.366,4.718,4.23,11.062,7.85c-0.399,0.029-0.805,0.037-1.218,0.022c-28.325-1.249-41.144,14.42-44.414,19.271
			c-4.489-3.353-6.778-5.486-6.778-5.486c-24.831-52.202,20.091-143.73,28.302-159.244c8.86-16.731,62.96-24.085,62.96-24.085
			S420.116,422.301,416.742,455.432"/>
		<path clip-path="url(#SVGID_14_)" fill="#EE9358" d="M487.031,375.022c0,0-52.078,10.521-58.13-22.012
			c-6.052-32.532-16.85-53.084,16.144-61.176c32.995-8.092,41.783,3.116,46.444,13.483S500.422,371.446,487.031,375.022"/>
		<path clip-path="url(#SVGID_14_)" fill="#0C3563" d="M429.941,362.39c0,0-10.068-21.486-18.465-31.028
			c-8.396-9.541-3.815-57.248,32.441-55.722c36.257,1.527,49.234,27.478,49.615,32.441c0.381,4.961-29.005,1.145-37.021,7.633
			c-8.014,6.488-0.381,17.175-9.54,20.99c-9.161,3.818-16.412,3.818-14.886,12.214C433.613,357.315,429.941,362.39,429.941,362.39"
			/>
		<path clip-path="url(#SVGID_14_)" fill="#FFA400" d="M441.131,253.487c-10.373,2.607-18.156,6.771-23.968,11.784
			c-0.575,0.495-1.138,1.005-1.676,1.523l-0.007,0.007c-21.502,20.504-12.922,53.14-12.922,53.14s2.861,8.244,4.831,11.445
			c1.969,3.199,30.52-0.493,31.996-6.646c1.477-6.152,7.138-12.552,7.138-12.552s30.095-2.068,32.119-2.216
			c6.798-0.492,26.202-7.243,26.202-7.243C504.623,300.824,493.702,240.286,441.131,253.487"/>
		<path clip-path="url(#SVGID_14_)" fill="#FC801C" d="M522.673,296.335c-3.611-0.882-9.766-1.864-19.91-2.236
			c0,0-8.518,7.055-25.451,12.432c-7.959-10.027-30.629-34.191-60.148-41.258c-0.088-0.023-0.17-0.045-0.258-0.067
			c-0.628,0.789-0.983,1.056-1.418,1.587l-0.008,0.008c-0.133,0.154-0.273,0.34-0.428,0.568
			c24.031,4.188,46.872,31.177,54.712,41.282c-6.727,1.653-14.467,2.96-23.241,3.538c0,0,52.599,0.98,76.639-11.677
			C524.993,299.547,524.684,296.826,522.673,296.335"/>
		<path clip-path="url(#SVGID_14_)" fill="#818FB2" d="M576.23,535.176c-0.975,5.524-3.95,11.334-12.449,13.15
			c0.333-0.768,0.627-1.499,0.887-2.177c0.871-2.267,1.328-4.025,1.226-5.066c-0.318-3.213-10.412-11.024-22.144-20.291
			c-0.968-5.257-3.33-20.858-0.009-33.241C547.804,472.414,577.338,528.9,576.23,535.176"/>
		<path clip-path="url(#SVGID_14_)" fill="#818FB2" d="M384.254,562.681c0,0-36.18-2.954-47.994,18.09c0,0,1.01,7.096,8.012,4.932
			c0,0,30.605-20.918,45.632-19.293C389.903,566.409,387.576,562.743,384.254,562.681"/>
		<path clip-path="url(#SVGID_14_)" fill="#818FB2" d="M563.782,548.326c0,0,18.771,0.786,42.397,11.077
			c0,0,5.246-5.153,3.154-8.106C607.242,548.343,573.975,537.725,563.782,548.326"/>
		<path clip-path="url(#SVGID_14_)" fill="#EE9358" d="M824.337,425.417c16.266-83.376,31.173-163.194,31.173-163.194
			s-46.303,7.014-66.238,23.628c-19.936,16.613-21.952,122.399-28.598,152.303c-1.307,5.87-2.481,15.35-3.492,26.899
			c-3.779,43.008,0.925,107.417,4.486,125.471c-0.236,1.736-1.711,10.26-9.56,26.611c0,0-4.061,12.551,22.521,31.381
			C791.569,660.515,806.668,516.045,824.337,425.417"/>
		<path clip-path="url(#SVGID_14_)" fill="#3CE374" d="M855.51,262.223c0,0-8.594,46-19.847,104.634
			c-3.566,18.607-7.406,38.476-11.326,58.56c-15.935,31.234-29.609,52.469-33.833,48.474c-8.616-8.137-23.746-9.141-33.323-8.838
			c1.012-11.548,2.187-21.028,3.493-26.898c0.524-2.364,1.02-5.199,1.5-8.425c5.573-37.627,8.733-128.58,27.098-143.879
			C809.207,269.238,855.51,262.223,855.51,262.223"/>
		<path clip-path="url(#SVGID_14_)" fill="#818FB2" d="M835.662,366.856c-3.565,18.607-7.405,38.477-11.325,58.561
			c-15.936,31.233-29.609,52.468-33.833,48.473c-8.616-8.137-23.745-9.14-33.322-8.838c1.011-11.548,2.185-21.028,3.492-26.898
			c0.524-2.363,1.02-5.198,1.5-8.425l47.773-115.327L835.662,366.856z"/>
		<path clip-path="url(#SVGID_14_)" fill="#EE9358" d="M921.633,261.048c0.353-16.099,0.087-35.32-2.089-51.558l-64.254,10.5
			c0,0,0,19.607,0.282,41.365c-0.038,0.005-0.063,0.008-0.063,0.008s-1.753,20.183,23.106,23.136
			C903.475,287.453,922.304,276.623,921.633,261.048"/>
		<path clip-path="url(#SVGID_14_)" fill="#E17E3F" d="M855.112,223.953c0,0,15.136,31.012,32.486,31.012
			c17.354,0,33.598-29.166,33.598-29.166L855.112,223.953z"/>
		<path clip-path="url(#SVGID_14_)" fill="#0C3563" d="M897.938,1112.827c0,0,2.337-18.213,7.753-29.043
			c5.414-10.83,39.871-3.938,39.871-3.938s6.892,5.906,8.369,33.473L897.938,1112.827z"/>
		<path clip-path="url(#SVGID_14_)" fill="#0C3563" d="M780.54,1112.581c8.096-4.941,3.489-41.809,3.489-41.809
			s-37.729-30.183-42.915-7.074c-5.188,23.107-35.841,33.483-53.29,36.313c-12.045,1.953-15.775,8.625-16.93,12.57H780.54z"/>
		<path clip-path="url(#SVGID_14_)" fill="#0C3563" d="M927.753,190.961c0,0,42.893-67.628-39.469-72.104
			c0,0-30.893,3.637-37.886-3.357c0,0-23.962,36.418-1.584,75.461C871.191,230.003,927.753,190.961,927.753,190.961"/>
		<path clip-path="url(#SVGID_14_)" fill="#EE9358" d="M857.198,226.251c6.243,4.912,24.549,9.791,29.842,10.361
			c0,0,27.146-6.053,32.079-9.029c7.643-4.633,7.15-14.009,7.542-27.045c0.47-15.43,2.025-27.548,0.302-36.443
			c-2.048-10.641-8.796-16.694-27.682-18.339c-34.675-3.011-49.121,5.673-49.726,17.299c-0.156,3.122-0.303,6.097-0.402,8.918
			C847.766,208.226,850.63,221.082,857.198,226.251"/>
		<path clip-path="url(#SVGID_14_)" fill="#8D9CC4" d="M858.686,838.624c-1.536,8.461-2.512,15.402-2.77,20.379
			c-3.507,68.41-57.585,224.826-67.258,228.473c-14.967,5.649-38.536-6.356-50.866-10.284c-5.11-1.632-8.558-6.786-7.421-12.014
			c26.781-123.115,36.624-300.399,40.204-405.358c1.81-52.867,10.884-89.385,10.884-89.385s131.896-35.192,132.678,9.324
			C914.831,619.149,870.447,773.64,858.686,838.624"/>
		<path clip-path="url(#SVGID_14_)" fill="#818FB2" d="M858.686,838.624l-88.11-178.805c1.81-52.867,10.884-89.385,10.884-89.385
			s131.896-35.192,132.678,9.324C914.831,619.149,870.447,773.64,858.686,838.624"/>
		<path clip-path="url(#SVGID_14_)" fill="#8D9CC4" d="M829.34,579.915l69.725,505.346c0,0,30.619,7.385,54.435,1.477
			c0,0,20.413-268.766,18.712-333.743c-1.7-64.976,14.65-173.865-3.731-185.874C950.097,555.112,829.34,579.915,829.34,579.915"/>
		<path clip-path="url(#SVGID_14_)" fill="#FFA400" d="M978.5,567.118c0.229,5.854-4.407,10.734-10.256,10.824l-109.877,1.676
			l-80.704,1.232c-3.779,0.067,8.166-30.168,8.41-227.313c0.06-43.992,68.167-91.329,69.422-91.329l0.015,0.014
			c0,6.336,9.983,18.032,25.363,19.036c18.252,1.195,40.647-7.886,40.647-18.401c0-0.118,2.119,2.179,5.531,7.141
			c9.11,13.276,27.467,45.645,39.184,101.998c9.253,44.501,5.694,104,12.354,180.768C979.076,558.31,978.36,563.235,978.5,567.118"
			/>
		<path clip-path="url(#SVGID_14_)" fill="#3CE374" d="M974.447,578.555c0,0-14.605,6.542-41.925,12.205
			c-20.313,4.217-47.647,7.953-81.229,8.16c-53.406,0.339-73.63-18.069-73.63-18.069c-3.78,0.066,8.166-30.17,8.41-227.314
			c0.06-43.992,68.166-91.329,69.421-91.329l0.015,0.015c0,0-1.749,58.582,15.971,75.809c0,0,24.854-19.198,57.099-73.837
			c9.111,13.275,25.938,51.449,37.657,107.801c2.379,11.467,3.913,23.923,4.991,37.413c3.108,38.883,2.414,86.36,7.361,143.355
			c0.488,5.546-0.229,10.472-0.088,14.354C978.729,572.973,980.303,578.466,974.447,578.555"/>
		<path clip-path="url(#SVGID_14_)" fill="#818FB2" d="M974.447,578.555c0,0-14.605,6.542-41.925,12.205
			c-8.595-13.104-19.428-36.763-20.926-74.043c-2.54-63.042,57.347-144.228,57.347-144.228l2.284,36.92
			c3.108,38.883,2.414,86.36,7.361,143.355c0.488,5.546-0.229,10.472-0.088,14.354C978.729,572.973,980.303,578.466,974.447,578.555
			"/>
		
			<rect x="853.026" y="383.724" transform="matrix(0.866 -0.5 0.5 0.866 -110.1045 518.2148)" clip-path="url(#SVGID_14_)" fill="#FAFBFF" width="117.869" height="161.687"/>
		<path clip-path="url(#SVGID_14_)" fill="#EE9358" d="M986.172,283.392c-12.5-9.451-41.865-16.156-56.316-19.006
			c-5.094-1.004-8.335-1.528-8.335-1.528c1.507,6.948,4.896,17.846,9.325,30.93c18.563,54.839,55.356,148.088,47.943,150.074
			c-6.034,1.617-13.749,3.042-22.24,4.282c-32.271,4.727-75.697,6.816-80.241,7.027c-0.356-0.334-15.824-14.752-21.847-14.752
			c-6.092,0-23.656,6.399-25.447,11.322c-1.792,4.922-2.509,13.782,2.509,15.752c5.018,1.968,25.806,6.891,31.183,7.383
			c0.735,0.068,1.622,0.067,2.586-0.023c38.615,11.351,71.853,16.925,97.467,19.557c35.738,3.671,56.641,1.632,56.641,1.632
			C1045.287,440.326,1003.081,296.173,986.172,283.392"/>
		<path clip-path="url(#SVGID_14_)" fill="#3CE374" d="M1019.399,496.042c0,0-20.904,2.039-56.641-1.632
			c1.972-9.709,3.802-28.671-6.21-46.267c8.491-1.24,16.207-2.664,22.24-4.282c7.413-1.985-29.381-95.235-47.943-150.074
			c-1.483-17.727-2.266-29.593-2.266-29.593l1.275,0.192c14.45,2.85,43.816,9.554,56.316,19.006
			C1003.081,296.173,1045.287,440.325,1019.399,496.042"/>
		<path clip-path="url(#SVGID_14_)" fill="#818FB2" d="M871.479,338.031c0,0,49.717-21.905,50.455-23.628
			c0.739-1.723-2.461-15.014-5.907-18.951c0,0,23.874,2.215,25.352-0.738c1.477-2.954,2.583-27.254,2.583-27.254
			s-9.937-10.287-22.242-11.273c0,0-10.805,26.849-14.798,34.834C896.337,312.188,871.479,338.031,871.479,338.031"/>
		<path clip-path="url(#SVGID_14_)" fill="#818FB2" d="M859.665,294.714c0,0,3.199,25.596,11.813,43.317
			c0,0-25.967-18.09-28.182-23.997c-2.215-5.906,6.277-17.351,6.277-17.351s-15.507-0.369-15.875-5.538
			c-0.37-5.169,4.799-25.474,4.799-25.474s13.336-9.737,17.029-9.368L859.665,294.714z"/>
		<path clip-path="url(#SVGID_14_)" fill="#FFA400" d="M943.83,153.286l-110.41,1.181c0,0-1.62-33.293,17.515-54.522
			c0.874-0.982,1.799-1.931,2.777-2.857c4.129-3.922,9.101-7.308,15.081-9.801c22.067-9.207,40.374-0.71,51.811,7.993
			c1.128,0.851,2.188,1.708,3.173,2.561c6.22,5.283,9.691,9.998,9.691,9.998S944.188,122.463,943.83,153.286"/>
		<path clip-path="url(#SVGID_14_)" fill="#FC801C" d="M912.816,153.618c-0.303-4.484-2.252-42.665,11.159-55.608
			c-0.985-0.851-0.702-0.679-1.829-1.529c-14.3,14.884-15.438,52.46-15.377,57.202l-35.296,0.377
			c-1.047-27.042-15.971-53.967-17.763-56.972c-0.978,0.926-1.162,1.106-2.035,2.089c2.59,4.557,12.334,30.627,13.266,54.953
			l-31.522,0.337c0,0,29.408,7.601,51.557,7.327c22.148-0.276,58.854-8.508,58.854-8.508L912.816,153.618z"/>
	</g>
</g>
</svg>
