<svg xmlns="http://www.w3.org/2000/svg" width="15.981" height="18.805" viewBox="0 0 15.981 18.805">
  <g id="Group_13186" data-name="Group 13186" transform="translate(0)">
    <path id="flag" d="M19.514,8.268l2.664-3.552a1.045,1.045,0,0,0-.836-1.672H8.806a1.045,1.045,0,1,0-2.089,0V20.8H8.806V13.492H21.342a1.045,1.045,0,0,0,.836-1.672ZM17.373,8.9l1.88,2.507H8.806V5.134H19.253l-1.88,2.507A1.044,1.044,0,0,0,17.373,8.9Z" transform="translate(-6.406 -2)" fill="#ec5469"/>
    <path id="Path_13376" data-name="Path 13376" d="M6410.764,17107.6v8.4h12.413l-2.326-4.432,3.19-3.965Z" transform="translate(-6409.163 -17105.555)" fill="#ec5469"/>
  </g>
</svg>
