<svg xmlns="http://www.w3.org/2000/svg" width="19.68" height="19.73" viewBox="0 0 19.68 19.73">
  <path id="Floor_Area" data-name="Floor Area" d="M19.1,9.594a.755.755,0,0,1-1.067,0l-.6-.6v2.937a.755.755,0,0,1-.755.755H15.627a.755.755,0,1,1,0-1.51h.3v-3.7L10.188,1.692a.754.754,0,0,0-.979,0L3.4,7.49c0,.007,0,.014,0,.022v3.661h.34a.755.755,0,1,1,0,1.51H2.643a.755.755,0,0,1-.755-.755V9l-.6.6A.755.755,0,0,1,.223,8.525L8.16.6,8.191.574A2.263,2.263,0,0,1,11.21.58l.031.03,7.865,7.917A.755.755,0,0,1,19.1,9.594Zm-2.419,4.6a.755.755,0,0,0-.755.755v2.868h-.3a.755.755,0,1,0,0,1.51h1.057a.755.755,0,0,0,.755-.755V14.947A.755.755,0,0,0,16.684,14.192ZM3.738,17.815H3.4V14.947a.755.755,0,1,0-1.51,0V18.57a.755.755,0,0,0,.755.755H3.738a.755.755,0,0,0,0-1.51Zm5.926,0a.755.755,0,1,0,.755.755A.755.755,0,0,0,9.663,17.815Zm2.944,0a.755.755,0,1,0,.755.755A.755.755,0,0,0,12.607,17.815Zm-5.888,0a.755.755,0,1,0,.755.755A.755.755,0,0,0,6.719,17.815Zm2.944-6.643a.755.755,0,1,0,.755.755A.755.755,0,0,0,9.663,11.173Zm2.944,0a.755.755,0,1,0,.755.755A.755.755,0,0,0,12.607,11.173Zm-5.888,0a.755.755,0,1,0,.755.755A.755.755,0,0,0,6.719,11.173Zm0,0" transform="translate(0.204 0.254)" fill="#333" stroke="#fff" stroke-width="0.3"/>
</svg>
