<svg xmlns="http://www.w3.org/2000/svg" width="16.864" height="16.863" viewBox="0 0 16.864 16.863">
  <g id="gift-box" transform="translate(0 -0.015)">
    <path id="Path_10487" data-name="Path 10487" d="M16.37,3.241h-3.9A2.069,2.069,0,0,0,9.389.528a3.511,3.511,0,0,0-.828,1.825,7.028,7.028,0,0,0-.125.876v.012H8.42V3.229a7.028,7.028,0,0,0-.125-.876A3.511,3.511,0,0,0,7.467.528a2.07,2.07,0,0,0-3.08,2.713H.494A.494.494,0,0,0,0,3.735V6.371a.494.494,0,0,0,.494.494H.823V15.4a1.484,1.484,0,0,0,1.482,1.482H14.558A1.484,1.484,0,0,0,16.04,15.4V6.865h.329a.494.494,0,0,0,.494-.494V3.735a.494.494,0,0,0-.494-.494ZM15.052,15.4a.5.5,0,0,1-.494.494H2.306a.5.5,0,0,1-.494-.494V6.865H15.052ZM9.559,2.412a2.411,2.411,0,0,1,.482-1.142A1.081,1.081,0,1,1,11.467,2.9a2.411,2.411,0,0,1-1.195.33c-.07.007-.846.016-.846.016A6.226,6.226,0,0,1,9.559,2.412Zm-2.976.813A2.411,2.411,0,0,1,5.389,2.9,1.081,1.081,0,0,1,6.815,1.271,2.411,2.411,0,0,1,7.3,2.412a6.233,6.233,0,0,1,.132.829s-.776-.009-.846-.016Zm-5.6,1H15.875V5.877H.988Z" transform="translate(0 0)" fill="#1e428a"/>
  </g>
</svg>
