<svg xmlns="http://www.w3.org/2000/svg" width="12.07" height="7.002" viewBox="0 0 12.07 7.002">
  <path id="Union_422" data-name="Union 422" d="M21623.6,14634.8a1.235,1.235,0,1,1,1.236,1.205A1.218,1.218,0,0,1,21623.6,14634.8Zm-4.8,0a1.233,1.233,0,1,1,1.232,1.205A1.214,1.214,0,0,1,21618.8,14634.8Zm-4.8,0a1.235,1.235,0,1,1,1.232,1.205A1.217,1.217,0,0,1,21614,14634.8Zm9.6-4.6a1.235,1.235,0,1,1,1.236,1.2A1.219,1.219,0,0,1,21623.6,14630.2Zm-4.8,0a1.233,1.233,0,1,1,1.232,1.2A1.215,1.215,0,0,1,21618.8,14630.2Zm-4.8,0a1.235,1.235,0,1,1,1.232,1.2A1.218,1.218,0,0,1,21614,14630.2Z" transform="translate(-21614 -14629.001)" fill="#898989"/>
</svg>
