<svg xmlns="http://www.w3.org/2000/svg" xmlns:xlink="http://www.w3.org/1999/xlink" width="59" height="59" viewBox="0 0 59 59">
  <defs>
    <clipPath id="clip-iPhone_13_12_Pro_Max_1">
      <rect width="59" height="59"/>
    </clipPath>
  </defs>
  <g id="iPhone_13_12_Pro_Max_1" data-name="iPhone 13, 12 Pro Max – 1" clip-path="url(#clip-iPhone_13_12_Pro_Max_1)">
    <g id="Group_9651" data-name="Group 9651" transform="translate(-1123 -317)">
      <circle id="WhatsApp_Image_2021-03-30_at_11.13.28_PM_1_" data-name="WhatsApp Image 2021-03-30 at 11.13.28 PM (1)" cx="29.5" cy="29.5" r="29.5" transform="translate(1123 317)" fill="#05d94e"/>
      <path id="Union_417" data-name="Union 417" d="M-3116.84,12790.7l-4.49-4.5a1.6,1.6,0,0,1,0-2.254,1.588,1.588,0,0,1,1.121-.465,1.584,1.584,0,0,1,1.121.466l3.368,3.376,14.58-14.637a1.581,1.581,0,0,1,1.121-.467,1.585,1.585,0,0,1,1.122.466,1.6,1.6,0,0,1,0,2.255l-15.643,15.7c-.019.021-.038.041-.058.061a1.579,1.579,0,0,1-1.123.467,1.564,1.564,0,0,1-1.12-.468Z" transform="translate(4263.112 -12434.684)" fill="#fff"/>
    </g>
  </g>
</svg>
