<svg id="question" xmlns="http://www.w3.org/2000/svg" width="23.075" height="23.075" viewBox="0 0 23.075 23.075">
  <path id="Path_7570" data-name="Path 7570" d="M19.7,3.379A11.539,11.539,0,0,0,1.545,17.308L0,23.075,5.767,21.53A11.538,11.538,0,0,0,19.7,3.379ZM11.538,21.723a10.163,10.163,0,0,1-5.317-1.5l-.248-.152L1.912,21.163,3,17.1l-.152-.248a10.186,10.186,0,1,1,8.689,4.869Z" fill="#1e428a"/>
  <rect id="Rectangle_2138" data-name="Rectangle 2138" width="1.352" height="1.352" transform="translate(10.862 15.932)" fill="#1e428a"/>
  <path id="Path_7571" data-name="Path 7571" d="M184.38,128.5a3.384,3.384,0,0,0-3.38,3.38h1.352a2.028,2.028,0,1,1,3.539,1.352l-2.187,2.446v1.61h1.352v-1.094l1.843-2.061a3.38,3.38,0,0,0-2.519-5.634Z" transform="translate(-172.843 -122.709)" fill="#1e428a"/>
</svg>
