<svg xmlns="http://www.w3.org/2000/svg" width="34.111" height="34.264" viewBox="0 0 34.111 34.264">
  <g id="Phone_icon" transform="translate(-0.296 -27.356)">
    <g id="Group_3543" data-name="Group 3543" transform="translate(0.344 27.406)">
      <path id="Path_272" data-name="Path 272" d="M28.976,47.771a3.567,3.567,0,0,0-2.587-1.186,3.688,3.688,0,0,0-2.617,1.179l-2.418,2.411c-.2-.107-.4-.207-.589-.306-.276-.138-.536-.268-.758-.406a26.285,26.285,0,0,1-6.3-5.74,15.507,15.507,0,0,1-2.066-3.26c.628-.574,1.209-1.171,1.776-1.745.214-.214.429-.436.643-.651a3.511,3.511,0,0,0,0-5.3l-2.089-2.089c-.237-.237-.482-.482-.712-.727-.459-.475-.941-.964-1.439-1.424a3.623,3.623,0,0,0-2.564-1.125,3.749,3.749,0,0,0-2.6,1.125l-.015.015-2.6,2.625A5.6,5.6,0,0,0,.376,34.73a13.416,13.416,0,0,0,.98,5.679A32.953,32.953,0,0,0,7.21,50.174,36.016,36.016,0,0,0,19.2,59.565a18.685,18.685,0,0,0,6.735,1.99c.161.008.329.015.482.015a5.767,5.767,0,0,0,4.416-1.9c.008-.015.023-.023.031-.038a17.4,17.4,0,0,1,1.339-1.385c.329-.314.666-.643.995-.987a3.818,3.818,0,0,0,1.156-2.648,3.678,3.678,0,0,0-1.179-2.625Zm2.74,8.059c-.008,0-.008.008,0,0-.3.321-.6.612-.934.934a20.12,20.12,0,0,0-1.477,1.531,3.689,3.689,0,0,1-2.878,1.217c-.115,0-.237,0-.352-.008a16.6,16.6,0,0,1-5.97-1.791,34,34,0,0,1-11.3-8.847A31.071,31.071,0,0,1,3.3,39.689,10.927,10.927,0,0,1,2.442,34.9,3.513,3.513,0,0,1,3.5,32.626l2.61-2.61a1.74,1.74,0,0,1,1.163-.543,1.637,1.637,0,0,1,1.117.536l.023.023c.467.436.911.888,1.378,1.37.237.245.482.49.727.742l2.089,2.089a1.461,1.461,0,0,1,0,2.373c-.222.222-.436.444-.658.658-.643.658-1.255,1.27-1.921,1.867-.015.015-.031.023-.038.038a1.561,1.561,0,0,0-.4,1.737l.023.069a16.774,16.774,0,0,0,2.472,4.033l.008.008a28.09,28.09,0,0,0,6.8,6.184,10.448,10.448,0,0,0,.941.513c.276.138.536.268.758.406.031.015.061.038.092.054a1.659,1.659,0,0,0,.758.191,1.636,1.636,0,0,0,1.163-.528l2.617-2.617a1.731,1.731,0,0,1,1.156-.574,1.559,1.559,0,0,1,1.1.559l.015.015,4.217,4.217A1.513,1.513,0,0,1,31.716,55.83Z" transform="translate(-0.344 -27.406)" fill="#05d94e" stroke="#fff" stroke-width="0.1"/>
    </g>
  </g>
</svg>
