<svg xmlns="http://www.w3.org/2000/svg" width="25.16" height="25.163" viewBox="0 0 25.16 25.163">
  <path id="High_End_Finishes" data-name="High End Finishes" d="M.539,25.163A.543.543,0,0,1,0,24.627V.534A.54.54,0,0,1,.539,0H24.627a.538.538,0,0,1,.533.534V24.627a.54.54,0,0,1-.533.536ZM20.75,22.41a1.673,1.673,0,0,0,1.668,1.677h1.676V22.41a1.672,1.672,0,0,0-3.344,0Zm-7.631,1.677h7.123a2.746,2.746,0,0,1,2.176-4.422,2.771,2.771,0,0,1,1.676.571V13.117H13.119ZM5.49,22.41a2.729,2.729,0,0,1-.57,1.677h7.127V13.117H1.074v7.119A2.741,2.741,0,0,1,5.49,22.41Zm-4.416,0v1.677H2.75A1.669,1.669,0,1,0,1.074,22.41ZM13.119,12.044H24.094V4.918a2.743,2.743,0,0,1-3.852-3.845H13.119Zm-12.045,0H12.047V1.073H4.92A2.741,2.741,0,0,1,2.75,5.488a2.764,2.764,0,0,1-1.676-.57ZM20.75,2.75a1.672,1.672,0,0,0,3.344,0V1.073H22.418A1.672,1.672,0,0,0,20.75,2.75Zm-19.676,0A1.669,1.669,0,1,0,2.75,1.073H1.074Z" fill="#333"/>
</svg>
