<svg xmlns="http://www.w3.org/2000/svg" width="20.375" height="18.429" viewBox="0 0 20.375 18.429">
  <path id="shelter" d="M20.09,21.9l-9.325-7.294a.96.96,0,0,0-1.156,0L.285,21.9a.622.622,0,0,0-.255.71.623.623,0,0,0,.639.4H2.525V32a.845.845,0,0,0,.844.844H7.735A.845.845,0,0,0,8.579,32V27.979H11.8V32a.845.845,0,0,0,.844.844h4.367A.845.845,0,0,0,17.85,32V23.016h1.856A.6.6,0,0,0,20.09,21.9Zm-2.408.1a.845.845,0,0,0-.844.844v8.985H12.808V27.811a.845.845,0,0,0-.844-.844H8.41a.845.845,0,0,0-.844.844v4.021H3.537V22.847A.845.845,0,0,0,2.694,22H1.8l8.388-6.561L18.575,22Z" transform="translate(0 -14.415)" fill="#1e428a"/>
</svg>
