<svg xmlns="http://www.w3.org/2000/svg" width="14.459" height="13.552" viewBox="0 0 14.459 13.552">
  <path id="In_Delay" data-name="In Delay" d="M-10742.74,16165.552a2.263,2.263,0,0,1-2.26-2.26,2.285,2.285,0,0,1,.288-1.1l4.97-9.031v-.008a2.262,2.262,0,0,1,3.939,0s0,0,0,.008l4.97,9.031a2.285,2.285,0,0,1,.288,1.1,2.264,2.264,0,0,1-2.26,2.26Zm3.983-11.851-4.966,9.035a0,0,0,0,0,0,0,1.145,1.145,0,0,0-.142.552,1.129,1.129,0,0,0,1.128,1.132h9.939a1.131,1.131,0,0,0,1.128-1.132,1.136,1.136,0,0,0-.143-.552,0,0,0,0,1,0,0l-4.97-9.035a1.117,1.117,0,0,0-.982-.572A1.125,1.125,0,0,0-10738.757,16153.7Zm.422,8.463a.563.563,0,0,1,.564-.563.562.562,0,0,1,.563.563.563.563,0,0,1-.563.564A.563.563,0,0,1-10738.335,16162.164Zm0-2.26v-3.388a.563.563,0,0,1,.564-.563.562.562,0,0,1,.563.563v3.388a.563.563,0,0,1-.563.564A.563.563,0,0,1-10738.335,16159.9Z" transform="translate(10745 -16152)" fill="#ec5469"/>
</svg>
