<svg id="insta" xmlns="http://www.w3.org/2000/svg" xmlns:xlink="http://www.w3.org/1999/xlink" width="19.154" height="19.154" viewBox="0 0 19.154 19.154">
  <defs>
    <linearGradient id="linear-gradient" x1="0.5" y1="0.008" x2="0.5" y2="0.998" gradientUnits="objectBoundingBox">
      <stop offset="0" stop-color="#e09b3d"/>
      <stop offset="0.3" stop-color="#c74c4d"/>
      <stop offset="0.6" stop-color="#c21975"/>
      <stop offset="1" stop-color="#7024c4"/>
    </linearGradient>
    <linearGradient id="linear-gradient-2" y1="-0.451" y2="1.462" xlink:href="#linear-gradient"/>
    <linearGradient id="linear-gradient-3" y1="-1.396" y2="6.586" xlink:href="#linear-gradient"/>
  </defs>
  <path id="Path_7496" data-name="Path 7496" d="M13.448,0H5.706A5.712,5.712,0,0,0,0,5.706v7.742a5.712,5.712,0,0,0,5.706,5.706h7.742a5.712,5.712,0,0,0,5.706-5.706V5.706A5.712,5.712,0,0,0,13.448,0Zm3.779,13.448a3.779,3.779,0,0,1-3.779,3.779H5.706a3.779,3.779,0,0,1-3.779-3.779V5.706A3.779,3.779,0,0,1,5.706,1.927h7.742a3.779,3.779,0,0,1,3.779,3.779v7.742Z" fill="url(#linear-gradient)"/>
  <path id="Path_7497" data-name="Path 7497" d="M137.954,133a4.954,4.954,0,1,0,4.954,4.954A4.959,4.959,0,0,0,137.954,133Zm0,7.981a3.027,3.027,0,1,1,3.027-3.027A3.027,3.027,0,0,1,137.954,140.981Z" transform="translate(-128.377 -128.377)" fill="url(#linear-gradient-2)"/>
  <circle id="Ellipse_41" data-name="Ellipse 41" cx="1.187" cy="1.187" r="1.187" transform="translate(13.353 3.473)" fill="url(#linear-gradient-3)"/>
</svg>
