<svg xmlns="http://www.w3.org/2000/svg" width="34.218" height="24.051" viewBox="0 0 34.218 24.051">
  <g id="Interior_Design" data-name="Interior Design" transform="translate(0.099 0.1)">
    <path id="Path_7531" data-name="Path 7531" d="M1186.005-481.63a2.994,2.994,0,0,1,2.048-.451c.875.013,1.751.019,2.626,0a2.507,2.507,0,0,1,2.2.96c.069-.062.132-.11.184-.168a2.3,2.3,0,0,1,1.751-.784c1.211-.009,2.424-.037,3.632.015a7.4,7.4,0,0,1,1.463.365,2.072,2.072,0,0,0,.03-.208,3.827,3.827,0,0,1,3.773-3.574,4.874,4.874,0,0,1,1.074.048,1.936,1.936,0,0,1,1.521,2c.007,2.278,0,4.557,0,6.836,0,.791,0,1.583,0,2.374,0,.426-.133.555-.56.555q-12.842,0-25.683,0c-.444,0-.578-.131-.579-.581,0-3.058-.009-6.116,0-9.174a1.969,1.969,0,0,1,2.085-2.069,3.836,3.836,0,0,1,3.791,1.979A11.026,11.026,0,0,1,1186.005-481.63Zm19.483,7.117c0-.141,0-.257,0-.374,0-2.7-.032-5.4.012-8.092.022-1.356-.521-1.759-1.782-1.685a3.04,3.04,0,0,0-2.941,2.692,13.5,13.5,0,0,0-.027,1.509c0,.216,0,.432,0,.647a1.257,1.257,0,0,1-1.408,1.393q-6.455,0-12.91,0c-.06,0-.12,0-.18,0a1.219,1.219,0,0,1-1.194-1.235c-.011-.407.009-.816-.007-1.223a7.98,7.98,0,0,0-.1-1.464,3.039,3.039,0,0,0-3.249-2.316c-.955,0-1.381.428-1.381,1.385q0,4.208,0,8.416c0,.115.012.23.019.349Zm-13.044-4.751a1.568,1.568,0,0,0-1.677-1.983c-1.134.054-2.273.006-3.41.015a1.46,1.46,0,0,0-1.471,1.341c-.051.442.1.624.552.625,1.053,0,2.106,0,3.159,0Zm.915-.014c.113.005.208.013.3.013q2.913,0,5.827,0c.328,0,.43-.208.431-.5a1.457,1.457,0,0,0-1.461-1.466c-1.151-.011-2.3.037-3.452-.015A1.555,1.555,0,0,0,1193.359-479.278Z" transform="translate(-1179.482 497.515)" fill="#898989" stroke="#89898a" stroke-width="0.2"/>
    <path id="Path_7532" data-name="Path 7532" d="M1531.718-646.1v.447q0,8.254,0,16.508c0,.594-.094.688-.684.689-.407,0-.815,0-1.223,0-.505,0-.613-.108-.613-.609q0-5.628,0-11.257,0-2.661,0-5.323v-.435c-.144-.007-.269-.019-.395-.019-.767,0-1.534,0-2.3,0-.507,0-.671-.225-.519-.71.438-1.393.875-2.785,1.323-4.175a1.724,1.724,0,0,1,1.793-1.315q1.348-.015,2.7,0a1.732,1.732,0,0,1,1.812,1.337q.665,2.068,1.312,4.141c.159.507,0,.72-.539.722C1533.507-646.1,1532.635-646.1,1531.718-646.1Zm2.293-.857c-.433-1.352-.84-2.665-1.279-3.967a.853.853,0,0,0-.886-.553c-.731,0-1.463,0-2.194,0-1.274,0-1.337.044-1.72,1.253-.343,1.082-.682,2.165-1.029,3.271Zm-3.993.871v16.113c0,.762,0,.762.776.676.02,0,.037-.027.055-.04v-16.749Z" transform="translate(-1500.958 652.311)" fill="#898989" stroke="#89898a" stroke-width="0.2"/>
    <path id="Path_7533" data-name="Path 7533" d="M1245.125-541.886a16.631,16.631,0,0,1,8.821,2.606,1.953,1.953,0,0,1,.264.185c.175.158.231.378.064.536a.872.872,0,0,1-.5.132c-.078.006-.165-.086-.248-.135a15.8,15.8,0,0,0-17.116,0c-.052.03-.1.065-.152.1a.391.391,0,0,1-.592-.118.394.394,0,0,1,.158-.586c.406-.254.81-.515,1.232-.74A17.052,17.052,0,0,1,1245.125-541.886Z" transform="translate(-1231.549 549.844)" fill="#898989" stroke="#89898a" stroke-width="0.2"/>
  </g>
</svg>
