<svg xmlns="http://www.w3.org/2000/svg" width="239.991" height="201.535" viewBox="0 0 239.991 201.535">
  <g id="Invite_Consultant" data-name="Invite Consultant" transform="translate(-918.902 -649.731)">
    <g id="Group_6813" data-name="Group 6813" transform="translate(918.902 649.731)">
      <g id="Group_6812" data-name="Group 6812" transform="translate(0 0)">
        <path id="Path_9631" data-name="Path 9631" d="M1151.514,664.467c-15.214-18.492-41.777-26.317-62.49-13.253-19.494,12.295-28.215,36.37-45.836,50.921-18.474,15.256-38.811,16.056-61.177,13.333-19.279-2.347-41.222-1.978-48.84,20.48-8.261,24.353,3.929,53.013,18.683,71.787a99.424,99.424,0,0,0,57.191,35.762c44.56,9.676,97.067-6.505,128.814-40.884C1170.678,767.074,1184.682,704.779,1151.514,664.467Z" transform="translate(-930.497 -644.731)" fill="#f0f2f7"/>
      </g>
    </g>
    <g id="Group_6865" data-name="Group 6865" transform="translate(983.993 690.735)">
      <g id="Group_6816" data-name="Group 6816" transform="translate(1.346 0)">
        <g id="Group_6815" data-name="Group 6815">
          <g id="Group_6814" data-name="Group 6814">
            <path id="Path_9632" data-name="Path 9632" d="M1674.655,1212.895l-68.318,58.694,1.271,26.557c0,3.168,3.821,48.08,7.456,48.08l63.791-42.69,57.479,38.307c3.635,0,10.651-41.737,10.651-44.905l4.249-25.412-68.379-58.632A7.353,7.353,0,0,0,1674.655,1212.895Z" transform="translate(-1606.337 -1211.645)" fill="#182149"/>
          </g>
        </g>
      </g>
      <g id="Group_6818" data-name="Group 6818" transform="translate(13.202 22.27)">
        <g id="Group_6817" data-name="Group 6817">
          <rect id="Rectangle_2900" data-name="Rectangle 2900" width="120.862" height="122.913" rx="3" fill="#fff"/>
        </g>
      </g>
      <g id="Group_6851" data-name="Group 6851" transform="translate(22.298 31.357)">
        <g id="Group_6833" data-name="Group 6833" transform="translate(0 33.3)">
          <g id="Group_6822" data-name="Group 6822">
            <g id="Group_6821" data-name="Group 6821">
              <g id="Group_6820" data-name="Group 6820">
                <g id="Group_6819" data-name="Group 6819">
                  <path id="Path_9633" data-name="Path 9633" d="M1891.948,2037.646H1866.33a1.8,1.8,0,0,1-1.8-1.8v-25.618a1.8,1.8,0,0,1,1.8-1.8h25.618a1.8,1.8,0,0,1,1.8,1.8v25.618A1.8,1.8,0,0,1,1891.948,2037.646Zm-23.821-3.594h22.024v-22.024h-22.024Z" transform="translate(-1864.533 -2008.434)" fill="#d1d8e7"/>
                </g>
              </g>
            </g>
          </g>
          <g id="Group_6826" data-name="Group 6826" transform="translate(40.062 18.611)">
            <g id="Group_6825" data-name="Group 6825">
              <g id="Group_6824" data-name="Group 6824">
                <g id="Group_6823" data-name="Group 6823">
                  <path id="Path_9634" data-name="Path 9634" d="M2423.966,2241.371h-63.94a1.8,1.8,0,1,1,0-3.594h63.94a1.8,1.8,0,0,1,0,3.594Z" transform="translate(-2358.229 -2237.777)" fill="#c2c9d8"/>
                </g>
              </g>
            </g>
          </g>
          <g id="Group_6830" data-name="Group 6830" transform="translate(7.926 5.806)">
            <g id="Group_6829" data-name="Group 6829">
              <g id="Group_6828" data-name="Group 6828">
                <g id="Group_6827" data-name="Group 6827">
                  <path id="Path_9635" data-name="Path 9635" d="M1967.141,2097.581h-.044a1.8,1.8,0,0,1-1.555-.976l-3.134-6.109a1.8,1.8,0,0,1,3.2-1.64l1.626,3.17,6.42-11.145a1.8,1.8,0,1,1,3.114,1.794l-8.069,14.006A1.8,1.8,0,0,1,1967.141,2097.581Z" transform="translate(-1962.21 -2079.98)" fill="#05d94e"/>
                </g>
              </g>
            </g>
          </g>
          <g id="Group_6832" data-name="Group 6832" transform="translate(40.062 7.008)">
            <g id="Group_6831" data-name="Group 6831">
              <rect id="Rectangle_2901" data-name="Rectangle 2901" width="35.718" height="3.563" rx="1.782" fill="#d1d8e7"/>
            </g>
          </g>
        </g>
        <g id="Group_6850" data-name="Group 6850">
          <g id="Group_6837" data-name="Group 6837" opacity="0.2">
            <g id="Group_6836" data-name="Group 6836">
              <g id="Group_6835" data-name="Group 6835">
                <g id="Group_6834" data-name="Group 6834">
                  <path id="Path_9636" data-name="Path 9636" d="M1891.948,1627.278H1866.33a1.8,1.8,0,0,1-1.8-1.8v-25.618a1.8,1.8,0,0,1,1.8-1.8h25.618a1.8,1.8,0,0,1,1.8,1.8v25.618A1.8,1.8,0,0,1,1891.948,1627.278Zm-23.821-3.594h22.024V1601.66h-22.024Z" transform="translate(-1864.533 -1598.066)" fill="#1e428a"/>
                </g>
              </g>
            </g>
          </g>
          <g id="Group_6841" data-name="Group 6841" transform="translate(40.062 7.008)">
            <g id="Group_6840" data-name="Group 6840">
              <g id="Group_6839" data-name="Group 6839">
                <g id="Group_6838" data-name="Group 6838">
                  <path id="Path_9637" data-name="Path 9637" d="M2408.686,1688.016H2359.8a1.813,1.813,0,0,1,0-3.594h48.883a1.813,1.813,0,0,1,0,3.594Z" transform="translate(-2358.229 -1684.422)" fill="#d1d8e7"/>
                </g>
              </g>
            </g>
          </g>
          <g id="Group_6845" data-name="Group 6845" transform="translate(40.062 18.611)">
            <g id="Group_6844" data-name="Group 6844">
              <g id="Group_6843" data-name="Group 6843">
                <g id="Group_6842" data-name="Group 6842">
                  <path id="Path_9638" data-name="Path 9638" d="M2420.123,1831h-60.2a1.8,1.8,0,0,1,0-3.594h60.2a1.8,1.8,0,0,1,0,3.594Z" transform="translate(-2358.229 -1827.408)" fill="#c2c9d8"/>
                </g>
              </g>
            </g>
          </g>
          <g id="Group_6849" data-name="Group 6849" transform="translate(7.926 5.806)">
            <g id="Group_6848" data-name="Group 6848">
              <g id="Group_6847" data-name="Group 6847">
                <g id="Group_6846" data-name="Group 6846">
                  <path id="Path_9639" data-name="Path 9639" d="M1967.141,1687.212h-.044a1.8,1.8,0,0,1-1.555-.976l-3.134-6.109a1.8,1.8,0,0,1,3.2-1.641l1.626,3.17,6.42-11.145a1.8,1.8,0,1,1,3.114,1.794l-8.069,14.006A1.8,1.8,0,0,1,1967.141,1687.212Z" transform="translate(-1962.21 -1669.611)" fill="#05d94e"/>
                </g>
              </g>
            </g>
          </g>
        </g>
      </g>
      <g id="Group_6854" data-name="Group 6854" transform="translate(74.097 58.51)">
        <g id="Group_6853" data-name="Group 6853">
          <g id="Group_6852" data-name="Group 6852">
            <path id="Path_9640" data-name="Path 9640" d="M2504.028,1978.494l32.965-32.435c8.657-8.518,21.015-13.385,33.984-13.385h0c3.046,0,5.515,1.935,5.515,4.322v86.692c0,2.387-4.118,6.012-7.164,6.012H2550.6l-46.57-45.82A3.689,3.689,0,0,1,2504.028,1978.494Z" transform="translate(-2502.859 -1932.674)" fill="#1e396d"/>
          </g>
        </g>
      </g>
      <g id="Group_6857" data-name="Group 6857" transform="translate(0 58.451)">
        <g id="Group_6856" data-name="Group 6856">
          <g id="Group_6855" data-name="Group 6855">
            <path id="Path_9641" data-name="Path 9641" d="M1662.215,1977.764l-32.965-32.435c-8.657-8.518-21.015-13.385-33.984-13.385h0c-3.046,0-5.515,1.935-5.515,4.322v87.213c0,2.387,3.535,5.551,6.581,5.551l19.314-.059,46.57-45.82A3.688,3.688,0,0,0,1662.215,1977.764Z" transform="translate(-1589.751 -1931.944)" fill="#1e396d"/>
          </g>
        </g>
      </g>
      <g id="Group_6860" data-name="Group 6860" transform="translate(0 87.955)">
        <g id="Group_6859" data-name="Group 6859">
          <g id="Group_6858" data-name="Group 6858">
            <path id="Path_9642" data-name="Path 9642" d="M1737.481,2339.361v18.7c0,2.794-2.947,5.06-6.581,5.06H1596.333c-3.634,0-6.581-2.265-6.581-5.06v-18.7l69.764-42.723a7.857,7.857,0,0,1,3.868-1.1,7.954,7.954,0,0,1,4.333,1.1Z" transform="translate(-1589.752 -2295.536)" fill="#1e428a"/>
          </g>
        </g>
      </g>
      <g id="Group_6862" data-name="Group 6862" transform="translate(85.836 92.794)" opacity="0.34">
        <g id="Group_6861" data-name="Group 6861">
          <path id="Path_9643" data-name="Path 9643" d="M2648.617,2355.166l60.8,31.033v7.953l-61.894-37.911Z" transform="translate(-2647.523 -2355.166)" fill="#141835"/>
        </g>
      </g>
      <g id="Group_6864" data-name="Group 6864" transform="translate(0 92.794)" opacity="0.34">
        <g id="Group_6863" data-name="Group 6863">
          <path id="Path_9644" data-name="Path 9644" d="M1650.55,2355.166l-60.8,31.033v7.953l61.893-37.911Z" transform="translate(-1589.75 -2355.166)" fill="#141835"/>
        </g>
      </g>
    </g>
    <g id="Group_6894" data-name="Group 6894" transform="translate(951.045 680.069)">
      <g id="Group_6877" data-name="Group 6877" transform="translate(0 0)">
        <g id="Group_6868" data-name="Group 6868" transform="translate(31.991)">
          <g id="Group_6867" data-name="Group 6867">
            <g id="Group_6866" data-name="Group 6866">
              <path id="Path_9645" data-name="Path 9645" d="M1618.037,1080.208l-14.259,46.309-2.285,7.42-6.514-5.5-17.026-14.364Z" transform="translate(-1577.953 -1080.208)" fill="#05d94e"/>
            </g>
          </g>
        </g>
        <g id="Group_6873" data-name="Group 6873" transform="translate(0 0)">
          <g id="Group_6872" data-name="Group 6872">
            <g id="Group_6871" data-name="Group 6871">
              <g id="Group_6870" data-name="Group 6870">
                <g id="Group_6869" data-name="Group 6869">
                  <path id="Path_9646" data-name="Path 9646" d="M1255.8,1080.208l-49.539,28.611-22.534-7.468Z" transform="translate(-1183.724 -1080.208)" fill="#05d94e"/>
                </g>
              </g>
            </g>
          </g>
        </g>
        <g id="Group_6876" data-name="Group 6876" transform="translate(22.534 0)">
          <g id="Group_6875" data-name="Group 6875">
            <g id="Group_6874" data-name="Group 6874">
              <path id="Path_9647" data-name="Path 9647" d="M1510.953,1080.208l-40.082,33.869-7.7,15.4-1.754-20.66Z" transform="translate(-1461.414 -1080.208)" fill="#04b942"/>
            </g>
          </g>
        </g>
      </g>
      <g id="Group_6879" data-name="Group 6879" transform="translate(7.073 52.791)">
        <g id="Group_6878" data-name="Group 6878">
          <path id="Path_9648" data-name="Path 9648" d="M1350.851,1834.7a.812.812,0,0,1-.232-.034c-1.655-.493-3.315-1.057-4.935-1.678a.811.811,0,1,1,.581-1.515c1.581.606,3.2,1.157,4.817,1.638a.812.812,0,0,1-.231,1.589Zm-11.155-4.437a.809.809,0,0,1-.365-.087c-1.544-.778-3.079-1.626-4.562-2.519a.812.812,0,0,1,.837-1.39c1.449.872,2.947,1.7,4.455,2.46a.812.812,0,0,1-.366,1.536Zm-10.205-6.322a.808.808,0,0,1-.485-.162c-1.388-1.038-2.751-2.141-4.053-3.277a.809.809,0,0,1-.262-.454,23.891,23.891,0,0,1-2.321.687.811.811,0,1,1-.382-1.577,21.712,21.712,0,0,0,4.654-1.7.811.811,0,0,1,.73,1.449q-.567.286-1.156.541c1.211,1.049,2.476,2.068,3.762,3.029a.811.811,0,0,1-.487,1.461Zm-14.128-2.542h-.039a29.642,29.642,0,0,1-5.238-.734.811.811,0,1,1,.365-1.581,27.988,27.988,0,0,0,4.95.694.812.812,0,0,1-.038,1.622Zm-11.587-2.923a.808.808,0,0,1-.331-.071,45.508,45.508,0,0,1-4.649-2.423.811.811,0,1,1,.83-1.395,43.849,43.849,0,0,0,4.482,2.336.812.812,0,0,1-.332,1.552Zm16.778-2.549a.809.809,0,0,1-.6-.263,34,34,0,0,1-3.259-4.146.811.811,0,1,1,1.351-.9,32.42,32.42,0,0,0,3.1,3.948.812.812,0,0,1-.6,1.36Zm11.931-1.012a.812.812,0,0,1-.6-1.362,16.232,16.232,0,0,0,1.4-1.739,14.185,14.185,0,0,0,1.3-2.311.811.811,0,0,1,1.482.661,15.815,15.815,0,0,1-1.448,2.575,17.873,17.873,0,0,1-1.537,1.913A.809.809,0,0,1,1332.484,1814.913Zm-38.932-2.708a.809.809,0,0,1-.5-.173c-1.359-1.067-2.691-2.215-3.956-3.412a.811.811,0,0,1,1.115-1.179c1.23,1.163,2.523,2.278,3.843,3.314a.812.812,0,0,1-.5,1.45Zm20.81-6.477a.812.812,0,0,1-.775-.573,15.652,15.652,0,0,1-.736-4.593c0-.259.008-.519.023-.774a.811.811,0,0,1,1.62.1c-.013.222-.02.449-.02.675a14.026,14.026,0,0,0,.664,4.115.812.812,0,0,1-.776,1.051Zm22.361-1.758a.811.811,0,0,1-.812-.808,14.175,14.175,0,0,0-.824-4.778.811.811,0,1,1,1.526-.552,15.8,15.8,0,0,1,.921,5.324.811.811,0,0,1-.808.815Zm-51.765-.135a.81.81,0,0,1-.624-.293c-1.107-1.332-2.169-2.731-3.157-4.159a.811.811,0,0,1,1.335-.923c.96,1.389,1.993,2.75,3.07,4.045a.811.811,0,0,1-.624,1.33Zm31.254-9.433a.812.812,0,0,1-.6-1.356,11.014,11.014,0,0,1,4.625-2.981.811.811,0,0,1,.524,1.536,9.387,9.387,0,0,0-3.945,2.533A.81.81,0,0,1,1316.212,1794.4Zm-37.934-.534a.811.811,0,0,1-.718-.432c-.814-1.536-1.567-3.123-2.239-4.718a.811.811,0,1,1,1.5-.63c.653,1.551,1.385,3.094,2.177,4.587a.812.812,0,0,1-.716,1.192Zm53.648-.474a.809.809,0,0,1-.494-.168,10.923,10.923,0,0,0-4.33-1.963.811.811,0,0,1,.342-1.586,12.553,12.553,0,0,1,4.975,2.262.811.811,0,0,1-.495,1.455Zm-58.134-10.654a.812.812,0,0,1-.78-.59c-.477-1.676-.879-3.388-1.2-5.086a.811.811,0,1,1,1.6-.3c.307,1.649.7,3.311,1.161,4.939a.812.812,0,0,1-.781,1.034Zm-2.005-11.827a.811.811,0,0,1-.809-.764c-.064-1.095-.1-2.208-.1-3.31,0-.635.011-1.278.032-1.914a.811.811,0,1,1,1.622.054c-.021.617-.031,1.243-.031,1.859,0,1.07.031,2.152.093,3.215a.812.812,0,0,1-.763.858Zm.577-11.984a.812.812,0,0,1-.8-.935c.263-1.713.607-3.435,1.021-5.121a.811.811,0,1,1,1.576.387c-.4,1.639-.737,3.315-.993,4.98A.812.812,0,0,1,1272.364,1758.929Zm3.033-11.609a.812.812,0,0,1-.76-1.1c.61-1.628,1.3-3.244,2.049-4.8a.812.812,0,1,1,1.463.7c-.729,1.516-1.4,3.087-1.992,4.67A.812.812,0,0,1,1275.4,1747.32Zm5.362-10.732a.812.812,0,0,1-.682-1.249c.941-1.468,1.957-2.9,3.021-4.264a.812.812,0,0,1,1.278,1c-1.033,1.321-2.02,2.714-2.933,4.139A.811.811,0,0,1,1280.759,1736.587Z" transform="translate(-1270.882 -1730.763)" fill="#a2b1cf"/>
        </g>
      </g>
    </g>
  </g>
</svg>
