<svg id="Landscape_Design" data-name="Landscape Design" xmlns="http://www.w3.org/2000/svg" width="27.015" height="27.015" viewBox="0 0 27.015 27.015">
  <g id="Group_3716" data-name="Group 3716" transform="translate(0.817 14.062)">
    <g id="Group_3715" data-name="Group 3715">
      <path id="Path_7534" data-name="Path 7534" d="M27.432,266.685a.563.563,0,0,0-.8,0L15.477,277.844l.8.8,10.761-10.761,9.178,9.178.8-.8Z" transform="translate(-15.477 -266.52)" fill="#898989"/>
    </g>
  </g>
  <g id="Group_3718" data-name="Group 3718" transform="translate(17.049 14.056)">
    <g id="Group_3717" data-name="Group 3717">
      <path id="Path_7535" data-name="Path 7535" d="M326.192,266.566a.579.579,0,0,0-.8,0l-2.272,2.271.8.8,1.874-1.874,6.336,6.336.8-.8Z" transform="translate(-323.125 -266.407)" fill="#898989"/>
    </g>
  </g>
  <g id="Group_3728" data-name="Group 3728">
    <g id="Group_3727" data-name="Group 3727">
      <path id="Path_7536" data-name="Path 7536" d="M24.2,0H2.814A2.817,2.817,0,0,0,0,2.814V24.2a2.817,2.817,0,0,0,2.814,2.814H24.2A2.817,2.817,0,0,0,27.015,24.2V2.814A2.817,2.817,0,0,0,24.2,0Zm1.688,24.2A1.688,1.688,0,0,1,24.2,25.889H2.814A1.688,1.688,0,0,1,1.126,24.2V2.814A1.688,1.688,0,0,1,2.814,1.126H24.2a1.688,1.688,0,0,1,1.688,1.688V24.2Z" fill="#898989"/>
    </g>
  </g>
  <g id="Group_3730" data-name="Group 3730" transform="translate(12.945 7.316)">
    <g id="Group_3729" data-name="Group 3729">
      <path id="Path_7537" data-name="Path 7537" d="M248.148,138.667a2.814,2.814,0,1,0,2.814,2.814A2.814,2.814,0,0,0,248.148,138.667Zm0,4.5a1.688,1.688,0,1,1,1.688-1.688A1.688,1.688,0,0,1,248.148,143.169Z" transform="translate(-245.334 -138.667)" fill="#898989"/>
    </g>
  </g>
</svg>
