<svg id="linkedin" xmlns="http://www.w3.org/2000/svg" width="14.559" height="14.559" viewBox="0 0 14.559 14.559">
  <path id="Path_7517" data-name="Path 7517" d="M17.895,17.539h0V12.2c0-2.612-.562-4.624-3.616-4.624a3.17,3.17,0,0,0-2.855,1.569h-.042V7.818h-2.9v9.72H11.5V12.725c0-1.267.24-2.493,1.81-2.493,1.546,0,1.569,1.446,1.569,2.574v4.732Z" transform="translate(-3.339 -2.979)" fill="#0077b5"/>
  <path id="Path_7518" data-name="Path 7518" d="M.4,7.977H3.415V17.7H.4Z" transform="translate(-0.156 -3.138)" fill="#0077b5"/>
  <path id="Path_7519" data-name="Path 7519" d="M1.748,0A1.757,1.757,0,1,0,3.5,1.748,1.749,1.749,0,0,0,1.748,0Z" fill="#0077b5"/>
</svg>
