<svg xmlns="http://www.w3.org/2000/svg" width="24" height="21.003" viewBox="0 0 24 21.003">
  <path id="Union_413" data-name="Union 413" d="M8047.263,10659.5v-2.646H8044.5v2.646h2.763m18.237-.479v-1.687h-13.318v1.688H8065.5m-18.237-7.2v-2.646H8044.5v2.646h2.763m18.237-.479v-1.687h-13.318v1.688H8065.5m-18.237-7.2v-2.646H8044.5v2.646h2.763m18.237-.479v-1.686h-13.318v1.686H8065.5M8047.763,10661H8044a1,1,0,0,1-1-1v-3.647a1,1,0,0,1,1-1h3.762a1,1,0,0,1,1,1V10660A1,1,0,0,1,8047.763,10661Zm18.236-.479H8051.68a1,1,0,0,1-1-1v-2.687a1,1,0,0,1,1-1H8066a1,1,0,0,1,1,1v2.687A1,1,0,0,1,8066,10660.524Zm-18.236-7.2H8044a1,1,0,0,1-1-1v-3.646a1,1,0,0,1,1-1h3.762a1,1,0,0,1,1,1v3.646A1,1,0,0,1,8047.763,10653.324Zm18.236-.479H8051.68a1,1,0,0,1-1-1v-2.687a1,1,0,0,1,1-1H8066a1,1,0,0,1,1,1v2.687A1,1,0,0,1,8066,10652.846Zm-18.236-7.2H8044a1,1,0,0,1-1-1V10641a1,1,0,0,1,1-1h3.762a1,1,0,0,1,1,1v3.646A1,1,0,0,1,8047.763,10645.646Zm18.236-.479H8051.68a1,1,0,0,1-1-1v-2.687a1,1,0,0,1,1-1H8066a1,1,0,0,1,1,1v2.687A1,1,0,0,1,8066,10645.167Z" transform="translate(-8043 -10640)" fill="#254385"/>
</svg>
