<svg xmlns="http://www.w3.org/2000/svg" xmlns:xlink="http://www.w3.org/1999/xlink" width="130.534" height="113.114" viewBox="0 0 130.534 113.114">
  <defs>
    <linearGradient id="linear-gradient" x1="-0.045" y1="0.603" x2="0.446" y2="0.603" gradientUnits="objectBoundingBox">
      <stop offset="0" stop-color="#fff"/>
      <stop offset="1" stop-color="#d17918"/>
    </linearGradient>
    <linearGradient id="linear-gradient-2" x1="-0.291" y1="1.104" x2="0.2" y2="1.104" xlink:href="#linear-gradient"/>
    <linearGradient id="linear-gradient-3" x1="-0.537" y1="1.605" x2="-0.046" y2="1.605" xlink:href="#linear-gradient"/>
    <linearGradient id="linear-gradient-4" x1="-2.092" y1="-1.643" x2="-1.601" y2="-1.643" xlink:href="#linear-gradient"/>
    <linearGradient id="linear-gradient-5" x1="-2.338" y1="-1.142" x2="-1.847" y2="-1.142" xlink:href="#linear-gradient"/>
    <linearGradient id="linear-gradient-6" x1="-2.584" y1="-0.641" x2="-2.093" y2="-0.641" xlink:href="#linear-gradient"/>
    <linearGradient id="linear-gradient-7" x1="-2.83" y1="-0.14" x2="-2.339" y2="-0.14" xlink:href="#linear-gradient"/>
    <linearGradient id="linear-gradient-8" x1="-3.076" y1="0.361" x2="-2.585" y2="0.361" xlink:href="#linear-gradient"/>
    <linearGradient id="linear-gradient-9" x1="-0.771" y1="-1.979" x2="-0.28" y2="-1.979" xlink:href="#linear-gradient"/>
    <linearGradient id="linear-gradient-10" x1="-1.017" y1="-1.478" x2="-0.526" y2="-1.478" xlink:href="#linear-gradient"/>
    <linearGradient id="linear-gradient-11" x1="-1.263" y1="-0.977" x2="-0.772" y2="-0.977" xlink:href="#linear-gradient"/>
    <linearGradient id="linear-gradient-12" x1="-1.508" y1="-0.476" x2="-1.017" y2="-0.476" xlink:href="#linear-gradient"/>
    <linearGradient id="linear-gradient-13" x1="-1.754" y1="0.025" x2="-1.263" y2="0.025" xlink:href="#linear-gradient"/>
    <linearGradient id="linear-gradient-14" x1="2.94" y1="3.152" x2="3.696" y2="3.152" xlink:href="#linear-gradient"/>
    <linearGradient id="linear-gradient-15" x1="3.098" y1="1.953" x2="3.853" y2="1.953" xlink:href="#linear-gradient"/>
  </defs>
  <g id="Need_Loan" data-name="Need Loan" transform="translate(-1568.184 -121.537)">
    <g id="Group_7044" data-name="Group 7044" transform="translate(1647.32 145.087)">
      <path id="Path_7942" data-name="Path 7942" d="M2557.081,1023.3c2.217-1.167,5.6-.817,6.534-4.667s5.134-9.685,10.968-8.4-2.1,13.068-.583,17.385a14.669,14.669,0,0,1-2.451,13.885c-3.267,3.734-.466,7.117-2.684,11.9s-10.734,7.934-10.734,7.934l-8.984-.35c-2.566-3.034-3.034-17.619.934-19.6S2551.364,1026.686,2557.081,1023.3Z" transform="translate(-2547.16 -1010.053)" fill="#3ae074"/>
      <path id="Path_7943" data-name="Path 7943" d="M2644.343,1218.534h-.012a.3.3,0,0,1-.286-.31c.007-.174.835-17.536,12.195-32.6a.3.3,0,1,1,.476.359c-11.243,14.914-12.068,32.1-12.075,32.269A.3.3,0,0,1,2644.343,1218.534Z" transform="translate(-2636.055 -1171.034)" fill="#fff"/>
    </g>
    <g id="Group_7045" data-name="Group 7045" transform="translate(1669.886 167.534) rotate(25)">
      <path id="Path_7944" data-name="Path 7944" d="M27.823,0c7.076,4.223,3.2,14.267.114,17.119S27.6,23.168,26.226,28.19s-7.419,8.788-7.419,8.788H.2c-.685-4.337.343-7.419,3.31-10.158S3.856,17.234,6.938,11.3s9.13-4.451,13.124-6.163S25.084.228,27.823,0Z" transform="translate(0 0)" fill="#2ebc5f"/>
      <path id="Path_7945" data-name="Path 7945" d="M.438,21.761a.438.438,0,0,1-.422-.555C.186,20.6,4.249,6.278,11.8.1a.437.437,0,1,1,.554.677C5.018,6.78.9,21.3.859,21.441A.437.437,0,0,1,.438,21.761Z" transform="translate(11.522 11.66)" fill="#fff"/>
    </g>
    <g id="Group_7046" data-name="Group 7046" transform="matrix(0.848, -0.53, 0.53, 0.848, 1568.184, 155.972)">
      <path id="Path_7950" data-name="Path 7950" d="M5.695,0C-2.353,2.984-.283,14.007,2.333,17.513s-.8,6.26-.345,11.664S7.921,39.584,7.921,39.584L26.975,43.11C28.5,38.8,28.031,35.447,25.51,32.079s1.466-9.884-.565-16.547-8.508-6.29-12.275-8.8S8.457.753,5.695,0Z" transform="translate(0 0)" fill="#2ebc5f"/>
      <path id="Path_7951" data-name="Path 7951" d="M8.337,24.5a.447.447,0,0,0,.124.006.456.456,0,0,0,.413-.494C8.816,23.361,7.368,7.923.8.161a.456.456,0,1,0-.7.589C6.485,8.29,7.953,23.938,7.967,24.1A.456.456,0,0,0,8.337,24.5Z" transform="translate(7.271 12.736)" fill="#fff"/>
    </g>
    <g id="Group_7047" data-name="Group 7047" transform="translate(1568.184 184.496) rotate(-30)">
      <path id="Path_7952" data-name="Path 7952" d="M1.771.031c-4.267,4.181.179,10.6,2.836,12.082s1.272,4.2,3.092,7.509,6.724,4.929,6.724,4.929l13.108-3.169a7.486,7.486,0,0,0-4.063-6.593c-2.558-1.424-1.875-6.7-5.057-10.354s-7.192-1.581-10.3-2.106S3.74-.275,1.771.031Z" transform="translate(0 0)" fill="#3ae074"/>
      <path id="Path_7953" data-name="Path 7953" d="M12.153,13.359a.318.318,0,0,0,.2-.463C12.132,12.5,6.83,3.1.455.031A.317.317,0,1,0,.18.6c6.193,2.98,11.568,12.506,11.622,12.6A.317.317,0,0,0,12.153,13.359Z" transform="translate(6.491 7.518)" fill="#fff"/>
    </g>
    <g id="Group_7043" data-name="Group 7043" transform="translate(1572.858 121.537)">
      <g id="Group_7036" data-name="Group 7036" transform="translate(0)">
        <path id="Path_9652" data-name="Path 9652" d="M150.094,353.768c0,3.656-14.95,6.619-33.391,6.619s-33.392-2.964-33.392-6.619,14.95-6.62,33.392-6.62S150.094,350.112,150.094,353.768Z" transform="translate(-83.311 -262.211)" fill="#ccc" opacity="0.6" style="mix-blend-mode: multiply;isolation: isolate"/>
        <path id="Path_9653" data-name="Path 9653" d="M212.283,198.792s-5.833-29.553-27.778-42.614H168.822c-21.945,13.061-27.778,42.614-27.778,42.614C134.628,233.156,174.5,228.78,174.5,228.78h4.325S218.7,233.156,212.283,198.792Z" transform="translate(-123.024 -129.24)" fill="#e8c47b"/>
        <path id="Path_9654" data-name="Path 9654" d="M216.912,198.792s-5.833-29.553-27.778-42.614h-8.715c14.906,13.127,19.093,34.328,19.093,34.328,5.861,31.387-30.558,27.39-30.558,27.39H165s-9.5,1.04-18.01-2.12c7.327,15.722,32.137,13,32.137,13h4.325S223.328,233.156,216.912,198.792Z" transform="translate(-127.652 -129.24)" fill="#dab873"/>
        <path id="Path_9655" data-name="Path 9655" d="M178.669,75.206c-.813-1.07-2.1-3.373-.7-4.44,1.819-1.391,5.387.083,7.238.6a21.109,21.109,0,0,0,7.757,1c2.6-.27,5.553-1.714,7.856-2.65,2.334-.948,4.788-2.651,7.577-1.79,2.919.9,4.068,3.455,7.438,3.775,5.921.562,9.417-4.751,14.97-4.184,2.886.295,2.555,2.094.937,3.33l-21.47,23.566H194.586Z" transform="translate(-148.787 -67.479)" fill="#e8c47b"/>
        <g id="Group_7033" data-name="Group 7033" transform="translate(34.693 59.08)">
          <g id="Group_7032" data-name="Group 7032">
            <path id="Path_9656" data-name="Path 9656" d="M295.449,401.558c-7.215,0-13.064-2.249-13.064-5.024s5.849-5.024,13.064-5.024,13.065,2.249,13.065,5.024S302.664,401.558,295.449,401.558Z" transform="translate(-256.618 -352.18)" fill="#ccc" opacity="0.6" style="mix-blend-mode: multiply;isolation: isolate"/>
            <path id="Path_9657" data-name="Path 9657" d="M340.591,351.159c-7.215,0-13.064-2.25-13.064-5.025s5.849-5.024,13.064-5.024,13.064,2.25,13.064,5.024S347.807,351.159,340.591,351.159Z" transform="translate(-288.05 -317.087)" fill="#ccc" opacity="0.6" style="mix-blend-mode: multiply;isolation: isolate"/>
            <path id="Path_9658" data-name="Path 9658" d="M334.955,406.749c-7.211-.244-13.133,1.806-13.227,4.58s5.676,5.219,12.887,5.463,13.132-1.806,13.226-4.58S342.166,406.993,334.955,406.749Z" transform="translate(-284.012 -362.777)" fill="#ccc" opacity="0.6" style="mix-blend-mode: multiply;isolation: isolate"/>
            <path id="Path_9659" data-name="Path 9659" d="M214.1,379.39c7.211-.244,13.133,1.807,13.226,4.58s-5.676,5.219-12.887,5.463-13.132-1.806-13.226-4.58S206.891,379.634,214.1,379.39Z" transform="translate(-200.099 -343.728)" fill="#ccc" opacity="0.6" style="mix-blend-mode: multiply;isolation: isolate"/>
            <g id="Group_6933" data-name="Group 6933" transform="translate(8.26 29.745)">
              <g id="Group_6932" data-name="Group 6932">
                <g id="Group_6931" data-name="Group 6931">
                  <g id="Group_6930" data-name="Group 6930">
                    <path id="Path_9660" data-name="Path 9660" d="M224.741,378.867c0,2.774,5.849,5.024,13.064,5.024s13.064-2.25,13.064-5.024v-2.374H224.741Z" transform="translate(-224.741 -371.469)" fill="#ff931e"/>
                    <g id="Group_6927" data-name="Group 6927" transform="translate(0 5.034)">
                      <path id="Path_9661" data-name="Path 9661" d="M263.664,380.51v6.154c.409.015.824.024,1.243.024V380.51Z" transform="translate(-251.843 -379.3)" fill="#d17918"/>
                      <path id="Path_9662" data-name="Path 9662" d="M255.37,380.51v5.965c.675.078,1.373.135,2.089.17V380.51Z" transform="translate(-246.068 -379.3)" fill="#d17918"/>
                      <path id="Path_9663" data-name="Path 9663" d="M233.526,383.636v-7.111h-8.785v2.364C224.741,381.087,228.413,382.954,233.526,383.636Z" transform="translate(-224.741 -376.525)" fill="#d17918"/>
                      <path id="Path_9664" data-name="Path 9664" d="M283.081,380.51v5.848c.142-.021.285-.042.425-.064V380.51Z" transform="translate(-265.363 -379.3)" fill="#d17918"/>
                      <path id="Path_9665" data-name="Path 9665" d="M277.728,386.55q.215-.019.425-.041v-6h-.425Z" transform="translate(-261.636 -379.3)" fill="#d17918"/>
                      <path id="Path_9666" data-name="Path 9666" d="M270.945,380.51v6.162c.209-.006.415-.013.622-.023v-6.14Z" transform="translate(-256.913 -379.3)" fill="#d17918"/>
                    </g>
                    <g id="Group_6929" data-name="Group 6929">
                      <path id="Path_9667" data-name="Path 9667" d="M237.805,370c-7.215,0-13.064-2.25-13.064-5.024s5.849-5.024,13.064-5.024,13.064,2.25,13.064,5.024S245.021,370,237.805,370Z" transform="translate(-224.741 -359.95)" fill="#ff931e"/>
                      <path id="Path_9668" data-name="Path 9668" d="M245.166,369.171c-.37.012-.744.02-1.123.02-7.215,0-13.064-2.25-13.064-5.024,0-1.725,2.261-3.246,5.7-4.151-6.689.219-11.941,2.375-11.941,5,0,2.775,5.849,5.025,13.064,5.025A29.474,29.474,0,0,0,245.166,369.171Z" transform="translate(-224.741 -359.996)" opacity="0.4" fill="url(#linear-gradient)" style="mix-blend-mode: multiply;isolation: isolate"/>
                      <path id="Path_9669" data-name="Path 9669" d="M250.883,365.846c-.215-2.7-5.975-4.869-13.054-4.869s-12.839,2.166-13.054,4.869c.215,2.7,5.975,4.868,13.054,4.868S250.668,368.547,250.883,365.846Zm-13.054,4.245c-5.864,0-10.634-1.835-10.634-4.089s4.77-4.09,10.634-4.09,10.634,1.834,10.634,4.09S243.692,370.091,237.829,370.091Z" transform="translate(-224.765 -360.665)" fill="#d17918"/>
                      <path id="Path_9670" data-name="Path 9670" d="M252.273,374.2l-5.053,1.452v1.01l5.171-1.594a5.258,5.258,0,0,0,2.2.932c.077.017.155.031.234.046v.9H256.7v-.692c.409.019.791.02,1.121.013v.679h1.876v-2.7h-1.876v1.3c-.313.011-.7.012-1.121-.015v-1.29h-1.876v.92a2.353,2.353,0,0,1-1.084-.771Z" transform="translate(-240.393 -369.87)" fill="#d17918"/>
                      <path id="Path_9671" data-name="Path 9671" d="M248.439,364.974c0,2.255-4.771,4.09-10.634,4.09s-10.634-1.835-10.634-4.09,4.77-4.09,10.634-4.09,10.634,1.835,10.634,4.09m2.43,0c0-2.775-5.849-5.024-13.064-5.024s-13.064,2.25-13.064,5.024S230.59,370,237.805,370s13.064-2.25,13.064-5.024Z" transform="translate(-224.741 -359.95)" fill="#ffc022"/>
                      <g id="Group_6928" data-name="Group 6928" transform="translate(3.836 1.475)">
                        <path id="Path_9672" data-name="Path 9672" d="M237.371,368.357c0-1.957,4.14-3.549,9.228-3.549s9.229,1.592,9.229,3.549-4.14,3.549-9.229,3.549S237.371,370.314,237.371,368.357Zm18.052,0c0-1.871-3.959-3.393-8.824-3.393s-8.823,1.522-8.823,3.393,3.958,3.394,8.823,3.394S255.423,370.228,255.423,368.357Z" transform="translate(-237.371 -364.808)" fill="#ffc022"/>
                      </g>
                      <path id="Path_9673" data-name="Path 9673" d="M252.273,371.973l-5.053,1.453v1.009l5.171-1.6a5.246,5.246,0,0,0,2.2.933c.077.017.155.031.234.046v.9H256.7v-.692c.409.018.791.019,1.121.013v.68h1.876v-2.7h-1.876v1.3c-.313.011-.7.012-1.121-.015v-1.29h-1.876v.921a2.356,2.356,0,0,1-1.084-.771Z" transform="translate(-240.393 -368.322)" fill="#ffc022"/>
                    </g>
                  </g>
                </g>
              </g>
            </g>
            <g id="Group_6940" data-name="Group 6940" transform="translate(8.26 24.721)">
              <g id="Group_6939" data-name="Group 6939">
                <g id="Group_6938" data-name="Group 6938">
                  <g id="Group_6937" data-name="Group 6937">
                    <path id="Path_9674" data-name="Path 9674" d="M224.741,362.324c0,2.774,5.849,5.024,13.064,5.024s13.064-2.25,13.064-5.024V359.95H224.741Z" transform="translate(-224.741 -354.926)" fill="#ff931e"/>
                    <g id="Group_6934" data-name="Group 6934" transform="translate(0 5.034)">
                      <path id="Path_9675" data-name="Path 9675" d="M263.664,363.967v6.154c.409.015.824.024,1.243.024v-6.178Z" transform="translate(-251.843 -362.757)" fill="#d17918"/>
                      <path id="Path_9676" data-name="Path 9676" d="M255.37,363.967v5.965c.675.079,1.373.135,2.089.171v-6.135Z" transform="translate(-246.068 -362.757)" fill="#d17918"/>
                      <path id="Path_9677" data-name="Path 9677" d="M233.526,367.093v-7.111h-8.785v2.364C224.741,364.544,228.413,366.411,233.526,367.093Z" transform="translate(-224.741 -359.982)" fill="#d17918"/>
                      <path id="Path_9678" data-name="Path 9678" d="M283.081,363.967v5.848c.142-.021.285-.042.425-.064v-5.784Z" transform="translate(-265.363 -362.757)" fill="#d17918"/>
                      <path id="Path_9679" data-name="Path 9679" d="M277.728,370.007q.215-.019.425-.042v-6h-.425Z" transform="translate(-261.636 -362.757)" fill="#d17918"/>
                      <path id="Path_9680" data-name="Path 9680" d="M270.945,363.967v6.162c.209-.006.415-.013.622-.023v-6.139Z" transform="translate(-256.913 -362.757)" fill="#d17918"/>
                    </g>
                    <g id="Group_6936" data-name="Group 6936">
                      <path id="Path_9681" data-name="Path 9681" d="M237.805,353.455c-7.215,0-13.064-2.249-13.064-5.024s5.849-5.024,13.064-5.024,13.064,2.25,13.064,5.024S245.021,353.455,237.805,353.455Z" transform="translate(-224.741 -343.407)" fill="#ff931e"/>
                      <path id="Path_9682" data-name="Path 9682" d="M245.166,352.628c-.37.012-.744.02-1.123.02-7.215,0-13.064-2.249-13.064-5.024,0-1.725,2.261-3.246,5.7-4.151-6.689.219-11.941,2.375-11.941,5,0,2.775,5.849,5.024,13.064,5.024A29.472,29.472,0,0,0,245.166,352.628Z" transform="translate(-224.741 -343.453)" opacity="0.4" fill="url(#linear-gradient-2)" style="mix-blend-mode: multiply;isolation: isolate"/>
                      <path id="Path_9683" data-name="Path 9683" d="M250.883,349.3c-.215-2.7-5.975-4.868-13.054-4.868S224.99,346.6,224.775,349.3c.215,2.7,5.975,4.868,13.054,4.868S250.668,352,250.883,349.3Zm-13.054,4.245c-5.864,0-10.634-1.835-10.634-4.089s4.77-4.09,10.634-4.09,10.634,1.834,10.634,4.09S243.692,353.548,237.829,353.548Z" transform="translate(-224.765 -344.122)" fill="#d17918"/>
                      <path id="Path_9684" data-name="Path 9684" d="M252.273,357.654l-5.053,1.452v1.009l5.171-1.594a5.266,5.266,0,0,0,2.2.932c.077.017.155.031.234.045v.9H256.7v-.692c.409.018.791.02,1.121.013v.679h1.876v-2.7h-1.876V359c-.313.011-.7.011-1.121-.016V357.7h-1.876v.92a2.35,2.35,0,0,1-1.084-.771Z" transform="translate(-240.393 -353.327)" fill="#d17918"/>
                      <path id="Path_9685" data-name="Path 9685" d="M248.439,348.431c0,2.255-4.771,4.09-10.634,4.09s-10.634-1.835-10.634-4.09,4.77-4.09,10.634-4.09,10.634,1.834,10.634,4.09m2.43,0c0-2.775-5.849-5.024-13.064-5.024s-13.064,2.25-13.064,5.024,5.849,5.024,13.064,5.024,13.064-2.249,13.064-5.024Z" transform="translate(-224.741 -343.407)" fill="#ffc022"/>
                      <g id="Group_6935" data-name="Group 6935" transform="translate(3.836 1.475)">
                        <path id="Path_9686" data-name="Path 9686" d="M237.371,351.814c0-1.957,4.14-3.549,9.228-3.549s9.229,1.591,9.229,3.549-4.14,3.549-9.229,3.549S237.371,353.771,237.371,351.814Zm18.052,0c0-1.871-3.959-3.394-8.824-3.394s-8.823,1.522-8.823,3.394,3.958,3.393,8.823,3.393S255.423,353.685,255.423,351.814Z" transform="translate(-237.371 -348.265)" fill="#ffc022"/>
                      </g>
                      <path id="Path_9687" data-name="Path 9687" d="M252.273,355.43l-5.053,1.453v1.009l5.171-1.6a5.242,5.242,0,0,0,2.2.933c.077.017.155.031.234.046v.9H256.7v-.692c.409.018.791.019,1.121.013v.679h1.876v-2.7h-1.876v1.305c-.313.011-.7.012-1.121-.016v-1.29h-1.876v.921a2.357,2.357,0,0,1-1.084-.771Z" transform="translate(-240.393 -351.779)" fill="#ffc022"/>
                    </g>
                  </g>
                </g>
              </g>
            </g>
            <g id="Group_6947" data-name="Group 6947" transform="translate(8.26 19.696)">
              <g id="Group_6946" data-name="Group 6946">
                <g id="Group_6945" data-name="Group 6945">
                  <g id="Group_6944" data-name="Group 6944">
                    <path id="Path_9688" data-name="Path 9688" d="M224.741,345.781c0,2.774,5.849,5.024,13.064,5.024s13.064-2.25,13.064-5.024v-2.374H224.741Z" transform="translate(-224.741 -338.383)" fill="#ff931e"/>
                    <g id="Group_6941" data-name="Group 6941" transform="translate(0 5.034)">
                      <path id="Path_9689" data-name="Path 9689" d="M263.664,347.424v6.155c.409.014.824.023,1.243.023v-6.178Z" transform="translate(-251.843 -346.214)" fill="#d17918"/>
                      <path id="Path_9690" data-name="Path 9690" d="M255.37,347.424v5.965c.675.078,1.373.135,2.089.17v-6.135Z" transform="translate(-246.068 -346.214)" fill="#d17918"/>
                      <path id="Path_9691" data-name="Path 9691" d="M233.526,350.55v-7.11h-8.785V345.8C224.741,348,228.413,349.869,233.526,350.55Z" transform="translate(-224.741 -343.44)" fill="#d17918"/>
                      <path id="Path_9692" data-name="Path 9692" d="M283.081,347.424v5.848c.142-.021.285-.042.425-.064v-5.784Z" transform="translate(-265.363 -346.214)" fill="#d17918"/>
                      <path id="Path_9693" data-name="Path 9693" d="M277.728,353.465c.143-.013.285-.027.425-.042v-6h-.425Z" transform="translate(-261.636 -346.214)" fill="#d17918"/>
                      <path id="Path_9694" data-name="Path 9694" d="M270.945,347.424v6.162c.209-.006.415-.013.622-.023v-6.139Z" transform="translate(-256.913 -346.214)" fill="#d17918"/>
                    </g>
                    <g id="Group_6943" data-name="Group 6943">
                      <path id="Path_9695" data-name="Path 9695" d="M237.805,336.912c-7.215,0-13.064-2.249-13.064-5.024s5.849-5.024,13.064-5.024,13.064,2.25,13.064,5.024S245.021,336.912,237.805,336.912Z" transform="translate(-224.741 -326.864)" fill="#ff931e"/>
                      <path id="Path_9696" data-name="Path 9696" d="M245.166,336.084c-.37.012-.744.02-1.123.02-7.215,0-13.064-2.25-13.064-5.024,0-1.725,2.261-3.246,5.7-4.151-6.689.219-11.941,2.375-11.941,5,0,2.775,5.849,5.024,13.064,5.024A29.475,29.475,0,0,0,245.166,336.084Z" transform="translate(-224.741 -326.909)" opacity="0.4" fill="url(#linear-gradient-3)" style="mix-blend-mode: multiply;isolation: isolate"/>
                      <path id="Path_9697" data-name="Path 9697" d="M250.883,332.759c-.215-2.7-5.975-4.869-13.054-4.869s-12.839,2.166-13.054,4.869c.215,2.7,5.975,4.868,13.054,4.868S250.668,335.461,250.883,332.759ZM237.829,337c-5.864,0-10.634-1.835-10.634-4.089s4.77-4.09,10.634-4.09,10.634,1.835,10.634,4.09S243.692,337,237.829,337Z" transform="translate(-224.765 -327.578)" fill="#d17918"/>
                      <path id="Path_9699" data-name="Path 9699" d="M248.439,331.888c0,2.255-4.771,4.09-10.634,4.09s-10.634-1.835-10.634-4.09,4.77-4.09,10.634-4.09,10.634,1.834,10.634,4.09m2.43,0c0-2.775-5.849-5.024-13.064-5.024s-13.064,2.25-13.064,5.024,5.849,5.024,13.064,5.024,13.064-2.249,13.064-5.024Z" transform="translate(-224.741 -326.864)" fill="#ffc022"/>
                      <g id="Group_6942" data-name="Group 6942" transform="translate(3.836 1.475)">
                        <path id="Path_9700" data-name="Path 9700" d="M237.371,335.27c0-1.957,4.14-3.549,9.228-3.549s9.229,1.592,9.229,3.549-4.14,3.549-9.229,3.549S237.371,337.227,237.371,335.27Zm18.052,0c0-1.871-3.959-3.394-8.824-3.394s-8.823,1.522-8.823,3.394,3.958,3.393,8.823,3.393S255.423,337.141,255.423,335.27Z" transform="translate(-237.371 -331.721)" fill="#ffc022"/>
                      </g>
                    </g>
                  </g>
                </g>
              </g>
            </g>
            <g id="Group_6954" data-name="Group 6954" transform="translate(40.427 20.097)">
              <g id="Group_6953" data-name="Group 6953">
                <g id="Group_6952" data-name="Group 6952">
                  <g id="Group_6951" data-name="Group 6951">
                    <path id="Path_9702" data-name="Path 9702" d="M330.655,347.1c0,2.775,5.849,5.024,13.064,5.024s13.064-2.25,13.064-5.024v-2.373H330.655Z" transform="translate(-330.655 -339.702)" fill="#ff931e"/>
                    <g id="Group_6948" data-name="Group 6948" transform="translate(0 5.034)">
                      <path id="Path_9703" data-name="Path 9703" d="M369.578,348.742V354.9c.409.015.824.023,1.243.023v-6.178Z" transform="translate(-357.757 -347.532)" fill="#d17918"/>
                      <path id="Path_9704" data-name="Path 9704" d="M361.284,348.742v5.965c.675.078,1.373.135,2.089.17v-6.135Z" transform="translate(-351.982 -347.532)" fill="#d17918"/>
                      <path id="Path_9705" data-name="Path 9705" d="M339.44,351.869v-7.111h-8.785v2.364C330.655,349.32,334.327,351.187,339.44,351.869Z" transform="translate(-330.655 -344.758)" fill="#d17918"/>
                      <path id="Path_9706" data-name="Path 9706" d="M389,348.742v5.848c.142-.021.285-.042.425-.064v-5.784Z" transform="translate(-371.277 -347.532)" fill="#d17918"/>
                      <path id="Path_9707" data-name="Path 9707" d="M383.643,354.783q.214-.019.425-.042v-6h-.425Z" transform="translate(-367.55 -347.532)" fill="#d17918"/>
                      <path id="Path_9708" data-name="Path 9708" d="M376.859,348.742V354.9c.209-.006.415-.013.622-.023v-6.14Z" transform="translate(-362.827 -347.532)" fill="#d17918"/>
                    </g>
                    <g id="Group_6950" data-name="Group 6950">
                      <path id="Path_9709" data-name="Path 9709" d="M343.719,338.232c-7.215,0-13.064-2.25-13.064-5.025s5.849-5.024,13.064-5.024,13.064,2.25,13.064,5.024S350.935,338.232,343.719,338.232Z" transform="translate(-330.655 -328.183)" fill="#ff931e"/>
                      <path id="Path_9710" data-name="Path 9710" d="M351.08,337.4c-.371.012-.744.02-1.123.02-7.215,0-13.064-2.249-13.064-5.024,0-1.725,2.261-3.246,5.7-4.151-6.688.219-11.941,2.375-11.941,5,0,2.775,5.849,5.024,13.064,5.024A29.488,29.488,0,0,0,351.08,337.4Z" transform="translate(-330.655 -328.228)" opacity="0.4" fill="url(#linear-gradient-4)" style="mix-blend-mode: multiply;isolation: isolate"/>
                      <path id="Path_9711" data-name="Path 9711" d="M356.8,334.078c-.215-2.7-5.975-4.869-13.054-4.869s-12.839,2.166-13.054,4.869c.215,2.7,5.975,4.868,13.054,4.868S356.582,336.78,356.8,334.078Zm-13.054,4.246c-5.864,0-10.634-1.835-10.634-4.09s4.77-4.09,10.634-4.09,10.634,1.834,10.634,4.09S349.606,338.323,343.743,338.323Z" transform="translate(-330.679 -328.897)" fill="#d17918"/>
                      <path id="Path_9712" data-name="Path 9712" d="M358.187,342.43l-5.053,1.452v1.009l5.171-1.595a5.255,5.255,0,0,0,2.2.932c.077.017.156.031.234.046v.9h1.876v-.693c.409.019.791.02,1.121.013v.679h1.876v-2.7h-1.876v1.3c-.313.011-.7.012-1.121-.015v-1.29h-1.876v.92a2.351,2.351,0,0,1-1.084-.77Z" transform="translate(-346.307 -338.103)" fill="#d17918"/>
                      <path id="Path_9713" data-name="Path 9713" d="M354.353,333.207c0,2.255-4.771,4.089-10.634,4.089s-10.634-1.835-10.634-4.089,4.77-4.09,10.634-4.09,10.634,1.835,10.634,4.09m2.43,0c0-2.775-5.849-5.024-13.064-5.024s-13.064,2.25-13.064,5.024,5.849,5.025,13.064,5.025,13.064-2.25,13.064-5.025Z" transform="translate(-330.655 -328.183)" fill="#ffc022"/>
                      <g id="Group_6949" data-name="Group 6949" transform="translate(3.836 1.475)">
                        <path id="Path_9714" data-name="Path 9714" d="M343.285,336.589c0-1.957,4.14-3.549,9.228-3.549s9.229,1.592,9.229,3.549-4.14,3.549-9.229,3.549S343.285,338.546,343.285,336.589Zm18.052,0c0-1.871-3.959-3.393-8.824-3.393s-8.823,1.522-8.823,3.393,3.958,3.393,8.823,3.393S361.337,338.46,361.337,336.589Z" transform="translate(-343.285 -333.04)" fill="#ffc022"/>
                      </g>
                      <path id="Path_9715" data-name="Path 9715" d="M358.187,340.205l-5.053,1.453v1.009l5.171-1.595a5.256,5.256,0,0,0,2.2.933c.077.017.156.031.234.046v.9h1.876v-.692c.409.017.791.019,1.121.013v.679h1.876v-2.7h-1.876v1.3c-.313.011-.7.012-1.121-.015v-1.29h-1.876v.92a2.356,2.356,0,0,1-1.084-.771Z" transform="translate(-346.307 -336.554)" fill="#ffc022"/>
                    </g>
                  </g>
                </g>
              </g>
            </g>
            <g id="Group_6961" data-name="Group 6961" transform="translate(40.427 15.073)">
              <g id="Group_6960" data-name="Group 6960">
                <g id="Group_6959" data-name="Group 6959">
                  <g id="Group_6958" data-name="Group 6958">
                    <path id="Path_9716" data-name="Path 9716" d="M330.655,330.556c0,2.774,5.849,5.024,13.064,5.024s13.064-2.25,13.064-5.024v-2.373H330.655Z" transform="translate(-330.655 -323.159)" fill="#ff931e"/>
                    <g id="Group_6955" data-name="Group 6955" transform="translate(0 5.034)">
                      <path id="Path_9717" data-name="Path 9717" d="M369.578,332.2v6.155q.614.022,1.243.023V332.2Z" transform="translate(-357.757 -330.989)" fill="#d17918"/>
                      <path id="Path_9718" data-name="Path 9718" d="M361.284,332.2v5.965c.675.079,1.373.135,2.089.17V332.2Z" transform="translate(-351.982 -330.989)" fill="#d17918"/>
                      <path id="Path_9719" data-name="Path 9719" d="M339.44,335.326v-7.111h-8.785v2.364C330.655,332.776,334.327,334.644,339.44,335.326Z" transform="translate(-330.655 -328.215)" fill="#d17918"/>
                      <path id="Path_9720" data-name="Path 9720" d="M389,332.2v5.848c.142-.021.285-.042.425-.064V332.2Z" transform="translate(-371.277 -330.989)" fill="#d17918"/>
                      <path id="Path_9721" data-name="Path 9721" d="M383.643,338.24q.214-.019.425-.042v-6h-.425Z" transform="translate(-367.55 -330.989)" fill="#d17918"/>
                      <path id="Path_9722" data-name="Path 9722" d="M376.859,332.2v6.162c.209-.005.415-.013.622-.023V332.2Z" transform="translate(-362.827 -330.989)" fill="#d17918"/>
                    </g>
                    <g id="Group_6957" data-name="Group 6957">
                      <path id="Path_9723" data-name="Path 9723" d="M343.719,321.688c-7.215,0-13.064-2.25-13.064-5.024s5.849-5.024,13.064-5.024,13.064,2.249,13.064,5.024S350.935,321.688,343.719,321.688Z" transform="translate(-330.655 -311.64)" fill="#ff931e"/>
                      <path id="Path_9724" data-name="Path 9724" d="M351.08,320.86c-.371.012-.744.019-1.123.019-7.215,0-13.064-2.249-13.064-5.024,0-1.725,2.261-3.246,5.7-4.151-6.688.219-11.941,2.375-11.941,5,0,2.775,5.849,5.024,13.064,5.024A29.49,29.49,0,0,0,351.08,320.86Z" transform="translate(-330.655 -311.685)" opacity="0.4" fill="url(#linear-gradient-5)" style="mix-blend-mode: multiply;isolation: isolate"/>
                      <path id="Path_9725" data-name="Path 9725" d="M356.8,317.534c-.215-2.7-5.975-4.868-13.054-4.868s-12.839,2.166-13.054,4.868c.215,2.7,5.975,4.868,13.054,4.868S356.582,320.236,356.8,317.534Zm-13.054,4.246c-5.864,0-10.634-1.835-10.634-4.09s4.77-4.09,10.634-4.09,10.634,1.834,10.634,4.09S349.606,321.78,343.743,321.78Z" transform="translate(-330.679 -312.354)" fill="#d17918"/>
                      <path id="Path_9726" data-name="Path 9726" d="M358.187,325.887l-5.053,1.452v1.009l5.171-1.594a5.268,5.268,0,0,0,2.2.933c.077.017.156.031.234.045v.9h1.876v-.692c.409.018.791.02,1.121.013v.679h1.876v-2.7h-1.876v1.3c-.313.011-.7.011-1.121-.016V325.93h-1.876v.92a2.349,2.349,0,0,1-1.084-.771Z" transform="translate(-346.307 -321.56)" fill="#d17918"/>
                      <path id="Path_9727" data-name="Path 9727" d="M354.353,316.664c0,2.255-4.771,4.089-10.634,4.089s-10.634-1.835-10.634-4.089,4.77-4.09,10.634-4.09,10.634,1.834,10.634,4.09m2.43,0c0-2.775-5.849-5.024-13.064-5.024s-13.064,2.249-13.064,5.024,5.849,5.024,13.064,5.024,13.064-2.25,13.064-5.024Z" transform="translate(-330.655 -311.64)" fill="#ffc022"/>
                      <g id="Group_6956" data-name="Group 6956" transform="translate(3.836 1.475)">
                        <path id="Path_9728" data-name="Path 9728" d="M343.285,320.046c0-1.958,4.14-3.549,9.228-3.549s9.229,1.591,9.229,3.549-4.14,3.549-9.229,3.549S343.285,322,343.285,320.046Zm18.052,0c0-1.871-3.959-3.394-8.824-3.394s-8.823,1.522-8.823,3.394,3.958,3.393,8.823,3.393S361.337,321.917,361.337,320.046Z" transform="translate(-343.285 -316.497)" fill="#ffc022"/>
                      </g>
                      <path id="Path_9729" data-name="Path 9729" d="M358.187,323.662l-5.053,1.453v1.009l5.171-1.6a5.251,5.251,0,0,0,2.2.933c.077.017.156.031.234.046v.9h1.876v-.692c.409.017.791.019,1.121.013v.679h1.876v-2.7h-1.876v1.3c-.313.011-.7.012-1.121-.015v-1.29h-1.876v.921a2.356,2.356,0,0,1-1.084-.771Z" transform="translate(-346.307 -320.011)" fill="#ffc022"/>
                    </g>
                  </g>
                </g>
              </g>
            </g>
            <g id="Group_6968" data-name="Group 6968" transform="translate(40.427 10.049)">
              <g id="Group_6967" data-name="Group 6967">
                <g id="Group_6966" data-name="Group 6966">
                  <g id="Group_6965" data-name="Group 6965">
                    <path id="Path_9730" data-name="Path 9730" d="M330.655,314.013c0,2.774,5.849,5.024,13.064,5.024s13.064-2.25,13.064-5.024V311.64H330.655Z" transform="translate(-330.655 -306.616)" fill="#ff931e"/>
                    <g id="Group_6962" data-name="Group 6962" transform="translate(0 5.034)">
                      <path id="Path_9731" data-name="Path 9731" d="M369.578,315.656v6.155c.409.015.824.023,1.243.023v-6.178Z" transform="translate(-357.757 -314.446)" fill="#d17918"/>
                      <path id="Path_9732" data-name="Path 9732" d="M361.284,315.656v5.965c.675.078,1.373.135,2.089.17v-6.135Z" transform="translate(-351.982 -314.446)" fill="#d17918"/>
                      <path id="Path_9733" data-name="Path 9733" d="M339.44,318.782v-7.11h-8.785v2.364C330.655,316.233,334.327,318.1,339.44,318.782Z" transform="translate(-330.655 -311.672)" fill="#d17918"/>
                      <path id="Path_9734" data-name="Path 9734" d="M389,315.656V321.5c.142-.021.285-.042.425-.064v-5.784Z" transform="translate(-371.277 -314.446)" fill="#d17918"/>
                      <path id="Path_9735" data-name="Path 9735" d="M383.643,321.7c.143-.013.284-.027.425-.042v-6h-.425Z" transform="translate(-367.55 -314.446)" fill="#d17918"/>
                      <path id="Path_9736" data-name="Path 9736" d="M376.859,315.656v6.162c.209-.005.415-.013.622-.023v-6.139Z" transform="translate(-362.827 -314.446)" fill="#d17918"/>
                    </g>
                    <g id="Group_6964" data-name="Group 6964">
                      <path id="Path_9737" data-name="Path 9737" d="M343.719,305.145c-7.215,0-13.064-2.25-13.064-5.024s5.849-5.024,13.064-5.024,13.064,2.249,13.064,5.024S350.935,305.145,343.719,305.145Z" transform="translate(-330.655 -295.097)" fill="#ff931e"/>
                      <path id="Path_9738" data-name="Path 9738" d="M351.08,304.317c-.371.012-.744.019-1.123.019-7.215,0-13.064-2.249-13.064-5.024,0-1.725,2.261-3.246,5.7-4.151-6.688.219-11.941,2.375-11.941,5,0,2.775,5.849,5.024,13.064,5.024A29.489,29.489,0,0,0,351.08,304.317Z" transform="translate(-330.655 -295.142)" opacity="0.4" fill="url(#linear-gradient-6)" style="mix-blend-mode: multiply;isolation: isolate"/>
                      <path id="Path_9739" data-name="Path 9739" d="M356.8,300.991c-.215-2.7-5.975-4.869-13.054-4.869s-12.839,2.166-13.054,4.869c.215,2.7,5.975,4.868,13.054,4.868S356.582,303.693,356.8,300.991Zm-13.054,4.245c-5.864,0-10.634-1.835-10.634-4.09s4.77-4.09,10.634-4.09,10.634,1.835,10.634,4.09S349.606,305.236,343.743,305.236Z" transform="translate(-330.679 -295.811)" fill="#d17918"/>
                      <path id="Path_9740" data-name="Path 9740" d="M358.187,309.344l-5.053,1.452v1.009l5.171-1.594a5.268,5.268,0,0,0,2.2.933c.077.017.156.031.234.045v.9h1.876V311.4c.409.018.791.02,1.121.013v.679h1.876v-2.7h-1.876v1.3c-.313.011-.7.012-1.121-.015v-1.289h-1.876v.921a2.354,2.354,0,0,1-1.084-.771Z" transform="translate(-346.307 -305.017)" fill="#d17918"/>
                      <path id="Path_9741" data-name="Path 9741" d="M354.353,300.121c0,2.255-4.771,4.089-10.634,4.089s-10.634-1.834-10.634-4.089,4.77-4.09,10.634-4.09,10.634,1.834,10.634,4.09m2.43,0c0-2.775-5.849-5.024-13.064-5.024s-13.064,2.249-13.064,5.024,5.849,5.024,13.064,5.024,13.064-2.25,13.064-5.024Z" transform="translate(-330.655 -295.097)" fill="#ffc022"/>
                      <g id="Group_6963" data-name="Group 6963" transform="translate(3.836 1.475)">
                        <path id="Path_9742" data-name="Path 9742" d="M343.285,303.5c0-1.958,4.14-3.549,9.228-3.549s9.229,1.592,9.229,3.549-4.14,3.549-9.229,3.549S343.285,305.459,343.285,303.5Zm18.052,0c0-1.871-3.959-3.394-8.824-3.394s-8.823,1.522-8.823,3.394,3.958,3.393,8.823,3.393S361.337,305.373,361.337,303.5Z" transform="translate(-343.285 -299.953)" fill="#ffc022"/>
                      </g>
                      <path id="Path_9743" data-name="Path 9743" d="M358.187,307.119l-5.053,1.453v1.009l5.171-1.6a5.26,5.26,0,0,0,2.2.933c.077.017.156.031.234.046v.9h1.876v-.692c.409.017.791.019,1.121.012v.679h1.876v-2.7h-1.876v1.305c-.313.011-.7.012-1.121-.016v-1.289h-1.876v.921a2.354,2.354,0,0,1-1.084-.771Z" transform="translate(-346.307 -303.468)" fill="#ffc022"/>
                    </g>
                  </g>
                </g>
              </g>
            </g>
            <g id="Group_6975" data-name="Group 6975" transform="translate(40.427 5.024)">
              <g id="Group_6974" data-name="Group 6974">
                <g id="Group_6973" data-name="Group 6973">
                  <g id="Group_6972" data-name="Group 6972">
                    <path id="Path_9744" data-name="Path 9744" d="M330.655,297.47c0,2.774,5.849,5.024,13.064,5.024s13.064-2.25,13.064-5.024V295.1H330.655Z" transform="translate(-330.655 -290.073)" fill="#ff931e"/>
                    <g id="Group_6969" data-name="Group 6969" transform="translate(0 5.034)">
                      <path id="Path_9745" data-name="Path 9745" d="M369.578,299.112v6.155c.409.015.824.023,1.243.023v-6.178Z" transform="translate(-357.757 -297.902)" fill="#d17918"/>
                      <path id="Path_9746" data-name="Path 9746" d="M361.284,299.112v5.965c.675.078,1.373.135,2.089.17v-6.136Z" transform="translate(-351.982 -297.902)" fill="#d17918"/>
                      <path id="Path_9747" data-name="Path 9747" d="M339.44,302.239v-7.11h-8.785v2.364C330.655,299.69,334.327,301.558,339.44,302.239Z" transform="translate(-330.655 -295.129)" fill="#d17918"/>
                      <path id="Path_9748" data-name="Path 9748" d="M389,299.112v5.848c.142-.021.285-.042.425-.064v-5.784Z" transform="translate(-371.277 -297.902)" fill="#d17918"/>
                      <path id="Path_9749" data-name="Path 9749" d="M383.643,305.153q.214-.019.425-.042v-6h-.425Z" transform="translate(-367.55 -297.902)" fill="#d17918"/>
                      <path id="Path_9750" data-name="Path 9750" d="M376.859,299.112v6.162c.209-.005.415-.013.622-.023v-6.14Z" transform="translate(-362.827 -297.902)" fill="#d17918"/>
                    </g>
                    <g id="Group_6971" data-name="Group 6971">
                      <path id="Path_9751" data-name="Path 9751" d="M343.719,288.6c-7.215,0-13.064-2.25-13.064-5.024s5.849-5.025,13.064-5.025,13.064,2.25,13.064,5.025S350.935,288.6,343.719,288.6Z" transform="translate(-330.655 -278.553)" fill="#ff931e"/>
                      <path id="Path_9752" data-name="Path 9752" d="M351.08,287.773c-.371.012-.744.02-1.123.02-7.215,0-13.064-2.249-13.064-5.024,0-1.725,2.261-3.246,5.7-4.151-6.688.219-11.941,2.376-11.941,5,0,2.774,5.849,5.024,13.064,5.024A29.489,29.489,0,0,0,351.08,287.773Z" transform="translate(-330.655 -278.598)" opacity="0.4" fill="url(#linear-gradient-7)" style="mix-blend-mode: multiply;isolation: isolate"/>
                      <path id="Path_9753" data-name="Path 9753" d="M356.8,284.448c-.215-2.7-5.975-4.869-13.054-4.869s-12.839,2.166-13.054,4.869c.215,2.7,5.975,4.868,13.054,4.868S356.582,287.15,356.8,284.448Zm-13.054,4.245c-5.864,0-10.634-1.835-10.634-4.09s4.77-4.09,10.634-4.09,10.634,1.834,10.634,4.09S349.606,288.693,343.743,288.693Z" transform="translate(-330.679 -279.267)" fill="#d17918"/>
                      <path id="Path_9754" data-name="Path 9754" d="M358.187,292.8l-5.053,1.452v1.009l5.171-1.594a5.257,5.257,0,0,0,2.2.933c.077.017.156.031.234.046v.9h1.876v-.692c.409.018.791.019,1.121.012v.679h1.876v-2.7h-1.876v1.3c-.313.011-.7.012-1.121-.015v-1.29h-1.876v.921a2.354,2.354,0,0,1-1.084-.771Z" transform="translate(-346.307 -288.473)" fill="#d17918"/>
                      <path id="Path_9755" data-name="Path 9755" d="M354.353,283.578c0,2.255-4.771,4.09-10.634,4.09s-10.634-1.835-10.634-4.09,4.77-4.09,10.634-4.09,10.634,1.834,10.634,4.09m2.43,0c0-2.775-5.849-5.025-13.064-5.025s-13.064,2.25-13.064,5.025,5.849,5.024,13.064,5.024,13.064-2.25,13.064-5.024Z" transform="translate(-330.655 -278.553)" fill="#ffc022"/>
                      <g id="Group_6970" data-name="Group 6970" transform="translate(3.836 1.475)">
                        <path id="Path_9756" data-name="Path 9756" d="M343.285,286.959c0-1.958,4.14-3.549,9.228-3.549s9.229,1.592,9.229,3.549-4.14,3.549-9.229,3.549S343.285,288.916,343.285,286.959Zm18.052,0c0-1.871-3.959-3.394-8.824-3.394s-8.823,1.522-8.823,3.394,3.958,3.393,8.823,3.393S361.337,288.83,361.337,286.959Z" transform="translate(-343.285 -283.41)" fill="#ffc022"/>
                      </g>
                      <path id="Path_9757" data-name="Path 9757" d="M358.187,290.575l-5.053,1.453v1.009l5.171-1.6a5.256,5.256,0,0,0,2.2.933c.077.017.156.031.234.046v.9h1.876v-.692c.409.018.791.019,1.121.013v.679h1.876v-2.7h-1.876v1.3c-.313.011-.7.012-1.121-.015v-1.289h-1.876v.921a2.356,2.356,0,0,1-1.084-.771Z" transform="translate(-346.307 -286.924)" fill="#ffc022"/>
                    </g>
                  </g>
                </g>
              </g>
            </g>
            <g id="Group_6982" data-name="Group 6982" transform="translate(40.427)">
              <g id="Group_6981" data-name="Group 6981">
                <g id="Group_6980" data-name="Group 6980">
                  <g id="Group_6979" data-name="Group 6979">
                    <path id="Path_9758" data-name="Path 9758" d="M330.655,280.927c0,2.774,5.849,5.024,13.064,5.024s13.064-2.25,13.064-5.024v-2.373H330.655Z" transform="translate(-330.655 -273.529)" fill="#ff931e"/>
                    <g id="Group_6976" data-name="Group 6976" transform="translate(0 5.034)">
                      <path id="Path_9759" data-name="Path 9759" d="M369.578,282.569v6.155c.409.015.824.023,1.243.023v-6.178Z" transform="translate(-357.757 -281.359)" fill="#d17918"/>
                      <path id="Path_9760" data-name="Path 9760" d="M361.284,282.569v5.965c.675.078,1.373.135,2.089.17v-6.136Z" transform="translate(-351.982 -281.359)" fill="#d17918"/>
                      <path id="Path_9761" data-name="Path 9761" d="M339.44,285.7v-7.111h-8.785v2.364C330.655,283.147,334.327,285.014,339.44,285.7Z" transform="translate(-330.655 -278.585)" fill="#d17918"/>
                      <path id="Path_9762" data-name="Path 9762" d="M389,282.569v5.848c.142-.021.285-.042.425-.064v-5.784Z" transform="translate(-371.277 -281.359)" fill="#d17918"/>
                      <path id="Path_9763" data-name="Path 9763" d="M383.643,288.61q.214-.019.425-.042v-6h-.425Z" transform="translate(-367.55 -281.359)" fill="#d17918"/>
                      <path id="Path_9764" data-name="Path 9764" d="M376.859,282.569v6.162c.209-.006.415-.013.622-.023v-6.14Z" transform="translate(-362.827 -281.359)" fill="#d17918"/>
                    </g>
                    <g id="Group_6978" data-name="Group 6978">
                      <path id="Path_9765" data-name="Path 9765" d="M343.719,272.059c-7.215,0-13.064-2.25-13.064-5.024s5.849-5.024,13.064-5.024,13.064,2.249,13.064,5.024S350.935,272.059,343.719,272.059Z" transform="translate(-330.655 -262.01)" fill="#ff931e"/>
                      <path id="Path_9766" data-name="Path 9766" d="M351.08,271.23c-.371.012-.744.02-1.123.02-7.215,0-13.064-2.249-13.064-5.024,0-1.725,2.261-3.246,5.7-4.151-6.688.219-11.941,2.375-11.941,5,0,2.775,5.849,5.024,13.064,5.024A29.488,29.488,0,0,0,351.08,271.23Z" transform="translate(-330.655 -262.055)" opacity="0.4" fill="url(#linear-gradient-8)" style="mix-blend-mode: multiply;isolation: isolate"/>
                      <path id="Path_9767" data-name="Path 9767" d="M356.8,267.9c-.215-2.7-5.975-4.868-13.054-4.868S330.9,265.2,330.689,267.9c.215,2.7,5.975,4.869,13.054,4.869S356.582,270.607,356.8,267.9Zm-13.054,4.246c-5.864,0-10.634-1.835-10.634-4.09s4.77-4.09,10.634-4.09,10.634,1.834,10.634,4.09S349.606,272.15,343.743,272.15Z" transform="translate(-330.679 -262.724)" fill="#d17918"/>
                      <path id="Path_9769" data-name="Path 9769" d="M354.353,267.034c0,2.255-4.771,4.09-10.634,4.09s-10.634-1.835-10.634-4.09,4.77-4.09,10.634-4.09,10.634,1.834,10.634,4.09m2.43,0c0-2.775-5.849-5.024-13.064-5.024s-13.064,2.249-13.064,5.024,5.849,5.024,13.064,5.024,13.064-2.25,13.064-5.024Z" transform="translate(-330.655 -262.01)" fill="#ffc022"/>
                      <g id="Group_6977" data-name="Group 6977" transform="translate(3.836 1.475)">
                        <path id="Path_9770" data-name="Path 9770" d="M343.285,270.416c0-1.957,4.14-3.549,9.228-3.549s9.229,1.592,9.229,3.549-4.14,3.549-9.229,3.549S343.285,272.373,343.285,270.416Zm18.052,0c0-1.871-3.959-3.394-8.824-3.394s-8.823,1.523-8.823,3.394,3.958,3.393,8.823,3.393S361.337,272.287,361.337,270.416Z" transform="translate(-343.285 -266.867)" fill="#ffc022"/>
                      </g>
                    </g>
                  </g>
                </g>
              </g>
            </g>
            <g id="Group_6989" data-name="Group 6989" transform="translate(28.619 35.28)">
              <g id="Group_6988" data-name="Group 6988">
                <g id="Group_6987" data-name="Group 6987">
                  <g id="Group_6986" data-name="Group 6986">
                    <path id="Path_9772" data-name="Path 9772" d="M291.775,397.094c0,2.775,5.849,5.024,13.064,5.024s13.065-2.25,13.065-5.024V394.72H291.775Z" transform="translate(-291.775 -389.696)" fill="#ff931e"/>
                    <g id="Group_6983" data-name="Group 6983" transform="translate(0 5.034)">
                      <path id="Path_9773" data-name="Path 9773" d="M330.7,398.736v6.154q.614.022,1.243.023v-6.178Z" transform="translate(-318.877 -397.526)" fill="#d17918"/>
                      <path id="Path_9774" data-name="Path 9774" d="M322.4,398.736V404.7c.675.078,1.373.135,2.089.17v-6.136Z" transform="translate(-313.102 -397.526)" fill="#d17918"/>
                      <path id="Path_9775" data-name="Path 9775" d="M300.56,401.863v-7.111h-8.785v2.364C291.775,399.314,295.447,401.181,300.56,401.863Z" transform="translate(-291.775 -394.752)" fill="#d17918"/>
                      <path id="Path_9776" data-name="Path 9776" d="M350.115,398.736v5.848c.142-.021.286-.042.425-.064v-5.784Z" transform="translate(-332.397 -397.526)" fill="#d17918"/>
                      <path id="Path_9777" data-name="Path 9777" d="M344.763,404.777q.214-.019.425-.042v-6h-.425Z" transform="translate(-328.67 -397.526)" fill="#d17918"/>
                      <path id="Path_9778" data-name="Path 9778" d="M337.979,398.736V404.9c.209-.006.416-.013.622-.023v-6.14Z" transform="translate(-323.947 -397.526)" fill="#d17918"/>
                    </g>
                    <g id="Group_6985" data-name="Group 6985">
                      <path id="Path_9779" data-name="Path 9779" d="M304.839,388.226c-7.215,0-13.064-2.25-13.064-5.025s5.849-5.024,13.064-5.024,13.065,2.25,13.065,5.024S312.055,388.226,304.839,388.226Z" transform="translate(-291.775 -378.177)" fill="#ff931e"/>
                      <path id="Path_9780" data-name="Path 9780" d="M312.2,387.4c-.37.012-.744.02-1.123.02-7.215,0-13.064-2.249-13.064-5.024,0-1.725,2.261-3.246,5.7-4.151-6.688.219-11.941,2.375-11.941,5,0,2.775,5.849,5.024,13.064,5.024A29.488,29.488,0,0,0,312.2,387.4Z" transform="translate(-291.775 -378.222)" opacity="0.4" fill="url(#linear-gradient-9)" style="mix-blend-mode: multiply;isolation: isolate"/>
                      <path id="Path_9781" data-name="Path 9781" d="M317.918,384.072c-.215-2.7-5.974-4.869-13.054-4.869s-12.839,2.166-13.053,4.869c.215,2.7,5.974,4.868,13.053,4.868S317.7,386.774,317.918,384.072Zm-13.054,4.245c-5.864,0-10.634-1.835-10.634-4.09s4.77-4.09,10.634-4.09,10.635,1.834,10.635,4.09S310.727,388.317,304.863,388.317Z" transform="translate(-291.799 -378.891)" fill="#d17918"/>
                      <path id="Path_9782" data-name="Path 9782" d="M319.307,392.424l-5.053,1.452v1.009l5.171-1.594a5.257,5.257,0,0,0,2.2.933c.077.017.155.031.233.046v.9h1.876v-.692c.409.019.791.02,1.121.013v.679h1.876v-2.7h-1.876v1.3c-.313.011-.7.012-1.121-.015v-1.29h-1.876v.921a2.353,2.353,0,0,1-1.084-.771Z" transform="translate(-307.427 -388.097)" fill="#d17918"/>
                      <path id="Path_9783" data-name="Path 9783" d="M315.474,383.2c0,2.255-4.771,4.089-10.635,4.089S294.2,385.456,294.2,383.2s4.77-4.09,10.634-4.09,10.635,1.835,10.635,4.09m2.43,0c0-2.775-5.849-5.024-13.065-5.024s-13.064,2.25-13.064,5.024,5.849,5.025,13.064,5.025,13.065-2.25,13.065-5.025Z" transform="translate(-291.775 -378.177)" fill="#ffc022"/>
                      <g id="Group_6984" data-name="Group 6984" transform="translate(3.836 1.475)">
                        <path id="Path_9784" data-name="Path 9784" d="M304.405,386.583c0-1.957,4.14-3.549,9.228-3.549s9.229,1.592,9.229,3.549-4.14,3.549-9.229,3.549S304.405,388.54,304.405,386.583Zm18.052,0c0-1.871-3.958-3.393-8.824-3.393s-8.823,1.522-8.823,3.393,3.958,3.394,8.823,3.394S322.457,388.454,322.457,386.583Z" transform="translate(-304.405 -383.034)" fill="#ffc022"/>
                      </g>
                      <path id="Path_9785" data-name="Path 9785" d="M319.307,390.2l-5.053,1.453v1.009l5.171-1.6a5.256,5.256,0,0,0,2.2.933c.077.017.155.031.233.046v.9h1.876v-.692c.409.018.791.019,1.121.013v.679h1.876v-2.7h-1.876v1.3c-.313.011-.7.012-1.121-.015v-1.29h-1.876v.92a2.356,2.356,0,0,1-1.084-.771Z" transform="translate(-307.427 -386.548)" fill="#ffc022"/>
                    </g>
                  </g>
                </g>
              </g>
            </g>
            <g id="Group_6996" data-name="Group 6996" transform="translate(28.619 30.256)">
              <g id="Group_6995" data-name="Group 6995">
                <g id="Group_6994" data-name="Group 6994">
                  <g id="Group_6993" data-name="Group 6993">
                    <path id="Path_9786" data-name="Path 9786" d="M291.775,380.55c0,2.774,5.849,5.024,13.064,5.024s13.065-2.25,13.065-5.024v-2.373H291.775Z" transform="translate(-291.775 -373.153)" fill="#ff931e"/>
                    <g id="Group_6990" data-name="Group 6990" transform="translate(0 5.034)">
                      <path id="Path_9787" data-name="Path 9787" d="M330.7,382.193v6.155c.409.015.824.023,1.243.023v-6.178Z" transform="translate(-318.877 -380.983)" fill="#d17918"/>
                      <path id="Path_9788" data-name="Path 9788" d="M322.4,382.193v5.965c.675.079,1.373.135,2.089.171v-6.136Z" transform="translate(-313.102 -380.983)" fill="#d17918"/>
                      <path id="Path_9789" data-name="Path 9789" d="M300.56,385.32v-7.111h-8.785v2.364C291.775,382.77,295.447,384.638,300.56,385.32Z" transform="translate(-291.775 -378.209)" fill="#d17918"/>
                      <path id="Path_9790" data-name="Path 9790" d="M350.115,382.193v5.848c.142-.021.286-.042.425-.064v-5.784Z" transform="translate(-332.397 -380.983)" fill="#d17918"/>
                      <path id="Path_9791" data-name="Path 9791" d="M344.763,388.234q.214-.019.425-.042v-6h-.425Z" transform="translate(-328.67 -380.983)" fill="#d17918"/>
                      <path id="Path_9792" data-name="Path 9792" d="M337.979,382.193v6.162c.209-.006.416-.013.622-.023v-6.139Z" transform="translate(-323.947 -380.983)" fill="#d17918"/>
                    </g>
                    <g id="Group_6992" data-name="Group 6992">
                      <path id="Path_9793" data-name="Path 9793" d="M304.839,371.682c-7.215,0-13.064-2.249-13.064-5.024s5.849-5.024,13.064-5.024,13.065,2.249,13.065,5.024S312.055,371.682,304.839,371.682Z" transform="translate(-291.775 -361.634)" fill="#ff931e"/>
                      <path id="Path_9794" data-name="Path 9794" d="M312.2,370.854c-.37.012-.744.019-1.123.019-7.215,0-13.064-2.249-13.064-5.024,0-1.725,2.261-3.246,5.7-4.151-6.688.219-11.941,2.375-11.941,5,0,2.775,5.849,5.024,13.064,5.024A29.489,29.489,0,0,0,312.2,370.854Z" transform="translate(-291.775 -361.679)" opacity="0.4" fill="url(#linear-gradient-10)" style="mix-blend-mode: multiply;isolation: isolate"/>
                      <path id="Path_9795" data-name="Path 9795" d="M317.918,367.528c-.215-2.7-5.974-4.868-13.054-4.868s-12.839,2.166-13.053,4.868c.215,2.7,5.974,4.868,13.053,4.868S317.7,370.23,317.918,367.528Zm-13.054,4.246c-5.864,0-10.634-1.835-10.634-4.09s4.77-4.09,10.634-4.09,10.635,1.834,10.635,4.09S310.727,371.774,304.863,371.774Z" transform="translate(-291.799 -362.348)" fill="#d17918"/>
                      <path id="Path_9796" data-name="Path 9796" d="M319.307,375.881l-5.053,1.452v1.009l5.171-1.594a5.264,5.264,0,0,0,2.2.933c.077.017.155.031.233.045v.9h1.876v-.692c.409.018.791.02,1.121.013v.679h1.876v-2.7h-1.876v1.3c-.313.011-.7.011-1.121-.015v-1.29h-1.876v.921a2.354,2.354,0,0,1-1.084-.771Z" transform="translate(-307.427 -371.554)" fill="#d17918"/>
                      <path id="Path_9797" data-name="Path 9797" d="M315.474,366.658c0,2.255-4.771,4.09-10.635,4.09s-10.634-1.835-10.634-4.09,4.77-4.09,10.634-4.09,10.635,1.834,10.635,4.09m2.43,0c0-2.775-5.849-5.024-13.065-5.024s-13.064,2.249-13.064,5.024,5.849,5.024,13.064,5.024,13.065-2.249,13.065-5.024Z" transform="translate(-291.775 -361.634)" fill="#ffc022"/>
                      <g id="Group_6991" data-name="Group 6991" transform="translate(3.836 1.475)">
                        <path id="Path_9798" data-name="Path 9798" d="M304.405,370.04c0-1.958,4.14-3.549,9.228-3.549s9.229,1.591,9.229,3.549-4.14,3.549-9.229,3.549S304.405,372,304.405,370.04Zm18.052,0c0-1.871-3.958-3.394-8.824-3.394s-8.823,1.522-8.823,3.394,3.958,3.393,8.823,3.393S322.457,371.911,322.457,370.04Z" transform="translate(-304.405 -366.491)" fill="#ffc022"/>
                      </g>
                      <path id="Path_9799" data-name="Path 9799" d="M319.307,373.656l-5.053,1.453v1.009l5.171-1.6a5.252,5.252,0,0,0,2.2.933c.077.017.155.031.233.046v.9h1.876v-.692c.409.018.791.019,1.121.013v.679h1.876v-2.7h-1.876V375c-.313.011-.7.012-1.121-.015V373.7h-1.876v.921a2.355,2.355,0,0,1-1.084-.771Z" transform="translate(-307.427 -370.005)" fill="#ffc022"/>
                    </g>
                  </g>
                </g>
              </g>
            </g>
            <g id="Group_7003" data-name="Group 7003" transform="translate(28.619 25.232)">
              <g id="Group_7002" data-name="Group 7002">
                <g id="Group_7001" data-name="Group 7001">
                  <g id="Group_7000" data-name="Group 7000">
                    <path id="Path_9800" data-name="Path 9800" d="M291.775,364.008c0,2.774,5.849,5.024,13.064,5.024s13.065-2.25,13.065-5.024v-2.373H291.775Z" transform="translate(-291.775 -356.61)" fill="#ff931e"/>
                    <g id="Group_6997" data-name="Group 6997" transform="translate(0 5.034)">
                      <path id="Path_9801" data-name="Path 9801" d="M330.7,365.65V371.8c.409.015.824.023,1.243.023V365.65Z" transform="translate(-318.877 -364.44)" fill="#d17918"/>
                      <path id="Path_9802" data-name="Path 9802" d="M322.4,365.65v5.965c.675.078,1.373.135,2.089.17V365.65Z" transform="translate(-313.102 -364.44)" fill="#d17918"/>
                      <path id="Path_9803" data-name="Path 9803" d="M300.56,368.776v-7.11h-8.785v2.364C291.775,366.227,295.447,368.095,300.56,368.776Z" transform="translate(-291.775 -361.666)" fill="#d17918"/>
                      <path id="Path_9804" data-name="Path 9804" d="M350.115,365.65V371.5c.142-.021.286-.041.425-.064V365.65Z" transform="translate(-332.397 -364.44)" fill="#d17918"/>
                      <path id="Path_9805" data-name="Path 9805" d="M344.763,371.691c.143-.013.284-.027.425-.042v-6h-.425Z" transform="translate(-328.67 -364.44)" fill="#d17918"/>
                      <path id="Path_9806" data-name="Path 9806" d="M337.979,365.65v6.162c.209-.005.416-.013.622-.023V365.65Z" transform="translate(-323.947 -364.44)" fill="#d17918"/>
                    </g>
                    <g id="Group_6999" data-name="Group 6999">
                      <path id="Path_9807" data-name="Path 9807" d="M304.839,355.139c-7.215,0-13.064-2.249-13.064-5.024s5.849-5.024,13.064-5.024,13.065,2.249,13.065,5.024S312.055,355.139,304.839,355.139Z" transform="translate(-291.775 -345.091)" fill="#ff931e"/>
                      <path id="Path_9808" data-name="Path 9808" d="M312.2,354.311c-.37.012-.744.019-1.123.019-7.215,0-13.064-2.249-13.064-5.024,0-1.725,2.261-3.246,5.7-4.151-6.688.219-11.941,2.376-11.941,5,0,2.775,5.849,5.024,13.064,5.024A29.489,29.489,0,0,0,312.2,354.311Z" transform="translate(-291.775 -345.136)" opacity="0.4" fill="url(#linear-gradient-11)" style="mix-blend-mode: multiply;isolation: isolate"/>
                      <path id="Path_9809" data-name="Path 9809" d="M317.918,350.985c-.215-2.7-5.974-4.869-13.054-4.869s-12.839,2.166-13.053,4.869c.215,2.7,5.974,4.868,13.053,4.868S317.7,353.687,317.918,350.985Zm-13.054,4.245c-5.864,0-10.634-1.835-10.634-4.09s4.77-4.09,10.634-4.09,10.635,1.835,10.635,4.09S310.727,355.23,304.863,355.23Z" transform="translate(-291.799 -345.805)" fill="#d17918"/>
                      <path id="Path_9810" data-name="Path 9810" d="M319.307,359.338l-5.053,1.452V361.8l5.171-1.594a5.265,5.265,0,0,0,2.2.933c.077.017.155.031.233.045v.9h1.876v-.692c.409.018.791.02,1.121.013v.679h1.876v-2.7h-1.876v1.3c-.313.011-.7.012-1.121-.015v-1.29h-1.876v.921a2.353,2.353,0,0,1-1.084-.771Z" transform="translate(-307.427 -355.011)" fill="#d17918"/>
                      <path id="Path_9811" data-name="Path 9811" d="M315.474,350.115c0,2.255-4.771,4.09-10.635,4.09s-10.634-1.835-10.634-4.09,4.77-4.09,10.634-4.09,10.635,1.834,10.635,4.09m2.43,0c0-2.775-5.849-5.024-13.065-5.024s-13.064,2.249-13.064,5.024,5.849,5.024,13.064,5.024,13.065-2.249,13.065-5.024Z" transform="translate(-291.775 -345.091)" fill="#ffc022"/>
                      <g id="Group_6998" data-name="Group 6998" transform="translate(3.836 1.475)">
                        <path id="Path_9812" data-name="Path 9812" d="M304.405,353.5c0-1.957,4.14-3.549,9.228-3.549s9.229,1.592,9.229,3.549-4.14,3.549-9.229,3.549S304.405,355.453,304.405,353.5Zm18.052,0c0-1.871-3.958-3.394-8.824-3.394s-8.823,1.522-8.823,3.394,3.958,3.393,8.823,3.393S322.457,355.367,322.457,353.5Z" transform="translate(-304.405 -349.947)" fill="#ffc022"/>
                      </g>
                      <path id="Path_9813" data-name="Path 9813" d="M319.307,357.113l-5.053,1.453v1.009l5.171-1.6a5.261,5.261,0,0,0,2.2.933c.077.017.155.031.233.046v.9h1.876v-.692c.409.017.791.019,1.121.012v.679h1.876v-2.7h-1.876v1.305c-.313.011-.7.012-1.121-.016v-1.29h-1.876v.921a2.354,2.354,0,0,1-1.084-.771Z" transform="translate(-307.427 -353.462)" fill="#ffc022"/>
                    </g>
                  </g>
                </g>
              </g>
            </g>
            <g id="Group_7010" data-name="Group 7010" transform="translate(28.619 20.208)">
              <g id="Group_7009" data-name="Group 7009">
                <g id="Group_7008" data-name="Group 7008">
                  <g id="Group_7007" data-name="Group 7007">
                    <path id="Path_9814" data-name="Path 9814" d="M291.775,347.464c0,2.774,5.849,5.024,13.064,5.024s13.065-2.25,13.065-5.024v-2.373H291.775Z" transform="translate(-291.775 -340.067)" fill="#ff931e"/>
                    <g id="Group_7004" data-name="Group 7004" transform="translate(0 5.034)">
                      <path id="Path_9815" data-name="Path 9815" d="M330.7,349.106v6.155c.409.015.824.023,1.243.023v-6.178Z" transform="translate(-318.877 -347.896)" fill="#d17918"/>
                      <path id="Path_9816" data-name="Path 9816" d="M322.4,349.106v5.965c.675.078,1.373.135,2.089.17v-6.136Z" transform="translate(-313.102 -347.896)" fill="#d17918"/>
                      <path id="Path_9817" data-name="Path 9817" d="M300.56,352.233v-7.11h-8.785v2.364C291.775,349.685,295.447,351.552,300.56,352.233Z" transform="translate(-291.775 -345.123)" fill="#d17918"/>
                      <path id="Path_9818" data-name="Path 9818" d="M350.115,349.106v5.848c.142-.021.286-.041.425-.064v-5.784Z" transform="translate(-332.397 -347.896)" fill="#d17918"/>
                      <path id="Path_9819" data-name="Path 9819" d="M344.763,355.147q.214-.019.425-.042v-6h-.425Z" transform="translate(-328.67 -347.896)" fill="#d17918"/>
                      <path id="Path_9820" data-name="Path 9820" d="M337.979,349.106v6.162c.209-.005.416-.013.622-.023v-6.14Z" transform="translate(-323.947 -347.896)" fill="#d17918"/>
                    </g>
                    <g id="Group_7006" data-name="Group 7006">
                      <path id="Path_9821" data-name="Path 9821" d="M304.839,338.6c-7.215,0-13.064-2.25-13.064-5.024s5.849-5.024,13.064-5.024,13.065,2.25,13.065,5.024S312.055,338.6,304.839,338.6Z" transform="translate(-291.775 -328.547)" fill="#ff931e"/>
                      <path id="Path_9822" data-name="Path 9822" d="M312.2,337.767c-.37.012-.744.02-1.123.02-7.215,0-13.064-2.249-13.064-5.024,0-1.724,2.261-3.246,5.7-4.151-6.688.219-11.941,2.376-11.941,5,0,2.775,5.849,5.024,13.064,5.024A29.488,29.488,0,0,0,312.2,337.767Z" transform="translate(-291.775 -328.592)" opacity="0.4" fill="url(#linear-gradient-12)" style="mix-blend-mode: multiply;isolation: isolate"/>
                      <path id="Path_9823" data-name="Path 9823" d="M317.918,334.442c-.215-2.7-5.974-4.869-13.054-4.869s-12.839,2.166-13.053,4.869c.215,2.7,5.974,4.868,13.053,4.868S317.7,337.144,317.918,334.442Zm-13.054,4.245c-5.864,0-10.634-1.835-10.634-4.09s4.77-4.09,10.634-4.09,10.635,1.834,10.635,4.09S310.727,338.687,304.863,338.687Z" transform="translate(-291.799 -329.261)" fill="#d17918"/>
                      <path id="Path_9824" data-name="Path 9824" d="M319.307,342.794l-5.053,1.452v1.009l5.171-1.594a5.255,5.255,0,0,0,2.2.933c.077.017.155.031.233.046v.9h1.876v-.692c.409.018.791.019,1.121.013v.679h1.876v-2.7h-1.876v1.3c-.313.011-.7.012-1.121-.015v-1.29h-1.876v.92a2.353,2.353,0,0,1-1.084-.771Z" transform="translate(-307.427 -338.467)" fill="#d17918"/>
                      <path id="Path_9825" data-name="Path 9825" d="M315.474,333.572c0,2.255-4.771,4.09-10.635,4.09s-10.634-1.835-10.634-4.09,4.77-4.09,10.634-4.09,10.635,1.834,10.635,4.09m2.43,0c0-2.775-5.849-5.024-13.065-5.024s-13.064,2.25-13.064,5.024,5.849,5.024,13.064,5.024,13.065-2.25,13.065-5.024Z" transform="translate(-291.775 -328.547)" fill="#ffc022"/>
                      <g id="Group_7005" data-name="Group 7005" transform="translate(3.836 1.475)">
                        <path id="Path_9826" data-name="Path 9826" d="M304.405,336.953c0-1.957,4.14-3.549,9.228-3.549s9.229,1.592,9.229,3.549-4.14,3.549-9.229,3.549S304.405,338.91,304.405,336.953Zm18.052,0c0-1.871-3.958-3.394-8.824-3.394s-8.823,1.522-8.823,3.394,3.958,3.393,8.823,3.393S322.457,338.824,322.457,336.953Z" transform="translate(-304.405 -333.404)" fill="#ffc022"/>
                      </g>
                      <path id="Path_9827" data-name="Path 9827" d="M319.307,340.569l-5.053,1.453v1.009l5.171-1.6a5.253,5.253,0,0,0,2.2.933c.077.017.155.031.233.046v.9h1.876v-.692c.409.018.791.019,1.121.013v.679h1.876v-2.7h-1.876v1.3c-.313.011-.7.012-1.121-.015v-1.289h-1.876v.921a2.357,2.357,0,0,1-1.084-.771Z" transform="translate(-307.427 -336.918)" fill="#ffc022"/>
                    </g>
                  </g>
                </g>
              </g>
            </g>
            <g id="Group_7017" data-name="Group 7017" transform="translate(28.619 15.183)">
              <g id="Group_7016" data-name="Group 7016">
                <g id="Group_7015" data-name="Group 7015">
                  <g id="Group_7014" data-name="Group 7014">
                    <path id="Path_9828" data-name="Path 9828" d="M291.775,330.921c0,2.774,5.849,5.024,13.064,5.024s13.065-2.25,13.065-5.024v-2.373H291.775Z" transform="translate(-291.775 -323.523)" fill="#ff931e"/>
                    <g id="Group_7011" data-name="Group 7011" transform="translate(0 5.034)">
                      <path id="Path_9829" data-name="Path 9829" d="M330.7,332.564v6.154c.409.015.824.023,1.243.023v-6.178Z" transform="translate(-318.877 -331.354)" fill="#d17918"/>
                      <path id="Path_9830" data-name="Path 9830" d="M322.4,332.564v5.965c.675.078,1.373.135,2.089.17v-6.135Z" transform="translate(-313.102 -331.354)" fill="#d17918"/>
                      <path id="Path_9831" data-name="Path 9831" d="M300.56,335.69v-7.111h-8.785v2.364C291.775,333.141,295.447,335.008,300.56,335.69Z" transform="translate(-291.775 -328.579)" fill="#d17918"/>
                      <path id="Path_9832" data-name="Path 9832" d="M350.115,332.564v5.848c.142-.021.286-.042.425-.064v-5.784Z" transform="translate(-332.397 -331.354)" fill="#d17918"/>
                      <path id="Path_9833" data-name="Path 9833" d="M344.763,338.6q.214-.019.425-.042v-6h-.425Z" transform="translate(-328.67 -331.354)" fill="#d17918"/>
                      <path id="Path_9834" data-name="Path 9834" d="M337.979,332.564v6.162c.209-.006.416-.013.622-.023v-6.139Z" transform="translate(-323.947 -331.354)" fill="#d17918"/>
                    </g>
                    <g id="Group_7013" data-name="Group 7013">
                      <path id="Path_9835" data-name="Path 9835" d="M304.839,322.053c-7.215,0-13.064-2.25-13.064-5.025S297.624,312,304.839,312s13.065,2.249,13.065,5.024S312.055,322.053,304.839,322.053Z" transform="translate(-291.775 -312.004)" fill="#ff931e"/>
                      <path id="Path_9836" data-name="Path 9836" d="M312.2,321.224c-.37.012-.744.02-1.123.02-7.215,0-13.064-2.249-13.064-5.024,0-1.725,2.261-3.246,5.7-4.151-6.688.219-11.941,2.375-11.941,5,0,2.775,5.849,5.025,13.064,5.025A29.488,29.488,0,0,0,312.2,321.224Z" transform="translate(-291.775 -312.049)" opacity="0.4" fill="url(#linear-gradient-13)" style="mix-blend-mode: multiply;isolation: isolate"/>
                      <path id="Path_9837" data-name="Path 9837" d="M317.918,317.9c-.215-2.7-5.974-4.868-13.054-4.868S292.025,315.2,291.81,317.9c.215,2.7,5.974,4.869,13.053,4.869S317.7,320.6,317.918,317.9Zm-13.054,4.246c-5.864,0-10.634-1.835-10.634-4.09s4.77-4.09,10.634-4.09,10.635,1.834,10.635,4.09S310.727,322.144,304.863,322.144Z" transform="translate(-291.799 -312.718)" fill="#d17918"/>
                      <path id="Path_9839" data-name="Path 9839" d="M315.474,317.028c0,2.255-4.771,4.09-10.635,4.09s-10.634-1.835-10.634-4.09,4.77-4.09,10.634-4.09,10.635,1.834,10.635,4.09m2.43,0c0-2.775-5.849-5.024-13.065-5.024s-13.064,2.249-13.064,5.024,5.849,5.025,13.064,5.025,13.065-2.25,13.065-5.025Z" transform="translate(-291.775 -312.004)" fill="#ffc022"/>
                      <g id="Group_7012" data-name="Group 7012" transform="translate(3.836 1.475)">
                        <path id="Path_9840" data-name="Path 9840" d="M304.405,320.41c0-1.957,4.14-3.549,9.228-3.549s9.229,1.592,9.229,3.549-4.14,3.549-9.229,3.549S304.405,322.367,304.405,320.41Zm18.052,0c0-1.871-3.958-3.394-8.824-3.394s-8.823,1.522-8.823,3.394,3.958,3.393,8.823,3.393S322.457,322.281,322.457,320.41Z" transform="translate(-304.405 -316.861)" fill="#ffc022"/>
                      </g>
                    </g>
                  </g>
                </g>
              </g>
            </g>
            <path id="Path_9842" data-name="Path 9842" d="M231.041,332.293c-1.958-.482-4.384,2.1-6.225,6.243l0,.018c.016.055.034.109.054.163.008.023.016.046.025.069a2.336,2.336,0,0,0,.1.223c.007.013.015.025.022.038q.051.092.11.183c.017.026.036.053.054.078l.013.019c-.024.033-.048.067-.07.1s-.053.086-.077.129-.043.072-.061.108-.043.091-.063.136-.033.07-.046.105-.033.1-.048.147c-.01.033-.023.065-.031.1-.014.054-.023.11-.033.165-.005.028-.012.056-.016.084a1.99,1.99,0,0,0-.017.252v2.374a1.969,1.969,0,0,0,.016.236c0,.024.008.049.012.073.008.055.019.109.032.163.006.027.013.054.021.08.016.055.034.109.054.163.008.023.016.046.025.069a2.4,2.4,0,0,0,.1.223c.007.013.015.026.022.039q.051.092.11.182c.017.026.036.053.054.079l.013.019c-.024.033-.048.067-.07.1s-.053.087-.079.131-.042.07-.06.106-.043.092-.064.138-.032.069-.046.1-.034.1-.049.148c-.01.033-.022.065-.031.1-.014.055-.023.11-.033.166,0,.028-.012.055-.016.083a1.938,1.938,0,0,0-.017.252v2.374a1.97,1.97,0,0,0,.016.236c0,.024.008.049.012.073.008.055.019.109.032.163q.01.04.021.08c.016.055.034.109.054.163.008.023.016.046.025.069a2.376,2.376,0,0,0,.1.223l.022.038c.034.061.07.123.11.183.017.026.036.052.053.078.033.048.068.095.1.142.022.028.043.055.066.083.039.048.082.095.125.142.022.024.043.048.066.072q.1.1.2.2l.08.07c.05.044.1.088.154.131.036.03.074.059.112.088l.144.108.128.091c.05.034.1.068.153.1s.089.06.135.089c.089.056.181.111.275.165.058.033.118.066.178.1l.142.077.2.1.136.066c.072.035.144.069.219.1l.107.048q.415.185.876.354l.094.035c.1.036.2.07.3.1l.087.029c.432.143.891.274,1.37.4a30.59,30.59,0,0,0,2.158-6.07C234.524,339.172,233.736,332.955,231.041,332.293Z" transform="translate(-216.481 -310.908)" fill="#ccc" opacity="0.6" style="mix-blend-mode: multiply;isolation: isolate"/>
            <g id="Group_7024" data-name="Group 7024" transform="translate(0 18.905)">
              <g id="Group_7023" data-name="Group 7023">
                <g id="Group_7022" data-name="Group 7022">
                  <g id="Group_7021" data-name="Group 7021">
                    <path id="Path_9843" data-name="Path 9843" d="M205.985,349.89c2.579,1.022,6.826-3.587,9.483-10.294s2.722-12.975.143-14l-2.207-.874-9.626,24.291Z" transform="translate(-201.884 -324.583)" fill="#ff931e"/>
                    <g id="Group_7018" data-name="Group 7018" transform="translate(1.903 8.015)">
                      <path id="Path_9844" data-name="Path 9844" d="M221.852,367.351l5.721,2.267q.246-.563.48-1.147L222.31,366.2Z" transform="translate(-216.372 -361.473)" fill="#d17918"/>
                      <path id="Path_9845" data-name="Path 9845" d="M218.8,373.259l5.545,2.2c.321-.6.631-1.226.928-1.879l-5.7-2.26Z" transform="translate(-214.245 -365.039)" fill="#d17918"/>
                      <path id="Path_9846" data-name="Path 9846" d="M213.655,380.446l-6.61-2.62-3.236,8.167,2.2.871C208.049,387.674,211.138,384.948,213.655,380.446Z" transform="translate(-203.809 -369.572)" fill="#d17918"/>
                      <path id="Path_9847" data-name="Path 9847" d="M229.006,351.042l5.437,2.154c.033-.14.067-.281.1-.419l-5.377-2.131Z" transform="translate(-221.354 -350.647)" fill="#d17918"/>
                      <path id="Path_9848" data-name="Path 9848" d="M232.65,358.245q.061-.206.118-.411l-5.577-2.21-.156.4Z" transform="translate(-219.98 -354.112)" fill="#d17918"/>
                      <path id="Path_9849" data-name="Path 9849" d="M224.535,361.907l5.729,2.27c.072-.2.141-.391.208-.586l-5.708-2.261Z" transform="translate(-218.24 -358.085)" fill="#d17918"/>
                    </g>
                    <g id="Group_7020" data-name="Group 7020">
                      <path id="Path_9850" data-name="Path 9850" d="M208.92,338.4c-2.658,6.708-6.9,11.316-9.484,10.294s-2.516-7.289.142-14,6.9-11.317,9.484-10.294S211.579,331.688,208.92,338.4Z" transform="translate(-197.543 -324.257)" fill="#ff931e"/>
                      <path id="Path_9851" data-name="Path 9851" d="M210.822,347.218c-.125.349-.256.7-.4,1.052-2.658,6.707-6.9,11.316-9.483,10.294-1.6-.636-2.185-3.3-1.758-6.831-2.261,6.3-2.191,11.976.253,12.944,2.58,1.022,6.826-3.587,9.484-10.294A29.474,29.474,0,0,0,210.822,347.218Z" transform="translate(-197.544 -340.245)" opacity="0.4" fill="url(#linear-gradient-14)" style="mix-blend-mode: multiply;isolation: isolate"/>
                      <path id="Path_9852" data-name="Path 9852" d="M209.871,324.738c-2.591-.8-6.727,3.761-9.336,10.342s-2.716,12.734-.283,13.929c2.591.8,6.727-3.761,9.335-10.342S212.3,325.933,209.871,324.738Zm-.863,13.7c-2.16,5.451-5.623,9.21-7.72,8.38s-2.045-5.942.116-11.393,5.624-9.21,7.72-8.38S211.169,332.986,209.008,338.438Z" transform="translate(-198.21 -324.529)" fill="#d17918"/>
                      <path id="Path_9854" data-name="Path 9854" d="M208.168,326.658c2.1.831,2.045,5.942-.116,11.393s-5.623,9.21-7.72,8.38-2.045-5.942.116-11.393,5.623-9.211,7.72-8.38m.9-2.259c-2.58-1.023-6.826,3.586-9.484,10.294s-2.722,12.974-.142,14,6.826-3.587,9.484-10.294,2.722-12.974.142-14Z" transform="translate(-197.543 -324.257)" fill="#ffc022"/>
                      <g id="Group_7019" data-name="Group 7019" transform="translate(1.971 3.608)">
                        <path id="Path_9855" data-name="Path 9855" d="M205.369,353.4c-1.82-.721-1.774-5.157.1-9.886s4.88-7.993,6.7-7.272,1.774,5.156-.1,9.887S207.188,354.117,205.369,353.4Zm6.651-16.782c-1.74-.689-4.613,2.43-6.406,6.953s-1.835,8.763-.1,9.453,4.613-2.43,6.405-6.953S213.759,337.3,212.02,336.614Z" transform="translate(-204.033 -336.137)" fill="#ffc022"/>
                      </g>
                    </g>
                  </g>
                </g>
              </g>
            </g>
            <path id="Path_9857" data-name="Path 9857" d="M334.359,372.22c4.692-.762,7.985-2.548,7.985-4.63v-2.373a2.128,2.128,0,0,1,0-2.651v-2.373a2.128,2.128,0,0,1,0-2.651v-2.373a2.128,2.128,0,0,1,0-2.651v-.034c-2.68-.94-7.681,3.1-11.5,9.409a26.294,26.294,0,0,0-3.966,10.634q.362.026.73.045h0c.548.027,1.106.042,1.673.042.536,0,1.063-.014,1.582-.038h.008a31.069,31.069,0,0,0,3.243-.318Z" transform="translate(-287.597 -324.911)" fill="#ccc" opacity="0.6" style="mix-blend-mode: multiply;isolation: isolate"/>
            <g id="Group_7031" data-name="Group 7031" transform="translate(50.335 26.705)">
              <g id="Group_7030" data-name="Group 7030">
                <g id="Group_7029" data-name="Group 7029">
                  <g id="Group_7028" data-name="Group 7028">
                    <path id="Path_9858" data-name="Path 9858" d="M374.8,375.573c-2.579,1.022-6.826-3.587-9.483-10.294s-2.722-12.975-.142-14l2.206-.874,9.626,24.291Z" transform="translate(-363.279 -350.266)" fill="#ff931e"/>
                    <g id="Group_7025" data-name="Group 7025" transform="translate(0.531 8.015)">
                      <path id="Path_9859" data-name="Path 9859" d="M376.184,393.035l-5.721,2.267q-.247-.562-.48-1.147l5.743-2.276Z" transform="translate(-368.478 -387.157)" fill="#d17918"/>
                      <path id="Path_9860" data-name="Path 9860" d="M378.616,398.943l-5.546,2.2q-.482-.9-.928-1.879l5.7-2.26Z" transform="translate(-369.982 -390.723)" fill="#d17918"/>
                      <path id="Path_9861" data-name="Path 9861" d="M376.023,406.13l6.61-2.62,3.236,8.167-2.2.871C381.629,413.358,378.54,410.632,376.023,406.13Z" transform="translate(-372.683 -395.256)" fill="#d17918"/>
                      <path id="Path_9862" data-name="Path 9862" d="M370.56,376.726l-5.437,2.154c-.033-.14-.067-.281-.1-.419l5.377-2.131Z" transform="translate(-365.026 -376.331)" fill="#d17918"/>
                      <path id="Path_9863" data-name="Path 9863" d="M366.459,383.928c-.04-.138-.08-.274-.117-.411l5.577-2.21.157.395Z" transform="translate(-365.942 -379.797)" fill="#d17918"/>
                      <path id="Path_9864" data-name="Path 9864" d="M374.108,387.591l-5.729,2.27c-.072-.2-.14-.391-.207-.586l5.708-2.261Z" transform="translate(-367.217 -383.769)" fill="#d17918"/>
                    </g>
                    <g id="Group_7027" data-name="Group 7027" transform="translate(2.206)">
                      <path id="Path_9865" data-name="Path 9865" d="M372.58,364.079c2.658,6.707,6.9,11.316,9.484,10.294s2.516-7.289-.142-14-6.9-11.317-9.484-10.295S369.922,357.371,372.58,364.079Z" transform="translate(-370.544 -349.94)" fill="#ff931e"/>
                      <path id="Path_9866" data-name="Path 9866" d="M370.992,372.9c.125.349.256.7.4,1.052,2.658,6.707,6.9,11.316,9.483,10.294,1.6-.636,2.185-3.3,1.758-6.831,2.261,6.3,2.191,11.976-.254,12.944-2.58,1.022-6.826-3.587-9.484-10.294A29.486,29.486,0,0,1,370.992,372.9Z" transform="translate(-370.856 -365.928)" opacity="0.4" fill="url(#linear-gradient-15)" style="mix-blend-mode: multiply;isolation: isolate"/>
                      <path id="Path_9867" data-name="Path 9867" d="M372.583,364.351c2.608,6.581,6.744,11.138,9.335,10.342,2.433-1.2,2.325-7.348-.282-13.929s-6.744-11.138-9.336-10.342C369.867,351.617,369.974,357.77,372.583,364.351Zm.463-11.622c2.1-.831,5.559,2.928,7.72,8.38s2.213,10.562.116,11.393-5.559-2.928-7.72-8.379S370.95,353.56,373.046,352.729Z" transform="translate(-370.547 -350.213)" fill="#d17918"/>
                      <path id="Path_9869" data-name="Path 9869" d="M373.333,352.342c2.1-.831,5.56,2.928,7.72,8.38s2.212,10.562.116,11.393-5.559-2.928-7.72-8.379-2.212-10.562-.116-11.393m-.9-2.259c-2.58,1.022-2.516,7.289.142,14s6.9,11.316,9.484,10.294,2.516-7.289-.142-14-6.9-11.317-9.484-10.295Z" transform="translate(-370.544 -349.94)" fill="#ffc022"/>
                      <g id="Group_7026" data-name="Group 7026" transform="translate(1.971 3.608)">
                        <path id="Path_9870" data-name="Path 9870" d="M378.471,371.808c-1.875-4.731-1.92-9.166-.1-9.887s4.824,2.541,6.7,7.272,1.92,9.165.1,9.886S380.346,376.537,378.471,371.808Zm.145-.057c1.792,4.522,4.666,7.642,6.405,6.952s1.7-4.93-.1-9.453-4.666-7.641-6.406-6.952S376.824,367.227,378.616,371.75Z" transform="translate(-377.035 -361.82)" fill="#ffc022"/>
                      </g>
                    </g>
                  </g>
                </g>
              </g>
            </g>
          </g>
          <path id="Path_9872" data-name="Path 9872" d="M236.326,339.727l-.533-1.35-.533,1.35-1.35.533,1.35.533.533,1.35.533-1.35,1.35-.533Z" transform="translate(-222.866 -315.184)" fill="#fff"/>
          <path id="Path_9873" data-name="Path 9873" d="M362.557,335.019l-.533-1.35-.533,1.35-1.35.533,1.35.533.533,1.35.533-1.35,1.35-.533Z" transform="translate(-310.76 -311.906)" fill="#fff"/>
          <path id="Path_9874" data-name="Path 9874" d="M403.934,285.441l-.533-1.35-.533,1.35-1.35.533,1.35.533.533,1.35.533-1.35,1.35-.533Z" transform="translate(-339.57 -277.385)" fill="#fff"/>
          <path id="Path_9875" data-name="Path 9875" d="M297.937,367.279l-.533-1.35-.533,1.35-1.35.533,1.35.533.533,1.35.533-1.35,1.35-.533Z" transform="translate(-265.765 -334.368)" fill="#fff"/>
        </g>
        <path id="Path_9876" data-name="Path 9876" d="M217.748,156.178s-7.228,5.279-9.494,9.307c0,0,9.659-7.16,14.82-9.307Z" transform="translate(-170.308 -129.24)" fill="#dab873"/>
        <path id="Path_9877" data-name="Path 9877" d="M246.658,156.178a20.483,20.483,0,0,1,8.294,9.307,20.039,20.039,0,0,0-3.254-9.307Z" transform="translate(-197.049 -129.24)" fill="#dab873"/>
        <path id="Path_9878" data-name="Path 9878" d="M283.081,199.865a102.392,102.392,0,0,1,7.544,19.185S291.2,207.689,283.081,199.865Z" transform="translate(-222.41 -159.659)" fill="#dab873"/>
        <path id="Path_9879" data-name="Path 9879" d="M304.405,203.7a102.4,102.4,0,0,1,7.544,19.185S312.525,211.52,304.405,203.7Z" transform="translate(-237.258 -162.326)" fill="#e8c47b"/>
        <path id="Path_9880" data-name="Path 9880" d="M279.143,211.937a43.717,43.717,0,0,1,15.665.585A20.3,20.3,0,0,0,279.143,211.937Z" transform="translate(-219.668 -167.142)" fill="#e8c47b"/>
        <path id="Path_9881" data-name="Path 9881" d="M285.044,226.487a43.72,43.72,0,0,1,15.665.585A20.3,20.3,0,0,0,285.044,226.487Z" transform="translate(-223.777 -177.273)" fill="#e8c47b"/>
        <g id="Group_7034" data-name="Group 7034" transform="translate(59.475 43.503)">
          <path id="Path_9882" data-name="Path 9882" d="M285.044,226.533a45.211,45.211,0,0,1,6.522-.453q-.178-.422-.367-.852A18.432,18.432,0,0,0,285.044,226.533Z" transform="translate(-283.252 -220.822)" fill="#dab873"/>
          <path id="Path_9883" data-name="Path 9883" d="M285.419,211.56q-.21-.419-.429-.841a18.4,18.4,0,0,0-5.847,1.292A44.894,44.894,0,0,1,285.419,211.56Z" transform="translate(-279.143 -210.719)" fill="#dab873"/>
        </g>
        <path id="Path_9884" data-name="Path 9884" d="M212.2,79.5l10.464,19.575V78.2q-.3.124-.605.247l-.109.044q-.306.122-.615.24l-.024.009q-.318.121-.637.234l-.131.046q-.25.087-.5.169l-.17.055c-.193.061-.385.119-.577.173l-.051.015c-.205.057-.41.109-.613.156l-.166.037q-.231.051-.46.093l-.176.031c-.2.033-.4.063-.6.084A16.777,16.777,0,0,1,212.2,79.5Z" transform="translate(-173.058 -74.947)" fill="#dab873"/>
        <path id="Path_9885" data-name="Path 9885" d="M201.563,79.782c-.218-.061-.462-.136-.722-.217l8.683,13.307L203.172,80.2C202.626,80.071,202.088,79.928,201.563,79.782Z" transform="translate(-165.147 -75.894)" fill="#dab873"/>
        <path id="Path_9886" data-name="Path 9886" d="M296.911,70.851c1.618-1.236,1.949-3.035-.937-3.33-5.059-.517-8.412,3.846-13.446,4.2l-11.583,22.7h4.5Z" transform="translate(-213.96 -67.479)" fill="#dab873"/>
        <path id="Path_9887" data-name="Path 9887" d="M275.545,94.27l8.572-17.125a7.8,7.8,0,0,1-4.037-1.835Z" transform="translate(-217.163 -72.931)" fill="#dab873"/>
      </g>
      <g id="Group_7039" data-name="Group 7039" transform="translate(41.069 21.89)">
        <g id="Group_7037" data-name="Group 7037">
          <path id="Path_9890" data-name="Path 9890" d="M243.223,143.786a1.358,1.358,0,0,1-.294-.032c-7.919-1.748-22.56,0-22.707.022a1.574,1.574,0,0,1-1.673-1.515,1.672,1.672,0,0,1,1.346-1.883c.619-.076,15.246-1.827,23.619.022a1.711,1.711,0,0,1,1.2,2.006A1.577,1.577,0,0,1,243.223,143.786Z" transform="translate(-218.539 -139.555)" fill="#ff931e"/>
        </g>
        <g id="Group_7038" data-name="Group 7038" transform="translate(0.966 0)">
          <path id="Path_9891" data-name="Path 9891" d="M251.618,139.756q-.38.013-.753.028a10.991,10.991,0,0,0-1.4,3.5l.637-.032A10.382,10.382,0,0,1,251.618,139.756Z" transform="translate(-241.036 -139.695)" fill="#bf6e17"/>
          <path id="Path_9892" data-name="Path 9892" d="M237.637,140.494l-.753.054a11.21,11.21,0,0,0-1.309,3.537l.633-.052A10.6,10.6,0,0,1,237.637,140.494Z" transform="translate(-231.367 -140.209)" fill="#bf6e17"/>
          <path id="Path_9893" data-name="Path 9893" d="M244.646,140.061l-.754.042a11.1,11.1,0,0,0-1.364,3.518l.632-.042A10.458,10.458,0,0,1,244.646,140.061Z" transform="translate(-236.209 -139.908)" fill="#bf6e17"/>
          <path id="Path_9894" data-name="Path 9894" d="M230.592,141.048l-.749.066a11.283,11.283,0,0,0-1.245,3.553l.634-.063A10.723,10.723,0,0,1,230.592,141.048Z" transform="translate(-226.509 -140.595)" fill="#bf6e17"/>
          <path id="Path_9895" data-name="Path 9895" d="M222.852,141.8a11.376,11.376,0,0,0-1.132,3.374,1.36,1.36,0,0,0,.6.116,10.81,10.81,0,0,1,1.279-3.569C223.312,141.754,223.063,141.781,222.852,141.8Z" transform="translate(-221.72 -141.066)" fill="#bf6e17"/>
          <path id="Path_9896" data-name="Path 9896" d="M292.3,141.287q-.32-.054-.65-.1a11.229,11.229,0,0,0-1.2,3.28c.2.025.406.051.6.079A10.679,10.679,0,0,1,292.3,141.287Z" transform="translate(-269.574 -140.69)" fill="#bf6e17"/>
          <path id="Path_9897" data-name="Path 9897" d="M298.223,142.321l-.037-.008a11.415,11.415,0,0,0-1.074,3.253c.178.035.354.07.526.108.023.005.046,0,.07.008a10.9,10.9,0,0,1,1.04-3.121A1.42,1.42,0,0,0,298.223,142.321Z" transform="translate(-274.215 -141.476)" fill="#bf6e17"/>
          <path id="Path_9898" data-name="Path 9898" d="M279.024,139.963q-.349-.024-.7-.044a11.016,11.016,0,0,0-1.362,3.36q.312.011.623.026A10.411,10.411,0,0,1,279.024,139.963Z" transform="translate(-260.183 -139.809)" fill="#bf6e17"/>
          <path id="Path_9899" data-name="Path 9899" d="M285.7,140.486c-.224-.025-.449-.049-.677-.071a11.087,11.087,0,0,0-1.3,3.318q.31.023.615.049A10.526,10.526,0,0,1,285.7,140.486Z" transform="translate(-264.896 -140.154)" fill="#bf6e17"/>
          <path id="Path_9900" data-name="Path 9900" d="M272.267,139.667q-.36-.013-.721-.022a10.945,10.945,0,0,0-1.406,3.4l.628.007A10.342,10.342,0,0,1,272.267,139.667Z" transform="translate(-255.435 -139.618)" fill="#bf6e17"/>
          <path id="Path_9901" data-name="Path 9901" d="M264.707,139.556a10.924,10.924,0,0,0-1.426,3.435l.632-.008a10.325,10.325,0,0,1,1.528-3.423Z" transform="translate(-250.659 -139.556)" fill="#bf6e17"/>
          <path id="Path_9902" data-name="Path 9902" d="M258.556,139.587l-.745.013a10.947,10.947,0,0,0-1.424,3.467l.635-.021A10.347,10.347,0,0,1,258.556,139.587Z" transform="translate(-245.858 -139.578)" fill="#bf6e17"/>
        </g>
        <path id="Path_9903" data-name="Path 9903" d="M243.223,146.44a1.358,1.358,0,0,1-.294-.032c-7.918-1.748-22.56,0-22.707.022a1.5,1.5,0,0,1-1.536-.97,1.888,1.888,0,0,0-.137.912,1.574,1.574,0,0,0,1.673,1.515c.147-.017,14.789-1.77,22.707-.022a1.357,1.357,0,0,0,.294.032,1.577,1.577,0,0,0,1.488-1.38,1.883,1.883,0,0,0-.122-1.058A1.515,1.515,0,0,1,243.223,146.44Z" transform="translate(-218.54 -143.665)" fill="#b3b3b3" opacity="0.8" style="mix-blend-mode: multiply;isolation: isolate"/>
      </g>
      <g id="Group_7042" data-name="Group 7042" transform="translate(41.069 25.323)">
        <g id="Group_7040" data-name="Group 7040" transform="translate(0 0)">
          <path id="Path_9904" data-name="Path 9904" d="M243.223,155.09a1.378,1.378,0,0,1-.294-.032c-7.919-1.748-22.56,0-22.707.022a1.574,1.574,0,0,1-1.673-1.515,1.672,1.672,0,0,1,1.346-1.883c.619-.076,15.246-1.827,23.619.022a1.71,1.71,0,0,1,1.2,2.006A1.577,1.577,0,0,1,243.223,155.09Z" transform="translate(-218.539 -150.859)" fill="#ff931e"/>
        </g>
        <g id="Group_7041" data-name="Group 7041" transform="translate(0.966 0)">
          <path id="Path_9905" data-name="Path 9905" d="M251.618,151.06l-.753.028a10.991,10.991,0,0,0-1.4,3.5l.637-.032A10.379,10.379,0,0,1,251.618,151.06Z" transform="translate(-241.036 -150.999)" fill="#bf6e17"/>
          <path id="Path_9906" data-name="Path 9906" d="M237.637,151.8l-.753.054a11.21,11.21,0,0,0-1.309,3.537l.633-.052A10.6,10.6,0,0,1,237.637,151.8Z" transform="translate(-231.367 -151.513)" fill="#bf6e17"/>
          <path id="Path_9907" data-name="Path 9907" d="M244.646,151.365l-.754.042a11.1,11.1,0,0,0-1.364,3.518l.632-.043A10.458,10.458,0,0,1,244.646,151.365Z" transform="translate(-236.209 -151.212)" fill="#bf6e17"/>
          <path id="Path_9908" data-name="Path 9908" d="M230.592,152.352l-.749.066a11.283,11.283,0,0,0-1.245,3.553l.634-.063A10.72,10.72,0,0,1,230.592,152.352Z" transform="translate(-226.509 -151.899)" fill="#bf6e17"/>
          <path id="Path_9909" data-name="Path 9909" d="M222.852,153.108a11.376,11.376,0,0,0-1.132,3.374,1.36,1.36,0,0,0,.6.116,10.811,10.811,0,0,1,1.279-3.569C223.312,153.058,223.063,153.085,222.852,153.108Z" transform="translate(-221.72 -152.37)" fill="#bf6e17"/>
          <path id="Path_9910" data-name="Path 9910" d="M292.3,152.591q-.32-.054-.65-.1a11.225,11.225,0,0,0-1.2,3.28c.2.025.406.051.6.079A10.68,10.68,0,0,1,292.3,152.591Z" transform="translate(-269.574 -151.994)" fill="#bf6e17"/>
          <path id="Path_9911" data-name="Path 9911" d="M298.223,153.624l-.037-.008a11.417,11.417,0,0,0-1.074,3.253c.178.035.354.07.526.108.023.005.046,0,.07.008a10.9,10.9,0,0,1,1.04-3.121A1.416,1.416,0,0,0,298.223,153.624Z" transform="translate(-274.215 -152.779)" fill="#bf6e17"/>
          <path id="Path_9912" data-name="Path 9912" d="M279.024,151.267c-.233-.016-.467-.031-.7-.044a11.015,11.015,0,0,0-1.362,3.36q.312.011.623.025A10.408,10.408,0,0,1,279.024,151.267Z" transform="translate(-260.183 -151.113)" fill="#bf6e17"/>
          <path id="Path_9913" data-name="Path 9913" d="M285.7,151.789c-.224-.025-.449-.049-.677-.071a11.089,11.089,0,0,0-1.3,3.319q.31.022.615.049A10.532,10.532,0,0,1,285.7,151.789Z" transform="translate(-264.896 -151.457)" fill="#bf6e17"/>
          <path id="Path_9914" data-name="Path 9914" d="M272.267,150.971q-.36-.013-.721-.022a10.944,10.944,0,0,0-1.406,3.4l.628.007A10.338,10.338,0,0,1,272.267,150.971Z" transform="translate(-255.435 -150.922)" fill="#bf6e17"/>
          <path id="Path_9915" data-name="Path 9915" d="M264.707,150.86a10.92,10.92,0,0,0-1.426,3.435l.632-.008a10.324,10.324,0,0,1,1.528-3.423Q265.074,150.86,264.707,150.86Z" transform="translate(-250.659 -150.86)" fill="#bf6e17"/>
          <path id="Path_9916" data-name="Path 9916" d="M258.556,150.891q-.374,0-.745.013a10.943,10.943,0,0,0-1.424,3.467l.635-.021A10.347,10.347,0,0,1,258.556,150.891Z" transform="translate(-245.858 -150.882)" fill="#bf6e17"/>
        </g>
        <path id="Path_9917" data-name="Path 9917" d="M243.223,157.744a1.376,1.376,0,0,1-.294-.032c-7.918-1.748-22.56,0-22.707.022a1.5,1.5,0,0,1-1.536-.97,1.888,1.888,0,0,0-.137.912,1.574,1.574,0,0,0,1.673,1.515c.147-.018,14.789-1.77,22.707-.022a1.377,1.377,0,0,0,.294.032,1.577,1.577,0,0,0,1.488-1.38,1.882,1.882,0,0,0-.122-1.058A1.515,1.515,0,0,1,243.223,157.744Z" transform="translate(-218.54 -154.969)" fill="#b3b3b3" opacity="0.8" style="mix-blend-mode: multiply;isolation: isolate"/>
      </g>
    </g>
    <text id=".." transform="translate(1605.695 185.189)" fill="#333" font-size="22" font-family="Axiforma-SemiBold, Axiforma" font-weight="600"><tspan x="0" y="0">.</tspan><tspan y="0" font-family="SegoeUI-Semibold, Segoe UI">.</tspan><tspan y="0">.</tspan></text>
  </g>
</svg>
