<svg xmlns="http://www.w3.org/2000/svg" width="18.922" height="23.048" viewBox="0 0 18.922 23.048">
  <g id="location" transform="translate(0.461 0.4)">
    <g id="Group_3592" data-name="Group 3592">
      <g id="Group_3591" data-name="Group 3591">
        <path id="Path_7500" data-name="Path 7500" d="M65.271,3.868a8.983,8.983,0,0,0-14.77,0,8.985,8.985,0,0,0-1.046,8.278,7.076,7.076,0,0,0,1.3,2.153l6.535,7.675a.777.777,0,0,0,1.184,0L65.011,14.3a7.083,7.083,0,0,0,1.3-2.15A8.986,8.986,0,0,0,65.271,3.868Zm-.413,7.738a5.549,5.549,0,0,1-1.026,1.681l0,0-5.942,6.98L51.94,13.287A5.552,5.552,0,0,1,50.912,11.6a7.432,7.432,0,0,1,.869-6.848,7.427,7.427,0,0,1,12.21,0A7.433,7.433,0,0,1,64.858,11.606Z" transform="translate(-48.886)" fill="#898989" stroke="#fff" stroke-width="0.8"/>
      </g>
    </g>
    <g id="Group_3594" data-name="Group 3594" transform="translate(4.644 4.616)">
      <g id="Group_3593" data-name="Group 3593">
        <path id="Path_7501" data-name="Path 7501" d="M160.11,106.219a4.356,4.356,0,1,0,4.356,4.356A4.361,4.361,0,0,0,160.11,106.219Zm0,7.157a2.8,2.8,0,1,1,2.8-2.8A2.8,2.8,0,0,1,160.11,113.376Z" transform="translate(-155.754 -106.219)" fill="#898989" stroke="#fff" stroke-width="0.8"/>
      </g>
    </g>
  </g>
</svg>
