<svg xmlns="http://www.w3.org/2000/svg" width="38.08" height="36.857" viewBox="0 0 38.08 36.857">
  <path id="Path_10367" data-name="Path 10367" d="M1277.26,44.959l1.207-26.779a1.718,1.718,0,0,0-2.155-1.738L1249.2,23.623a1.7,1.7,0,0,1-1.518-.362,3.634,3.634,0,1,0-4.151,5.939,1.747,1.747,0,0,1,.883,1.539l-.326,14.524a1.689,1.689,0,0,1-.762,1.346,3.633,3.633,0,1,0,4.089-.016,1.753,1.753,0,0,1-.743-1.421l-.325-14.436a1.749,1.749,0,0,1,.882-1.538,3.639,3.639,0,0,0,1.5-1.7,1.672,1.672,0,0,1,1.207-.955l22.161-4.6a1.717,1.717,0,0,1,2.065,1.6l.966,21.414a1.723,1.723,0,0,1-.829,1.545,3.661,3.661,0,0,0-1.2,1.2,1.738,1.738,0,0,1-1.664.848l-7.188-.8a1.718,1.718,0,0,1-1.521-1.553l-.668-7.415a1.723,1.723,0,0,1,.775-1.572,3.629,3.629,0,0,0,1.59-2.932,3.673,3.673,0,0,0-3.492-3.705,3.635,3.635,0,0,0-2.2,6.629,1.759,1.759,0,0,1,.785,1.6L1258.5,50.035a1.718,1.718,0,0,0,1.9,1.861l10.989-1.225a1.727,1.727,0,0,1,1.682.8,3.634,3.634,0,1,0,5.039-4.949,1.752,1.752,0,0,1-.85-1.563Z" transform="translate(-1241.746 -16.385)" fill="#1e428a"/>
</svg>
