<svg xmlns="http://www.w3.org/2000/svg" width="180.223" height="36.859" viewBox="0 0 180.223 36.859">
  <g id="Logo" transform="translate(-1241.749 -16.384)">
    <g id="Group_8335" data-name="Group 8335" transform="translate(1288.912 19.004)">
      <path id="Path_10361" data-name="Path 10361" d="M46.387,131.9H31.132c.579,3.044,2.718,5.109,6.486,5.109a12.19,12.19,0,0,0,6.631-2.1l1.667,2.935a14.74,14.74,0,0,1-8.443,2.718c-7.32,0-10.473-5.11-10.473-10.255a10.067,10.067,0,0,1,2.754-7.284,9.612,9.612,0,0,1,7.212-2.9,9.341,9.341,0,0,1,6.885,2.645,9.732,9.732,0,0,1,2.682,7.21A13.272,13.272,0,0,1,46.387,131.9Zm-15.255-3.261H42.51a5.423,5.423,0,0,0-5.545-5.073A5.849,5.849,0,0,0,31.132,128.635Z" transform="translate(-27 -112.654)" fill="#1e428a"/>
      <path id="Path_10362" data-name="Path 10362" d="M252.935,80.231a7.532,7.532,0,0,1-2.246,5.435,8.2,8.2,0,0,1-6.124,2.283H233.15V61.17h10.908a7.252,7.252,0,0,1,5.472,1.993,6.394,6.394,0,0,1,1.993,4.674,5.814,5.814,0,0,1-3.66,5.472A6.816,6.816,0,0,1,252.935,80.231ZM237.281,64.975V71.9H243.3a3.66,3.66,0,0,0,3.986-3.588c0-1.849-1.485-3.334-3.841-3.334Zm6.56,19.169c2.935,0,4.747-1.957,4.747-4.24,0-2.356-1.7-4.312-4.856-4.312h-6.451v8.552Z" transform="translate(-209.451 -60.481)" fill="#1e428a"/>
      <path id="Path_10363" data-name="Path 10363" d="M431.42,57.825a2.663,2.663,0,0,1,2.755-2.645,2.682,2.682,0,0,1,0,5.363A2.677,2.677,0,0,1,431.42,57.825Zm4.674,24.823h-3.986V63.116h3.986Z" transform="translate(-384.927 -55.18)" fill="#1e428a"/>
      <path id="Path_11552" data-name="Path 11552" d="M431.42,59.191A4.037,4.037,0,0,1,435.6,55.18a4.066,4.066,0,0,1,0,8.131A4.059,4.059,0,0,1,431.42,59.191Z" transform="translate(-306.547 -35.408)" fill="#05d94e"/>
      <path id="Path_10364" data-name="Path 10364" d="M513.05,139.839V120.307h3.913v2.754a6.861,6.861,0,0,1,6.2-3.261,7.578,7.578,0,0,1,5.435,2.1,7.93,7.93,0,0,1,2.246,6.052v11.886h-4.023V129.076c0-3.588-1.884-5.58-4.674-5.58-3.007,0-5.109,2.319-5.109,5.653v10.69Z" transform="translate(-457.173 -112.371)" fill="#1e428a"/>
      <path id="Path_10365" data-name="Path 10365" d="M712.915,120.581h3.841v19.532h-3.841v-2.682a8.408,8.408,0,0,1-6.668,3.152,9.147,9.147,0,0,1-6.993-2.972,10.447,10.447,0,0,1-2.755-7.392,9.98,9.98,0,0,1,2.755-7.247,9.313,9.313,0,0,1,6.993-2.863,8.334,8.334,0,0,1,6.668,3.189ZM711.321,135a6.992,6.992,0,0,0,0-9.313,5.94,5.94,0,0,0-4.53-1.921,5.879,5.879,0,0,0-4.529,1.921,7.15,7.15,0,0,0,0,9.349,5.857,5.857,0,0,0,4.529,1.884A5.937,5.937,0,0,0,711.321,135Z" transform="translate(-619.533 -112.646)" fill="#1e428a"/>
      <path id="Path_10366" data-name="Path 10366" d="M920.015,120.581h3.841v19.532h-3.841v-2.682a8.408,8.408,0,0,1-6.668,3.152,9.147,9.147,0,0,1-6.993-2.972,10.446,10.446,0,0,1-2.755-7.392,9.979,9.979,0,0,1,2.755-7.247,9.313,9.313,0,0,1,6.993-2.863,8.334,8.334,0,0,1,6.668,3.189ZM918.421,135a6.992,6.992,0,0,0,0-9.313,5.94,5.94,0,0,0-4.529-1.921,5.879,5.879,0,0,0-4.529,1.921,7.151,7.151,0,0,0,0,9.349,5.857,5.857,0,0,0,4.529,1.884A5.941,5.941,0,0,0,918.421,135Z" transform="translate(-802.824 -112.646)" fill="#1e428a"/>
    </g>
    <path id="Path_10367" data-name="Path 10367" d="M1277.262,44.959l1.207-26.779a1.718,1.718,0,0,0-2.155-1.738l-27.108,7.181a1.7,1.7,0,0,1-1.518-.362,3.612,3.612,0,0,0-2.572-.816,3.634,3.634,0,0,0-1.579,6.755,1.747,1.747,0,0,1,.883,1.539l-.326,14.524a1.689,1.689,0,0,1-.762,1.346,3.628,3.628,0,0,0-1.583,2.98,3.636,3.636,0,1,0,7.272.016,3.624,3.624,0,0,0-1.6-3.012,1.753,1.753,0,0,1-.743-1.421l-.325-14.436a1.749,1.749,0,0,1,.882-1.538,3.639,3.639,0,0,0,1.5-1.7,1.672,1.672,0,0,1,1.207-.955l22.161-4.6a1.717,1.717,0,0,1,2.065,1.6l.966,21.414a1.723,1.723,0,0,1-.829,1.545A3.661,3.661,0,0,0,1273.1,47.7a1.738,1.738,0,0,1-1.664.848l-7.188-.8a1.718,1.718,0,0,1-1.521-1.553l-.668-7.415a1.723,1.723,0,0,1,.775-1.572,3.629,3.629,0,0,0,1.59-2.932,3.673,3.673,0,0,0-3.492-3.705,3.635,3.635,0,0,0-2.2,6.629,1.759,1.759,0,0,1,.785,1.6L1258.5,50.035a1.718,1.718,0,0,0,1.9,1.861l10.989-1.225a1.727,1.727,0,0,1,1.682.8,3.634,3.634,0,1,0,5.039-4.949A1.752,1.752,0,0,1,1277.262,44.959Z" transform="translate(0)" fill="#1e428a"/>
  </g>
</svg>
