<svg xmlns="http://www.w3.org/2000/svg" width="34.246" height="25.165" viewBox="0 0 34.246 25.165">
  <path id="Low_Cost_Construction" data-name="Low Cost Construction" d="M23.4,25.165a1.288,1.288,0,0,1-.754-.24,1.322,1.322,0,0,1-.758.24H12.363a1.331,1.331,0,0,1-1.326-1.331v-3.28a1.337,1.337,0,0,1,.02-.2H6.84a1.325,1.325,0,0,1-1.318-1.331v-3.28a1.662,1.662,0,0,1,.016-.194H1.32A1.328,1.328,0,0,1,0,14.222V10.943a1.327,1.327,0,0,1,1.32-1.33H5.537a1.728,1.728,0,0,1-.016-.2V6.137a1.661,1.661,0,0,1,.016-.2H1.32A1.323,1.323,0,0,1,0,4.609V1.33A1.328,1.328,0,0,1,1.32,0h9.527a1.329,1.329,0,0,1,1.318,1.33V4.609a1.629,1.629,0,0,1-.014.2h4.217a1.313,1.313,0,0,1,.754.241,1.289,1.289,0,0,1,.752-.241h9.531a1.328,1.328,0,0,1,1.316,1.331V9.416c0,.062-.008.133-.012.2H32.93a1.328,1.328,0,0,1,1.316,1.33v3.278a1.328,1.328,0,0,1-1.316,1.331H28.182a.566.566,0,0,1,0-1.133H32.93a.18.18,0,0,0,.129-.058.2.2,0,0,0,.059-.141V10.943a.2.2,0,0,0-.187-.2H23.4a.2.2,0,0,0-.2.2v3.278a.2.2,0,0,0,.2.2h2.586a.566.566,0,0,1,0,1.133H23.4a1.308,1.308,0,0,1-.754-.239,1.343,1.343,0,0,1-.758.239H17.674c.006.063.016.133.016.194v3.28c0,.063-.01.127-.016.2h.982a.567.567,0,0,1,0,1.135H12.363a.2.2,0,0,0-.2.2v3.28a.2.2,0,0,0,.2.2h9.523a.2.2,0,0,0,.193-.2V20.563a.2.2,0,0,0-.193-.205H20.854a.567.567,0,0,1,0-1.135h1.033a1.33,1.33,0,0,1,.758.241,1.3,1.3,0,0,1,.754-.241H32.93a1.329,1.329,0,0,1,1.316,1.33v3.28a1.329,1.329,0,0,1-1.316,1.331Zm-.2-4.611v3.28a.2.2,0,0,0,.2.2H32.93a.2.2,0,0,0,.188-.2v-3.28a.2.2,0,0,0-.187-.2H23.4A.2.2,0,0,0,23.2,20.554ZM6.645,15.747v3.28a.2.2,0,0,0,.2.2h9.529a.192.192,0,0,0,.189-.2v-3.28a.193.193,0,0,0-.189-.194H6.84A.2.2,0,0,0,6.645,15.747Zm5.521-4.8v3.278a.2.2,0,0,0,.2.2h9.523a.2.2,0,0,0,.193-.2V10.949a.2.2,0,0,0-.193-.2H12.363A.2.2,0,0,0,12.166,10.943Zm-11.037,0v3.278a.2.2,0,0,0,.057.141.193.193,0,0,0,.135.058h9.527a.2.2,0,0,0,.189-.2V10.949a.2.2,0,0,0-.189-.2H1.32A.2.2,0,0,0,1.129,10.943Zm16.561-2.2v.668a.194.194,0,0,0,.186.2h9.531a.2.2,0,0,0,.2-.2V6.137a.2.2,0,0,0-.2-.2H17.875a.193.193,0,0,0-.186.2V6.53a.565.565,0,1,1-1.131,0V6.144a.2.2,0,0,0-.189-.2H6.84a.2.2,0,0,0-.2.2V9.416a.2.2,0,0,0,.2.2h9.529a.2.2,0,0,0,.189-.2V8.748a.565.565,0,1,1,1.131,0ZM1.129,1.33V4.609a.2.2,0,0,0,.191.2h9.527a.2.2,0,0,0,.189-.2V1.33a.188.188,0,0,0-.189-.189H1.32A.19.19,0,0,0,1.129,1.33Z" fill="#333"/>
</svg>
