<svg xmlns="http://www.w3.org/2000/svg" width="65.182" height="126.026" viewBox="0 0 65.182 126.026">
  <g id="Group_7650" data-name="Group 7650" transform="translate(0 -0.004)">
    <g id="Group_7558" data-name="Group 7558">
      <g id="Group_7550" data-name="Group 7550" transform="translate(0 8.899)">
        <path id="Path_10060" data-name="Path 10060" d="M12.906,12.519a1.41,1.41,0,0,0,.492,2.562,17.665,17.665,0,0,1,9.046,5.648c10.5,11.348,20.83-1.1,20.83-1.1S39.772-5.02,12.906,12.519Z" transform="translate(-12.265 -6.22)" fill="#05d94e"/>
      </g>
      <g id="Group_7551" data-name="Group 7551" transform="translate(10.354 14.776)">
        <path id="Path_10061" data-name="Path 10061" d="M43.124,18.824c-.1.584-.2,1.168-.279,1.752a1.343,1.343,0,0,1-1.726-.025c-.025,0-.025,0-.051-.025a.351.351,0,0,0-.076-.1l-.051-.051A40.282,40.282,0,0,0,30.2,11.946,28.86,28.86,0,0,0,23.7,9.56a21.282,21.282,0,0,0-6.955-.3,22.824,22.824,0,0,1,7.089-.36,30.053,30.053,0,0,1,6.929,1.827,39.062,39.062,0,0,1,6.371,3.351,51.181,51.181,0,0,1,4.7,3.5c.355.3.736.635,1.092.965a.533.533,0,0,1,.2.281Z" transform="translate(-16.752 -8.767)" fill="#01b13e"/>
      </g>
      <g id="Group_7552" data-name="Group 7552" transform="translate(0.002 15.289)">
        <path id="Path_10062" data-name="Path 10062" d="M43.272,16s-10.32,12.461-20.828,1.1c-3.39-3.655-6.644-5.113-9.044-5.641a1.4,1.4,0,0,1-.6-2.476,1.424,1.424,0,0,0,.788.468,17.709,17.709,0,0,1,9.042,5.656c9.142,9.876,18.154,1.72,20.335-.553A13.184,13.184,0,0,1,43.272,16Z" transform="translate(-12.266 -8.989)" fill="#01b13e"/>
      </g>
      <g id="Group_7556" data-name="Group 7556" transform="translate(36.636)">
        <g id="Group_7553" data-name="Group 7553">
          <path id="Path_10063" data-name="Path 10063" d="M55.375,6.292c-.22.188-.452.363-.672.552a19.6,19.6,0,0,0-5.426,8.315C44.807,27.378,34.245,24.732,30.24,23.2c-.212-.081-.411-.173-.585-.238l-.012-.014a4.468,4.468,0,0,1-.906-.417c-.012-.014-.025,0-.037-.016h-.026s-.029-.118-.065-.326a9.994,9.994,0,0,1-.2-1.095C27.4,14.439,29.144,7.88,35.205,4.6c5.973-2.869,12.421-2.551,19.227-1.384.051,0,.114.022.165.026A1.717,1.717,0,0,1,55.375,6.3Z" transform="translate(-28.141 -2.363)" fill="#5bc658"/>
        </g>
        <g id="Group_7554" data-name="Group 7554">
          <path id="Path_10064" data-name="Path 10064" d="M55.375,6.292c-.22.188-.452.363-.672.552a19.6,19.6,0,0,0-5.426,8.315C44.807,27.378,34.245,24.732,30.24,23.2c-.212-.081-.411-.173-.585-.238l-.012-.014a4.468,4.468,0,0,1-.906-.417c-.012-.014-.025,0-.037-.016h-.026s-.029-.118-.065-.326a9.994,9.994,0,0,1-.2-1.095C27.4,14.439,29.144,7.88,35.205,4.6c5.973-2.869,12.421-2.551,19.227-1.384.051,0,.114.022.165.026A1.717,1.717,0,0,1,55.375,6.3Z" transform="translate(-28.141 -2.363)" fill="#05d94e"/>
        </g>
        <g id="Group_7555" data-name="Group 7555" transform="translate(0.309 0.849)">
          <path id="Path_10065" data-name="Path 10065" d="M55.2,5.811c-.22.188-.452.363-.672.552A19.6,19.6,0,0,0,49.1,14.678C44.631,26.9,34.069,24.251,30.064,22.72c-.212-.081-.411-.173-.585-.238l-.012-.014a4.468,4.468,0,0,1-.906-.417c-.012-.014-.025,0-.037-.016l-.012-.014-.078-.314q-.07-.333-.158-.938a23.306,23.306,0,0,0,2.281.743c4.807,1.3,13.111,1.751,16.943-8.7a19.861,19.861,0,0,1,5.414-8.329c.22-.189.464-.349.684-.538a1.706,1.706,0,0,0,.659-1.208c.051,0,.114.022.165.026A1.717,1.717,0,0,1,55.2,5.811Z" transform="translate(-28.275 -2.731)" fill="#01b13e"/>
        </g>
      </g>
      <g id="Group_7557" data-name="Group 7557" transform="translate(34.237 3.742)">
        <path id="Path_10066" data-name="Path 10066" d="M47.688,3.985c-1.65.99-3.325,1.929-4.95,2.944a46.839,46.839,0,0,0-4.493,3.554,28.965,28.965,0,0,0-6.777,9.011,21.943,21.943,0,0,0-1.878,5.584c-.1.584-.2,1.168-.279,1.752a32.467,32.467,0,0,0-.254,3.5,28.923,28.923,0,0,0,2.056,10.787L28.8,42.134A30.307,30.307,0,0,1,27.15,30.28a31.69,31.69,0,0,1,.431-3.477,23.01,23.01,0,0,1,.711-2.97,22.611,22.611,0,0,1,2.031-4.924A30.246,30.246,0,0,1,37.84,10a56.672,56.672,0,0,1,4.721-3.35C44.262,5.711,45.988,4.873,47.688,3.985Z" transform="translate(-27.101 -3.985)" fill="#01b13e"/>
      </g>
    </g>
    <path id="Path_10079" data-name="Path 10079" d="M218.344,216.5v19.2l-43.883,10.97V216.5Z" transform="translate(-161.39 -164.248)" fill="#94d4ff"/>
    <path id="Path_10086" data-name="Path 10086" d="M204.8,174.357a6.856,6.856,0,0,1-6.858,6.857H151.318a6.857,6.857,0,1,1,0-13.714h46.626a6.855,6.855,0,0,1,6.856,6.857Z" transform="translate(-139.618 -128.687)" fill="#bce4ff"/>
    <path id="Path_10088" data-name="Path 10088" d="M218.344,385.5v5.485a21.941,21.941,0,1,1-43.883,0,13.693,13.693,0,0,1,10.971,5.485,13.7,13.7,0,0,1,15.8-.464A19.2,19.2,0,0,1,218.344,385.5Z" transform="translate(-161.39 -286.896)" fill="#faa71a"/>
    <path id="Path_10089" data-name="Path 10089" d="M218.344,285.5v27.427a19.2,19.2,0,0,0-17.118,10.508,13.708,13.708,0,0,0-15.8.463,13.693,13.693,0,0,0-10.971-5.485V296.471Z" transform="translate(-161.39 -214.323)" fill="#ffd400"/>
    <path id="Path_10093" data-name="Path 10093" d="M299.143,326.3a2.741,2.741,0,1,1-1.939-.8,2.741,2.741,0,0,1,1.939.8Z" transform="translate(-248.478 -243.352)" fill="#faa71a"/>
    <path id="Path_10094" data-name="Path 10094" d="M249.143,366.3a2.741,2.741,0,1,1-1.939-.8,2.741,2.741,0,0,1,1.939.8Z" transform="translate(-212.191 -272.382)" fill="#faa71a"/>
    <path id="Path_10095" data-name="Path 10095" d="M199.142,346.3a2.741,2.741,0,1,1-1.939-.8,2.741,2.741,0,0,1,1.939.8Z" transform="translate(-175.905 -257.867)" fill="#faa71a"/>
  </g>
</svg>
