<svg xmlns="http://www.w3.org/2000/svg" width="19.646" height="19.2" viewBox="0 0 19.646 19.2">
  <g id="Group_9449" data-name="Group 9449" transform="translate(0.151 0.15)">
    <g id="Group_9450" data-name="Group 9450" transform="translate(0 0)">
      <path id="Path_10254" data-name="Path 10254" d="M8.657,16.925A2.4,2.4,0,0,1,6.322,18.9a2.411,2.411,0,0,1-2.277-1.97H3.221c-.333,0-.4-.051-.483-.365q-1.349-4.975-2.7-9.95c-.127-.468.063-.737.55-.7a1.085,1.085,0,0,0,.981-.4c.353-.4.757-.765,1.135-1.149a3.33,3.33,0,0,1,1.945-.983.445.445,0,0,0,.23-.12C5.59,2.55,6.322,1.866,7,1.129A3.8,3.8,0,0,1,12.254.987Q13.385,2.065,14.46,3.2a.92.92,0,0,0,.549.3,2.916,2.916,0,0,1,1.585.836c.477.482.955.963,1.443,1.434a.569.569,0,0,0,.307.127c.158.021.321,0,.482.007.51.028.589.195.482.617-.236.925-.491,1.846-.739,2.768q-.979,3.634-1.958,7.268c-.085.314-.152.368-.481.369-.279,0-.558,0-.789,0a6.428,6.428,0,0,1-.475.956,2.184,2.184,0,0,1-2.335.96,2.286,2.286,0,0,1-1.81-1.727c-.045-.157-.1-.194-.251-.192-.6.007-1.2,0-1.812,0M1.85,10.307c.007.039.011.066.018.092q.7,2.649,1.4,5.3c.145.551.143.552.717.5a.13.13,0,0,0,.028-.012c.017-.059.037-.125.055-.192a2.353,2.353,0,0,1,2.3-1.761,2.29,2.29,0,0,1,2.281,1.815c.031.128.09.162.215.16.433-.007.867,0,1.3,0h.479c.014-.062.021-.1.032-.143a2.359,2.359,0,0,1,2.288-1.828,2.281,2.281,0,0,1,2.28,1.707c.059.223.15.3.364.266a.236.236,0,0,1,.084,0c.192.038.259-.058.305-.235.394-1.518.8-3.034,1.2-4.55.1-.368.192-.737.29-1.115ZM.91,6.744c.014.063.025.117.039.17.2.775.415,1.549.6,2.327.05.207.142.254.341.254q7.789-.008,15.579,0H17.7l.726-2.747ZM13.618,3.478c-.76-.723-1.444-1.481-2.236-2.1A2.85,2.85,0,0,0,7.83,1.5C7.145,2.1,6.507,2.763,5.849,3.4c-.008.008-.006.026-.012.052A3.58,3.58,0,0,1,7.629,4.583c.385.405.784.8,1.187,1.184a.508.508,0,0,0,.306.128c.384.015.769.016,1.153,0a.536.536,0,0,0,.324-.133c.488-.47.964-.954,1.442-1.434a3.05,3.05,0,0,1,1.3-.769l.274-.081M7.854,16.564a1.474,1.474,0,0,0-1.505-1.514,1.512,1.512,0,1,0,.043,3.024,1.472,1.472,0,0,0,1.462-1.51m6.631,0a1.425,1.425,0,0,0-1.7-1.481,1.465,1.465,0,0,0-.99.68,1.593,1.593,0,0,0-.273,1.172,1.5,1.5,0,0,0,2.962-.37M17.076,5.895c-.37-.369-.7-.7-1.03-1.024A2.39,2.39,0,0,0,13.1,4.5a12.36,12.36,0,0,0-1.482,1.347c-.005,0,0,.024.006.043ZM7.767,5.888c-.353-.349-.668-.66-.983-.972A2.408,2.408,0,0,0,3.6,4.631,13.353,13.353,0,0,0,2.308,5.85c-.005.005,0,.025,0,.037Z" transform="translate(0 0)" fill="#898989" stroke="#898989" stroke-width="0.3"/>
    </g>
  </g>
</svg>
