<svg xmlns="http://www.w3.org/2000/svg" width="28.519" height="28.325" viewBox="0 0 28.519 28.325">
  <g id="users" transform="translate(-0.8 -0.902)">
    <path id="Path_13449" data-name="Path 13449" d="M32.137,13.784c1.875,0,3.384-2.333,3.384-4.265a3.385,3.385,0,1,0-6.769,0C28.752,11.451,30.261,13.784,32.137,13.784Zm0-6.528a2.241,2.241,0,0,1,2.212,2.263c0,1.351-1.073,3.093-2.212,3.093s-2.213-1.742-2.213-3.093A2.241,2.241,0,0,1,32.137,7.255Z" transform="translate(-11.494 -2.104)" fill="#333" stroke="#323332" stroke-width="0.2"/>
    <path id="Path_13450" data-name="Path 13450" d="M9.7,29.073c0,1.932,1.51,4.265,3.385,4.265S16.467,31,16.467,29.073a3.385,3.385,0,1,0-6.769,0Zm5.6,0c0,1.351-1.073,3.093-2.212,3.093s-2.213-1.742-2.213-3.093a2.213,2.213,0,1,1,4.425,0Z" transform="translate(-3.605 -10.2)" fill="#333" stroke="#323332" stroke-width="0.2"/>
    <path id="Path_13451" data-name="Path 13451" d="M9.477,29.127a8.485,8.485,0,0,0,6.767-13.578A3.773,3.773,0,0,1,19.7,13.291h1.881a3.788,3.788,0,0,1,3.381,2.08,7.28,7.28,0,0,1-4.007,1.416.586.586,0,0,0,.025,1.171h.026a8.481,8.481,0,1,0-6.362-2.476l.008.006a7.317,7.317,0,0,1-.008,10.327c-.016.016-.035.03-.052.047a4.964,4.964,0,0,0-4.174-2.28H8.534a4.942,4.942,0,0,0-4.172,2.281c-.017-.017-.036-.031-.052-.047a7.319,7.319,0,0,1,4.854-12.47.586.586,0,0,0-.05-1.171,8.481,8.481,0,0,0,.365,16.954Zm6-24.811a7.307,7.307,0,0,1,10.4,10.268,4.971,4.971,0,0,0-4.29-2.466H19.7a4.954,4.954,0,0,0-4.286,2.47,7.315,7.315,0,0,1,.058-10.273ZM8.534,24.753H10.42a3.788,3.788,0,0,1,3.262,1.866,7.281,7.281,0,0,1-8.408,0,3.766,3.766,0,0,1,3.259-1.867Z" transform="translate(0 0)" fill="#333" stroke="#323332" stroke-width="0.2"/>
  </g>
</svg>
