<svg xmlns="http://www.w3.org/2000/svg" width="28.537" height="28.542" viewBox="0 0 28.537 28.542">
  <path id="Union_431" data-name="Union 431" d="M18812.563-6869.75l-.018-7.069-.02-8.833-.023-11.192a.587.587,0,0,1,.586-.591l13.547-.033,13.547-.033a.588.588,0,0,1,.592.586l.027,11.192.025,10.015a.592.592,0,0,1-.592.591l-6.479.014.006,2.359a1.762,1.762,0,0,1-1.76,1.769l-9.424.024v1.177a.591.591,0,0,1-.586.591l-8.838.024A.592.592,0,0,1,18812.563-6869.75Zm4.105-7.078a.584.584,0,0,1-.586.591l-2.355,0,.014,5.892,7.656-.019v-1.177l-.01-2.743-.014-6.137a4.128,4.128,0,0,1-3.543-4.071l0-.586-2.322,0-1.8,0,.023,7.656,2.355,0A.587.587,0,0,1,18816.668-6876.828Zm5.9,1.754,0,2.119.006.827,9.424-.023a.587.587,0,0,0,.586-.591l-.006-2.354Zm-.023-10.015.018,7.4.006,1.442,17.078-.042-.018-8.833-5.3.009-1.184,0,.016,4.123a.6.6,0,0,1-.592.591,4.134,4.134,0,0,1-4.133-4.114v-.591Zm-3.533.009v.586a2.961,2.961,0,0,0,2.365,2.884l-.01-3.475Zm10.6.563a2.95,2.95,0,0,0,2.363,2.879l0-3.475-.8,0h-1.557Zm-15.93-11.741.023,10.01,8.832-.019v-.591a4.124,4.124,0,0,1,3.523-4.081l-.01-5.348-6.479.014.006,2.354a.592.592,0,0,1-.592.591.59.59,0,0,1-.586-.586l-.01-2.359Zm10.033,9.4.006.586,2.354,0-.01-3.475A2.961,2.961,0,0,0,18823.713-6886.857Zm3.514-9.433.023,10.01h1.768l3.533-.01,1.182,0,0-1.764a.587.587,0,0,1,.586-.591.586.586,0,0,1,.59.586l.006,1.769,4.709-.014-.023-10.01-4.709.009.01,4.714a.59.59,0,0,1-.588.586.583.583,0,0,1-.59-.586l-.01-4.714Zm7.721,26.489,0-2.355a1.771,1.771,0,0,1,1.764-1.773l2.355,0a1.765,1.765,0,0,1,1.768,1.764l.01,2.355a.592.592,0,0,1-.592.591l-4.709.01A.588.588,0,0,1,18834.947-6869.8Zm1.76-2.951a.587.587,0,0,0-.586.591l0,1.768,3.533-.009-.006-1.769a.59.59,0,0,0-.59-.586Z" transform="translate(-18812.402 6897.601)" fill="#898989" stroke="#fff" stroke-width="0.2"/>
</svg>
