<?xml version="1.0" encoding="UTF-8"?>
<svg width="17px" height="12px" viewBox="0 0 17 12" version="1.1" xmlns="http://www.w3.org/2000/svg" xmlns:xlink="http://www.w3.org/1999/xlink">
    <title>Back</title>
    <desc>Created with Sketch.</desc>
    <g id="Page-1" stroke="none" stroke-width="1" fill="none" fill-rule="evenodd">
        <g id="Back" fill="#FFFFFF">
            <path d="M10.8742176,0.173348323 L15.972848,5.27545434 C16.0819484,5.3810346 16.1435451,5.52636103 16.1435451,5.67818358 C16.1435451,5.83000614 16.0819484,5.97533256 15.972848,6.08091283 L10.8776931,11.1786744 C10.7705206,11.2877851 10.6239953,11.3492484 10.4710539,11.3492484 C10.3181124,11.3492484 10.1715872,11.2877851 10.0644146,11.1786744 C9.84458008,10.9521486 9.84458008,10.5919217 10.0644146,10.3653959 L14.1855469,6.25208362 L0.572690167,6.25208362 C0.420523791,6.25116632 0.274980871,6.18971735 0.168199254,6.08130548 C0.0614176366,5.97289361 0.00218078909,5.8264364 0.00356900896,5.67427359 C0.00263913652,5.52297046 0.0622732748,5.37758249 0.169181124,5.27051143 C0.276088972,5.16344036 0.421385795,5.10358449 0.572690167,5.10428355 L14.1855469,5.10428355 L10.0644146,0.981413478 C9.85828953,0.755117141 9.8665981,0.406724109 10.0832763,0.190510895 C10.2999545,-0.0257023182 10.6483646,-0.0332624409 10.8742176,0.173348323 Z"></path>
        </g>
    </g>
</svg>