<svg xmlns="http://www.w3.org/2000/svg" width="191.603" height="192.223" viewBox="0 0 191.603 192.223">
  <g id="Group_8555" data-name="Group 8555" transform="translate(-1561.199 -249.801)">
    <g id="Group_6898" data-name="Group 6898" transform="matrix(0.259, -0.966, 0.966, 0.259, 958.703, 1831.908)">
      <path id="Path_9301" data-name="Path 9301" d="M629.417,496.7c-4.259-27.878-21.721-62.127-56.22-65.711,0,0-26.193-3.186-52.013,1.643a58.209,58.209,0,0,0-37.264,23.658,51.307,51.307,0,0,0-7.9,41.465c2.239,9.258,3.752,18.839,3.336,28.352-.723,16.556-.307,32.01,15.761,41.884,14.346,8.816,32.4,16.592,49.627,17.954a110.662,110.662,0,0,0,36.116-3.62C638.361,566.791,633.676,524.576,629.417,496.7Z" transform="translate(1062.934 -218.186)" fill="#f0f2f7"/>
    </g>
    <g id="cleaning" transform="translate(1586 270.269)">
      <path id="Path_10444" data-name="Path 10444" d="M50.145,204.482,63.9,254.5l75.6-43.649v0L103.067,173.93l-6.9.575L53.99,198.925Zm0,0" transform="translate(-36.229 -125.663)" fill="#ffe352"/>
      <g id="Group_8554" data-name="Group 8554" transform="translate(20.32 47.665)">
        <path id="Path_10445" data-name="Path 10445" d="M124.989,203.715l15.541,24.422-3.745,2.384L121.242,206.1Zm0,0" transform="translate(-107.916 -194.848)" fill="#ffb236"/>
        <path id="Path_10446" data-name="Path 10446" d="M164.986,171.762l11.1,17.761-3.764,2.352-11.1-17.762Zm0,0" transform="translate(-136.802 -171.762)" fill="#ffb236"/>
        <path id="Path_10447" data-name="Path 10447" d="M76.986,227.762l11.1,17.761-3.764,2.352-11.1-17.762Zm0,0" transform="translate(-73.223 -212.221)" fill="#ffb236"/>
      </g>
      <path id="Path_10448" data-name="Path 10448" d="M60.741,40.869a4.362,4.362,0,0,0-5.55-1L45.179,45.642a4.355,4.355,0,0,1-5.972-1.576L16.3,4.37A8.734,8.734,0,0,0,0,8.744,8.612,8.612,0,0,0,1.176,13.1L24.088,52.79a4.356,4.356,0,0,1-1.6,5.95L12.454,64.535a4.384,4.384,0,0,0-1.909,5.306L13.92,78.81,66.846,48.261ZM8.88,13.318a4.44,4.44,0,1,1,4.44-4.44A4.453,4.453,0,0,1,8.88,13.318Zm0,0" transform="translate(0)" fill="#1e428a"/>
      <path id="Path_10449" data-name="Path 10449" d="M410.641,53.321a6.639,6.639,0,0,0-1.951-4.709,6.662,6.662,0,0,0-6.66-6.66,6.658,6.658,0,0,0-9.418,0,6.662,6.662,0,0,0-6.66,6.66,6.658,6.658,0,0,0,0,9.418,6.662,6.662,0,0,0,6.66,6.66,6.658,6.658,0,0,0,9.418,0,6.662,6.662,0,0,0,6.66-6.66A6.639,6.639,0,0,0,410.641,53.321Zm0,0" transform="translate(-277.436 -28.9)" fill="#05d94e"/>
      <path id="Path_10450" data-name="Path 10450" d="M424.88,76.44A4.44,4.44,0,1,1,420.44,72,4.44,4.44,0,0,1,424.88,76.44Zm0,0" transform="translate(-300.556 -52.02)" fill="#ffe352"/>
      <path id="Path_10451" data-name="Path 10451" d="M413.32,254.66a290547.954,290547.954,0,0,1-1.949-4.711A76714595883361.81,76714595883361.81,0,0,1,406.66,248a51143063922254.24,51143063922254.24,0,0,1-4.711,1.949A290547.953,290547.953,0,0,1,400,254.66a190947.687,190947.687,0,0,1,1.949,4.711,3.321,3.321,0,0,0,2.356.975,5.042,5.042,0,0,0,8.041-3.33A3.328,3.328,0,0,0,413.32,254.66Zm0,0" transform="translate(-288.996 -179.178)" fill="#05d94e"/>
      <path id="Path_10452" data-name="Path 10452" d="M420.44,266.22a2.22,2.22,0,1,1-2.22-2.22A2.22,2.22,0,0,1,420.44,266.22Zm0,0" transform="translate(-300.556 -190.738)" fill="#ffe352"/>
      <path id="Path_10453" data-name="Path 10453" d="M329.761,160.88a4.426,4.426,0,0,0-1.3-3.139,6.722,6.722,0,0,0-10.719-4.44,4.441,4.441,0,0,0-4.44,4.44,4.439,4.439,0,0,0,0,6.279,6.722,6.722,0,0,0,10.719,4.44,4.441,4.441,0,0,0,4.44-4.44A4.43,4.43,0,0,0,329.761,160.88Zm0,0" transform="translate(-225.417 -109.819)" fill="#05d94e"/>
      <path id="Path_10454" data-name="Path 10454" d="M340.44,178.22a2.22,2.22,0,1,1-2.22-2.22A2.22,2.22,0,0,1,340.44,178.22Zm0,0" transform="translate(-242.756 -127.159)" fill="#ffe352"/>
      <path id="Path_10455" data-name="Path 10455" d="M175.9,393.3s40.794-6.012,48.842-11.1a13.32,13.32,0,0,1,13.321-13.321,8.88,8.88,0,1,1,17.761,0s2.107,24.421-31.054,24.421Zm0,0" transform="translate(-127.088 -260.097)" fill="#fff"/>
    </g>
  </g>
</svg>
