<svg xmlns="http://www.w3.org/2000/svg" width="18.119" height="18.2" viewBox="0 0 18.119 18.2">
  <g id="phone" transform="translate(0.099 0.1)">
    <g id="Group_3584" data-name="Group 3584">
      <path id="Path_7495" data-name="Path 7495" d="M15.43,38.136a1.879,1.879,0,0,0-1.363-.625,1.943,1.943,0,0,0-1.379.621L11.413,39.4c-.1-.056-.21-.109-.31-.161-.145-.073-.282-.141-.4-.214A13.849,13.849,0,0,1,7.385,36,8.17,8.17,0,0,1,6.3,34.285c.331-.3.637-.617.935-.919.113-.113.226-.23.339-.343a1.85,1.85,0,0,0,0-2.79l-1.1-1.1c-.125-.125-.254-.254-.375-.383-.242-.25-.5-.508-.758-.75a1.909,1.909,0,0,0-1.351-.593A1.975,1.975,0,0,0,2.615,28l-.008.008L1.236,29.39a2.95,2.95,0,0,0-.875,1.875,7.069,7.069,0,0,0,.516,2.992A17.362,17.362,0,0,0,3.962,39.4,18.975,18.975,0,0,0,10.28,44.35,9.845,9.845,0,0,0,13.829,45.4c.085,0,.173.008.254.008a3.038,3.038,0,0,0,2.327-1c0-.008.012-.012.016-.02a9.166,9.166,0,0,1,.706-.73c.173-.165.351-.339.524-.52a2.012,2.012,0,0,0,.609-1.4,1.938,1.938,0,0,0-.621-1.383Zm1.444,4.246s0,0,0,0c-.157.169-.319.323-.492.492a10.6,10.6,0,0,0-.778.806,1.944,1.944,0,0,1-1.516.641c-.06,0-.125,0-.185,0a8.746,8.746,0,0,1-3.145-.944A17.912,17.912,0,0,1,4.8,38.712a16.37,16.37,0,0,1-2.9-4.835,5.757,5.757,0,0,1-.452-2.524,1.851,1.851,0,0,1,.556-1.2l1.375-1.375a.917.917,0,0,1,.613-.286.863.863,0,0,1,.589.282l.012.012c.246.23.48.468.726.722.125.129.254.258.383.391L6.8,31a.77.77,0,0,1,0,1.25c-.117.117-.23.234-.347.347-.339.347-.661.669-1.012.984-.008.008-.016.012-.02.02a.822.822,0,0,0-.21.915l.012.036a8.838,8.838,0,0,0,1.3,2.125l0,0a14.8,14.8,0,0,0,3.581,3.258,5.506,5.506,0,0,0,.5.27c.145.073.282.141.4.214.016.008.032.02.048.028a.874.874,0,0,0,.4.1.862.862,0,0,0,.613-.278L13.45,38.9a.912.912,0,0,1,.609-.3.821.821,0,0,1,.581.294l.008.008,2.222,2.222A.8.8,0,0,1,16.873,42.382Z" transform="translate(-0.344 -27.406)" fill="#fff" stroke="#1e428a" stroke-width="0.2"/>
    </g>
  </g>
</svg>
