<svg xmlns="http://www.w3.org/2000/svg" width="20.589" height="20.681" viewBox="0 0 20.589 20.681">
  <g id="phone" transform="translate(0.099 0.1)">
    <g id="Group_3584" data-name="Group 3584">
      <path id="Path_7495" data-name="Path 7495" d="M17.509,39.615a2.138,2.138,0,0,0-1.551-.711,2.211,2.211,0,0,0-1.569.707l-1.45,1.445c-.119-.064-.239-.124-.353-.184-.165-.083-.321-.161-.454-.243a15.758,15.758,0,0,1-3.776-3.441,9.3,9.3,0,0,1-1.239-1.955c.376-.344.725-.7,1.064-1.046.128-.128.257-.262.385-.39a2.105,2.105,0,0,0,0-3.175L7.314,29.37c-.142-.142-.289-.289-.427-.436-.275-.284-.564-.578-.863-.853a2.172,2.172,0,0,0-1.537-.674,2.247,2.247,0,0,0-1.56.674l-.009.009-1.56,1.574a3.357,3.357,0,0,0-1,2.133,8.043,8.043,0,0,0,.587,3.4,19.755,19.755,0,0,0,3.51,5.854,21.591,21.591,0,0,0,7.19,5.63,11.2,11.2,0,0,0,4.038,1.193c.1,0,.2.009.289.009a3.457,3.457,0,0,0,2.647-1.138c0-.009.014-.014.018-.023a10.429,10.429,0,0,1,.8-.83c.2-.188.4-.385.6-.592a2.289,2.289,0,0,0,.693-1.587,2.205,2.205,0,0,0-.707-1.574Zm1.643,4.831s0,0,0,0c-.179.193-.362.367-.56.56a12.062,12.062,0,0,0-.886.918,2.212,2.212,0,0,1-1.725.73c-.069,0-.142,0-.211,0a9.951,9.951,0,0,1-3.579-1.074,20.381,20.381,0,0,1-6.772-5.3,18.627,18.627,0,0,1-3.3-5.5A6.551,6.551,0,0,1,1.6,31.9a2.106,2.106,0,0,1,.633-1.363L3.8,28.971a1.043,1.043,0,0,1,.7-.326.981.981,0,0,1,.67.321l.014.014c.28.262.546.532.826.821.142.147.289.294.436.445L7.7,31.5a.876.876,0,0,1,0,1.422c-.133.133-.262.266-.395.395-.385.395-.752.762-1.152,1.119-.009.009-.018.014-.023.023A.936.936,0,0,0,5.887,35.5l.014.041a10.056,10.056,0,0,0,1.482,2.418l0,0a16.84,16.84,0,0,0,4.074,3.707,6.265,6.265,0,0,0,.564.307c.165.083.321.161.454.243.018.009.037.023.055.032a1,1,0,0,0,.454.115.981.981,0,0,0,.7-.317l1.569-1.569a1.038,1.038,0,0,1,.693-.344.934.934,0,0,1,.661.335l.009.009,2.528,2.528A.907.907,0,0,1,19.152,44.446Z" transform="translate(-0.344 -27.406)" fill="#1e428a" stroke="#1e428a" stroke-width="0.2"/>
    </g>
  </g>
</svg>
