<svg xmlns="http://www.w3.org/2000/svg" width="14.424" height="14.432" viewBox="0 0 14.424 14.432">
  <g id="Group_6810" data-name="Group 6810" transform="translate(1236.468 958.572)">
    <path id="Path_8112" data-name="Path 8112" d="M-1229.247-958.471q2.5,0,5,0a2.012,2.012,0,0,1,2.038,1.534,2.206,2.206,0,0,1,.058.521q0,5.038,0,10.077a2.027,2.027,0,0,1-2.11,2.1h-10.092a2.018,2.018,0,0,1-2.022-2.017q0-5.1,0-10.192a1.989,1.989,0,0,1,1.952-2.013c1.723-.019,3.446-.005,5.169-.005Zm6.074,9.185c-.074,0-.127,0-.18.011a5.337,5.337,0,0,1-2.945-.483,12.978,12.978,0,0,1-2.287-1.42,4.94,4.94,0,0,0-2.646-.975,4.221,4.221,0,0,0-3.986,1.923.657.657,0,0,0-.106.348c-.008,1.18-.006,2.359,0,3.539a1.266,1.266,0,0,0,.025.294.989.989,0,0,0,1.052.761h9.958a1.007,1.007,0,0,0,1.118-1.121q0-1.341,0-2.683Zm0-1.083v-.2q0-2.88,0-5.761a1,1,0,0,0-1.114-1.107h-2.979c-2.326,0-4.652.006-6.978,0a1.036,1.036,0,0,0-1.09,1.086c.019,1.465.006,2.93.007,4.395,0,.056,0,.111.007.167.279-.207.529-.424.807-.6a5.637,5.637,0,0,1,5.248-.392,8.943,8.943,0,0,1,1.875,1.144,8.136,8.136,0,0,0,2.012,1.1A4.229,4.229,0,0,0-1223.173-950.37Z" transform="translate(0)" fill="#1e428a" stroke="#1e428a" stroke-width="0.2"/>
    <path id="Path_8113" data-name="Path 8113" d="M-921.968-881.946a.681.681,0,0,1,.69-.684.689.689,0,0,1,.687.69.7.7,0,0,1-.693.689A.689.689,0,0,1-921.968-881.946Z" transform="translate(-304.03 -73.341)" fill="#1e428a" stroke="#1e428a" stroke-width="0.2"/>
  </g>
</svg>
