<svg xmlns="http://www.w3.org/2000/svg" width="18.335" height="22.567" viewBox="0 0 18.335 22.567">
  <path id="pinterest" d="M57.478,0C51.293,0,48,3.964,48,8.285c0,2,1.12,4.5,2.913,5.3.272.123.42.071.481-.182.054-.192.289-1.116.4-1.552a.4.4,0,0,0-.1-.392,5.139,5.139,0,0,1-1.068-3.119c0-3.014,2.4-5.941,6.474-5.941,3.526,0,5.993,2.291,5.993,5.567,0,3.7-1.959,6.264-4.505,6.264a2.017,2.017,0,0,1-2.126-2.474c.4-1.629,1.19-3.381,1.19-4.556a1.75,1.75,0,0,0-1.811-1.925c-1.434,0-2.6,1.42-2.6,3.327a4.744,4.744,0,0,0,.429,2.03s-1.419,5.732-1.683,6.8a15.222,15.222,0,0,0,.1,5,.149.149,0,0,0,.271.069,17.771,17.771,0,0,0,2.336-4.4c.175-.645.893-3.258.893-3.258a3.9,3.9,0,0,0,3.289,1.568c4.322,0,7.445-3.8,7.445-8.512C66.324,3.381,62.456,0,57.478,0" transform="translate(-48.004)" fill="#d32f2f"/>
</svg>
