<svg xmlns="http://www.w3.org/2000/svg" width="41.62" height="52.315" viewBox="0 0 41.62 52.315">
  <path id="Loan" d="M3146.6,7716.816H3128.27c-.065,0-.142,0-.226,0l-.471-.018v.011a11.319,11.319,0,0,1-8.3-4.243,12.552,12.552,0,0,1-2.458-10.657l0-.018c1.249-6.831,3.2-12.3,5.785-16.247a18.255,18.255,0,0,1,7.073-6.566l-.2-.85h-2.53v-2.549h3.688l-2.748-7.211-.017-.053a2.947,2.947,0,0,1,.922-3.013,3.619,3.619,0,0,1,2.363-.876,3.5,3.5,0,0,1,1.424.3l4.7,1.994,4.765-2.023a3.627,3.627,0,0,1,3.768.568,2.906,2.906,0,0,1,.954,2.987l-.017.052-2.631,7.277h3.56v2.549h-2.523l-.2.85a18.232,18.232,0,0,1,7.094,6.605c2.608,4,4.492,9.3,5.761,16.208l0,.018a12.606,12.606,0,0,1-2.932,11.206A11.144,11.144,0,0,1,3146.6,7716.816ZM3136.9,7680c-5.085,0-9.064,2.3-12.166,7.034-2.411,3.68-4.233,8.844-5.417,15.344l-.014.065a10.126,10.126,0,0,0,1.944,8.514,8.622,8.622,0,0,0,6.78,3.312h17.918c.261,0,.467,0,.637.008l.468.013v-.03a8.7,8.7,0,0,0,5.961-2.873,10.025,10.025,0,0,0,2.315-8.942l-.014-.065c-1.189-6.494-3-11.645-5.393-15.311-3.1-4.753-7.079-7.064-12.168-7.064-.121,0-.242,0-.364,0h-.059C3137.182,7680,3137.04,7680,3136.9,7680Zm-5.744-12.929a1.086,1.086,0,0,0-.648.212l-.27.2,3.123,8.191h8.055l2.97-8.216-.263-.2a1.105,1.105,0,0,0-.653-.212,1.072,1.072,0,0,0-.432.09l-5.753,2.443-5.691-2.415A1.038,1.038,0,0,0,3131.153,7667.072Z" transform="translate(-3116.5 -7664.501)" fill="#fff"/>
</svg>
