<svg xmlns="http://www.w3.org/2000/svg" width="16.967" height="22.211" viewBox="0 0 16.967 22.211">
  <path id="Price" d="M75.356,9.684a9.144,9.144,0,0,0-2.6-2.234,1.938,1.938,0,0,0-.957-3.118l1.646-2.87a.645.645,0,0,0-.379-.94,13.227,13.227,0,0,0-7.355,0,.645.645,0,0,0-.379.94l1.646,2.87a1.937,1.937,0,0,0-.957,3.118,9.144,9.144,0,0,0-2.6,2.235A10.576,10.576,0,0,0,61,16.208c0,4.69,3.742,5.8,8.383,5.8s8.383-1.116,8.383-5.8A10.576,10.576,0,0,0,75.356,9.684ZM66.868,1.557a11.966,11.966,0,0,1,5.03,0l-1.42,2.476a7.91,7.91,0,0,0-2.19,0Zm.421,4.027a6.667,6.667,0,0,1,3.4-.207h0a6.807,6.807,0,0,1,.783.206.645.645,0,0,1-.131,1.254,6.49,6.49,0,0,0-3.919,0,.644.644,0,0,1-.136-1.253ZM69.383,20.73c-5.038,0-7.094-1.316-7.094-4.523a9.4,9.4,0,0,1,2.122-5.71,5.959,5.959,0,0,1,9.943,0,9.4,9.4,0,0,1,2.122,5.71C76.477,19.414,74.422,20.73,69.383,20.73Z" transform="translate(-60.9 0.1)" fill="#333" stroke="#fff" stroke-width="0.2"/>
</svg>
