<?xml version="1.0" encoding="utf-8"?>
<!-- Generator: Adobe Illustrator 15.1.0, SVG Export Plug-In . SVG Version: 6.00 Build 0)  -->
<!DOCTYPE svg PUBLIC "-//W3C//DTD SVG 1.1//EN" "http://www.w3.org/Graphics/SVG/1.1/DTD/svg11.dtd">
<svg version="1.1" id="Warstwa_1" xmlns="http://www.w3.org/2000/svg" xmlns:xlink="http://www.w3.org/1999/xlink" x="0px" y="0px"
	 width="73.467px" height="70.115px" viewBox="0 0 73.467 70.115" enable-background="new 0 0 73.467 70.115" xml:space="preserve">
<g>
	<path fill="#1A100B" d="M63.799,18.302h-5.284V1.16c0-0.64-0.519-1.16-1.16-1.16H16.111c-0.64,0-1.16,0.52-1.16,1.16v17.143H9.668
		C4.337,18.302,0,22.639,0,27.969v19.334c0,5.328,4.337,9.666,9.668,9.666h4.769v3.479c0,5.331,4.337,9.667,9.666,9.667h25.262
		c5.327,0,9.666-4.336,9.667-9.667v-3.479h4.767c5.332,0,9.668-4.338,9.668-9.666V27.969C73.467,22.639,69.131,18.302,63.799,18.302
		z M17.271,2.32h38.923v15.982H17.271V2.32z M49.366,67.796H24.103c-4.05,0-7.347-3.296-7.347-7.348V48.075h39.956v7.729
		c0,0.002-0.001,0.003-0.001,0.005s0.001,0.003,0.001,0.005v4.634C56.712,64.5,53.416,67.796,49.366,67.796z M71.147,47.303
		c0,4.051-3.295,7.346-7.349,7.346h-4.767v-6.574h3.544c0.641,0,1.161-0.52,1.161-1.16c0-0.64-0.52-1.159-1.16-1.159H10.893
		c-0.64,0-1.16,0.52-1.16,1.159c0,0.641,0.519,1.16,1.16,1.16h3.544v6.574H9.668c-4.052,0-7.348-3.295-7.348-7.346V27.969
		c0-4.052,3.296-7.348,7.348-7.348h6.443h41.244h6.444c4.054,0,7.349,3.296,7.349,7.348V47.303z"/>
	<path fill="#1A100B" d="M50.533,53.36H22.934c-0.64,0-1.16,0.52-1.16,1.161c0,0.639,0.519,1.16,1.16,1.16h27.598
		c0.642,0,1.16-0.521,1.162-1.16C51.694,53.881,51.175,53.36,50.533,53.36z"/>
	<path fill="#1A100B" d="M50.533,59.417H22.934c-0.64,0-1.16,0.52-1.16,1.16c0,0.642,0.519,1.161,1.16,1.161h27.598
		c0.642,0,1.16-0.519,1.162-1.161C51.694,59.937,51.175,59.417,50.533,59.417z"/>
	<path fill="#1A100B" d="M63.944,23.974c-1.812,0-3.286,1.474-3.286,3.287c0,1.811,1.474,3.284,3.286,3.284
		c1.812,0,3.287-1.474,3.287-3.284C67.231,25.448,65.756,23.974,63.944,23.974z M63.944,28.227c-0.532,0-0.967-0.435-0.967-0.966
		c0-0.534,0.435-0.968,0.967-0.968c0.535,0,0.968,0.434,0.968,0.968C64.912,27.793,64.478,28.227,63.944,28.227z"/>
</g>
</svg>
