<svg xmlns="http://www.w3.org/2000/svg" width="24.77" height="24.803" viewBox="0 0 24.77 24.803">
  <path id="Union_428" data-name="Union 428" d="M22042.561-3713.482l-3.936-3.935h-5.047a1.533,1.533,0,0,1-1.533-1.533V-3724l-1.895-1.893a.515.515,0,0,1,0-.725l1.895-1.893v-3.731a1.533,1.533,0,0,1,1.533-1.533h11.977l3.648-3.647a1.549,1.549,0,0,1,2.137,0l.707.708a1.508,1.508,0,0,1,0,2.131v.006l-.8.8h1.24a2.043,2.043,0,0,1,2.049,2.042v15.332a2.051,2.051,0,0,1-2.049,2.048h-1.533a.514.514,0,0,1-.51-.515v-2.552h-4.531l.293.293a.515.515,0,0,1,0,.725l-2.918,2.917a.515.515,0,0,1-.359.149A.529.529,0,0,1,22042.561-3713.482Zm-11.324-12.769,11.689,11.684,2.191-2.2-1.391-1.392-1.1,1.1-.725-.719,1.1-1.1-1.32-1.32-1.1,1.1-.725-.725,1.1-1.1-1.324-1.323-1.1,1.1-.721-.719,1.1-1.1-1.322-1.323-1.1,1.1-.725-.725,1.1-1.1-1.316-1.317-1.1,1.1-.725-.725,1.1-1.1-1.393-1.392Zm20.23,10.876h1.018a1.025,1.025,0,0,0,1.023-1.024,1.02,1.02,0,0,0-1.023-1.018h-1.018Zm1.018-3.066a2.04,2.04,0,0,1,1.023.274v-13.563a1.016,1.016,0,0,0-1.023-1.019h-2.266l-5.947,5.945a.517.517,0,0,1-.23.132l-.168.056h4.527v1.019h-7.666a.513.513,0,0,1-.516-.509.544.544,0,0,1,.027-.161l1.059-3.183h0a.493.493,0,0,1,.123-.2l3.1-3.1h-10.953a.508.508,0,0,0-.51.509v2.707a.514.514,0,0,1,.725,0l11.092,11.092Zm-19.416-.509a.508.508,0,0,0,.51.509h4.023l-4.533-4.533Zm8.475-7.965,1.422-.476-.947-.948Zm.973-2.369,1.395,1.395,5.639-5.637-1.395-1.395Zm7.756-4.965,1.051-1.052a.5.5,0,0,0,0-.692l-.709-.7a.483.483,0,0,0-.342-.138.484.484,0,0,0-.344.138l-1.053,1.052Zm1.2,8.651v-1.019h1.018v1.019Zm-2.049,0v-1.019h1.023v1.019Z" transform="translate(-22029.863 3738.035)" fill="#1e428a" stroke="#f4f4f8" stroke-width="0.2"/>
</svg>
