<svg xmlns="http://www.w3.org/2000/svg" width="21.977" height="21.836" viewBox="0 0 21.977 21.836">
  <g id="Register_Company" data-name="Register Company" transform="translate(-2 -2.128)">
    <path id="Path_14086" data-name="Path 14086" d="M6.5,8a.5.5,0,0,0-.5.5v1a.5.5,0,0,0,.5.5h1A.5.5,0,0,0,8,9.5v-1A.5.5,0,0,0,7.5,8Z" transform="translate(0.439 0.645)" fill="#1e428a"/>
    <path id="Path_14087" data-name="Path 14087" d="M6,11.5a.5.5,0,0,1,.5-.5h1a.5.5,0,0,1,.5.5v1a.5.5,0,0,1-.5.5h-1a.5.5,0,0,1-.5-.5Z" transform="translate(0.439 0.975)" fill="#1e428a"/>
    <path id="Path_14088" data-name="Path 14088" d="M6.5,14a.5.5,0,0,0-.5.5v1a.5.5,0,0,0,.5.5h1a.5.5,0,0,0,.5-.5v-1a.5.5,0,0,0-.5-.5Z" transform="translate(0.439 1.305)" fill="#1e428a"/>
    <path id="Path_14089" data-name="Path 14089" d="M9,8.5A.5.5,0,0,1,9.5,8h1a.5.5,0,0,1,.5.5v1a.5.5,0,0,1-.5.5h-1A.5.5,0,0,1,9,9.5Z" transform="translate(0.769 0.645)" fill="#1e428a"/>
    <path id="Path_14090" data-name="Path 14090" d="M9.5,11a.5.5,0,0,0-.5.5v1a.5.5,0,0,0,.5.5h1a.5.5,0,0,0,.5-.5v-1a.5.5,0,0,0-.5-.5Z" transform="translate(0.769 0.975)" fill="#1e428a"/>
    <path id="Path_14091" data-name="Path 14091" d="M9,14.5a.5.5,0,0,1,.5-.5h1a.5.5,0,0,1,.5.5v1a.5.5,0,0,1-.5.5h-1a.5.5,0,0,1-.5-.5Z" transform="translate(0.769 1.305)" fill="#1e428a"/>
    <path id="Path_14092" data-name="Path 14092" d="M12.5,8a.5.5,0,0,0-.5.5v1a.5.5,0,0,0,.5.5h1a.5.5,0,0,0,.5-.5v-1a.5.5,0,0,0-.5-.5Z" transform="translate(1.098 0.645)" fill="#1e428a"/>
    <path id="Path_14093" data-name="Path 14093" d="M12,11.5a.5.5,0,0,1,.5-.5h1a.5.5,0,0,1,.5.5v1a.5.5,0,0,1-.5.5h-1a.5.5,0,0,1-.5-.5Z" transform="translate(1.098 0.975)" fill="#1e428a"/>
    <path id="Path_14094" data-name="Path 14094" d="M12.5,14a.5.5,0,0,0-.5.5v1a.5.5,0,0,0,.5.5h1a.5.5,0,0,0,.5-.5v-1a.5.5,0,0,0-.5-.5Z" transform="translate(1.098 1.305)" fill="#1e428a"/>
    <path id="Path_14095" data-name="Path 14095" d="M17.136,2.157a1.1,1.1,0,0,1,1.346,1.071V5.494L22.27,7.388a1.1,1.1,0,0,1,.607.983V22.865h.549a.549.549,0,1,1,0,1.1H2.549a.549.549,0,0,1,0-1.1H3.1V6.27A1.1,1.1,0,0,1,3.951,5.2Zm4.642,20.708V8.37l-3.3-1.648V22.865Zm-4.4-17.044q0,.012,0,.023V22.865h-4.4v-2.2a1.1,1.1,0,0,0-1.1-1.1h-2.2a1.1,1.1,0,0,0-1.1,1.1v2.2H4.2V6.27L17.384,3.227ZM9.692,20.667v2.2h2.2v-2.2Z" transform="translate(0)" fill="#1e428a" fill-rule="evenodd"/>
  </g>
</svg>
