<svg xmlns="http://www.w3.org/2000/svg" width="60.399" height="60.402" viewBox="0 0 60.399 60.402">
  <path id="Rejected" d="M3768,10216.609a30,30,0,0,1,59.994-.139v0c0,.044.005.088.005.134s0,.082-.005.124a30,30,0,0,1-59.994-.124Zm2.587,0a27.414,27.414,0,1,0,27.413-27.415A27.394,27.394,0,0,0,3770.587,10216.609Zm35.961,10.351-8.547-8.547-8.546,8.547a1.276,1.276,0,0,1-1.805,0h0a1.278,1.278,0,0,1,0-1.8l8.547-8.547-8.547-8.547h0a1.277,1.277,0,0,1,1.808-1.8l8.546,8.546,8.547-8.546a1.276,1.276,0,0,1,1.805,1.8l-8.546,8.547,8.546,8.547a1.276,1.276,0,1,1-1.805,1.8Z" transform="translate(-3767.8 -10186.407)" fill="#ec5469" stroke="#ec5469" stroke-width="0.4" opacity="0.997"/>
</svg>
