<svg xmlns="http://www.w3.org/2000/svg" width="23.666" height="22.183" viewBox="0 0 23.666 22.183">
  <path id="Request_Meeting" data-name="Request Meeting" d="M2416.772,2077.687c-.43,0-.73-.216-.738-.618a10.935,10.935,0,0,1,.19-3.316,5.25,5.25,0,0,1,2.531-3.187l.226-.128a3.768,3.768,0,1,1,4.691-.018c.287.19.585.359.852.569A5.121,5.121,0,0,1,2426.6,2075c.023.641.014,1.282.007,1.922,0,.53-.24.762-.763.763h-9.074Zm2.282-5.709c-1.516,1.054-1.817,2.6-1.659,4.341h7.859c0-.455.023-.893,0-1.326a3.752,3.752,0,0,0-2.207-3.333,4.007,4.007,0,0,0-1.756-.428A3.876,3.876,0,0,0,2419.054,2071.978Zm-.146-4.515a2.408,2.408,0,1,0,2.409-2.394A2.4,2.4,0,0,0,2418.908,2067.463Zm10.168,2.344a.741.741,0,0,1-.446-.791c0-.572,0-1.145,0-1.779-.293,0-.538.01-.783,0a2.1,2.1,0,0,1-2-2.03q-.026-3.321,0-6.641a2.1,2.1,0,0,1,2.051-2.053q4.349-.023,8.7,0a2.13,2.13,0,0,1,2.064,2.085q.019,3.286,0,6.573a2.1,2.1,0,0,1-2.041,2.063c-1.36.025-2.72.014-4.08.006a.7.7,0,0,0-.56.228c-.684.7-1.381,1.384-2.07,2.077a.852.852,0,0,1-.588.315A.663.663,0,0,1,2429.077,2069.807Zm.156-3.911a.685.685,0,0,1,.749.757c.005.267,0,.534,0,.8l.08.037c.411-.412.833-.816,1.23-1.24a1.093,1.093,0,0,1,.866-.361c1.427.011,2.855.008,4.282,0a.8.8,0,0,0,.878-.881q.005-3.133,0-6.269a.82.82,0,0,0-.882-.887q-4.181-.005-8.361,0a.806.806,0,0,0-.883.877q-.005,3.151,0,6.3a.784.784,0,0,0,.86.858c.181,0,.362,0,.542,0h.261C2428.982,2065.891,2429.108,2065.892,2429.233,2065.9Z" transform="translate(-2415.508 -2056.006)" fill="#333" stroke="rgba(0,0,0,0)" stroke-width="1"/>
</svg>
