<svg xmlns="http://www.w3.org/2000/svg" width="25.216" height="25.216" viewBox="0 0 25.216 25.216">
  <path id="conflict" d="M24.516,12.976H17.251L19.579,15.3l-1.354,1.354-4.64-4.64,4.64-4.64,1.354,1.354-2.328,2.328h7.264ZM11.3,4.74h1.915V0H11.3ZM19.52,2.95l-1.4-1.3L14.86,5.158l1.4,1.3ZM9.656,5.158,6.4,1.647,5,2.95,8.252,6.46ZM11.3,24.516h1.915v-4.74H11.3Zm3.559-5.158,3.256,3.511,1.4-1.3-3.256-3.511ZM5,21.566l1.4,1.3,3.256-3.511-1.4-1.3ZM4.937,8.733l2.328,2.328H0v1.915H7.264L4.937,15.3l1.354,1.354,4.64-4.64-4.64-4.64Zm0,0" transform="translate(0.35 0.35)" fill="#333" stroke="#fff" stroke-width="0.1"/>
</svg>
