<svg id="send" xmlns="http://www.w3.org/2000/svg" width="18.368" height="18.368" viewBox="0 0 18.368 18.368">
  <g id="Group_7817" data-name="Group 7817">
    <path id="Path_9989" data-name="Path 9989" d="M18.211.158a.538.538,0,0,0-.58-.119L.339,6.956A.538.538,0,0,0,.3,7.94l6.819,3.307,3.307,6.819a.538.538,0,0,0,.484.3h.019a.538.538,0,0,0,.481-.338L18.33.739A.538.538,0,0,0,18.211.158ZM1.869,7.5,15.6,2.012l-8.18,8.18Zm9,9-2.69-5.546,8.181-8.18Z" transform="translate(0 -0.001)" fill="#333"/>
  </g>
</svg>
