<svg xmlns="http://www.w3.org/2000/svg" width="14.682" height="14.682" viewBox="0 0 14.682 14.682">
  <g id="gear" transform="translate(0.05 0.05)">
    <path id="Path_10356" data-name="Path 10356" d="M13.524,5.429l-.711-.121c-.063-.176-.135-.349-.214-.517l.419-.586a1.268,1.268,0,0,0-.138-1.642l-.855-.855a1.27,1.27,0,0,0-1.64-.138L9.8,1.989a5.86,5.86,0,0,0-.552-.228l-.118-.7A1.272,1.272,0,0,0,7.869,0H6.661A1.272,1.272,0,0,0,5.4,1.064l-.124.724q-.262.1-.515.217l-.577-.416a1.275,1.275,0,0,0-1.645.137l-.857.854a1.273,1.273,0,0,0-.138,1.642l.426.6c-.078.169-.149.342-.211.52l-.7.118A1.272,1.272,0,0,0,0,6.716V7.923A1.272,1.272,0,0,0,1.064,9.182l.724.123c.064.175.136.347.217.515L1.59,10.4a1.268,1.268,0,0,0,.138,1.642l.855.855a1.27,1.27,0,0,0,1.64.138l.6-.426c.157.073.32.14.487.2l.118.711a1.272,1.272,0,0,0,1.259,1.065h1.21a1.272,1.272,0,0,0,1.259-1.064l.121-.711c.176-.063.349-.135.517-.214l.584.417a1.274,1.274,0,0,0,1.644-.136l.855-.855a1.272,1.272,0,0,0,.138-1.642l-.419-.589c.081-.172.153-.345.215-.517l.71-.118a1.272,1.272,0,0,0,1.065-1.259V6.69A1.26,1.26,0,0,0,13.524,5.429Zm.2,2.466a.42.42,0,0,1-.351.416l-.942.157a.46.46,0,0,0-.366.32,5,5,0,0,1-.341.823.46.46,0,0,0,.034.482l.555.779a.421.421,0,0,1-.046.543l-.855.855a.42.42,0,0,1-.542.046l-.776-.555a.46.46,0,0,0-.484-.034,5.031,5.031,0,0,1-.824.341.46.46,0,0,0-.318.364l-.16.943a.42.42,0,0,1-.416.352H6.684a.42.42,0,0,1-.416-.351l-.157-.942a.461.461,0,0,0-.317-.365,5,5,0,0,1-.8-.328.461.461,0,0,0-.481.034l-.79.562a.4.4,0,0,1-.241.077.412.412,0,0,1-.3-.124l-.856-.856a.417.417,0,0,1-.046-.54l.552-.767a.46.46,0,0,0,.033-.488,4.885,4.885,0,0,1-.346-.82A.461.461,0,0,0,2.161,8.5l-.955-.163a.421.421,0,0,1-.352-.416V6.716A.421.421,0,0,1,1.207,6.3l.93-.157A.46.46,0,0,0,2.5,5.822,4.925,4.925,0,0,1,2.838,5,.461.461,0,0,0,2.8,4.515l-.561-.788a.42.42,0,0,1,.045-.542l.857-.855,0,0a.409.409,0,0,1,.295-.122.414.414,0,0,1,.244.077l.771.555a.46.46,0,0,0,.488.033,4.884,4.884,0,0,1,.82-.346.461.461,0,0,0,.316-.363l.163-.955A.42.42,0,0,1,6.662.854H7.869a.421.421,0,0,1,.416.352l.157.931a.46.46,0,0,0,.322.366,4.972,4.972,0,0,1,.855.352.461.461,0,0,0,.483-.033l.781-.556a.4.4,0,0,1,.241-.077.413.413,0,0,1,.3.124l.856.856a.417.417,0,0,1,.045.541l-.555.777a.461.461,0,0,0-.033.484,5.028,5.028,0,0,1,.341.824.461.461,0,0,0,.364.318l.942.16h0a.41.41,0,0,1,.346.41Zm0,0" fill="#898989" stroke="#898989" stroke-width="0.1"/>
    <path id="Path_10357" data-name="Path 10357" d="M159.288,156.453a2.835,2.835,0,1,0,2.835,2.835A2.838,2.838,0,0,0,159.288,156.453Zm0,4.816a1.981,1.981,0,1,1,1.981-1.981A1.983,1.983,0,0,1,159.288,161.269Zm0,0" transform="translate(-151.997 -151.997)" fill="#898989" stroke="#898989" stroke-width="0.1"/>
  </g>
</svg>
