<svg xmlns="http://www.w3.org/2000/svg" width="32.334" height="34.652" viewBox="0 0 32.334 34.652">
  <g id="Site_Supervision" data-name="Site Supervision" transform="translate(0.046 0.05)">
    <path id="Path_8960" data-name="Path 8960" d="M4800.09,1166.4a.786.786,0,0,1-.4-.784c.021-.932.006-1.864.008-2.8,0-.431.2-.672.542-.662.324.01.507.245.508.661,0,.932-.013,1.865.007,2.8a.784.784,0,0,1-.4.784Z" transform="translate(-4784.102 -1131.851)" fill="#898989" stroke="#898989" stroke-width="0.1"/>
    <path id="Path_8961" data-name="Path 8961" d="M4570.377,833.092c.73.839,1.436,1.715,2.21,2.525a18.9,18.9,0,0,0,7.632,4.986c.276.094.558.172.836.259.4.124.574.379.477.682s-.372.427-.77.316a18.043,18.043,0,0,1-4.606-2.038,23.921,23.921,0,0,1-6.771-6.405.563.563,0,0,1-.025-.739,23.066,23.066,0,0,1,8.472-7.359,16.786,16.786,0,0,1,8.555-1.743,17.64,17.64,0,0,1,8.665,2.976,24.391,24.391,0,0,1,6.265,6.074.579.579,0,0,1,.027.767,22.51,22.51,0,0,1-9.69,7.87c-.55.225-1.12.4-1.686.586-.413.135-.694.014-.792-.316-.089-.3.089-.557.492-.675a18.6,18.6,0,0,0,6.295-3.286,23.459,23.459,0,0,0,4.193-4.325.28.28,0,0,0,.019-.407,20.681,20.681,0,0,0-8.522-6.957,15.828,15.828,0,0,0-14.6,1,21.72,21.72,0,0,0-6.506,5.945C4570.5,832.894,4570.462,832.962,4570.377,833.092Z" transform="translate(-4569.233 -816.139)" fill="#898989" stroke="#898989" stroke-width="0.1"/>
    <path id="Path_8962" data-name="Path 8962" d="M4718.447,880.511a6.453,6.453,0,1,1,6.46-6.494A6.568,6.568,0,0,1,4718.447,880.511Zm5.409-6.456a5.416,5.416,0,1,0-5.4,5.432A5.341,5.341,0,0,0,4723.856,874.054Z" transform="translate(-4702.318 -857.222)" fill="#898989" stroke="#898989" stroke-width="0.1"/>
    <path id="Path_8963" data-name="Path 8963" d="M4692.7,739.894c.073.07.281.18.345.345.4,1.034.77,2.079,1.136,3.125a.512.512,0,0,1-.961.354c-.395-1.06-.782-2.123-1.152-3.191C4691.952,740.2,4692.22,739.893,4692.7,739.894Z" transform="translate(-4683.73 -738.15)" fill="#898989" stroke="#898989" stroke-width="0.1"/>
    <path id="Path_8964" data-name="Path 8964" d="M4891.594,743.891c-.453,0-.727-.324-.615-.647.373-1.079.764-2.153,1.164-3.222a.493.493,0,0,1,.646-.273.508.508,0,0,1,.309.63c-.372,1.056-.746,2.112-1.148,3.157C4891.884,743.7,4891.673,743.815,4891.594,743.891Z" transform="translate(-4869.19 -737.984)" fill="#898989" stroke="#898989" stroke-width="0.1"/>
    <path id="Path_8965" data-name="Path 8965" d="M4692.747,1141.472c-.482.008-.743-.31-.623-.655q.553-1.586,1.141-3.16a.512.512,0,0,1,.966.338c-.371,1.056-.748,2.111-1.149,3.156C4693.021,1141.308,4692.817,1141.408,4692.747,1141.472Z" transform="translate(-4683.783 -1108.683)" fill="#898989" stroke="#898989" stroke-width="0.1"/>
    <path id="Path_8966" data-name="Path 8966" d="M4893.309,1141.04c-.125.117-.253.317-.433.387a.448.448,0,0,1-.6-.286c-.16-.406-.306-.818-.455-1.229-.218-.6-.437-1.2-.65-1.8-.139-.39-.042-.662.267-.784s.56.03.7.425q.532,1.451,1.056,2.9C4893.231,1140.75,4893.254,1140.848,4893.309,1141.04Z" transform="translate(-4869.333 -1108.66)" fill="#898989" stroke="#898989" stroke-width="0.1"/>
    <path id="Path_8967" data-name="Path 8967" d="M4800.829,716.222c0,.494,0,.988,0,1.482,0,.4-.206.641-.535.634s-.513-.236-.515-.621q-.006-1.482,0-2.963c0-.394.219-.648.535-.641s.51.251.514.628C4800.832,715.235,4800.829,715.728,4800.829,716.222Z" transform="translate(-4784.18 -714.113)" fill="#898989" stroke="#898989" stroke-width="0.1"/>
    <path id="Path_8968" data-name="Path 8968" d="M4778,1088.344c-.537-.031-1.064-.049-1.59-.1a.523.523,0,0,1-.538-.563c.031-.3.258-.46.631-.46q1.515,0,3.029,0c.367,0,.6.169.622.47s-.18.52-.548.554C4779.07,1088.3,4778.53,1088.314,4778,1088.344Z" transform="translate(-4761.891 -1061.984)" fill="#898989" stroke="#898989" stroke-width="0.1"/>
    <path id="Path_8969" data-name="Path 8969" d="M4601.347,787.859c-.1.114-.2.331-.355.38a.646.646,0,0,1-.567-.1c-.462-.56-.884-1.154-1.3-1.753a.457.457,0,0,1,.149-.652.443.443,0,0,1,.642.016c.473.595.908,1.219,1.353,1.835A1.059,1.059,0,0,1,4601.347,787.859Z" transform="translate(-4597.028 -780.773)" fill="#898989" stroke="#898989" stroke-width="0.1"/>
    <path id="Path_8970" data-name="Path 8970" d="M4984.591,1115.219c-.1.113-.205.329-.36.375a.65.65,0,0,1-.567-.105c-.46-.561-.881-1.157-1.295-1.755a.517.517,0,0,1,.8-.622c.473.594.907,1.22,1.351,1.837A1.075,1.075,0,0,1,4984.591,1115.219Z" transform="translate(-4954.346 -1085.98)" fill="#898989" stroke="#898989" stroke-width="0.1"/>
    <path id="Path_8971" data-name="Path 8971" d="M4983.292,788.488a.522.522,0,0,1-.52-.767c.4-.6.83-1.173,1.275-1.736a.449.449,0,0,1,.666-.051.461.461,0,0,1,.141.656c-.406.592-.837,1.167-1.275,1.736C4983.506,788.422,4983.354,788.455,4983.292,788.488Z" transform="translate(-4954.727 -780.961)" fill="#898989" stroke="#898989" stroke-width="0.1"/>
    <path id="Path_8972" data-name="Path 8972" d="M4600.057,1115.91a.525.525,0,0,1-.518-.776c.393-.587.818-1.154,1.252-1.711a.465.465,0,0,1,.666-.085.494.494,0,0,1,.157.683c-.4.581-.824,1.149-1.255,1.709A.838.838,0,0,1,4600.057,1115.91Z" transform="translate(-4597.416 -1086.235)" fill="#898989" stroke="#898989" stroke-width="0.1"/>
    <path id="Path_8973" data-name="Path 8973" d="M4760.252,919.4a3.517,3.517,0,0,1-3.418-3.259c-.01-.433.148-.656.481-.673.35-.019.536.192.564.64a2.276,2.276,0,0,0,2.223,2.264,2.432,2.432,0,1,0,.217-4.858c-.471-.032-.742-.435-.483-.767a.768.768,0,0,1,.54-.242,3.449,3.449,0,0,1-.123,6.9Z" transform="translate(-4744.142 -899.086)" fill="#898989" stroke="#898989" stroke-width="0.1"/>
  </g>
</svg>
