<svg xmlns="http://www.w3.org/2000/svg" width="21.966" height="21.966" viewBox="0 0 21.966 21.966">
  <path id="Standalone_Villa" data-name="Standalone Villa" d="M8391.892,68.824h-21.106a.431.431,0,0,1-.43-.432v-21.1a.43.43,0,0,1,.43-.43h10.338a.431.431,0,0,1,.432.43v1.293h10.337a.43.43,0,0,1,.43.43v1.723a.431.431,0,0,1-.43.432h-.432v1.721h.432a.431.431,0,0,1,.43.432V68.392A.431.431,0,0,1,8391.892,68.824Zm-6.462-15.076V67.963h6.03V67.1c0-.923.011-1.8.018-2.68v-.1c.021-2.781.039-5.408-.019-9.708v-.861h-6.03Zm-5.6,6.03v8.185h4.736V57.194h-4.736v2.584Zm-4.739,2.584a2.587,2.587,0,0,1,2.584,2.584v3.016h1.293V57.194h-7.753V67.963h1.292V64.947A2.587,2.587,0,0,1,8375.093,62.362Zm0,.861a1.725,1.725,0,0,0-1.723,1.723v3.016h3.445V64.947A1.725,1.725,0,0,0,8375.093,63.224Zm6.462-12.058v5.167h3.014V53.318a.431.431,0,0,1,.43-.432h3.445V51.166Zm-10.338-3.446v8.612h9.477V47.72h-9.477Zm18.089,3.446v1.721h1.293V51.166Zm-7.751-1.723V50.3h9.905v-.861Z" transform="translate(-8370.355 -46.859)" fill="#898989"/>
</svg>
