<svg xmlns="http://www.w3.org/2000/svg" width="11.576" height="11.132" viewBox="0 0 11.576 11.132">
  <path id="star_3_" data-name="star (3)" d="M10.527,4.314a.56.56,0,0,0-.483-.386L7,3.652,5.793.833a.561.561,0,0,0-1.032,0l-1.2,2.819L.51,3.929a.562.562,0,0,0-.318.982l2.3,2.019L1.815,9.92a.56.56,0,0,0,.834.606l2.628-1.57L7.9,10.526a.561.561,0,0,0,.835-.606L8.06,6.929l2.3-2.019A.561.561,0,0,0,10.527,4.314Zm0,0" transform="translate(0.511 0.008)" fill="#fff" stroke="#333" stroke-width="1"/>
</svg>
