<svg xmlns="http://www.w3.org/2000/svg" width="35.157" height="35.06" viewBox="0 0 35.157 35.06">
  <g id="Group_8385" data-name="Group 8385" transform="translate(0.5 0.507)">
    <g id="Group_8386" data-name="Group 8386">
      <path id="Union_424" data-name="Union 424" d="M2652.855,8336.05a1.215,1.215,0,0,1-.01-2.429c.4-.011.808,0,1.264,0,0-.563-.008-1.1,0-1.643a7.365,7.365,0,0,1,.084-1.4,2.345,2.345,0,0,1,2.314-1.833q3.691-.006,7.381,0a2.414,2.414,0,0,1,2.4,2.4c.006.81,0,1.619,0,2.473.448,0,.839-.006,1.23,0a1.216,1.216,0,0,1,.021,2.431l-7.342,0Zm3.707-2.452h7.268v-2.391h-7.268Zm20.469-1.347q-6.442-6.45-12.891-12.9a4.228,4.228,0,0,1-.318-.406l-3.144,2.211c.048.055.1.113.157.176a1.22,1.22,0,1,1-1.764,1.687c-.45-.429-.891-.866-1.331-1.308q-2.743-2.75-5.481-5.5a1.2,1.2,0,0,1-.368-1.276,1.181,1.181,0,0,1,.971-.859,1.272,1.272,0,0,1,1.232.517,31.42,31.42,0,0,1,10.211-10.258,5.086,5.086,0,0,1-.389-1.154,1.057,1.057,0,0,1,.743-1.086,1.188,1.188,0,0,1,1.36.3q1.714,1.7,3.425,3.41t3.412,3.427a1.178,1.178,0,0,1,.284,1.328,1.057,1.057,0,0,1-1.075.76,5,5,0,0,1-1.151-.374c-.613.878-1.289,1.849-2,2.874.36.341.732.685,1.09,1.042q6.072,6.069,12.142,12.138a3.989,3.989,0,0,1,1.234,2.5,3.694,3.694,0,0,1-3.1,3.894,4.393,4.393,0,0,1-.536.033A3.7,3.7,0,0,1,2677.031,8332.251Zm-11.4-14.873c.071.075.146.159.228.24q4.359,4.356,8.716,8.716,2.128,2.128,4.253,4.251a1.221,1.221,0,0,0,1.462.254,1.128,1.128,0,0,0,.6-1.278,1.794,1.794,0,0,0-.473-.793q-4.462-4.494-8.95-8.967c-1.381-1.381-2.757-2.766-4.113-4.126C2666.775,8316.253,2666.21,8316.812,2665.635,8317.378Zm.481-11.274a29.168,29.168,0,0,0-10.1,10.032c-.124.205-.056.31.086.449.847.839,1.695,1.678,2.527,2.533.192.2.32.187.544.051a28.532,28.532,0,0,0,7.785-6.906c.795-1.027,1.508-2.117,2.236-3.145-1.05-1.054-2.033-2.042-3.023-3.033A.316.316,0,0,0,2666.116,8306.1Zm-15.695,25.071a1.216,1.216,0,0,1,.013-2.431c.213,0,.429,0,.644,0s.4,0,.607,0a1.217,1.217,0,0,1-.012,2.434c-.193,0-.387,0-.581,0Q2650.757,8331.182,2650.422,8331.175Zm2.822-4.01c-.431-.412-.856-.831-1.26-1.269a1.124,1.124,0,0,1-.207-1.3,1.388,1.388,0,0,1,1.153-.8,4.109,4.109,0,0,1,.805.436c.439.381.841.8,1.24,1.228a1.225,1.225,0,0,1-.858,2.08A1.262,1.262,0,0,1,2653.244,8327.165Z" transform="translate(-2649.237 -8302)" fill="#1e428a" stroke="#fff" stroke-width="1"/>
    </g>
  </g>
</svg>
