<svg xmlns="http://www.w3.org/2000/svg" width="90.093" height="89.845" viewBox="0 0 90.093 89.845">
  <path id="Bidding" d="M1460.236,11484.913a3.1,3.1,0,0,1-.026-6.2c1.031-.025,2.062,0,3.225,0,0-1.439-.022-2.818.009-4.2a18.864,18.864,0,0,1,.211-3.562,5.987,5.987,0,0,1,5.911-4.678q9.419-.021,18.834,0a6.162,6.162,0,0,1,6.122,6.121c.018,2.063,0,4.129,0,6.311,1.146,0,2.146-.014,3.146,0a3.062,3.062,0,0,1,3.076,3.08,3.022,3.022,0,0,1-3.028,3.121q-10.043.012-20.085.014Q1468.933,11484.923,1460.236,11484.913Zm9.461-6.258h18.549v-6.1H1469.7Zm52.25-3.436q-16.449-16.462-32.907-32.92a10.839,10.839,0,0,1-.812-1.035c-2.778,1.951-5.363,3.77-8.026,5.643.123.141.263.293.4.447a3.117,3.117,0,0,1-4.5,4.311c-1.15-1.1-2.273-2.217-3.4-3.342q-7-7.017-13.99-14.037a3.063,3.063,0,0,1-.939-3.26,3.019,3.019,0,0,1,2.475-2.2,3.261,3.261,0,0,1,3.146,1.322,80.217,80.217,0,0,1,26.066-26.186,12.933,12.933,0,0,1-.992-2.949,2.683,2.683,0,0,1,1.891-2.768,3.04,3.04,0,0,1,3.475.754q4.371,4.351,8.741,8.711t8.706,8.74a3.013,3.013,0,0,1,.728,3.4,2.691,2.691,0,0,1-2.743,1.932,12.383,12.383,0,0,1-2.936-.949c-1.567,2.24-3.3,4.719-5.121,7.33.917.877,1.869,1.754,2.782,2.668q15.5,15.486,30.994,30.98a10.193,10.193,0,0,1,3.155,6.371,9.432,9.432,0,0,1-7.921,9.936,11.087,11.087,0,0,1-1.375.086A9.456,9.456,0,0,1,1521.948,11475.22Zm-29.089-37.963c.18.189.377.4.579.609q11.124,11.124,22.252,22.254,5.424,5.423,10.852,10.846a3.125,3.125,0,0,0,3.739.646,2.879,2.879,0,0,0,1.531-3.26,4.605,4.605,0,0,0-1.2-2.027q-11.394-11.473-22.85-22.889c-3.524-3.525-7.039-7.057-10.5-10.527Zm1.229-28.781a74.361,74.361,0,0,0-25.781,25.609c-.316.518-.145.785.215,1.145,2.164,2.143,4.327,4.283,6.451,6.463.491.51.82.479,1.391.133a72.95,72.95,0,0,0,19.87-17.623c2.027-2.623,3.853-5.406,5.709-8.031-2.681-2.693-5.191-5.213-7.715-7.744A.531.531,0,0,0,1494.087,11408.476Zm-40.064,64a3.1,3.1,0,0,1,.031-6.2c.549-.014,1.1,0,1.646,0,.518,0,1.036-.01,1.549,0a3.1,3.1,0,0,1-.031,6.209q-.8.009-1.6.01C1455.089,11472.487,1454.556,11472.483,1454.022,11472.472Zm7.205-10.236c-1.1-1.053-2.181-2.125-3.217-3.234a2.889,2.889,0,0,1-.526-3.336,3.554,3.554,0,0,1,2.944-2.053,10.55,10.55,0,0,1,2.054,1.113c1.119.971,2.146,2.059,3.168,3.139a3.124,3.124,0,0,1-2.189,5.307A3.233,3.233,0,0,1,1461.228,11462.235Z" transform="translate(-1449.549 -11396.528)" fill="#05d94e" stroke="#fff" stroke-width="2.9"/>
</svg>
