<svg xmlns="http://www.w3.org/2000/svg" width="31.768" height="31.758" viewBox="0 0 31.768 31.758">
  <g id="Line" transform="translate(-1.977 -1.999)">
    <path id="Path_10376" data-name="Path 10376" d="M4.715,35.508,28.283,24.081a.72.72,0,0,0,.33-.972C23.182,12.609,14.6,9.088,14.6,9.088a.726.726,0,0,0-.991.32L2.184,32.975a1.9,1.9,0,0,0,2.531,2.532ZM11.4,17.267l9.02,9.02L12.566,30.1,7.593,25.125Zm3.176-6.552A29.972,29.972,0,0,1,26.987,23.1L21.8,25.621,12.07,15.893ZM3.481,33.6,6.927,26.5l4.265,4.265L4.085,34.21a.453.453,0,0,1-.6-.6Z" transform="translate(0 -1.951)" fill="#1e428a"/>
    <path id="Path_10377" data-name="Path 10377" d="M27.34,9.587l.68-1.133a11.144,11.144,0,0,0,1.588-5.732.722.722,0,1,0-1.443,0,9.7,9.7,0,0,1-1.382,4.99L26.1,8.844a.721.721,0,0,0,.247.99A.7.7,0,0,0,27.34,9.587Z" transform="translate(-6.69 0)" fill="#1e428a"/>
    <path id="Path_10378" data-name="Path 10378" d="M22.207,3.044A.721.721,0,1,0,20.916,2.4l-.265.53a2.134,2.134,0,0,0,.4,2.468.694.694,0,0,1,.13.8l-.265.53a.724.724,0,0,0,.323.968.694.694,0,0,0,.968-.323l.265-.53a2.134,2.134,0,0,0-.4-2.468.694.694,0,0,1-.131-.8Z" transform="translate(-5.138 0)" fill="#1e428a"/>
    <path id="Path_10379" data-name="Path 10379" d="M32.74,8h-.007a.725.725,0,1,0,.007,0Z" transform="translate(-8.365 -1.671)" fill="#1e428a"/>
    <path id="Path_10380" data-name="Path 10380" d="M17.462,4.722A.721.721,0,0,0,16.74,4h-.007a.722.722,0,1,0,.729.722Z" transform="translate(-3.909 -0.557)" fill="#1e428a"/>
    <path id="Path_10381" data-name="Path 10381" d="M42.215,17a11.139,11.139,0,0,0-5.732,1.588l-1.133.68a.721.721,0,0,0-.247.99.7.7,0,0,0,.99.247l1.133-.68a9.7,9.7,0,0,1,4.989-1.382.722.722,0,0,0,0-1.443Z" transform="translate(-9.197 -4.178)" fill="#1e428a"/>
    <path id="Path_10382" data-name="Path 10382" d="M43.378,26.207a.722.722,0,0,0-.646-1.291l-.53.266a.693.693,0,0,1-.8-.131,2.138,2.138,0,0,0-2.467-.4l-.53.266a.722.722,0,0,0,.646,1.291l.53-.266a.691.691,0,0,1,.8.131,2.136,2.136,0,0,0,2.467.4Z" transform="translate(-10.036 -6.246)" fill="#1e428a"/>
    <path id="Path_10383" data-name="Path 10383" d="M38.733,14a.725.725,0,1,0,.007,0Z" transform="translate(-10.036 -3.342)" fill="#1e428a"/>
    <path id="Path_10384" data-name="Path 10384" d="M42.733,30a.725.725,0,1,0,.007,0Z" transform="translate(-11.15 -7.798)" fill="#1e428a"/>
    <path id="Path_10385" data-name="Path 10385" d="M34.211,11.561a.7.7,0,0,0,1.02,0l4.329-4.329a.721.721,0,1,0-1.02-1.02L34.211,10.54A.721.721,0,0,0,34.211,11.561Z" transform="translate(-8.918 -1.114)" fill="#1e428a"/>
    <path id="Path_10386" data-name="Path 10386" d="M37.322,5.286l1.443-2.165a.722.722,0,0,0-1.2-.8L36.121,4.485a.722.722,0,0,0,1.2.8Z" transform="translate(-9.475)" fill="#1e428a"/>
    <path id="Path_10387" data-name="Path 10387" d="M41.121,10.565a.721.721,0,0,0,1,.2l2.165-1.443a.722.722,0,1,0-.8-1.2L41.321,9.564A.721.721,0,0,0,41.121,10.565Z" transform="translate(-10.867 -1.671)" fill="#1e428a"/>
  </g>
</svg>
