<svg id="Group_8379" data-name="Group 8379" xmlns="http://www.w3.org/2000/svg" xmlns:xlink="http://www.w3.org/1999/xlink" width="33.487" height="33.734" viewBox="0 0 33.487 33.734">
  <defs>
    <clipPath id="clip-path">
      <rect id="Rectangle_3306" data-name="Rectangle 3306" width="33.487" height="33.734" fill="#1e428a"/>
    </clipPath>
  </defs>
  <g id="Group_8378" data-name="Group 8378" clip-path="url(#clip-path)">
    <path id="Path_10358" data-name="Path 10358" d="M18.473,32.121v1.611h-.4q-6.23,0-12.46,0a5.6,5.6,0,0,1-5.6-5.6c0-7.453.028-14.907-.016-22.36A5.711,5.711,0,0,1,4.988.032,6.027,6.027,0,0,1,5.74.006C9.4,0,13.068.009,16.732,0a1.085,1.085,0,0,1,.835.333q4.706,4.717,9.422,9.423a1.124,1.124,0,0,1,.354.869c-.016.989-.006,1.978-.006,3H25.712V11.254c-.185,0-.33,0-.475,0-1.355-.01-2.712.021-4.064-.041A5.537,5.537,0,0,1,16.142,6.42c-.1-1.108-.061-2.23-.08-3.345-.008-.463,0-.927,0-1.432-.139-.01-.257-.025-.376-.025-3.288,0-6.575-.01-9.863,0A3.983,3.983,0,0,0,1.707,4.867,5.271,5.271,0,0,0,1.63,5.916c0,7.315.013,14.631-.012,21.946a4.056,4.056,0,0,0,3.27,4.182,6.3,6.3,0,0,0,1.086.075q5.985.008,11.97,0ZM24.421,9.707,17.7,2.981c0,.868-.012,1.808,0,2.747a3.815,3.815,0,0,0,3.007,3.744,29.238,29.238,0,0,0,3.712.235" transform="translate(0 0)" fill="#1e428a"/>
    <path id="Path_10359" data-name="Path 10359" d="M230.258,229.305l-1.152,1.163q-1.486-1.491-2.988-3c-.895-.9-1.794-1.788-2.683-2.69a.3.3,0,0,0-.468-.049,6.421,6.421,0,1,1,2.7-5.887,6.252,6.252,0,0,1-1.1,4.277c-.062.091-.122.184-.2.307l2.958,2.952,2.933,2.927m-6.178-9.823a4.806,4.806,0,1,0-4.807,4.8,4.795,4.795,0,0,0,4.807-4.8" transform="translate(-196.772 -196.985)" fill="#1e428a"/>
    <rect id="Rectangle_3303" data-name="Rectangle 3303" width="7.985" height="1.568" transform="translate(5.665 16.097)" fill="#1e428a"/>
    <rect id="Rectangle_3304" data-name="Rectangle 3304" width="7.994" height="1.559" transform="translate(5.65 8.055)" fill="#1e428a"/>
    <rect id="Rectangle_3305" data-name="Rectangle 3305" width="7.979" height="1.57" transform="translate(5.665 24.12)" fill="#1e428a"/>
  </g>
</svg>
