<svg id="Structural_Design" data-name="Structural Design" xmlns="http://www.w3.org/2000/svg" width="28.338" height="28.289" viewBox="0 0 28.338 28.289">
  <path id="Path_7526" data-name="Path 7526" d="M328.323-671.875q0-6.729,0-13.457c0-.526.129-.656.654-.656H356c.54,0,.665.127.665.675v26.943c0,.544-.126.671-.669.671H329c-.559,0-.679-.122-.679-.689Q328.323-665.133,328.323-671.875Zm.927,13.243h26.475v-26.429H329.25Z" transform="translate(-328.323 685.989)" fill="#898989"/>
  <path id="Path_7527" data-name="Path 7527" d="M376.331-471.451q0-3.121,0-6.242c0-.462.149-.608.617-.608H386.2c.509,0,.644.134.644.638q0,6.2,0,12.4c0,.521-.131.651-.66.651h-9.222c-.487,0-.63-.141-.63-.624Q376.331-468.344,376.331-471.451Zm9.586-5.917h-8.649v11.828h8.649Z" transform="translate(-373.589 490.164)" fill="#898989"/>
  <path id="Path_7528" data-name="Path 7528" d="M592.383-471.452q0-3.107,0-6.214c0-.5.137-.638.645-.638h9.251c.469,0,.616.146.616.609q0,6.214,0,12.427c0,.522-.132.652-.659.652h-9.222c-.488,0-.63-.142-.63-.623Q592.383-468.345,592.383-471.452Zm.934-5.926v11.828h8.649v-11.828Z" transform="translate(-577.3 490.166)" fill="#898989"/>
  <path id="Path_7529" data-name="Path 7529" d="M381.583-638.065h4.653c.465,0,.609.146.609.615q0,3.035,0,6.07c0,.469-.144.614-.61.614h-9.278c-.484,0-.624-.141-.624-.629q0-3.035,0-6.07c0-.447.152-.6.6-.6Zm-4.322,6.368h8.649v-5.441h-8.649Z" transform="translate(-373.591 640.802)" fill="#898989"/>
  <path id="Path_7530" data-name="Path 7530" d="M597.65-630.764H593c-.468,0-.614-.144-.614-.611q0-3.035,0-6.07c0-.48.143-.619.635-.619h9.249c.486,0,.628.142.628.626q0,3.006,0,6.013c0,.538-.127.662-.677.662Zm-4.333-6.375v5.441h8.649v-5.441Z" transform="translate(-577.299 640.802)" fill="#898989"/>
</svg>
