<svg xmlns="http://www.w3.org/2000/svg" xmlns:xlink="http://www.w3.org/1999/xlink" width="227.852" height="226.582" viewBox="0 0 227.852 226.582">
  <defs>
    <linearGradient id="linear-gradient" x1="-1996.932" y1="0.5" x2="1" y2="0.5" gradientUnits="objectBoundingBox">
      <stop offset="0" stop-color="#ffc444"/>
      <stop offset="0.996" stop-color="#f36f56"/>
    </linearGradient>
    <linearGradient id="linear-gradient-2" x1="-3.429" y1="0.5" x2="7.049" y2="0.5" gradientUnits="objectBoundingBox">
      <stop offset="0" stop-color="#d8dee8"/>
      <stop offset="1" stop-color="#fff"/>
    </linearGradient>
    <linearGradient id="linear-gradient-3" x1="15.525" y1="0.5" x2="-25.339" y2="0.5" gradientUnits="objectBoundingBox">
      <stop offset="0" stop-color="#444b8c"/>
      <stop offset="0.996" stop-color="#26264f"/>
    </linearGradient>
    <linearGradient id="linear-gradient-4" x1="10.68" x2="-30.182" xlink:href="#linear-gradient-3"/>
    <linearGradient id="linear-gradient-5" x1="0" x2="1" xlink:href="#linear-gradient-3"/>
    <linearGradient id="linear-gradient-6" x1="1.524" y1="0.575" x2="-0.198" y2="0.428" xlink:href="#linear-gradient"/>
    <linearGradient id="linear-gradient-7" x1="-0.665" y1="-0.607" x2="0.752" y2="0.747" gradientUnits="objectBoundingBox">
      <stop offset="0" stop-color="#311944"/>
      <stop offset="1" stop-color="#a03976"/>
    </linearGradient>
    <linearGradient id="linear-gradient-8" x1="-0.292" y1="-2.685" x2="0.914" y2="1.232" xlink:href="#linear-gradient-7"/>
  </defs>
  <g id="Submit_Bid" data-name="Submit Bid" transform="translate(-460.242 -429.956)">
    <path id="Path_9182" data-name="Path 9182" d="M699.1,526.736c-6.176-40.424-31.5-90.087-81.521-95.285,0,0-37.981-4.62-75.422,2.382-22.221,4.156-41.706,16.526-54.035,34.3a74.4,74.4,0,0,0-11.449,60.126c3.246,13.424,5.44,27.318,4.838,41.112-1.048,24.008-.445,46.417,22.854,60.734,20.8,12.784,46.984,24.059,71.961,26.034,16.974,1.342,36.01-.83,52.37-5.249C712.064,628.373,705.271,567.16,699.1,526.736Z" transform="translate(-14.352)" fill="#f0f2f7"/>
    <g id="Group_6676" data-name="Group 6676" transform="translate(466.81 434.31)">
      <g id="Group_6674" data-name="Group 6674" transform="translate(0 10.143)">
        <path id="Path_9183" data-name="Path 9183" d="M629.158,723.241c-4.925-2.628-6.8-5.561-7.568-7.835-2.953-8.693,6.73-16.052,3.868-24.887-.788-2.431-2.728-4.769-6.542-6.946-12.124-6.92-24.1-4.839-18.28-24.737s-2.158-60.216-26.573-50.786c-14.012,5.412-5.338,25.31-14.408,36.606-8.619,10.734-5.681,21.764,5.533,31.787s3.165,14.085-3.054,24.717a9.96,9.96,0,0,0-1.551,6.175c.374,10.848,22.973,21.832,43.063,21.863A58.593,58.593,0,0,0,629.158,723.241Z" transform="translate(-554.65 -606.642)" fill="#3ae074"/>
        <path id="Path_9184" data-name="Path 9184" d="M633.449,742.182c-.945-.78-5.126-4.246-7.2-6.173-4.064-5.844-5.3-13.389-3.24-22.718a79.127,79.127,0,0,1,8.135-20.421.212.212,0,0,0-.068-.278l-.005,0a.212.212,0,0,0-.3.072l-.117.209a79.087,79.087,0,0,0-7.951,20.353c-1.955,8.859-.952,16.129,2.6,21.888a121.005,121.005,0,0,1-33.227-55.523l.007-.006-.015-.023a135.6,135.6,0,0,1-4.8-29.67,8.724,8.724,0,0,1,.122-1.944c2.024-11.6,9.333-20.835,15.529-26.811a.217.217,0,0,0,.019-.291l0,0a.218.218,0,0,0-.322-.022c-6.11,5.9-13.3,14.975-15.454,26.389a154.074,154.074,0,0,1,2.512-32.748.218.218,0,0,0-.225-.259h0a.223.223,0,0,0-.205.182,146.313,146.313,0,0,0,2.268,64.328c-6.678-9.806-17.426-15.106-26.369-17.945a.219.219,0,0,0-.279.161v0a.217.217,0,0,0,.147.254c9.186,2.906,20.261,8.373,26.789,18.559l.006.01c.3,1.069.608,2.136.934,3.194a122.666,122.666,0,0,0,20.485,39.463c-11.453-6.147-29.749-10.509-42.741-9.973a.208.208,0,0,0-.2.2s0,0,0,0a.206.206,0,0,0,.214.214c13.131-.549,31.742,3.785,43.115,10.052a119.289,119.289,0,0,0,19.568,19.619.224.224,0,0,0,.294-.013A.222.222,0,0,0,633.449,742.182Z" transform="translate(-564.006 -613.578)" fill="#fff" stroke="#fff" stroke-width="0.8"/>
      </g>
      <g id="Group_6675" data-name="Group 6675" transform="translate(23.933 0)">
        <path id="Path_9185" data-name="Path 9185" d="M850.889,619.545c-5.591-7.595-6.068-12.052-1.257-20.53,5.617-9.9,4.62-8.853,8.389-16.891,7.018-14.965-9.4-26.445-3.517-42.1,4.807-12.8,17.6-9.98,22.28-24.393,3.376-10.4-1.663-16.866,4.259-24.95.506-.691,6.073-8.066,13.814-7.645,7.813.425,13.273,8.542,15.385,14.32,3.9,10.681-3.043,14.96-3.06,29.32-.023,19.55,12.841,23.19,9.849,37.582-2.471,11.885-11.813,12.144-14.292,25.375-2.3,12.287,4.918,16.528,2.578,24.646C899.933,632.957,862.293,635.037,850.889,619.545Z" transform="translate(-846.333 -483.02)" fill="#2ebc5f"/>
        <path id="Path_9186" data-name="Path 9186" d="M990.011,564.322l0,0a.262.262,0,0,0-.4.171A43.246,43.246,0,0,1,987,573.046c-3.62,8.763-11.77,20.657-30.069,27.72a49.367,49.367,0,0,1-.546-7.653c.02-5.623.044-12.621,4.159-19.641a23.965,23.965,0,0,1,7.171-7.668c2.347-1.763,4.374-3.286,5.242-6.767,1.391-5.576-.356-10.017-2.38-15.157a56.531,56.531,0,0,1-3.256-10.234c-.105-.539-.191-1.083-.266-1.63a.252.252,0,0,0,.129-.02l.015-.007c10.213-5.639,15.469-13.226,18.159-19.917a.259.259,0,0,0,0-.192l0-.007a.258.258,0,0,0-.48,0c-2.65,6.592-7.829,14.07-17.89,19.637-1.106-9.161,1.932-19.326,9.049-30.3a.259.259,0,0,0-.142-.389l-.005,0a.261.261,0,0,0-.291.109c-7.748,11.952-10.706,22.973-8.786,32.818a56.933,56.933,0,0,0,3.283,10.326c1.991,5.058,3.711,9.426,2.359,14.84-.824,3.3-2.688,4.7-5.049,6.477a24.41,24.41,0,0,0-7.307,7.82,28.347,28.347,0,0,0-1.526,3l.021.066-.028-.05c-7.606-13.43-10.168-25.424-10.69-33.128a.259.259,0,0,0-.323-.234h-.005a.261.261,0,0,0-.2.27c.551,7.847,3.2,20.118,10.959,33.7h0c-2.4,5.88-2.425,11.56-2.442,16.282a49.752,49.752,0,0,0,.592,7.993l.023.143a54.606,54.606,0,0,0,4.043,13.072c2.134,5.117,3.82,9.158,2.147,15.044-1.4,4.913-4.434,8.629-8.025,11.863-15.094-10.644-20.9-22.579-23.1-30.757-.071-.263-.117-.428-.165-.616a.258.258,0,0,0-.414-.135l0,0a.255.255,0,0,0-.077.253c.048.2.1.424.149.6,2.218,8.251,8.053,20.281,23.214,31.006a.559.559,0,0,0,.836-.046c3.613-3.268,6.669-7.033,8.09-12.031,1.723-6.06.006-10.176-2.167-15.387a54.341,54.341,0,0,1-3.988-12.824q2.479-.953,4.719-2.016c15.269-7.235,22.42-17.965,25.758-26.056a49.982,49.982,0,0,0,2.645-8.622A.264.264,0,0,0,990.011,564.322Zm-23.1-32.762a.264.264,0,0,0-.034.029A.247.247,0,0,1,966.91,531.56Zm-.1.187a.24.24,0,0,0,0,.035A.223.223,0,0,1,966.815,531.747Zm.028-.1a.237.237,0,0,0-.019.036A.24.24,0,0,1,966.843,531.642Z" transform="translate(-923.935 -499.348)" fill="#fff" stroke="#fff" stroke-width="0.5"/>
      </g>
    </g>
    <path id="Path_9187" data-name="Path 9187" d="M506.1,2228.274v6.009l118.369,15.369,103.3-18.452v-4.1Z" transform="translate(-43.274 -1649.684)" fill="#fff"/>
    <g id="Group_6683" data-name="Group 6683" transform="translate(461.989 489.239)">
      <path id="Path_9189" data-name="Path 9189" d="M495.886,2236.22v6.009L614.254,2257.6l103.3-18.452v-4.1Z" transform="translate(-495.886 -2146.216)" fill="#2b3a7b"/>
      <path id="Path_9190" data-name="Path 9190" d="M658.871,2163.611l-137.937-2.451-25.048,4.627v4.537l118.369,15.369,103.3-18.452Z" transform="translate(-495.886 -2078.394)" fill="#182149"/>
      <g id="Group_6678" data-name="Group 6678" transform="translate(34.812 0)">
        <path id="Path_9191" data-name="Path 9191" d="M1629.205,1211.083v-21.176l-52.956-11.138v32.314Z" transform="translate(-1522.415 -1176.61)" fill="#d8dee8"/>
        <path id="Path_9192" data-name="Path 9192" d="M1730.356,1336.239v-15.084L1694.6,1315l.057,21.24Z" transform="translate(-1631.051 -1301.663)" fill="#ad7aee" opacity="0.2"/>
        <path id="Path_9193" data-name="Path 9193" d="M1001.394,1216.358l.114-37.523L964.45,1180.7,950.2,1202.112l-.166,14.246Z" transform="translate(-947.586 -1176.671)" fill="#fff"/>
        <path id="Path_9194" data-name="Path 9194" d="M1104.123,1323.457v19.879l32.868.14v-23.929Z" transform="translate(-1089.027 -1305.837)" fill="#ad7aee" opacity="0.2"/>
        <g id="Group_6677" data-name="Group 6677">
          <path id="Path_9195" data-name="Path 9195" d="M963.782,1172.7l-15.694,22.725,2.467,1.909,16.145-21.273,33.014-2.729-.043-2.441Z" transform="translate(-945.795 -1169.379)" fill="#d8dee8"/>
          <path id="Path_9196" data-name="Path 9196" d="M1735.224,1196.9v-.941l-.038.934Z" transform="translate(-1668.311 -1192.393)" fill="url(#linear-gradient)"/>
          <path id="Path_9197" data-name="Path 9197" d="M936.367,1154.9l-16.217,22.844,2.618,1.374v.045l15.433-21.725,48.862-1.4v-3.569Z" transform="translate(-920.149 -1152.463)" fill="#1e428a"/>
          <path id="Path_9198" data-name="Path 9198" d="M1786.265,1163.5v3.108l-51.109-10.665.041-3.475.109.025Z" transform="translate(-1668.284 -1152.463)" fill="#163167"/>
          <path id="Path_9199" data-name="Path 9199" d="M1641.342,1205.483v.076l-11.208.132-52.854-10.4,0-.018,12.954-.458Z" transform="translate(-1523.36 -1191.343)" fill="#97a6b7"/>
        </g>
      </g>
      <g id="Group_6681" data-name="Group 6681" transform="translate(150.591 5.702)">
        <g id="Group_6679" data-name="Group 6679" transform="translate(13.953)">
          <path id="Path_9200" data-name="Path 9200" d="M2501.958,1251.18a33.814,33.814,0,0,1-.133-13.06c.636-3.359,1.93-10.188,7.358-13.995.428-.3,4.675-3.221,6.582-1.77.984.748,1.208,2.555.778,3.981-1.111,3.682-6.118,3.274-7.781,7.464-.554,1.4-.657,3.1-.271,3.259.476.2,1.832-1.885,1.962-2.083,1.209-1.856,1.221-2.907,2.143-3.193a1.586,1.586,0,0,1,1.646.436c.76,1.018-.742,3.339-1.161,3.987-1.1,1.7-2.015,2.082-2.238,3.527-.1.622-.079,1.541.29,1.685.5.194,1.451-1.106,2.062-1.939,1.643-2.241,1.818-3.544,2.634-3.638.762-.087,1.621.931,1.841,1.552C2518.273,1239.087,2515.854,1242.692,2501.958,1251.18Z" transform="translate(-2501.255 -1221.953)" fill="#2ebc5f"/>
          <path id="Path_9201" data-name="Path 9201" d="M2511.694,1269.706a40.2,40.2,0,0,1,1.463-12.263c1-3.546,2.879-10.214,8.152-13.1.375-.205,3.132-1.714,3.9-.906.513.539.058,2.017-.7,3-1.289,1.671-2.773,1.008-4.877,2.648a8.277,8.277,0,0,0-2.718,3.972,8.783,8.783,0,0,0-.209,4.181C2517.041,1259.541,2516.366,1263.322,2511.694,1269.706Z" transform="translate(-2510.817 -1241.458)" fill="#fff" opacity="0.28" style="mix-blend-mode: soft-light;isolation: isolate"/>
          <path id="Path_9202" data-name="Path 9202" d="M2534.873,1369.211c2.957-2.648,3.64-4.818,3.693-6.341.041-1.186-.28-2.594.627-3.9.58-.837,1.018-.7,2.021-1.6,2.1-1.882,2.355-4.418,2.787-4.32.24.054.365.887.209,1.672-.322,1.621-1.59,1.792-2.857,3.763a10.119,10.119,0,0,0-1.324,3.345c-.386,1.681-.124,2.271-.348,3.205C2539.39,1366.242,2538.336,1367.805,2534.873,1369.211Z" transform="translate(-2532.115 -1342.287)" fill="#fff" opacity="0.28" style="mix-blend-mode: soft-light;isolation: isolate"/>
        </g>
        <g id="Group_6680" data-name="Group 6680" transform="translate(0 9.75)">
          <path id="Path_9203" data-name="Path 9203" d="M2347.636,1361.174c5.126.294,6.65.6,9.065-.222,2.27-.773,4.6-2.3,4.394-3-.147-.5-1.572-.495-2.423-.491a12.173,12.173,0,0,0-5.489,1.386l3.42-2.321a8.456,8.456,0,0,0,3.336-2.166c.747-.8,2.463-2.964,1.818-4-.674-1.087-3.875-.867-5.721.674-.885.739-.886,1.305-2.073,2.6a12.466,12.466,0,0,1-2.975,2.368,16.993,16.993,0,0,0,2.505-4.277c1.178-2.931,2.067-7.569.569-8.412-.994-.559-2.964.593-3.949,1.959-.8,1.107-.721,2.036-1.271,5.594-.239,1.547-.473,2.792-.625,3.565a21.9,21.9,0,0,1-2.056-8.225c-.115-2.657.325-4.739-.691-5.292-.906-.494-2.523.469-3.344,1.373-3.32,3.657,1.061,12.241,1.524,13.127a24.4,24.4,0,0,1-4.523-4.452c-1.739-2.231-2.473-3.892-3.357-3.743s-1.458,2.02-1.393,3.468c.184,4.038,5.458,6.41,6.021,6.654a6.018,6.018,0,0,1-2.083-.023c-1.967-.375-2.58-1.567-4.575-1.972-.763-.155-2.323-.315-2.515.157-.345.848,3.6,4.033,8.377,5.247C2341.354,1361.19,2340.934,1360.79,2347.636,1361.174Z" transform="translate(-2331.203 -1340.775)" fill="#05d94e"/>
          <path id="Path_9204" data-name="Path 9204" d="M2537.432,1465.337c2.334-1.038,2.017-2.448,4.57-4.2,1.635-1.119,2.015-.711,3.767-1.781a11.887,11.887,0,0,0,2.391-1.93l.01.014c.645,1.041-1.071,3.205-1.818,4a8.453,8.453,0,0,1-3.336,2.166l-3.42,2.321a12.174,12.174,0,0,1,5.49-1.386,4.781,4.781,0,0,1,2.307.322,5.465,5.465,0,0,1-1.805.732c-1.145.234-1.863-.028-2.854.57-.795.479-.729.886-1.428,1.145-.658.244-.995-.013-2.62-.28-1.581-.26-2.384-.381-3.022.02a2.228,2.228,0,0,0-.881,1.243l-.5-.03a3.888,3.888,0,0,1,.8-1.6A5.386,5.386,0,0,1,2537.432,1465.337Z" transform="translate(-2517.616 -1447.859)" fill="#fff" opacity="0.28" style="mix-blend-mode: soft-light;isolation: isolate"/>
          <path id="Path_9205" data-name="Path 9205" d="M2346.5,1432.736c-.369-.088-.545.175-1.057.242-.951.124-1.308-.662-2.427-1.035-1.324-.442-1.66.38-2.979-.029-1.044-.323-.909-.862-2.273-1.647-1.451-.836-2.066-.493-3.133-1.184a4.132,4.132,0,0,1-1.107-1.066,4.821,4.821,0,0,1,2.346.013c2,.4,2.608,1.6,4.575,1.972a6.021,6.021,0,0,0,2.083.023c-.563-.245-5.837-2.616-6.021-6.654-.061-1.344.433-3.051,1.207-3.409a19.433,19.433,0,0,0-.091,2.357c.033,1.459.059,2.2.52,2.81.8,1.056,1.777.506,3.109,1.6,1.212,1,.79,1.775,2.054,2.776,1.091.864,1.738.549,2.764,1.25a4.966,4.966,0,0,1,1.9,3.013l-.614-.027C2347.17,1433.25,2346.9,1432.831,2346.5,1432.736Z" transform="translate(-2333.337 -1413.464)" fill="#fff" opacity="0.28" style="mix-blend-mode: soft-light;isolation: isolate"/>
          <path id="Path_9206" data-name="Path 9206" d="M2474.593,1354.545c-.639-1.74-1.747-1.561-2.21-3.093s.546-2,.29-4.2c-.192-1.652-.816-1.9-.857-3.025a4.629,4.629,0,0,1,1.62-3.373,1.508,1.508,0,0,1,1.107.059c1.016.554.576,2.636.691,5.292a21.9,21.9,0,0,0,2.056,8.225c.152-.773.387-2.018.626-3.565.55-3.558.471-4.486,1.27-5.594.986-1.366,2.956-2.518,3.949-1.959a.985.985,0,0,1,.16.113,5.592,5.592,0,0,0-1.337,1.265c-1.311,1.746-.565,3-1.753,6.442-1.143,3.313-2.3,3.517-3.222,6.38a13.469,13.469,0,0,0-.627,3.644l-.951-.05a14.1,14.1,0,0,1-.576-2.992C2474.676,1356.23,2475.025,1355.72,2474.593,1354.545Z" transform="translate(-2460.276 -1340.777)" fill="#fff" opacity="0.536" style="mix-blend-mode: soft-light;isolation: isolate"/>
        </g>
      </g>
      <g id="Group_6682" data-name="Group 6682" transform="translate(23.97 25.887)">
        <path id="Path_9207" data-name="Path 9207" d="M788.406,1528.15l115.682,9.184v-69.37l-116.073,12.31S788.6,1527.955,788.406,1528.15Z" transform="translate(-788.015 -1467.964)" fill="#fff"/>
        <path id="Path_9208" data-name="Path 9208" d="M2202.65,1537.366V1468l52.956,11.429v53.249Z" transform="translate(-2086.577 -1467.996)" fill="url(#linear-gradient-2)"/>
        <path id="Path_9209" data-name="Path 9209" d="M2243.332,1616.811c0,.127-.2,50.9-.2,50.9l24.469-1.619.131-45.906Z" transform="translate(-2123.741 -1604.598)" fill="#8b9ec4"/>
        <path id="Path_9210" data-name="Path 9210" d="M1350.087,1669.195l11.045-.85-.007,48.337-10.945-.955S1350.087,1669.292,1350.087,1669.195Z" transform="translate(-1303.968 -1651.903)" fill="#8b9ec4"/>
        <path id="Path_9211" data-name="Path 9211" d="M1583.45,1641.854l.1,49.536,21.3,1.7v-52.94Z" transform="translate(-1518.183 -1626.019)" fill="#8b9ec4"/>
        <path id="Path_9212" data-name="Path 9212" d="M789.083,1689.492l.1,39.694,37.111,2.619.373-45.209Z" transform="translate(-788.995 -1668.657)" fill="#8b9ec4"/>
        <path id="Path_9213" data-name="Path 9213" d="M819.931,1741.489c-6.983-6.145-16.48-7.263-22.905-13.967a21.128,21.128,0,0,1-4.793-8.467l-3.078.233.092,39.694,37.1,2.619.082-8.572C824.395,1749.011,823.308,1744.625,819.931,1741.489Z" transform="translate(-789.061 -1698.453)" fill="#fff" opacity="0.2" style="mix-blend-mode: screen;isolation: isolate"/>
        <path id="Path_9214" data-name="Path 9214" d="M1351.548,1677.352l-1.461.111c0,.1.093,46.532.093,46.532l10.945.955v-26.617a41.892,41.892,0,0,1-5.055-6.344A32.987,32.987,0,0,1,1351.548,1677.352Z" transform="translate(-1303.968 -1660.171)" fill="#fff" opacity="0.2" style="mix-blend-mode: screen;isolation: isolate"/>
        <path id="Path_9215" data-name="Path 9215" d="M1584.2,2039.3l21.3,1.7v-8.95c-7.194-4.589-14.682-8.235-21.339-12.892Z" transform="translate(-1518.832 -1973.929)" fill="#fff" opacity="0.2" style="mix-blend-mode: screen;isolation: isolate"/>
        <path id="Path_9216" data-name="Path 9216" d="M2543.956,1657.975l-3.126-.431v45.941l3.126-.208Z" transform="translate(-2397.008 -1641.988)" fill="url(#linear-gradient-3)"/>
        <path id="Path_9217" data-name="Path 9217" d="M2728.524,1683.433,2725.4,1683v42.847l3.126-.208Z" transform="translate(-2566.432 -1665.357)" fill="url(#linear-gradient-4)"/>
        <path id="Path_9218" data-name="Path 9218" d="M2606.322,1666.577v44.843l3.713-.246v-44.085Z" transform="translate(-2457.126 -1650.281)" fill="#8b9ec4"/>
        <path id="Path_9219" data-name="Path 9219" d="M2651.571,1672.818V1716.9l.659-.044v-43.95Z" transform="translate(-2498.663 -1656.01)" fill="url(#linear-gradient-5)"/>
        <path id="Path_9220" data-name="Path 9220" d="M2665.007,1674.672l-5.4-.744v43.95l5.4-.358Z" transform="translate(-2506.041 -1657.028)" fill="#8b9ec4"/>
        <path id="Path_9221" data-name="Path 9221" d="M2266.252,1649.031c-1.955-2.514-.559-5.866-2.234-8.38-3.631-5.587-10.335-6.145-14.246-11.173a28.073,28.073,0,0,1-5.467-12.532l-.973-.135c0,.127-.2,50.9-.2,50.9l24.469-1.619.045-15.8A4.962,4.962,0,0,1,2266.252,1649.031Z" transform="translate(-2123.741 -1604.598)" fill="#fff" opacity="0.2" style="mix-blend-mode: screen;isolation: isolate"/>
        <path id="Path_9222" data-name="Path 9222" d="M2606.322,2059.451l3.713-.246v-11.987a28.9,28.9,0,0,0-3.713-1.5Z" transform="translate(-2457.126 -1998.311)" fill="#fff" opacity="0.2" style="mix-blend-mode: screen;isolation: isolate"/>
        <path id="Path_9223" data-name="Path 9223" d="M2659.608,2068.151v11.6l5.4-.358v-6.962A18.087,18.087,0,0,0,2659.608,2068.151Z" transform="translate(-2506.041 -2018.904)" fill="#fff" opacity="0.2" style="mix-blend-mode: screen;isolation: isolate"/>
      </g>
    </g>
    <g id="Group_6718" data-name="Group 6718" transform="translate(560.444 578.833)">
      <path id="Path_9295" data-name="Path 9295" d="M1703.61,2900.784h-2.756s-3.291,10.053-4.772,11.534,2.009,5.924,36.547,5.553c23.555-.494,30.1-2.838,30.589-5.307s-2.65-5.307-2.621-6.788-4.1-4.993-4.1-4.993Z" transform="translate(-1695.808 -2846.925)" fill="#1e428a"/>
      <path id="Path_9296" data-name="Path 9296" d="M1803.411,2905.777c.029-1.481-4.1-4.993-4.1-4.993h-55.641s-.51,1.558-1.219,3.538a11.491,11.491,0,0,0,7.166,1.945c3.868.176,7.559-1.582,11.075-.352,6.329,2.11,12.482,5.274,19.338,3.516,4.219-1.055,8.262-2.813,12.657-2.637,2.637,0,5.45,2.813,3.516,5.1-5.45,5.8-14.064,2.285-21.448,3.692-4.395.879-8.438.527-12.657.527-.527,0-1.231.527-1.758.527a53.719,53.719,0,0,1-7.851.521,223.226,223.226,0,0,0,22.955.713c23.555-.494,30.1-2.838,30.589-5.307S1803.382,2907.258,1803.411,2905.777Z" transform="translate(-1738.622 -2846.925)" opacity="0.3" fill="url(#linear-gradient-6)" style="mix-blend-mode: multiply;isolation: isolate"/>
      <ellipse id="Ellipse_2295" data-name="Ellipse 2295" cx="27.82" cy="2.648" rx="27.82" ry="2.648" transform="translate(5.046 51.21)" fill="#2e60c3"/>
      <ellipse id="Ellipse_2296" data-name="Ellipse 2296" cx="18.493" cy="1.723" rx="18.493" ry="1.723" transform="translate(14.374 51.21)" fill="#12306e"/>
      <path id="Path_9297" data-name="Path 9297" d="M2248.073,2557.227s51.5,6.366,62.415,6.038,8.545,10.919,1.615,10.9-63.474-10.661-63.474-10.661Z" transform="translate(-2202.759 -2531.558)" fill="#05d94e"/>
      <path id="Path_9298" data-name="Path 9298" d="M1934.531,2244.43a9.526,9.526,0,0,0-3.61,3.61c-1.787,3.309.01,5.433-1.481,9.441-1.321,3.549-3.1,2.89-4.115,6.309-1.105,3.738.879,5.028-.61,8.235-1.12,2.412-2.674,2.609-2.994,4.968-.05.367-.011.355.408,4.277.338,3.157.362,3.634,0,4.23-.589.97-1.47,1.042-2.178,2.45a4.5,4.5,0,0,0-.476,1.5c-.126,2.354,6.518,5.093,12.742,6.447,2.714.591,11.041,2.385,12.6-.406.289-.516.188-1.273.076-2.648-.177-2.17-.718-2.531-.634-3.611.152-1.931,1.99-2.169,3.248-4.341,1.311-2.263.038-3.25.748-6.8.835-4.176,2.814-3.929,3.675-8.03.767-3.653-.689-4.4.487-7.312,1.019-2.527,2.437-2.779,3.3-5.15a9.818,9.818,0,0,0-.182-6.494,31.113,31.113,0,0,0-21.011-6.664Z" transform="translate(-1901.121 -2244.384)" fill="#05d94e"/>
      <path id="Path_9299" data-name="Path 9299" d="M1955.542,2251.095a31.113,31.113,0,0,0-21.011-6.664,9.9,9.9,0,0,0-3.107,2.8,18.327,18.327,0,0,1,12.754,1.316c.7.377,6.307,3.377,6.021,6.893-.184,2.263-2.605,2.228-3.979,5.356-1.626,3.7,1,5.475-.408,9.8-1.085,3.319-2.884,3.038-3.675,6.4-.775,3.292.831,4.087-.136,6.941-1.248,3.68-4.935,5.357-5.444,5.58a11.6,11.6,0,0,1-4.576.851,18.49,18.49,0,0,1-10.872-3.823,4.018,4.018,0,0,0-1.156,1.408,4.5,4.5,0,0,0-.476,1.5c-.126,2.354,6.518,5.093,12.742,6.447,2.714.591,11.041,2.385,12.6-.406.289-.516.188-1.273.076-2.648-.177-2.17-.718-2.531-.634-3.611.152-1.931,1.99-2.169,3.248-4.341,1.311-2.263.038-3.25.748-6.8.835-4.176,2.814-3.929,3.675-8.03.767-3.653-.689-4.4.487-7.312,1.019-2.527,2.437-2.779,3.3-5.15A9.818,9.818,0,0,0,1955.542,2251.095Z" transform="translate(-1901.121 -2244.384)" opacity="0.3" fill="url(#linear-gradient-7)" style="mix-blend-mode: multiply;isolation: isolate"/>
      <path id="Path_9300" data-name="Path 9300" d="M2397.375,2616.042a7.272,7.272,0,0,1-.371.648c-3.6,5.854-10.994,5.179-17.059,5.015-8.117-.036-15.516-3.372-23.3-5.94a17.975,17.975,0,0,0-16.086,1.747c15.372,2.845,51.031,9.337,56.442,9.351C2403.473,2626.878,2405.968,2617.069,2397.375,2616.042Z" transform="translate(-2287.656 -2584.253)" opacity="0.3" fill="url(#linear-gradient-8)" style="mix-blend-mode: multiply;isolation: isolate"/>
    </g>
  </g>
</svg>
