<svg xmlns="http://www.w3.org/2000/svg" width="108.641" height="108.489" viewBox="0 0 108.641 108.489">
  <g id="Group_7546" data-name="Group 7546" transform="translate(-542.5 -379.337)">
    <g id="Group_7461" data-name="Group 7461" transform="translate(542.5 379.337)">
      <g id="house-design" transform="translate(0 0)">
        <g id="Group_7151" data-name="Group 7151" transform="translate(1.004 93.183)">
          <path id="Path_9932" data-name="Path 9932" d="M112.375,440.522v13.995a.656.656,0,0,1-.656.656H5.394a.656.656,0,0,1-.656-.656V440.522a.656.656,0,0,1,.656-.656h7.489l1.639,1.48,1.64-1.48h6.5l1.639,1.862,1.64-1.862H32.45l1.639,1.371,1.639-1.371h6.512l1.64,1.753,1.64-1.753h6.505L53.9,441.51l1.4-1.644h6.5l1.93,1.753,1.349-1.753h6.506l1.639,1.862,1.639-1.862h6.506l1.926,1.261,1.353-1.261h6.505l2.2,1.644,1.082-1.644h6.624l1.639,1.179,1.528-1.179h7.487A.656.656,0,0,1,112.375,440.522Z" transform="translate(-4.738 -439.866)" fill="#ced6e8" fill-rule="evenodd"/>
        </g>
        <g id="Group_7152" data-name="Group 7152" transform="translate(101.658 93.184)">
          <path id="Path_9933" data-name="Path 9933" d="M479.083,439.87v15.305h6.327a.656.656,0,0,0,.656-.656V440.526a.656.656,0,0,0-.656-.656h-6.327Z" transform="translate(-479.083 -439.87)" fill="#8b9ec4" fill-rule="evenodd"/>
        </g>
        <g id="Group_7153" data-name="Group 7153" transform="translate(0 7.219)">
          <path id="Path_9934" data-name="Path 9934" d="M17.053,34.75,8.3,93.636a8.288,8.288,0,1,0,0,16.576H33.12l71.091.006c3.433,0,4.065-2.026,4.065-4.071V38.381c0-1.481-.452-3.631-3.792-3.631H17.053Z" transform="translate(-0.007 -34.75)" fill="#eff2fa" fill-rule="evenodd"/>
        </g>
        <g id="Group_7154" data-name="Group 7154" transform="translate(96.887 7.219)">
          <path id="Path_9935" data-name="Path 9935" d="M460.638,38.382v67.766c0,2.039-.626,4.059-4.04,4.071h7.318c3.433,0,4.065-2.026,4.065-4.071V38.382c0-1.481-.452-3.631-3.792-3.631h-7.343C460.186,34.751,460.638,36.9,460.638,38.382Z" transform="translate(-456.598 -34.751)" fill="#ced6e8" fill-rule="evenodd"/>
        </g>
        <g id="Group_7155" data-name="Group 7155" transform="translate(0 60.76)">
          <path id="Path_9936" data-name="Path 9936" d="M14.228,290.226H8.3c-4.561,0-8.291,5.918-8.291,10.478a8.223,8.223,0,0,0,.83,3.606,8.306,8.306,0,0,1,7.46-4.685h5.93a2.832,2.832,0,0,0,2.826-2.826v-9.4C17.053,285.852,15.783,290.226,14.228,290.226Z" transform="translate(-0.007 -287.069)" fill="#dddaec" fill-rule="evenodd"/>
        </g>
        <g id="Group_7168" data-name="Group 7168" transform="translate(0 0)">
          <path id="Path_9949" data-name="Path 9949" d="M17.053,64.009V3.556A2.832,2.832,0,0,0,14.228.73H8.3A8.314,8.314,0,0,0,.007,9.021v66.1A8.314,8.314,0,0,1,8.3,66.835h5.93a2.832,2.832,0,0,0,2.826-2.826Z" transform="translate(-0.007 -0.73)" fill="#ced6e8" fill-rule="evenodd"/>
        </g>
        <g id="Group_7169" data-name="Group 7169" transform="translate(8.291 0)">
          <path id="Path_9950" data-name="Path 9950" d="M41.9,7.949v56.06a2.831,2.831,0,0,1-2.819,2.826h5.93a2.832,2.832,0,0,0,2.826-2.826V3.556A2.832,2.832,0,0,0,45.008.73h-5.93A2.831,2.831,0,0,1,41.9,3.556Z" transform="translate(-39.078 -0.73)" fill="#8b9ec4" fill-rule="evenodd"/>
        </g>
        <g id="Group_7170" data-name="Group 7170" transform="translate(9.149 93.183)">
          <path id="Path_9951" data-name="Path 9951" d="M46.4,439.867v7.015a1.639,1.639,0,1,1-3.279,0v-7.015Z" transform="translate(-43.124 -439.867)" fill="#f9f3f1"/>
        </g>
        <g id="Group_7171" data-name="Group 7171" transform="translate(18.932 93.183)">
          <path id="Path_9952" data-name="Path 9952" d="M92.5,439.867v3.738a1.639,1.639,0,0,1-3.279,0v-3.738Z" transform="translate(-89.225 -439.867)" fill="#f9f3f1"/>
        </g>
        <g id="Group_7172" data-name="Group 7172" transform="translate(28.716 93.183)">
          <path id="Path_9953" data-name="Path 9953" d="M138.615,439.867v7.015a1.639,1.639,0,1,1-3.279,0v-7.015Z" transform="translate(-135.336 -439.867)" fill="#f9f3f1"/>
        </g>
        <g id="Group_7173" data-name="Group 7173" transform="translate(38.507 93.183)">
          <path id="Path_9954" data-name="Path 9954" d="M184.756,439.867v3.738a1.639,1.639,0,0,1-3.279,0v-3.738Z" transform="translate(-181.477 -439.867)" fill="#f9f3f1"/>
        </g>
        <g id="Group_7174" data-name="Group 7174" transform="translate(48.292 93.183)">
          <path id="Path_9955" data-name="Path 9955" d="M230.867,439.867v7.015a1.639,1.639,0,1,1-3.279,0v-7.015Z" transform="translate(-227.588 -439.867)" fill="#f9f3f1"/>
        </g>
        <g id="Group_7175" data-name="Group 7175" transform="translate(58.074 93.183)">
          <path id="Path_9956" data-name="Path 9956" d="M276.968,439.867v3.738a1.639,1.639,0,0,1-3.279,0v-3.738Z" transform="translate(-273.689 -439.867)" fill="#f9f3f1"/>
        </g>
        <g id="Group_7176" data-name="Group 7176" transform="translate(67.859 93.183)">
          <path id="Path_9957" data-name="Path 9957" d="M323.079,439.867v7.015a1.639,1.639,0,1,1-3.279,0v-7.015Z" transform="translate(-319.8 -439.867)" fill="#f9f3f1"/>
        </g>
        <g id="Group_7177" data-name="Group 7177" transform="translate(77.643 93.183)">
          <path id="Path_9958" data-name="Path 9958" d="M369.19,439.867v3.738a1.639,1.639,0,0,1-3.279,0v-3.738Z" transform="translate(-365.911 -439.867)" fill="#f9f3f1"/>
        </g>
        <g id="Group_7178" data-name="Group 7178" transform="translate(87.428 93.183)">
          <path id="Path_9959" data-name="Path 9959" d="M415.3,439.867v7.015a1.639,1.639,0,0,1-3.279,0v-7.015Z" transform="translate(-412.022 -439.867)" fill="#f9f3f1"/>
        </g>
        <g id="Group_7179" data-name="Group 7179" transform="translate(97.219 93.183)">
          <path id="Path_9960" data-name="Path 9960" d="M461.442,439.867v3.738a1.639,1.639,0,0,1-3.279,0v-3.738Z" transform="translate(-458.163 -439.867)" fill="#f9f3f1"/>
        </g>
      </g>
    </g>
    <path id="house-plan-scale" d="M54.912,58.328a.953.953,0,0,1-.674-1.627l.422-.422H11.112l.422.422a.953.953,0,0,1-1.348,1.348L8.159,56.022a.95.95,0,0,1-.279-.686v-.012a.952.952,0,0,1,.418-.789L10.233,52.6a.953.953,0,1,1,1.348,1.348l-.422.422H54.708l-.422-.422A.953.953,0,1,1,55.634,52.6l2.026,2.026a.949.949,0,0,1,.279.686v.012a.952.952,0,0,1-.418.789l-1.936,1.935A.949.949,0,0,1,54.912,58.328ZM3,51.7a.952.952,0,0,1-.789-.418L.28,49.348A.953.953,0,1,1,1.628,48l.422.422V4.873L1.628,5.3A.953.953,0,1,1,.28,3.947L2.306,1.921a.934.934,0,0,1,.686-.279.976.976,0,0,1,.8.418L5.728,3.995A.953.953,0,1,1,4.38,5.343l-.422-.422V48.47l.422-.422A.953.953,0,1,1,5.728,49.4L3.7,51.422a.945.945,0,0,1-.686.279ZM56.986,49H10.907a.953.953,0,0,1-.954-.954V2.6a.953.953,0,0,1,.954-.954H38.443A.953.953,0,0,1,39.4,2.6V21.1h17.59a.953.953,0,0,1,.954.954V48.05A.953.953,0,0,1,56.986,49ZM39.355,47.1H56.033V23.009H39.355Zm-18.266,0h16.36V34.324H21.089Zm-9.228,0h7.321V34.324H11.861Zm8.275-14.68H37.449V22.056a.968.968,0,0,1,.041-.278V11.821H11.861v20.6Zm5.473-22.5H37.489V3.549H25.608Zm-13.747,0H23.7V3.549H11.861Z" transform="translate(570.463 394.307)" fill="#8b9ec4"/>
    <path id="house-plan-scale-2" data-name="house-plan-scale" d="M62.283,105.738a.953.953,0,0,1-.674-1.627l.422-.422H18.483l.422.422a.953.953,0,0,1-1.348,1.348l-2.026-2.026a.95.95,0,0,1-.279-.686v-.012a.952.952,0,0,1,.418-.789L17.6,100.01a.953.953,0,1,1,1.348,1.348l-.422.422H62.079l-.422-.422a.953.953,0,1,1,1.348-1.348l2.026,2.026a.949.949,0,0,1,.279.686v.012a.952.952,0,0,1-.418.789l-1.936,1.935A.949.949,0,0,1,62.283,105.738Z" transform="translate(563.091 346.897)" fill="#3ae074"/>
  </g>
</svg>
