<?xml version="1.0" encoding="UTF-8"?>
<svg width="35px" height="38px" viewBox="0 0 35 38" version="1.1" xmlns="http://www.w3.org/2000/svg" xmlns:xlink="http://www.w3.org/1999/xlink">
    
    <title>Group_4051</title>
    <desc>Created with Sketch.</desc>
    <g id="Page-1" stroke="none" stroke-width="1" fill="none" fill-rule="evenodd">
        <g id="Turnkey" transform="translate(-1436.000000, -374.000000)" fill="#898989" fill-rule="nonzero" stroke="#89898A" stroke-width="0.5">
            <g transform="translate(-8.000000, -16.000000)" id="Group_4051">
                <g transform="translate(1444.000000, 390.146000)">
                    <path d="M17.466,22.615 C16.9587096,22.9295595 16.3567813,23.0552562 15.766,22.97 L8.291,22.958 C8.153,22.958 8.015,22.952 7.878,22.963 C7.41,23 7.232,23.209 7.22,23.714 C7.22796534,24.1539671 7.2106033,24.594028 7.168,25.032 C7.11620905,25.7414468 6.50965454,26.2810986 5.799,26.25 C5.08062926,26.2575598 4.47093534,25.7248844 4.382,25.012 C4.33404189,24.5749817 4.31033888,24.1356414 4.311,23.696 C4.295,23.168 4.111,22.968 3.611,22.968 C3.311,22.968 3.011,22.978 2.711,22.968 C2.22936907,22.9583463 1.77290791,22.7510299 1.44873104,22.3947001 C1.12455418,22.0383703 0.961199387,21.5643955 0.997,21.084 C0.992333333,18.362 0.992333333,15.64 0.997,12.918 C0.997,9.166 0.997,5.41433333 0.997,1.663 C0.997,1.098 1.089,0.999 1.613,0.999 L34.061,0.999 C34.615,0.999 34.703,1.091 34.703,1.674 C34.703,13.248 34.703,24.822 34.703,36.396 C34.703,36.966 34.613,37.065 34.091,37.065 L18.074,37.065 C17.554,37.065 17.462,36.965 17.462,36.395 C17.462,32.95 17.457,29.504 17.469,26.059 C17.469,25.697 17.369,25.606 17.04,25.608 C15.18,25.622 13.32,25.608 11.46,25.616 C10.814,25.616 10.728,25.716 10.728,26.4 C10.728,26.766 10.728,27.132 10.728,27.556 C11.003,27.556 11.25,27.556 11.497,27.556 C11.9869383,27.5128996 12.4379755,27.8252209 12.57,28.299 C12.684,28.976 12.67,29.516 12.101,29.85 C11.908,29.964 11.901,30.115 11.901,30.305 C11.901,32.205 11.901,34.105 11.901,36.005 C11.901,36.775 11.626,37.064 10.901,37.064 L9.801,37.064 C9.081,37.064 8.828,36.803 8.826,36.024 C8.82066667,34.1986667 8.82066667,32.3733333 8.826,30.548 C8.86927057,30.2151856 8.74539296,29.8824751 8.495,29.659 C8.14969255,29.2779145 8.06148894,28.729092 8.27,28.259 C8.38742818,27.8310933 8.78464446,27.5408518 9.228,27.559 C9.5,27.543 9.773,27.559 10.089,27.559 C10.089,27.118 10.089,26.717 10.089,26.317 C10.089,25.388 10.478,24.979 11.355,24.978 C13.215,24.978 15.075,24.978 16.935,24.978 C17.535,24.978 17.455,25.036 17.459,24.4 C17.47,23.836 17.466,23.273 17.466,22.615 Z M1.666,1.702 L1.666,15.426 C2.13404471,15.3207132 2.60886381,15.2482039 3.087,15.209 C4.751,15.183 6.416,15.199 8.08,15.199 C10.8233333,15.199 13.567,15.199 16.311,15.199 C16.8111288,15.1925113 17.2907839,15.3973316 17.6319646,15.7630728 C17.9731454,16.128814 18.1441829,16.6215274 18.103,17.12 C18.103,17.549 18.12,17.979 18.098,18.407 C18.083,18.707 18.198,18.807 18.459,18.781 C18.5392493,18.7758041 18.6197507,18.7758041 18.7,18.781 C19.0095746,18.7575857 19.3134663,18.8734324 19.5288952,19.0969834 C19.7443241,19.3205344 19.8488499,19.6285034 19.814,19.937 C19.8366667,21.4323333 19.8366667,22.9276667 19.814,24.423 C19.8423896,24.7373811 19.7333497,25.0486668 19.5149884,25.2766137 C19.2966271,25.5045607 18.9903101,25.6268654 18.675,25.612 C18.495,25.621 18.315,25.633 18.131,25.644 L18.131,36.351 L34.036,36.351 L34.036,1.701 L1.666,1.702 Z M9.551,15.88 C7.27766667,15.88 5.00433333,15.88 2.731,15.88 C2.42967969,15.8703842 2.13844813,15.989165 1.92980302,16.2067739 C1.7211579,16.4243827 1.6147253,16.7203503 1.637,17.021 C1.631,18.4063333 1.631,19.7916667 1.637,21.177 C1.62039216,21.4716042 1.72404441,21.7603372 1.92423281,21.9771137 C2.12442122,22.1938902 2.40400752,22.3201519 2.699,22.327 C3.009,22.338 3.319,22.327 3.629,22.327 C3.9525907,22.2882504 4.27734761,22.3893535 4.52176068,22.6049334 C4.76617375,22.8205134 4.90703865,23.1301034 4.909,23.456 C4.951,23.719 4.927,23.993 4.944,24.262 C4.94477086,24.5172911 4.97089914,24.7718743 5.022,25.022 C5.07373931,25.2247667 5.20638561,25.3974353 5.38896618,25.4996879 C5.57154674,25.6019406 5.78807793,25.6248259 5.988,25.563 C6.35969814,25.5005651 6.61783602,25.1585763 6.576,24.784 C6.584,24.441 6.576,24.097 6.576,23.754 C6.595,22.823 7.061,22.33 7.927,22.327 C8.639,22.327 9.351,22.327 10.062,22.327 C12.14,22.327 14.2183333,22.327 16.297,22.327 C16.6043594,22.3637442 16.9121766,22.2621984 17.1373398,22.0497802 C17.3625031,21.8373621 17.4817927,21.535977 17.463,21.227 C17.5103333,19.809 17.5126667,18.3896667 17.47,16.969 C17.4881715,16.6599147 17.3674156,16.3588534 17.1406943,16.1479948 C16.9139729,15.9371362 16.6049583,15.8384962 16.298,15.879 C14.0526667,15.8776667 11.805,15.8776667 9.555,15.879 L9.551,15.88 Z M11.268,30.006 C10.706,30.006 10.168,30.006 9.633,30.006 C9.427,30.006 9.424,30.141 9.424,30.298 C9.424,31.68 9.424,33.062 9.424,34.443 C9.424,34.686 9.514,34.766 9.73,34.761 C10.119,34.751 10.51,34.738 10.898,34.761 C11.22,34.783 11.314,34.648 11.312,34.32 C11.3,33.02 11.312,31.728 11.306,30.432 C11.305,30.297 11.285,30.169 11.272,30.005 L11.268,30.006 Z M18.104,22.197 C18.104,23.017 18.104,23.837 18.104,24.656 C18.104,24.756 18.148,24.923 18.215,24.956 C18.4337788,25.0702227 18.6978221,25.0538875 18.9008536,24.9135692 C19.1038851,24.773251 19.2125072,24.5320313 19.183,24.287 C19.183,22.917 19.183,21.5466667 19.183,20.176 C19.183,19.519 19.078,19.424 18.464,19.412 C18.175,19.406 18.09,19.512 18.096,19.812 C18.119,20.605 18.107,21.397 18.107,22.197 L18.104,22.197 Z M10.415,29.323 C10.805,29.323 11.194,29.331 11.583,29.323 C11.898,29.314 12.019,29.141 12.017,28.76 C12.017,28.442 11.896,28.243 11.574,28.242 C10.795,28.242 10.016,28.242 9.237,28.242 C8.913,28.242 8.803,28.454 8.803,28.769 C8.803,29.144 8.929,29.314 9.246,29.322 C9.639,29.33 10.029,29.322 10.419,29.322 L10.415,29.323 Z M10.352,36.386 C10.5237892,36.373956 10.6962108,36.373956 10.868,36.386 C11.207,36.434 11.329,36.271 11.304,35.932 C11.297,35.832 11.331,35.716 11.291,35.643 C11.234,35.543 11.127,35.4 11.036,35.395 C10.578,35.37 10.119,35.379 9.66,35.395 C9.585,35.395 9.451,35.471 9.449,35.519 C9.41445934,35.7709797 9.42597969,36.0271381 9.483,36.275 C9.512,36.363 9.802,36.362 9.975,36.384 C10.101519,36.3923419 10.2284389,36.3926759 10.355,36.385 L10.352,36.386 Z" id="Path_7733"></path>
                </g>
            </g>
        </g>
    </g>
</svg>