<?xml version="1.0" encoding="UTF-8"?>
<svg width="32px" height="34px" viewBox="0 0 32 34" version="1.1" xmlns="http://www.w3.org/2000/svg" xmlns:xlink="http://www.w3.org/1999/xlink">
    
    <title>Group_4062</title>
    <desc>Created with Sketch.</desc>
    <g id="Page-1" stroke="none" stroke-width="1" fill="none" fill-rule="evenodd">
        <g id="Turnkey" transform="translate(-1437.000000, -442.000000)" fill="#898989" fill-rule="nonzero" stroke="#898989" stroke-width="0.4">
            <g transform="translate(-8.000000, -16.000000)" id="Group_4062">
                <g transform="translate(1445.000000, 458.263000)">
                    <path d="M31.645,0.26 L31.645,32.725 L1.245,32.725 C1.07057568,32.5721773 0.98017471,32.3448728 1.002,32.114 C1.00666667,21.612 1.00666667,11.112 1.002,0.614 C1.002,0.134 1.118,0.014 1.568,0.014 C11.402,0.014 21.2353333,0.014 31.068,0.014 C31.2901466,-0.0107356899 31.509038,0.0825871641 31.645,0.26 Z M1.788,20.202 C2.388,20.202 2.95,20.227 3.515,20.196 C4.40195021,20.1076137 5.09214909,19.3860036 5.141,18.496 C5.177,18.04 5.165,17.581 5.195,17.125 C5.26436312,15.7709977 6.34878297,14.6900369 7.703,14.625 C9.03244638,14.6354181 10.1455512,15.6352822 10.298,16.956 C10.3269578,17.1985958 10.3416497,17.4426823 10.342,17.687 C10.342,19.22 10.33,20.754 10.35,22.287 C10.3089583,22.9043921 10.5838829,23.5004556 11.0801447,23.8700252 C11.5764065,24.2395948 12.2262505,24.3322128 12.806,24.116 C13.5741854,23.7784197 14.0467476,22.9938865 13.986,22.157 C13.986,19.367 13.986,16.577 13.986,13.787 C13.986,12.861 13.968,11.933 14.004,11.008 C14.0399292,9.94219982 14.7050105,8.9993793 15.697,8.608 C16.5070952,8.32454219 17.404977,8.46046006 18.0948826,8.97098218 C18.7847882,9.48150431 19.1772534,10.3004283 19.143,11.158 C19.16,11.658 19.143,12.158 19.15,12.658 C19.1035368,13.2225618 19.3161839,13.7776408 19.7279562,14.1666557 C20.1397284,14.5556705 20.705988,14.7364506 21.267,14.658 C22.2104123,14.461908 22.8623538,13.5969306 22.791,12.636 C22.791,8.79133333 22.791,4.947 22.791,1.103 C22.791,1.022 22.778,0.94 22.772,0.863 L1.788,0.863 L1.788,20.202 Z M21.409,31.88 L30.862,31.88 L30.862,26.403 L21.409,26.403 L21.409,31.88 Z M16.536,19.993 L16.536,25.535 L25.584,25.535 L25.584,19.993 L16.536,19.993 Z M30.857,19.145 L30.857,13.58 C30.779,13.575 30.721,13.568 30.663,13.568 C28.33,13.568 25.997,13.568 23.663,13.563 C23.476,13.563 23.406,13.646 23.341,13.811 C23.0653252,14.5798471 22.4350384,15.1680403 21.649,15.39 C21.439,15.452 21.385,15.54 21.387,15.757 C21.396,16.779 21.387,17.801 21.387,18.823 C21.387,18.923 21.398,19.029 21.404,19.146 L30.857,19.145 Z M1.8,26.396 L1.8,31.882 L10.865,31.882 L10.865,26.396 L1.8,26.396 Z M20.61,31.89 L20.61,26.399 L11.684,26.399 L11.684,31.89 L20.61,31.89 Z M30.852,12.736 L30.852,7.193 L23.584,7.193 L23.584,12.736 L30.852,12.736 Z M14.769,19.142 L20.614,19.142 L20.614,15.491 C20.5781343,15.4736192 20.5410333,15.4589124 20.503,15.447 C19.6027159,15.250546 18.8670124,14.6043967 18.556,13.737 C18.487739,13.6377708 18.3763779,13.5768934 18.256,13.573 C17.17,13.562 16.085,13.565 14.999,13.567 C14.921242,13.5713291 14.8437874,13.5800094 14.767,13.593 L14.769,19.142 Z M15.73,25.542 L15.73,19.989 L14.75,19.989 C14.75,20.653 14.756,21.3 14.75,21.946 C14.7574488,22.254248 14.7366958,22.5625315 14.688,22.867 C14.482869,24.0866409 13.4553816,24.9983903 12.22,25.057 C11.0079426,25.061011 9.9561177,24.2217137 9.691,23.039 C9.61662188,22.7190123 9.57937607,22.3915176 9.58,22.063 C9.564,21.376 9.58,20.688 9.58,19.992 L6.835,19.992 L6.835,25.543 L15.73,25.542 Z M26.402,19.985 L26.402,25.534 L30.859,25.534 L30.859,19.985 L26.402,19.985 Z M26.392,6.323 L30.862,6.323 L30.862,0.843 L26.388,0.843 L26.392,6.323 Z M6.013,25.545 L6.013,19.925 C5.747,19.99 5.434,19.966 5.288,20.125 C4.76425029,20.7280075 3.99844498,21.0654313 3.2,21.045 C2.735,21.035 2.27,21.045 1.791,21.045 L1.791,25.551 L6.013,25.545 Z M9.548,19.152 C9.548,18.446 9.594,17.763 9.537,17.091 C9.45038954,16.170405 8.6903152,15.459257 7.766,15.434 C6.85575995,15.4462396 6.09274753,16.1253249 5.975,17.028 C5.901,17.728 5.895,18.436 5.858,19.152 L9.548,19.152 Z M18.366,12.738 C18.366,12.166 18.385,11.613 18.366,11.064 C18.3447138,10.18504 17.712752,9.44018333 16.849,9.276 C15.9254181,9.11318209 15.03962,9.71375319 14.849,10.632 C14.7538664,11.3298951 14.7084187,12.0336656 14.713,12.738 L18.366,12.738 Z M23.58,0.845 L23.58,6.333 L25.58,6.333 L25.58,0.845 L23.58,0.845 Z" id="Path_7739"></path>
                </g>
            </g>
        </g>
    </g>
</svg>