<?xml version="1.0" encoding="UTF-8"?>
<svg width="35px" height="36px" viewBox="0 0 35 36" version="1.1" xmlns="http://www.w3.org/2000/svg" xmlns:xlink="http://www.w3.org/1999/xlink">
    
    <title>Group_4048</title>
    <desc>Created with Sketch.</desc>
    <g id="Page-1" stroke="none" stroke-width="1" fill="none" fill-rule="evenodd">
        <g id="Turnkey" transform="translate(-1436.000000, -576.000000)" fill="#898989" fill-rule="nonzero" stroke="#888988" stroke-width="0.2">
            <g transform="translate(-8.000000, -16.000000)" id="Group_4048">
                <g transform="translate(1444.000000, 592.476000)">
                    <path d="M1.327,35.394 C1.115,35.218 0.927,35.023 1.027,34.702 C1.127,34.381 1.387,34.315 1.678,34.318 C2.443,34.324 3.207,34.318 3.997,34.318 L3.997,9.294 L2.197,10.371 C2.046,10.461 1.897,10.559 1.744,10.637 C1.62989758,10.7066208 1.49162667,10.7245985 1.36351488,10.68647 C1.23540309,10.6483415 1.12946458,10.5576824 1.072,10.437 C0.933822531,10.1861754 1.01333243,9.87119385 1.254,9.716 C1.316,9.67 1.384,9.633 1.454,9.594 C6.69066667,6.45 11.9266667,3.30433333 17.162,0.157 C17.4074807,-0.0308255647 17.7453731,-0.0412841393 18.002,0.131 C23.244,3.289 28.488,6.443 33.734,9.593 C33.9000325,9.71657101 34.0534449,9.85624998 34.192,10.01 L34.192,10.356 C33.892,10.769 33.717,10.807 33.292,10.556 C32.746,10.23 32.202,9.901 31.657,9.575 C31.514,9.489 31.369,9.406 31.176,9.294 L31.176,9.813 C31.176,14.3756667 31.176,18.938 31.176,23.5 C31.176,26.979 31.176,30.459 31.17,33.938 C31.17,34.255 31.251,34.353 31.55,34.338 C32.175,34.314 32.802,34.345 33.427,34.325 C33.7214169,34.2915517 34.0122242,34.4125638 34.196,34.645 L34.196,35.406 L1.327,35.394 Z M5.027,34.301 L30.169,34.301 L30.169,33.949 C30.169,25.635 30.171,17.321 30.175,9.007 C30.198408,8.79579053 30.0873546,8.59245901 29.897,8.498 C27.739,7.21333333 25.5846667,5.922 23.434,4.624 C23.345,4.571 23.251,4.529 23.155,4.48 L23.155,11.552 C23.72,10.939 24.223,10.387 24.735,9.842 C24.8189349,9.72406485 24.9504594,9.64897716 25.094688,9.63665322 C25.2389166,9.62432929 25.3812735,9.67601455 25.484,9.778 C25.5918635,9.89025763 25.6485289,10.0421074 25.6405752,10.1975842 C25.6326214,10.3530611 25.560756,10.4983356 25.442,10.599 C24.642,11.4583333 23.8403333,12.3146667 23.037,13.168 C22.9498913,13.3088262 22.7964698,13.3949442 22.6308832,13.39596 C22.4652966,13.3969759 22.3108301,13.3127468 22.222,13.173 C21.4173333,12.3203333 20.6153333,11.4643333 19.816,10.605 C19.695393,10.5061794 19.6214468,10.3615499 19.611957,10.2059173 C19.6024672,10.0502846 19.6582932,9.89774218 19.766,9.785 C19.98,9.562 20.279,9.585 20.538,9.861 C20.991,10.339 21.438,10.823 21.892,11.302 C21.953,11.367 22.025,11.421 22.13,11.515 C22.13,8.976 22.13,6.509 22.119,4.042 C22.0902329,3.89868995 22.0023681,3.77415427 21.877,3.699 C20.538,2.881 19.189,2.082 17.849,1.265 C17.7016174,1.15161538 17.4963826,1.15161538 17.349,1.265 C16.0156667,2.07633333 14.6803333,2.878 13.343,3.67 C13.1505655,3.76248356 13.0380867,3.96695381 13.063,4.179 C13.073,6.508 13.069,8.838 13.069,11.167 L13.069,11.535 C13.201,11.406 13.279,11.335 13.353,11.256 C13.797,10.784 14.236,10.307 14.683,9.839 C14.767876,9.72155973 14.9003785,9.64770768 15.0449039,9.63728796 C15.1894293,9.62686823 15.3311553,9.68094948 15.432,9.785 C15.5377278,9.89199627 15.5948258,10.0377486 15.589909,10.1880895 C15.5849921,10.3384304 15.5184929,10.4801405 15.406,10.58 C14.5926667,11.4566667 13.7753333,12.329 12.954,13.197 C12.8678824,13.3243093 12.7242007,13.4005838 12.5705,13.4005838 C12.4167993,13.4005838 12.2731176,13.3243093 12.187,13.197 C11.365,12.3303333 10.548,11.458 9.736,10.58 C9.62470503,10.4791339 9.55950378,10.3371389 9.55553757,10.1869896 C9.55157137,10.0368403 9.60918529,9.89160107 9.715,9.785 C9.81145035,9.68461616 9.94666143,9.63094285 10.0857007,9.63784687 C10.22474,9.64475089 10.3539687,9.71155501 10.44,9.821 C10.897,10.295 11.34,10.782 11.794,11.261 C11.866,11.338 11.944,11.408 12.052,11.513 L12.052,4.479 C11.976,4.514 11.925,4.531 11.88,4.558 C9.661,5.89 7.443,7.227 5.219,8.55 C5.019,8.669 5.028,8.824 5.028,9.008 C5.028,17.3106667 5.028,25.613 5.028,33.915 L5.027,34.301 Z" id="Path_7713"></path>
                </g>
            </g>
        </g>
    </g>
</svg>