<svg xmlns="http://www.w3.org/2000/svg" width="34.156" height="40.958" viewBox="0 0 34.156 40.958">
  <path id="Client" d="M8846.55-3465.143h-1.595c.1-.937.2-1.764.308-2.531a10.356,10.356,0,0,1,1.083-3.306,11.925,11.925,0,0,1,2.092-2.85,13.024,13.024,0,0,1,6.293-3.517c.461-.106.93-.2,1.473-.3h0c.27-.052.577-.111.923-.18a10.61,10.61,0,0,1-2.388-2.645,13.465,13.465,0,0,1-1.4-3.059,2.591,2.591,0,0,0-1.738-1.234c-1.552-.339-1.82-1.188-1.76-2.541.167-3.82.205-7.287.116-10.6a5.061,5.061,0,0,1,1.7-4.157,16.375,16.375,0,0,1,4.614-2.954,12.54,12.54,0,0,1,4.808-.989c4.216,0,8.028,2.272,10.738,6.4a2.594,2.594,0,0,1,.282,1.324c.031,1.39.053,2.768.076,4.3.033,2.247.072,4.794.158,7.235a1.527,1.527,0,0,1-1.433,1.816,3.176,3.176,0,0,0-2.667,2.574,16.85,16.85,0,0,1-1.634,3.231c-.268.448-.571.955-.853,1.473l.251.044.023,0h.007c.275.05.653.118,1.03.16a12.846,12.846,0,0,1,11.48,10c.164.712.312,1.466.45,2.3h-1.686c-.037-.183-.079-.381-.126-.589-.869-3.825-2.437-6.5-4.793-8.167-2.05-1.454-4.749-2.161-8.25-2.161-.886,0-1.814.043-2.836.131a21.139,21.139,0,0,1,.044,2.856v.01a11.471,11.471,0,0,0,.749,5.474,2.887,2.887,0,0,0,.661-1.648c.028-.7.027-1.426.025-2.064,0-.753,0-1.532.036-2.3.009-.205.205-.405.395-.6a3.533,3.533,0,0,0,.249-.274,2.613,2.613,0,0,0,.205.246l.007.008a1.01,1.01,0,0,1,.333.554c.012.432.025.864.04,1.229a24.877,24.877,0,0,1-.109,4.522,3.423,3.423,0,0,1-1.131,1.636,9.771,9.771,0,0,0-.672.719c-.182-.162-.38-.322-.556-.463l0,0a5.938,5.938,0,0,1-1.187-1.151,3.392,3.392,0,0,1-.395-1.762c-.031-1.68-.025-3.33-.021-5.077v-.04c0-.573,0-1.287,0-1.972a15.8,15.8,0,0,0-1.837-.11,11.931,11.931,0,0,0-6.986,2.082,10.594,10.594,0,0,0-4.026,5.9,21.148,21.148,0,0,0-.58,3.009Zm7.882-26.763c0,.58,0,1.18.006,1.662.007,1.261.013,2.452-.015,3.675a9.266,9.266,0,0,0,.443,3.073,10.679,10.679,0,0,0,1.387,2.762,6.761,6.761,0,0,0,2.339,2.141,5.781,5.781,0,0,0,2.745.711,5.343,5.343,0,0,0,2.711-.735,5.736,5.736,0,0,0,2.107-2.2,12.793,12.793,0,0,0,1.508-5.076,38.04,38.04,0,0,0,.013-5.286v-.009l-.032-.72Zm15.6.023a1.177,1.177,0,0,0-.644.415,1.533,1.533,0,0,0-.144.822c-.092,1.075-.076,2.178-.061,3.244,0,.365.013.816.013,1.244a1.809,1.809,0,0,0,1.292.08c.347-.266.619-.474.649-.777a30.481,30.481,0,0,0-.016-3.394,3.008,3.008,0,0,0-.237-1.384C8870.728-3492,8870.035-3491.882,8870.035-3491.882Zm-18.426.212c-.107,0-.221,0-.348.012,0,.426.007.851.014,1.226v.01c.016.929.03,1.807-.036,2.693a1.618,1.618,0,0,0,.3,1.278,1.72,1.72,0,0,0,1.323.406l.128,0c0-.394,0-.793-.008-1.179v-.115c-.009-.99-.018-2.013.024-3.022a1.266,1.266,0,0,0-.262-.977A1.506,1.506,0,0,0,8851.609-3491.67Zm15.985-9.5a3.237,3.237,0,0,0-1.125.2c-1.245.46-2.53.94-3.665,1.363-3.242,1.21-6.595,2.461-9.922,3.619a2.13,2.13,0,0,0-1.353.971,11.794,11.794,0,0,0-.03,1.57l19.232-.005c0-.572.012-1.146.021-1.608v-.018a31.955,31.955,0,0,0-.047-3.223,3.11,3.11,0,0,0-1.023-2.08A3.13,3.13,0,0,0,8867.595-3501.171Zm-6.7-3.554h0a12.762,12.762,0,0,0-4.912,1.328,9.24,9.24,0,0,0-3.71,2.874,3.865,3.865,0,0,0-.879,1.67c-.084.35-.1,1.18-.214,2.314l16.095-6.108a12.232,12.232,0,0,0-6.379-2.078Z" transform="translate(-8844.899 3506.05)" fill="#333" stroke="#fff" stroke-linecap="round" stroke-width="0.1"/>
</svg>
