<?xml version="1.0" encoding="UTF-8"?>
<svg width="28px" height="40px" viewBox="0 0 28 40" version="1.1" xmlns="http://www.w3.org/2000/svg" xmlns:xlink="http://www.w3.org/1999/xlink">
    
    <title>Group_4049</title>
    <desc>Created with Sketch.</desc>
    <g id="Page-1" stroke="none" stroke-width="1" fill="none" fill-rule="evenodd">
        <g id="Turnkey" transform="translate(-1439.000000, -698.000000)" fill="#898989" stroke="#898989" stroke-width="0.2">
            <g transform="translate(-8.000000, -16.000000)" id="Group_4049">
                <g transform="translate(1447.000000, 713.291000)">
                    <path d="M16.123,1 C16.5431869,1.1507212 16.9482974,1.34055396 17.333,1.567 C18.1473579,2.14278292 18.6165978,3.09028661 18.581,4.087 C18.592,5.941 18.581,7.796 18.586,9.65 L18.586,10.132 L19.022,10.132 C20.94,10.132 22.858,10.123 24.777,10.132 C26.228679,10.1031615 27.4790266,11.1498847 27.706,12.584 C27.8999885,13.4526943 27.6952344,14.3626197 27.1478341,15.0644845 C26.6004337,15.7663493 25.767782,16.186563 24.878,16.21 C22.924,16.227 20.969,16.21 19.015,16.21 L18.586,16.21 L18.586,16.698 C18.586,23.6126667 18.586,30.5276667 18.586,37.443 C18.6680964,38.7025169 17.9694304,39.8835007 16.826,40.418 C16.6412902,40.5054685 16.4393725,40.5505669 16.235,40.55 C11.935,40.557 7.645,40.568 3.351,40.535 C2.93025823,40.4946478 2.53084458,40.3307768 2.203,40.064 C1.39077573,39.4421315 0.940975441,38.4570689 1.003,37.436 C1.003,34.3066667 1.003,31.1776667 1.003,28.049 C1.003,20.1683333 1.003,12.2876667 1.003,4.407 C0.821907725,2.83611204 1.85867378,1.38291162 3.403,1.043 C3.424,1.037 3.44,1.013 3.459,0.997 L16.123,1 Z M17.423,10.109 L17.423,9.749 C17.423,7.90766667 17.423,6.06633333 17.423,4.225 C17.4790744,3.70083045 17.3025503,3.17842557 16.9400306,2.79570175 C16.5775109,2.41297793 16.0654378,2.20840836 15.539,2.236 C11.715,2.236 7.89133333,2.236 4.068,2.236 C3.9004554,2.23081321 3.73283637,2.24355225 3.568,2.274 C2.66274437,2.49568151 2.06155421,3.35342507 2.162,4.28 C2.162,12.1726667 2.162,20.0653333 2.162,27.958 C2.162,31.1253333 2.162,34.292 2.162,37.458 C2.0880184,38.3057042 2.60747067,39.0927531 3.416,39.358 C3.72125507,39.4294765 4.03470846,39.4597456 4.348,39.448 C8.03933333,39.454 11.7303333,39.454 15.421,39.448 C16.746,39.448 17.428,38.719 17.428,37.309 C17.428,30.4203333 17.428,23.532 17.428,16.644 L17.428,16.208 C16.334,16.208 15.286,16.217 14.238,16.201 C14.008664,16.1876244 13.7894329,16.2968593 13.662,16.488 C12.6033823,17.9880839 10.765687,18.7309821 8.962,18.388 C6.84281408,17.9653661 5.21871057,16.2551722 4.906,14.117 C4.50502031,11.9087873 5.50206957,9.68111706 7.416,8.509 C9.25252516,7.37923297 11.630051,7.69501117 13.108,9.265 C13.637093,9.92214438 14.4723737,10.2532193 15.308,10.137 C15.884,10.09 16.465,10.129 17.044,10.127 C17.158,10.13 17.275,10.118 17.427,10.109 L17.423,10.109 Z M17.345,14.975 L18.574,14.975 C20.659,14.975 22.745,14.981 24.83,14.975 C25.390549,14.9778207 25.9194527,14.7155398 26.2564793,14.2676155 C26.5935059,13.8196912 26.6989992,13.2388284 26.541,12.701 C26.3489029,11.8854055 25.5996444,11.3249365 24.763,11.371 C21.7736667,11.3676667 18.7843333,11.3676667 15.795,11.371 C13.8423333,11.371 11.8896667,11.371 9.937,11.371 C9.26906861,11.3325782 8.6414802,11.6922648 8.337,12.288 C8.02162307,12.8448966 8.02566511,13.527371 8.34761627,14.080493 C8.66956743,14.633615 9.26100327,14.9741899 9.901,14.975 C12.383,14.981 14.866,14.975 17.349,14.976 L17.345,14.975 Z M12.289,10.132 C11.5259283,9.39996731 10.4822425,9.03594387 9.42943056,9.134621 C8.37661859,9.23329812 7.41875379,9.78492131 6.805,10.646 C5.43750554,12.5083458 5.80789533,15.1219476 7.639,16.531 C9.02395476,17.5944402 10.9849239,17.4562108 12.207,16.209 C11.384,16.209 10.577,16.228 9.77,16.209 C8.84119779,16.1567616 7.98891428,15.677437 7.46183965,14.9108897 C6.93476502,14.1443425 6.79229452,13.1769535 7.076,12.291 C7.41083436,11.0259648 8.55340959,10.1434013 9.862,10.139 C10.645,10.121 11.425,10.132 12.294,10.132 L12.289,10.132 Z" id="Path_7714" fill-rule="nonzero"></path>
                    <path d="M9.848,23.446 C11.065034,23.5081435 12.1977349,24.0866064 12.961606,25.0360982 C13.7254771,25.9855899 14.047939,27.2158943 13.848,28.418 C13.7258805,29.1722511 13.5463589,29.916079 13.311,30.643 C13.2315424,30.8562485 13.111685,31.0521627 12.958,31.22 C12.8706303,31.3478645 12.7338913,31.4334962 12.5807117,31.4562739 C12.4275322,31.4790515 12.2717935,31.4369108 12.151,31.34 C11.8839162,31.1166497 11.8443724,30.720767 12.062,30.449 C12.6427921,29.5144911 12.8598865,28.3991241 12.672,27.315 C12.5209092,25.7975591 11.2275852,24.6519067 9.703,24.685 C8.15374213,24.7843555 6.93238196,26.0424776 6.879,27.594 C6.874,27.658 6.879,27.723 6.869,27.787 C6.836,28.179 6.593,28.434 6.269,28.417 C6.10453023,28.4006505 5.95346286,28.3191013 5.84954982,28.1905723 C5.74563679,28.0620433 5.69753806,27.8972461 5.716,27.733 C5.72602357,26.6662598 6.11603817,25.6380395 6.816,24.833 C7.57405377,23.9479919 8.68272836,23.4408245 9.848,23.446 Z" id="Path_7715"></path>
                    <path d="M11.549,28.115 C11.6081506,29.6127667 10.8897091,31.0349027 9.649,31.876 C9.52042625,31.9664287 9.37425741,32.0287805 9.22,32.059 C9.09689989,32.089173 8.96680477,32.0672177 8.86042475,31.9983167 C8.75404474,31.9294158 8.68080701,31.8196751 8.658,31.695 C8.6444752,31.4663912 8.68525346,31.2378273 8.777,31.028 C8.807,30.939 8.943,30.889 9.034,30.828 C10.0157751,30.144714 10.5367092,28.9726123 10.386,27.786 C10.3929818,27.6208543 10.3300122,27.4604186 10.2125626,27.3441111 C10.095113,27.2278036 9.93406955,27.1664048 9.769,27.175 C9.60382275,27.1818718 9.44879987,27.2565925 9.34052667,27.3815231 C9.23225346,27.5064537 9.1803251,27.670523 9.197,27.835 C9.22655989,29.0815958 8.46912693,30.2121406 7.305,30.659 C7.15593001,30.7514161 6.97257002,30.7699194 6.80804161,30.7091494 C6.6435132,30.6483794 6.51620511,30.5151281 6.463,30.348 C6.40064717,30.1870057 6.40721014,30.0074595 6.48115054,29.8514471 C6.55509095,29.6954347 6.68990783,29.5766731 6.854,29.523 C7.60765112,29.2412376 8.09277048,28.5046647 8.054,27.701 C8.04506569,26.7402604 8.8123689,25.951978 9.773,25.935 C10.7266147,25.9478371 11.5046997,26.7022374 11.547,27.655 C11.561,27.805 11.549,27.965 11.549,28.115 Z" id="Path_7716"></path>
                    <path d="M14.572,22.659 C14.042,22.659 13.562,22.659 13.083,22.659 C12.583,22.659 12.331,22.445 12.334,22.042 C12.337,21.639 12.593,21.427 13.091,21.422 C13.73,21.416 14.369,21.415 15.008,21.422 C15.525,21.429 15.722,21.646 15.727,22.207 C15.733,22.9016667 15.733,23.5966667 15.727,24.292 C15.727,24.785 15.506,25.052 15.137,25.045 C14.768,25.038 14.58,24.781 14.574,24.305 C14.567,23.783 14.572,23.259 14.572,22.659 Z" id="Path_7717"></path>
                    <path d="M5.035,22.66 C5.035,23.197 5.04,23.695 5.035,24.193 C5.04017936,24.3591124 5.01822434,24.5249573 4.97,24.684 C4.89242233,24.9460512 4.62429266,25.1024602 4.358,25.041 C4.09428486,25.019565 3.89160741,24.7985812 3.893,24.534 C3.876,23.672 3.871,22.809 3.893,21.948 C3.895656,21.8007602 3.95968273,21.6613198 4.06962322,21.5633418 C4.17956372,21.4653637 4.32542715,21.4177517 4.472,21.432 C5.207,21.419 5.944,21.415 6.679,21.432 C6.8443487,21.4328509 7.0018597,21.5025847 7.11364293,21.6244265 C7.22542615,21.7462683 7.28136388,21.90919 7.268,22.074 C7.26591728,22.2318976 7.2006255,22.3823706 7.08673279,22.4917527 C6.97284008,22.6011348 6.8198529,22.6602961 6.662,22.656 C6.135,22.67 5.604,22.66 5.035,22.66 Z" id="Path_7718"></path>
                    <path d="M14.572,32.849 C14.572,32.277 14.547,31.738 14.584,31.203 C14.5965028,30.9706539 14.6890818,30.7498071 14.846,30.578 C15.0049446,30.4487989 15.2245182,30.423837 15.4084082,30.5140634 C15.5922981,30.6042897 15.7069213,30.7932267 15.702,30.998 C15.74,31.845 15.733,32.698 15.708,33.543 C15.7106676,33.6965064 15.6471352,33.8437345 15.5336192,33.9471049 C15.4201031,34.0504754 15.2675871,34.0999862 15.115,34.083 C14.392,34.083 13.668,34.088 12.945,34.083 C12.7817539,34.0936974 12.6216799,34.0343515 12.5048603,33.9198225 C12.3880407,33.8052935 12.325537,33.6464259 12.333,33.483 C12.3230468,33.3179904 12.3831322,33.1564326 12.4984909,33.0380282 C12.6138496,32.9196237 12.773787,32.8553494 12.939,32.861 C13.468,32.836 13.997,32.849 14.572,32.849 Z" id="Path_7719"></path>
                    <path d="M5.03,32.847 C5.546,32.847 6.002,32.847 6.459,32.847 C6.56714679,32.842532 6.67545783,32.8499092 6.782,32.869 C7.0806404,32.9232001 7.28822614,33.1967964 7.26,33.499 C7.2635096,33.650904 7.20547085,33.7977772 7.0990706,33.9062489 C6.99267036,34.0147207 6.8469434,34.0755803 6.695,34.075 C5.94833333,34.087 5.20133333,34.087 4.454,34.075 C4.086,34.069 3.882,33.842 3.877,33.437 C3.867,32.6656667 3.867,31.894 3.877,31.122 C3.8588917,30.9581984 3.90895475,30.7941596 4.01543958,30.6683827 C4.12192442,30.5426057 4.27545558,30.4661647 4.44,30.457 C4.60493766,30.4623184 4.76062836,30.534453 4.87132499,30.6568416 C4.98202163,30.7792303 5.03821394,30.9413581 5.027,31.106 C5.043,31.53 5.027,31.955 5.027,32.379 L5.03,32.847 Z" id="Path_7720"></path>
                </g>
            </g>
        </g>
    </g>
</svg>