<?xml version="1.0" encoding="UTF-8"?>
<svg width="35px" height="43px" viewBox="0 0 35 43" version="1.1" xmlns="http://www.w3.org/2000/svg" xmlns:xlink="http://www.w3.org/1999/xlink">
    
    <title>Installation_of_Finishes-2</title>
    <desc>Created with Sketch.</desc>
    <g id="Page-1" stroke="none" stroke-width="1" fill="none" fill-rule="evenodd">
        <g id="Turnkey" transform="translate(-1671.000000, -307.000000)" fill="#898989" fill-rule="nonzero" stroke="#FFFFFF" stroke-width="0.5">
            <g transform="translate(-8.000000, -16.000000)" id="Installation_of_Finishes-2">
                <g transform="translate(1679.256000, 323.328000)">
                    <path d="M19.045,42.258 C18.664275,42.0690788 18.4392565,41.6651586 18.479,41.242 C18.4883333,28.1333333 18.491,15.0243333 18.487,1.915 C18.487,0.994 18.687,0.792 19.6,0.792 C21.3673333,0.792 23.134,0.792 24.9,0.792 C25.646,0.792 25.89,1.039 25.89,1.792 C25.89,14.9253333 25.892,28.0613333 25.896,41.2 C25.9666528,41.6543387 25.7079465,42.0956859 25.277,42.256 L19.045,42.258 Z M24.37,40.727 L24.37,2.308 L19.994,2.308 L19.994,40.727 L24.37,40.727 Z" id="Path_8044"></path>
                    <path d="M0.744,1.345 C0.908704781,0.961469713 1.30810759,0.73399797 1.722,0.788 C3.543,0.799 5.365,0.788 7.186,0.793 C7.886,0.793 8.132,1.043 8.132,1.747 C8.132,14.9076667 8.13466667,28.0686667 8.14,41.23 C8.20116669,41.6683373 7.95631177,42.0920929 7.546,42.258 L0.746,42.258 L0.744,1.345 Z M6.635,2.311 L2.245,2.311 L2.245,40.725 L6.635,40.725 L6.635,2.311 Z" id="Path_8045"></path>
                    <path d="M27.224,42.257 C26.8222487,42.1039792 26.5752862,41.6981375 26.624,41.271 C26.6366667,35.521 26.64,29.7706667 26.634,24.02 C26.634,23.205 26.849,22.99 27.664,22.99 C29.4586667,22.99 31.253,22.99 33.047,22.99 C33.774,22.99 34.024,23.238 34.024,23.959 C34.024,29.7096667 34.0266667,35.46 34.032,41.21 C34.0900282,41.647211 33.8570811,42.0713772 33.457,42.257 L27.224,42.257 Z M28.124,40.718 L32.515,40.718 L32.515,24.512 L28.124,24.512 L28.124,40.718 Z" id="Path_8046"></path>
                    <path d="M10.219,42.258 C9.81592899,42.1088605 9.56777428,41.7027139 9.619,41.276 C9.634,38.457 9.626,35.638 9.627,32.819 C9.627,32.109 9.86,31.881 10.575,31.881 C12.4083333,31.881 14.2416667,31.881 16.075,31.881 C16.775,31.881 17.018,32.122 17.019,32.832 C17.019,35.624 17.012,38.416 17.028,41.208 C17.0851366,41.6447376 16.8540769,42.0684818 16.456,42.257 L10.219,42.258 Z M11.119,40.752 C12.478,40.752 13.798,40.742 15.119,40.759 C15.452,40.759 15.554,40.672 15.552,40.331 C15.537,38.144 15.544,35.957 15.543,33.771 C15.543,33.641 15.532,33.511 15.527,33.38 L11.12,33.38 L11.119,40.752 Z" id="Path_8047"></path>
                    <path d="M9.623,15.971 C9.623,11.2736667 9.623,6.576 9.623,1.878 C9.623,0.992 9.823,0.792 10.723,0.792 C12.4903333,0.792 14.257,0.792 16.023,0.792 C16.77,0.792 17.014,1.038 17.014,1.792 C17.014,11.2406667 17.014,20.6896667 17.014,30.139 C17.014,30.896 16.774,31.139 16.03,31.139 C14.2226667,31.139 12.4146667,31.139 10.606,31.139 C9.851,31.139 9.622,30.904 9.622,30.139 C9.622,25.4176667 9.62233333,20.695 9.623,15.971 Z M11.123,2.308 L11.123,29.628 L15.515,29.628 L15.515,2.308 L11.123,2.308 Z" id="Path_8048"></path>
                    <path d="M34.025,11.53 C34.025,14.7686667 34.025,18.007 34.025,21.245 C34.025,22.031 33.806,22.251 33.015,22.252 C31.1943333,22.252 29.3736667,22.252 27.553,22.252 C26.872,22.252 26.636,22.011 26.636,21.321 C26.636,14.7876667 26.636,8.25666667 26.636,1.728 C26.636,1.046 26.885,0.794 27.558,0.793 C29.4053333,0.793 31.253,0.793 33.101,0.793 C33.764,0.793 34.024,1.061 34.024,1.733 C34.0286667,4.99833333 34.029,8.264 34.025,11.53 Z M28.144,2.302 L28.144,20.749 L32.523,20.749 L32.523,2.302 L28.144,2.302 Z" id="Path_8049"></path>
                </g>
            </g>
        </g>
    </g>
</svg>