<?xml version="1.0" encoding="UTF-8"?>
<svg width="44px" height="37px" viewBox="0 0 44 37" version="1.1" xmlns="http://www.w3.org/2000/svg" xmlns:xlink="http://www.w3.org/1999/xlink">
    
    <title>Water_Proofing-2</title>
    <desc>Created with Sketch.</desc>
    <g id="Page-1" stroke="none" stroke-width="1" fill="none" fill-rule="evenodd">
        <g id="Turnkey" transform="translate(-1666.000000, -376.000000)" fill="#898989" stroke="#FFFFFF" stroke-width="0.5">
            <g transform="translate(-8.000000, -16.000000)" id="Water_Proofing-2">
                <g transform="translate(1674.000000, 392.308000)">
                    <path d="M22.189,12.417 C24.1294862,12.421964 25.8999811,11.3109251 26.7394911,9.5614297 C27.5790012,7.81193428 27.337971,5.73564823 26.12,4.225 L26.095,4.192 L23.185,0.492 C22.9427445,0.180917567 22.5702835,-0.000698691136 22.176,-5.55115747e-17 C21.7796691,0.000748539464 21.4061502,0.185476003 21.165,0.5 L18.265,4.222 C17.0416238,5.73172508 16.7968406,7.81091921 17.636148,9.56348369 C18.4754554,11.3160482 20.2488392,12.4287372 22.192,12.422 L22.189,12.417 Z M19.558,5.25 L19.583,5.218 L22.177,1.887 L24.759,5.17 C24.774,5.191 24.789,5.212 24.806,5.232 C25.7485361,6.38551311 25.8264956,8.01952385 24.99806,9.25753087 C24.1696245,10.4955379 22.629406,11.0467146 21.2035947,10.6154038 C19.7777834,10.1840929 18.801324,8.87161599 18.798,7.382 C18.7945686,6.60408103 19.063437,5.84948075 19.558,5.249 L19.558,5.25 Z" id="Path_7982" fill-rule="nonzero"></path>
                    <path d="M6.047,12.417 C7.98768328,12.4218897 9.75827852,11.3105591 10.5976169,9.56076294 C11.4369552,7.81096676 11.19548,5.73449068 9.977,4.224 L9.953,4.192 L7.043,0.491 C6.80022814,0.180135917 6.427428,-0.00109662503 6.033,-2.52798677e-16 C5.63596594,0.000127515815 5.26157827,0.184919059 5.02,0.5 L2.12,4.222 C0.896739631,5.73158479 0.651880182,7.81054643 1.49093516,9.56303007 C2.32999013,11.3155137 4.10301985,12.4283494 6.046,12.422 L6.047,12.417 Z M3.416,5.249 L3.44,5.218 L6.035,1.886 L8.616,5.17 C8.631,5.191 8.646,5.212 8.663,5.232 C9.60553612,6.38551311 9.68349555,8.01952385 8.85506001,9.25753087 C8.02662446,10.4955379 6.48640597,11.0467146 5.0605947,10.6154038 C3.63478342,10.1840929 2.65832399,8.87161599 2.655,7.382 C2.65185002,6.60395716 2.92107706,5.84934312 3.416,5.249 Z" id="Path_7983" fill-rule="nonzero"></path>
                    <path d="M38.326,12.417 C40.2664862,12.421964 42.0369811,11.3109251 42.8764911,9.5614297 C43.7160012,7.81193428 43.474971,5.73564823 42.257,4.225 L42.233,4.193 L39.326,0.491 C39.0836596,0.180690988 38.7117262,-0.000478988346 38.318,5.55110454e-17 C37.9220208,0.00105850643 37.5489359,0.185753995 37.308,0.5 L34.408,4.222 C33.1847396,5.73158479 32.9398802,7.81054643 33.7789352,9.56303007 C34.6179901,11.3155137 36.3910199,12.4283494 38.334,12.422 L38.326,12.417 Z M35.695,5.25 C35.703,5.24 35.711,5.23 35.719,5.219 L38.319,1.887 L40.901,5.171 C40.916,5.192 40.931,5.213 40.948,5.233 C41.8905361,6.38651311 41.9684956,8.02052385 41.14006,9.25853087 C40.3116245,10.4965379 38.771406,11.0477146 37.3455947,10.6164038 C35.9197834,10.1850929 34.943324,8.87261599 34.94,7.383 C34.9364193,6.60475236 35.2052915,5.84978755 35.7,5.249 L35.695,5.25 Z" id="Path_7984" fill-rule="nonzero"></path>
                    <path d="M42.55,19.699 L38.908,19.699 L38.908,18.599 C38.9185173,18.2965023 38.7631373,18.0123711 38.5027791,17.8580044 C38.2424208,17.7036377 37.9185792,17.7036377 37.6582209,17.8580044 C37.3978627,18.0123711 37.2424827,18.2965023 37.253,18.599 L37.253,19.699 L23.016,19.699 L23.016,18.599 C23.0265173,18.2965023 22.8711373,18.0123711 22.6107791,17.8580044 C22.3504208,17.7036377 22.0265792,17.7036377 21.7662209,17.8580044 C21.5058627,18.0123711 21.3504827,18.2965023 21.361,18.599 L21.361,19.699 L7.125,19.699 L7.125,18.599 C7.13551729,18.2965023 6.98013732,18.0123711 6.71977908,17.8580044 C6.45942083,17.7036377 6.13557917,17.7036377 5.87522092,17.8580044 C5.61486268,18.0123711 5.45948271,18.2965023 5.47,18.599 L5.47,19.699 L1.828,19.699 C1.38217549,19.7145005 1.02877064,20.0804061 1.02877064,20.5265 C1.02877064,20.9725939 1.38217549,21.3384995 1.828,21.354 L42.55,21.354 C42.9958245,21.3384995 43.3492294,20.9725939 43.3492294,20.5265 C43.3492294,20.0804061 42.9958245,19.7145005 42.55,19.699 Z" id="Path_7985"></path>
                    <path d="M42.55,14.402 L1.828,14.402 C1.38217549,14.4175005 1.02877064,14.7834061 1.02877064,15.2295 C1.02877064,15.6755939 1.38217549,16.0414995 1.828,16.057 L13.428,16.057 L13.428,17.157 C13.4174827,17.4594977 13.5728627,17.7436289 13.8332209,17.8979956 C14.0935792,18.0523623 14.4174208,18.0523623 14.6777791,17.8979956 C14.9381373,17.7436289 15.0935173,17.4594977 15.083,17.157 L15.083,16.057 L29.317,16.057 L29.317,17.157 C29.3064827,17.4594977 29.4618627,17.7436289 29.7222209,17.8979956 C29.9825792,18.0523623 30.3064208,18.0523623 30.5667791,17.8979956 C30.8271373,17.7436289 30.9825173,17.4594977 30.972,17.157 L30.972,16.057 L42.55,16.057 C42.9958245,16.0414995 43.3492294,15.6755939 43.3492294,15.2295 C43.3492294,14.7834061 42.9958245,14.4175005 42.55,14.402 Z" id="Path_7986"></path>
                    <path d="M23.44,32.51 L23.016,32.934 L23.016,28.642 C23.0004995,28.1961755 22.6345939,27.8427706 22.1885,27.8427706 C21.7424061,27.8427706 21.3765005,28.1961755 21.361,28.642 L21.361,32.934 L20.936,32.509 C20.6126373,32.1856373 20.0883627,32.1856373 19.765,32.509 C19.4416373,32.8323627 19.4416373,33.3566373 19.765,33.68 L21.603,35.517 C21.926243,35.8397088 22.449757,35.8397088 22.773,35.517 L24.61,33.68 C24.8334173,33.4740592 24.9260867,33.1622902 24.8514308,32.8677509 C24.7767748,32.5732116 24.5467884,32.3432252 24.2522491,32.2685692 C23.9577098,32.1939133 23.6459408,32.2865827 23.44,32.51 Z" id="Path_7987"></path>
                    <path d="M22.189,26.154 C22.5840831,26.1539849 22.9241183,25.8748435 23.0010988,25.4873327 C23.0780792,25.0998218 22.8705573,24.7119062 22.5054786,24.5608822 C22.1404,24.4098582 21.7194795,24.5378028 21.5002033,24.8664494 C21.2809272,25.1950961 21.324388,25.6328803 21.604,25.912 C21.7596144,26.066419 21.9697726,26.1533563 22.189,26.154 Z" id="Path_7988"></path>
                    <path d="M39.583,32.505 L39.159,32.93 L39.159,25.33 C39.1434995,24.8841755 38.7775939,24.5307706 38.3315,24.5307706 C37.8854061,24.5307706 37.5195005,24.8841755 37.504,25.33 L37.504,32.93 L37.079,32.505 C36.8718972,32.2860199 36.5621606,32.1968748 36.2703368,32.272259 C35.9785131,32.3476432 35.750703,32.575648 35.6755682,32.867536 C35.6004333,33.159424 35.6898431,33.4690843 35.909,33.676 L37.746,35.513 C37.9012814,35.6682897 38.1118931,35.7555312 38.3315,35.7555312 C38.5511069,35.7555312 38.7617186,35.6682897 38.917,35.513 L40.754,33.676 C40.9774173,33.4700592 41.0700867,33.1582902 40.9954308,32.8637509 C40.9207748,32.5692116 40.6907884,32.3392252 40.3962491,32.2645692 C40.1017098,32.1899133 39.7899408,32.2825827 39.584,32.506 L39.583,32.505 Z" id="Path_7989"></path>
                    <path d="M7.299,32.505 L6.874,32.93 L6.874,25.33 C6.85849951,24.8841755 6.49259389,24.5307706 6.0465,24.5307706 C5.60040611,24.5307706 5.23450049,24.8841755 5.219,25.33 L5.219,32.93 L4.794,32.505 C4.584821,32.295821 4.27993596,32.2141273 3.99419213,32.2906921 C3.70844829,32.367257 3.48525696,32.5904483 3.40869213,32.8761921 C3.3321273,33.161936 3.413821,33.466821 3.623,33.676 L5.46,35.513 C5.61528139,35.6682897 5.82589311,35.7555312 6.0455,35.7555312 C6.26510689,35.7555312 6.47571861,35.6682897 6.631,35.513 L8.468,33.676 C8.69141733,33.4700592 8.78408671,33.1582902 8.70943076,32.8637509 C8.63477481,32.5692116 8.40478838,32.3392252 8.11024908,32.2645692 C7.81570977,32.1899133 7.50394079,32.2825827 7.298,32.506 L7.299,32.505 Z" id="Path_7990"></path>
                </g>
            </g>
        </g>
    </g>
</svg>