<?xml version="1.0" encoding="UTF-8"?>
<svg width="35px" height="35px" viewBox="0 0 35 35" version="1.1" xmlns="http://www.w3.org/2000/svg" xmlns:xlink="http://www.w3.org/1999/xlink">
    
    <title>Group_4553</title>
    <desc>Created with Sketch.</desc>
    <g id="Page-1" stroke="none" stroke-width="1" fill="none" fill-rule="evenodd">
        <g id="Turnkey" transform="translate(-1671.000000, -698.000000)" fill="#898989" stroke="#898989" stroke-width="0.2">
            <g transform="translate(-8.000000, -16.000000)" id="Group_4553">
                <g transform="translate(1679.000000, 714.387000)">
                    <path d="M1.032,13.787 C1.024,13.71 1.01,13.634 1.01,13.557 C1.01,12.068 1.029,10.579 1.001,9.091 C0.963002357,8.40086194 1.27876657,7.73881214 1.839,7.334 C2.21020504,7.06867537 2.59873863,6.82847274 3.002,6.615 C3.1118205,6.5695448 3.1785833,6.45718789 3.166,6.339 C3.16066667,5.11033333 3.16066667,3.882 3.166,2.654 C3.1465385,2.20848992 3.32710651,1.77757662 3.6583556,1.47902676 C3.9896047,1.1804769 4.43690084,1.04550564 4.878,1.111 C5.59876479,1.2640993 6.10634265,1.91152434 6.083,2.648 C6.09,3.548 6.083,4.44 6.083,5.336 L6.083,5.557 L8.021,5.157 L8.021,4.95 C8.021,3.812 8.021,2.675 8.021,1.537 C8.00567521,0.834936672 8.47450563,0.214243256 9.154,0.037 C9.60354866,-0.0539586942 10.0699379,0.0671927642 10.418384,0.365442313 C10.7668301,0.663691862 10.9584992,1.10579998 10.938,1.564 C10.938,2.539 10.938,3.514 10.938,4.49 L10.938,4.75 C11.156,4.732 11.36,4.718 11.562,4.697 C14.0280104,4.453481 16.5070518,4.36763976 18.984,4.44 C19.963,4.465 20.943,4.485 21.92,4.555 C22.994,4.632 24.068,4.735 25.136,4.878 C26.204,5.021 27.255,5.197 28.306,5.407 C29.5253646,5.63570026 30.7158618,5.99787971 31.856,6.487 C32.4426506,6.72405728 32.9839422,7.060673 33.456,7.482 C33.8937356,7.87829951 34.1353972,8.44680739 34.117,9.037 C34.104,12.729 34.117,16.422 34.111,20.114 C34.111,22.772 34.1083333,25.43 34.103,28.088 C34.103,28.328 34.103,28.569 34.113,28.809 C34.1364217,29.473823 33.8184414,30.1045027 33.27,30.481 C32.703668,30.9205423 32.0702177,31.2659685 31.394,31.504 C29.9224821,32.0445533 28.4005675,32.4365057 26.851,32.674 C25.282,32.944 23.703,33.108 22.119,33.227 C20.096652,33.3761017 18.0679931,33.4214945 16.041,33.363 C14.641,33.324 13.241,33.241 11.849,33.134 C10.91,33.061 9.976,32.912 9.04,32.798 C9.01708453,32.7986584 8.99429773,32.8016743 8.972,32.807 C8.972,32.975 8.972,33.143 8.972,33.307 C8.98734771,33.5860426 8.77399934,33.8248854 8.495,33.841 C8.36083527,33.8338387 8.23519792,33.7729837 8.14640487,33.6721509 C8.05761181,33.5713181 8.0131354,33.4389931 8.023,33.305 C8.023,33.085 8.023,32.864 8.023,32.681 L4.115,31.709 C4.115,31.732 4.115,31.795 4.115,31.857 C4.12364319,31.9873633 4.07751692,32.1154232 3.98773192,32.2103334 C3.89794692,32.3052435 3.77264196,32.3584005 3.642,32.357 C3.37214761,32.3440719 3.16136791,32.1191222 3.166,31.849 C3.15774757,31.7061191 3.15774757,31.5628809 3.166,31.42 C3.18249599,31.3178289 3.12099751,31.2191751 3.022,31.189 C2.50412628,30.9648924 2.03011553,30.650691 1.622,30.261 C1.2044896,29.887576 0.979933802,29.3442246 1.012,28.785 C1.031,28.516 1.032,28.245 1.042,27.975 C1.121,28.063 1.198,28.153 1.279,28.24 C1.496,28.472 1.714,28.703 1.932,28.934 C2.15669679,29.4817723 2.6057066,29.9067475 3.165,30.101 L3.165,7.617 C2.888,7.809 2.643,7.971 2.406,8.146 C2.09759171,8.37161016 1.92836372,8.7411102 1.959,9.122 C1.977,10.928 1.966,12.735 1.965,14.541 C1.96111359,14.6037926 1.95309624,14.6662611 1.941,14.728 C1.896,14.686 1.85,14.645 1.807,14.6 C1.54633333,14.3313333 1.288,14.0603333 1.032,13.787 Z M8.976,31.762 C9.476,31.833 9.955,31.919 10.438,31.962 C11.632,32.076 12.826,32.209 14.022,32.262 C15.522,32.333 17.022,32.384 18.527,32.352 C20.174,32.317 21.827,32.218 23.465,32.069 C24.778,31.95 26.085,31.738 27.388,31.527 C28.7405479,31.3170962 30.064102,30.9506355 31.332,30.435 C31.83927,30.2439948 32.3121066,29.971776 32.732,29.629 C33.0186517,29.400712 33.1788443,29.049106 33.163,28.683 C33.1496667,23.9496667 33.147,19.2183333 33.155,14.489 C33.155,12.6363333 33.155,10.7836667 33.155,8.931 C33.1598631,8.7371037 33.0941185,8.54804368 32.97,8.399 C32.6741162,8.06950258 32.3136557,7.804348 31.911,7.62 C30.8754386,7.11728963 29.7818598,6.74414282 28.655,6.509 C26.8817103,6.09395527 25.0790182,5.81646373 23.263,5.679 C21.734,5.558 20.201,5.489 18.669,5.44 C16.7767467,5.379811 14.8825967,5.42889262 12.996,5.587 C12.008,5.67 11.021,5.773 10.034,5.875 C9.68,5.912 9.327,5.975 8.969,6.028 L8.976,31.762 Z M4.126,20.127 L4.126,22.079 L8.012,22.571 L8.012,20.439 L4.126,20.127 Z M8.015,11.018 L4.122,11.518 L4.122,13.471 L8.015,13.152 L8.015,11.018 Z M8.015,23.595 L4.13,23.101 L4.13,25.048 L8.015,25.721 L8.015,23.595 Z M4.115,26.075 C4.115,26.629 4.121,27.155 4.115,27.68 C4.115,27.837 4.153,27.901 4.299,27.941 C5.404,28.241 6.507,28.553 7.61,28.861 C7.742,28.898 7.876,28.929 8.017,28.961 L8.017,26.748 L4.115,26.075 Z M8.015,17.306 L4.115,17.306 L4.115,19.106 L8.015,19.425 L8.015,17.306 Z M4.12,16.276 L8.007,16.276 L8.007,14.17 L4.12,14.482 L4.12,16.276 Z M8.013,7.888 L6.821,8.137 C5.964,8.317 5.107,8.501 4.248,8.676 C4.139,8.698 4.108,8.744 4.112,8.854 C4.119,9.042 4.112,9.231 4.112,9.419 L4.112,10.492 L8.012,9.992 L8.013,7.888 Z M8.023,31.6 C8.023,31.13 8.017,30.684 8.023,30.237 C8.023,30.076 7.987,30.004 7.829,29.961 C6.783,29.679 5.741,29.382 4.697,29.092 C4.507,29.039 4.315,28.992 4.111,28.943 C4.111,29.434 4.118,29.901 4.111,30.368 C4.111,30.524 4.146,30.6 4.292,30.64 C5.166,30.881 6.036,31.14 6.912,31.373 C7.269,31.47 7.637,31.525 8.023,31.602 L8.023,31.6 Z M8.972,5 C9.278,4.962 9.554,4.922 9.832,4.894 C9.942,4.883 9.991,4.848 9.991,4.718 C9.991,3.68 9.991,2.642 9.982,1.603 C9.97603228,1.45084939 9.92485404,1.30392954 9.835,1.181 C9.71018885,1.00892478 9.47929371,0.952258204 9.289,1.047 C9.08751117,1.13970812 8.96247994,1.34545571 8.973,1.567 C8.973,2.605 8.973,3.64333333 8.973,4.682 L8.972,5 Z M4.114,6.134 C4.435,6.034 4.734,5.952 5.028,5.853 C5.0823197,5.8241087 5.11950368,5.77093562 5.128,5.71 C5.134,4.68466667 5.134,3.65966667 5.128,2.635 C5.13106888,2.3443344 4.90429449,2.10300057 4.614,2.088 C4.32107987,2.1241683 4.10224626,2.37487925 4.106,2.67 C4.106,3.52 4.10766667,4.37 4.111,5.22 C4.115,5.517 4.115,5.817 4.115,6.135 L4.114,6.134 Z M4.136,7.662 L8.011,6.853 L8.011,6.193 C7.631,6.271 7.258,6.329 6.896,6.425 C6.066,6.645 5.23833333,6.87833333 4.413,7.125 C4.09,7.225 4.095,7.244 4.113,7.603 C4.11930885,7.62363568 4.12733698,7.64370599 4.137,7.663 L4.136,7.662 Z" id="Path_7968" fill-rule="nonzero"></path>
                    <path d="M1.927,28.942 C1.709,28.711 1.491,28.48 1.274,28.248 C1.193,28.162 1.116,28.072 1.037,27.983 C1.02388309,27.9277798 1.01518889,27.8716019 1.011,27.815 C1.011,25.489 1.011,23.163 1.011,20.837 C1.01470933,20.7795921 1.02205742,20.7224773 1.033,20.666 L1.927,19.713 C1.94362106,19.7786166 1.95466044,19.8455219 1.96,19.913 C1.96,22.855 1.96,25.797 1.96,28.739 C1.95475231,28.8074772 1.94371284,28.8753866 1.927,28.942 Z" id="Path_7969"></path>
                    <path d="M1.926,19.711 L1.032,20.664 C1.02097293,20.6085459 1.01362357,20.5524236 1.01,20.496 C1.01,18.3093333 1.01,16.123 1.01,13.937 C1.01332199,13.886884 1.02034108,13.8370819 1.031,13.788 C1.28766667,14.0606667 1.54433333,14.3333333 1.801,14.606 C1.844,14.651 1.89,14.692 1.935,14.734 C1.94738548,14.8101719 1.95573049,14.8869459 1.96,14.964 C1.96,16.478 1.96,17.9923333 1.96,19.507 C1.95428492,19.5758179 1.94291316,19.6440484 1.926,19.711 Z" id="Path_7970"></path>
                    <path d="M25.032,20.3 C25.0473733,21.3652978 24.5252386,22.3667138 23.643,22.964 C22.6445227,23.6348472 21.2973736,23.4200716 20.557,22.472 C19.7006621,21.4873244 19.5156326,20.0862177 20.087,18.913 C20.5561286,17.9597665 21.1361419,17.0652437 21.815,16.248 C21.863,16.189 21.906,16.126 21.955,16.068 C22.248,15.72 22.528,15.719 22.817,16.068 C23.3810098,16.7373636 23.8859017,17.4543837 24.326,18.211 C24.6444394,18.7251636 24.869564,19.2915296 24.991,19.884 C25.014,20.024 25.019,20.168 25.032,20.3 Z M22.393,17.084 C21.8581592,17.7581594 21.389338,18.4821533 20.993,19.246 C20.5758828,19.9843119 20.6202343,20.8966295 21.107,21.591 C21.3031364,21.9327426 21.62883,22.1809217 22.0103621,22.2793634 C22.3918942,22.3778051 22.797005,22.3181858 23.134,22.114 C23.9539805,21.5594617 24.2793612,20.5101813 23.917,19.589 C23.6810383,19.0796766 23.4138637,18.5854034 23.117,18.109 C22.906,17.756 22.646,17.433 22.393,17.084 Z" id="Path_7971" fill-rule="nonzero"></path>
                    <path d="M28.294,15.351 C28.3451732,16.3173082 27.8404684,17.2281062 26.994,17.697 C26.1330066,18.1317538 25.0825705,17.8386895 24.571,17.021 C23.9934409,16.2459495 23.9073185,15.2097647 24.349,14.35 C24.7370389,13.5631249 25.2232466,12.8286052 25.796,12.164 C25.8841773,12.036252 26.0306136,11.9613231 26.1858052,11.9645437 C26.3409967,11.9677643 26.4841985,12.0487038 26.567,12.18 C27.1751271,12.8735856 27.6772356,13.6533701 28.057,14.494 C28.1570875,14.7734117 28.236305,15.0598648 28.294,15.351 Z M26.186,13.264 C25.7868164,13.7448976 25.4507583,14.2748612 25.186,14.841 C25.057253,15.1177218 25.0100755,15.4254165 25.05,15.728 C25.1076936,16.2287716 25.4374464,16.6566421 25.907,16.84 C26.290349,16.9588404 26.7070236,16.8239515 26.948,16.503 C27.2914581,16.1374097 27.4151726,15.6170474 27.273,15.136 C27.0209378,14.4539564 26.6528498,13.8206286 26.185,13.264 L26.186,13.264 Z" id="Path_7972" fill-rule="nonzero"></path>
                </g>
            </g>
        </g>
    </g>
</svg>