<?xml version="1.0" encoding="UTF-8"?>
<svg width="37px" height="36px" viewBox="0 0 37 36" version="1.1" xmlns="http://www.w3.org/2000/svg" xmlns:xlink="http://www.w3.org/1999/xlink">
    
    <title>Blockwork_Plaster-2</title>
    <desc>Created with Sketch.</desc>
    <g id="Page-1" stroke="none" stroke-width="1" fill="none" fill-rule="evenodd">
        <g id="Turnkey" transform="translate(-1670.000000, -246.000000)" fill="#898989" fill-rule="nonzero" stroke="#FFFFFF" stroke-width="0.8">
            <g transform="translate(-8.000000, -16.000000)" id="Blockwork_Plaster-2">
                <g transform="translate(1678.965000, 261.540000)">
                    <path d="M34.257,35.854 L0.723,35.854 C0.247904981,35.7152165 -0.047034314,35.2415913 0.038,34.754 C0.057,34.483 0.038,34.209 0.038,33.936 C0.038,23.3033333 0.038,12.67 0.038,2.036 C0.038,1.255 0.325,0.965 1.101,0.964 L11.664,0.964 C12.464,0.964 12.736,1.243 12.738,2.054 C12.738,2.278 12.738,2.501 12.738,2.763 C13.744,2.763 14.706,2.763 15.668,2.754 C15.72,2.754 15.81,2.625 15.815,2.554 C15.834,2.306 15.815,2.054 15.827,1.805 C15.8210245,1.58640463 15.9041259,1.37476358 16.0572381,1.21863444 C16.2103502,1.06250529 16.4203297,0.975290473 16.639,0.977 C16.8581566,0.986229678 17.0643408,1.08341053 17.2109436,1.24657435 C17.3575464,1.40973817 17.4321897,1.62510856 17.418,1.844 C17.427,2.137 17.418,2.431 17.418,2.744 L20.198,2.744 C20.198,2.43 20.192,2.144 20.198,1.864 C20.1619121,1.55783057 20.3049622,1.25816776 20.5657171,1.09370221 C20.826472,0.929236671 21.158528,0.929236671 21.4192829,1.09370221 C21.6800378,1.25816776 21.8230879,1.55783057 21.787,1.864 C21.794,2.155 21.787,2.446 21.787,2.754 L24.641,2.754 C24.6290868,2.47806337 24.6314233,2.20169577 24.648,1.926 C24.6615835,1.71387635 24.7198576,1.50702058 24.819,1.319 C24.9962238,1.07110775 25.302547,0.95046587 25.6012148,1.01093369 C25.8998826,1.0714015 26.1351562,1.30169421 26.202,1.599 C26.257,1.975 26.256,2.359 26.28,2.753 L29.08,2.753 C29.08,2.53 29.08,2.328 29.08,2.125 C29.0798118,1.95541296 29.094198,1.78612344 29.123,1.619 C29.1894596,1.24699817 29.5151341,0.977576584 29.893,0.982 C30.2733039,0.978642306 30.5965747,1.25903901 30.647,1.636 C30.699,1.99 30.695,2.353 30.718,2.75 C30.975,2.75 31.218,2.75 31.468,2.75 C31.868,2.759 32.268,2.75 32.656,2.796 C33.0196855,2.85036709 33.2890986,3.16227439 33.29,3.53 C33.3052625,3.89604615 33.0578713,4.22114087 32.701,4.304 C32.4556037,4.34573097 32.2068902,4.36481128 31.958,4.361 C31.543,4.37 31.127,4.361 30.717,4.361 L30.717,7.312 C31.297,7.312 31.852,7.299 32.406,7.312 C32.7110678,7.28130778 33.0072241,7.42592895 33.1706077,7.68537873 C33.3339913,7.94482852 33.3364492,8.27440064 33.1769536,8.53625847 C33.0174579,8.79811631 32.7234917,8.94713864 32.418,8.921 C32.327,8.921 32.236,8.921 32.146,8.921 L30.721,8.921 L30.721,11.932 C30.7627125,11.9427685 30.8051602,11.9504558 30.848,11.955 L32.248,11.961 C32.921,11.961 33.298,12.256 33.295,12.766 C33.292,13.276 32.913,13.566 32.238,13.566 L30.712,13.566 L30.712,16.566 C30.929,16.566 31.13,16.566 31.332,16.566 C31.763,16.572 32.197,16.552 32.624,16.596 C33.014036,16.6469834 33.3029374,16.9837475 33.294,17.377 C33.2890809,17.7681229 32.9945314,18.0947818 32.606,18.14 C32.3689886,18.1617137 32.1309634,18.1703935 31.893,18.166 C31.501,18.166 31.11,18.166 30.713,18.166 L30.713,21.185 L31.095,21.185 C31.572,21.185 32.05,21.174 32.526,21.196 C32.9576716,21.2031245 33.302124,21.558313 33.296,21.99 C33.2851606,22.4066811 32.9561989,22.7452157 32.54,22.768 C32.212,22.791 31.882,22.779 31.553,22.781 C31.274,22.781 30.995,22.781 30.719,22.781 L30.719,24.22 L31.104,24.22 C32.024,24.22 32.944,24.23 33.864,24.22 C34.3143384,24.1614862 34.7497145,24.4053944 34.935,24.82 L34.935,35.172 C34.8375478,35.498575 34.5829961,35.7546284 34.257,35.854 Z M11.148,2.54 L1.665,2.54 L1.665,34.2 L33.307,34.2 L33.307,25.747 L32.976,25.747 L23.059,25.747 C21.503,25.747 19.947,25.747 18.391,25.747 C17.636,25.747 17.349,25.453 17.348,24.691 C17.348,24.225 17.366,23.758 17.341,23.291 C17.3302417,23.1178628 17.2615591,22.9533767 17.146,22.824 C15.5886667,21.2486667 14.024,19.682 12.452,18.124 C12.352,18.024 12.223,17.943 12.114,17.846 C11.5058234,17.4403188 11.1366131,16.7610018 11.127,16.03 C11.186,13.157 11.149,10.282 11.149,7.407 L11.148,2.54 Z M12.766,8.94 L12.766,11.93 L15.788,11.93 L15.788,8.936 L12.766,8.94 Z M12.793,13.581 C12.793,14.481 12.788,15.358 12.793,16.23 C12.793,16.488 12.976,16.565 13.21,16.564 C13.834,16.564 14.458,16.564 15.082,16.564 L15.84,16.5640096 L15.84,13.577 L12.793,13.581 Z M15.763,4.381 L12.771,4.381 L12.771,7.281 L15.763,7.281 L15.763,4.381 Z M20.188,18.181 L17.377,18.181 C17.377,19.094 17.362,19.987 17.396,20.881 C17.396,20.981 17.66,21.154 17.813,21.167 C18.24,21.203 18.673,21.173 19.103,21.167 C19.46,21.167 19.817,21.167 20.188,21.167 L20.188,18.181 Z M17.445,11.933 L20.174,11.933 L20.174,8.946 L17.445,8.946 L17.445,11.933 Z M21.813,11.933 L24.569,11.933 L24.569,8.94 L21.813,8.94 L21.813,11.933 Z M26.28,8.933 L26.28,11.933 L29.041,11.933 L29.041,8.933 L26.28,8.933 Z M20.18,13.582 L17.438,13.582 L17.438,16.539 L20.18,16.539 L20.18,13.582 Z M24.569,16.542 L24.569,13.591 L21.814,13.591 L21.814,16.545 L24.569,16.542 Z M26.277,18.171 L26.277,21.132 L29.04,21.132 L29.04,18.174 L26.277,18.171 Z M29.043,16.545 L29.043,13.581 L26.282,13.581 L26.282,16.547 L29.043,16.545 Z M24.576,18.19 L21.81,18.19 L21.81,21.128 L24.576,21.128 L24.576,18.19 Z M20.183,4.377 L17.446,4.377 L17.446,7.277 L20.183,7.277 L20.183,4.377 Z M24.57,7.286 L24.57,4.38 L21.817,4.38 L21.817,7.29 L24.57,7.286 Z M26.279,4.363 L26.279,7.275 L29.012,7.275 L29.012,4.366 L26.279,4.363 Z M24.579,22.778 L21.817,22.778 L21.817,24.171 L24.579,24.171 L24.579,22.778 Z M29.066,22.79 L26.283,22.79 L26.283,24.19 L29.066,24.19 L29.066,22.79 Z M20.181,24.181 L20.181,22.781 L18.848,22.781 L18.848,24.181 L20.181,24.181 Z M15.766,18.189 L14.73,18.189 L15.766,19.234 L15.766,18.189 Z" id="Path_8043"></path>
                </g>
            </g>
        </g>
    </g>
</svg>