<?xml version="1.0" encoding="UTF-8"?>
<svg width="30px" height="42px" viewBox="0 0 30 42" version="1.1" xmlns="http://www.w3.org/2000/svg" xmlns:xlink="http://www.w3.org/1999/xlink">
    
    <title>cable</title>
    <desc>Created with Sketch.</desc>
    <g id="Page-1" stroke="none" stroke-width="1" fill="none" fill-rule="evenodd">
        <g id="Turnkey" transform="translate(-1673.000000, -632.000000)" fill="#898989">
            <g transform="translate(-8.000000, -16.000000)" id="cable">
                <g transform="translate(1681.000000, 647.315000)">
                    <path d="M20.425,42.523 L9.215,42.523 C8.15282859,42.4860532 7.32041813,41.5973143 7.353,40.535 L7.353,21.517 C7.32097269,20.4548952 8.15307387,19.5664864 9.215,19.529 L20.425,19.529 C21.4869261,19.5664864 22.3190273,20.4548952 22.287,21.517 L22.287,40.535 C22.3190273,41.5971048 21.4869261,42.4855136 20.425,42.523 Z M9.215,20.713 C9.0129159,20.714555 8.82057138,20.8000414 8.684,20.949 C8.54169624,21.1037631 8.46342684,21.3067632 8.465,21.517 L8.465,40.535 C8.45264464,40.9628519 8.78822141,41.3203238 9.216,41.335 L20.426,41.335 C20.8535346,41.319786 21.1888032,40.9626423 21.177,40.535 L21.177,21.517 C21.1893554,21.0891481 20.8537786,20.7316762 20.426,20.717 L9.215,20.713 Z" id="Path_7721" fill-rule="nonzero"></path>
                    <path d="M21.587,24.839 L8.055,24.839 C7.74085536,24.8207484 7.49545287,24.5606744 7.49545287,24.246 C7.49545287,23.9313256 7.74085536,23.6712516 8.055,23.653 L21.587,23.653 C21.9011446,23.6712516 22.1465471,23.9313256 22.1465471,24.246 C22.1465471,24.5606744 21.9011446,24.8207484 21.587,24.839 Z" id="Path_7722"></path>
                    <path d="M12.455,20.714 L9.555,20.714 C9.28270695,20.7074248 9.05371195,20.507842 9.01,20.239 C8.4615728,16.5025902 6.0680761,13.2937182 2.643,11.703 C2.35397436,11.5639516 2.22266781,11.2243053 2.343,10.927 L3.451,8.116 C3.50126934,7.97460216 3.60781461,7.86031277 3.7453438,7.80026214 C3.88287299,7.74021152 4.03912199,7.73975465 4.177,7.799 C10.615,10.693 12.468,16.699 12.998,20.019 C13.0258284,20.1897813 12.9812588,20.364436 12.875,20.501 C12.773498,20.6326278 12.6172107,20.7104028 12.451,20.712 L12.455,20.714 Z M10,19.527 L11.781,19.527 C11.0819883,15.0571555 8.28416133,11.1926222 4.256,9.133 L3.581,10.857 C6.94467243,12.6007427 9.31392869,15.8008442 10,19.527 Z" id="Path_7723" fill-rule="nonzero"></path>
                    <path d="M20.279,20.714 L17.364,20.714 C17.1977893,20.7124028 17.041502,20.6346278 16.94,20.503 C16.8337412,20.366436 16.7891716,20.1917813 16.817,20.021 C17.348,16.699 19.2,10.694 25.638,7.801 C25.7735661,7.74054796 25.9284339,7.74054796 26.064,7.801 C26.2023548,7.86383586 26.3102116,7.97888316 26.364,8.121 L27.472,10.932 C27.5923322,11.2293053 27.4610256,11.5689516 27.172,11.708 C23.7632117,13.3164957 21.3808514,16.51873 20.82,20.246 C20.7739545,20.510831 20.547701,20.7065549 20.279,20.714 Z M18.034,19.528 L19.834,19.528 C20.5235243,15.8076267 22.8827933,12.6097113 26.234,10.853 L25.556,9.133 C21.5292153,11.1931968 18.7331658,15.0578428 18.036,19.527 L18.034,19.528 Z" id="Path_7724" fill-rule="nonzero"></path>
                    <path d="M16.504,20.713 L13.137,20.713 C12.8197622,20.7026727 12.5708958,20.437245 12.581,20.12 L12.581,4.262 C12.5708958,3.94475503 12.8197622,3.67932732 13.137,3.669 L16.504,3.669 C16.8212378,3.67932732 17.0701042,3.94475503 17.06,4.262 L17.06,20.12 C17.0701042,20.437245 16.8212378,20.7026727 16.504,20.713 Z M13.692,19.527 L15.948,19.527 L15.948,4.857 L13.692,4.857 L13.692,19.527 Z" id="Path_7725" fill-rule="nonzero"></path>
                    <path d="M3.402,10.372 C3.24870992,10.3706571 3.1032434,10.3041061 3.002,10.189 C2.29370916,9.52894592 1.40753436,9.09089953 0.453,8.929 C0.14311622,8.85414292 -0.0518411054,8.54733932 0.012,8.235 C0.0335322017,8.08527833 0.11482085,7.95067391 0.237306589,7.86191886 C0.359792329,7.77316381 0.513018,7.73783554 0.662,7.764 C1.84982389,7.96661767 2.94725089,8.52771866 3.807,9.372 C3.95994458,9.54918267 4.0008708,9.79705653 3.913,10.014 C3.83211938,10.2263312 3.63018031,10.3680845 3.403,10.372 L3.402,10.372 Z" id="Path_7726"></path>
                    <path d="M26.368,10.246 C26.1299905,10.241934 25.9207675,10.0873259 25.847,9.861 C25.7651524,9.63069941 25.8262436,9.3738033 26.003,9.205 C26.845204,8.45921665 27.8772353,7.96085142 28.985,7.765 C29.1342826,7.73917089 29.2876558,7.77504043 29.4100003,7.86439522 C29.5323447,7.95375002 29.6131813,8.08893662 29.634,8.239 C29.6970412,8.55192566 29.5006316,8.85848376 29.19,8.932 C28.279322,9.09000012 27.4292697,9.49427643 26.732,10.101 C26.6333135,10.193538 26.5032844,10.2453353 26.368,10.246 Z" id="Path_7727"></path>
                    <path d="M14.82,4.856 C14.5027622,4.84567268 14.2538958,4.58024497 14.264,4.263 L14.264,1.593 C14.248689,1.3847944 14.3510912,1.18550783 14.5292815,1.07673174 C14.7074717,0.967955639 14.9315283,0.967955639 15.1097185,1.07673174 C15.2879088,1.18550783 15.390311,1.3847944 15.375,1.593 L15.375,4.263 C15.3851106,4.57986741 15.1368424,4.84513418 14.82,4.856 Z" id="Path_7728"></path>
                </g>
            </g>
        </g>
    </g>
</svg>