<?xml version="1.0" encoding="UTF-8"?>
<svg width="37px" height="41px" viewBox="0 0 37 41" version="1.1" xmlns="http://www.w3.org/2000/svg" xmlns:xlink="http://www.w3.org/1999/xlink">
    
    <title>door_1_</title>
    <desc>Created with Sketch.</desc>
    <g id="Page-1" stroke="none" stroke-width="1" fill="none" fill-rule="evenodd">
        <g id="Turnkey" transform="translate(-1670.000000, -507.000000)" fill="#898989" fill-rule="nonzero" stroke="#DBDADA" stroke-width="0.1">
            <g transform="translate(-8.000000, -16.000000)" id="door_1_">
                <g transform="translate(1678.000000, 523.593000)">
                    <g id="Group_4088">
                        <g id="Group_4087">
                            <path d="M35.562,38.911 L31.792,38.911 L31.792,0.671 C31.8080692,0.495962523 31.748474,0.322414341 31.6282616,0.194175041 C31.5080492,0.0659357404 31.3387097,-0.00473741693 31.163,-1.11022302e-16 L6.027,-1.11022302e-16 C5.85146214,-0.00444637643 5.68239503,0.06635385 5.56240705,0.194557569 C5.44241907,0.322761288 5.38295463,0.496140469 5.399,0.671 L5.399,38.911 L1.633,38.911 C1.27663481,38.930463 0.997646964,39.2251037 0.997646964,39.582 C0.997646964,39.9388963 1.27663481,40.233537 1.633,40.253 L35.562,40.253 C35.9183652,40.233537 36.197353,39.9388963 36.197353,39.582 C36.197353,39.2251037 35.9183652,38.930463 35.562,38.911 Z M9.169,38.911 L9.169,4.025 L28.021,4.025 L28.021,38.911 L9.169,38.911 Z M29.278,38.911 L29.278,3.354 C29.2940454,3.17914047 29.2345809,3.00576129 29.1145929,2.87755757 C28.994605,2.74935385 28.8255379,2.67855362 28.65,2.683 L8.541,2.683 C8.36546214,2.67855362 8.19639503,2.74935385 8.07640705,2.87755757 C7.95641907,3.00576129 7.89695463,3.17914047 7.913,3.354 L7.913,38.911 L6.656,38.911 L6.656,1.342 L30.533,1.342 L30.533,38.911 L29.278,38.911 Z" id="Path_7753"></path>
                            <path d="M26.136,19.456 L23.622,19.456 C23.4464621,19.4515536 23.277395,19.5223539 23.1574071,19.6505576 C23.0374191,19.7787613 22.9779546,19.9521405 22.994,20.127 L22.994,20.798 L21.737,20.798 C21.3806348,20.817463 21.101647,21.1121037 21.101647,21.469 C21.101647,21.8258963 21.3806348,22.120537 21.737,22.14 L22.994,22.14 L22.994,22.811 C22.9779546,22.9858595 23.0374191,23.1592387 23.1574071,23.2874424 C23.277395,23.4156461 23.4464621,23.4864464 23.622,23.482 L26.136,23.482 C26.3115379,23.4864464 26.480605,23.4156461 26.6005929,23.2874424 C26.7205809,23.1592387 26.7800454,22.9858595 26.764,22.811 L26.764,20.128 C26.7803494,19.9529761 26.7210214,19.7793218 26.6009978,19.6508889 C26.4809743,19.5224561 26.3117288,19.4515222 26.136,19.456 Z M25.508,22.14 L24.251,22.14 L24.251,20.798 L25.508,20.798 L25.508,22.14 Z" id="Path_7754"></path>
                        </g>
                    </g>
                </g>
            </g>
        </g>
    </g>
</svg>