<?xml version="1.0" encoding="UTF-8"?>
<svg width="42px" height="34px" viewBox="0 0 42 34" version="1.1" xmlns="http://www.w3.org/2000/svg" xmlns:xlink="http://www.w3.org/1999/xlink">
    
    <title>bathtub</title>
    <desc>Created with Sketch.</desc>
    <g id="Page-1" stroke="none" stroke-width="1" fill="none" fill-rule="evenodd">
        <g id="Turnkey" transform="translate(-1434.000000, -641.000000)" fill="#898989" fill-rule="nonzero" stroke="#FFFFFF" stroke-width="0.6">
            <g transform="translate(-8.000000, -16.000000)" id="bathtub">
                <g transform="translate(1441.483000, 656.320000)">
                    <g id="Group_4555">
                        <path d="M38.962,10.006 L38.118,10.006 L38.118,4.6 C38.2020056,3.34070901 37.5778314,2.13941407 36.4991091,1.48425843 C35.4203868,0.829102781 34.0666132,0.829102781 32.9878909,1.48425843 C31.9091686,2.13941407 31.2849944,3.34070901 31.369,4.6 L31.369,5.5 C31.35383,5.98072161 31.730334,6.3831605 32.211,6.4 C32.6924568,6.38423652 33.0701564,5.98147626 33.055,5.5 L33.055,4.6 C33.0115604,3.96956427 33.3232638,3.36751298 33.8631428,3.03908206 C34.4030218,2.71065114 35.0809782,2.71065114 35.6208572,3.03908206 C36.1607362,3.36751298 36.4724396,3.96956427 36.429,4.6 L36.429,10 L3.531,10 C2.08478553,10.049967 0.952243598,11.2617108 1,12.708 C0.983789467,13.8208603 1.65433904,14.8288708 2.687,15.244 L2.687,18.112 C2.65064835,22.0282731 4.54359102,25.7116957 7.749,27.962 L7.749,32.522 C7.73384362,33.0034763 8.11154324,33.4062365 8.593,33.422 L10.28,33.422 C10.60765,33.4168661 10.9024037,33.221665 11.035,32.922 L12.519,29.754 C12.8962255,29.7958087 13.2754648,29.8168405 13.655,29.817 L28.839,29.817 C29.2185364,29.8168829 29.597778,29.795851 29.975,29.754 L31.459,32.922 C31.5915963,33.221665 31.88635,33.4168661 32.214,33.422 L33.9,33.422 C34.3814568,33.4062365 34.7591564,33.0034763 34.744,32.522 L34.744,27.962 C37.949409,25.7116957 39.8423517,22.0282731 39.806,18.112 L39.806,15.244 C40.838661,14.8288708 41.5092105,13.8208603 41.493,12.708 C41.5373757,11.2640194 40.4057972,10.0559889 38.962,10.006 Z M11.123,11.806 L19.559,11.806 L19.559,20.65 L11.123,19.15 L11.123,11.806 Z M2.687,12.706 C2.6724004,12.2247341 3.04978886,11.8223056 3.531,11.806 L9.436,11.806 L9.436,13.606 L3.531,13.606 C3.05059211,13.5896895 2.67352362,13.1884958 2.687,12.708 L2.687,12.706 Z M9.758,31.621 L9.436,31.621 L9.436,28.921 C9.87901845,29.1120792 10.3347836,29.2721316 10.8,29.4 L9.758,31.621 Z M33.058,31.621 L32.736,31.621 L31.7,29.4 C32.1643597,29.2696686 32.6191182,29.1072787 33.061,28.914 L33.058,31.621 Z M38.12,18.112 C38.12,23.575 33.957,28.019 28.84,28.019 L13.654,28.019 C8.537,28.019 4.374,23.575 4.374,18.112 L4.374,15.412 L9.436,15.412 L9.436,19.912 C9.42563968,20.3394385 9.72234692,20.7131634 10.141,20.8 L20.264,22.6 C20.510742,22.6441743 20.7639243,22.5701444 20.948,22.4 C21.1405753,22.2236734 21.2495587,21.9741013 21.248,21.713 L21.248,15.413 L38.119,15.413 L38.119,18.113 L38.12,18.112 Z M38.964,13.612 L21.246,13.612 L21.246,11.812 L38.962,11.812 C39.4590562,11.8120001 39.8619999,12.2149438 39.8619999,12.712 C39.8619999,13.2090562 39.4590562,13.6119999 38.962,13.612 L38.964,13.612 Z" id="Path_7973"></path>
                    </g>
                </g>
            </g>
        </g>
    </g>
</svg>