<?xml version="1.0" encoding="UTF-8"?>
<svg width="40px" height="31px" viewBox="0 0 40 31" version="1.1" xmlns="http://www.w3.org/2000/svg" xmlns:xlink="http://www.w3.org/1999/xlink">
    <!-- Generator: Sketch 52.6 (67491) - http://www.bohemiancoding.com/sketch -->
    <title>sofa</title>
    <desc>Created with Sketch.</desc>
    <g id="Page-1" stroke="none" stroke-width="1" fill="none" fill-rule="evenodd">
        <g id="Turnkey" transform="translate(-1433.000000, -898.000000)" fill="#898989" fill-rule="nonzero" stroke="#FFFFFF" stroke-width="0.5">
            <g transform="translate(-8.000000, -16.000000)" id="sofa">
                <g transform="translate(1442.039000, 913.928000)">
                    <g id="Group_8518" transform="translate(0.000000, 0.002000)">
                        <path d="M37.461,10.451 C36.8875747,9.89720329 36.1619604,9.52708428 35.377,9.388 C34.8553308,9.27119795 34.3173476,9.24582138 33.787,9.313 C31.652,4.357 25.943,0.998 19.288,0.998 C13.01,0.998 7.46,4.382 5.2,9.388 C4.54078396,9.24424523 3.85804493,9.24697619 3.2,9.396 C2.41502004,9.53502603 1.68938956,9.90515328 1.116,10.459 C0.286317448,11.3172221 -0.108452716,12.5059475 0.043,13.69 C0.352332893,15.3005446 1.60088082,16.5664554 3.207,16.898 C3.66657252,16.9956429 4.14187668,16.9922308 4.6,16.888 C4.642,16.88 4.684,16.871 4.717,16.863 C4.851,17.089 5.278,18.286 4.24,23.443 C4.21489289,23.5796677 4.22347384,23.7203953 4.265,23.853 C4.876,25.812 5.865,26.766 7.479,26.953 C7.513,26.953 7.538,26.961 7.571,26.961 L7.571,29.472 C7.571,29.9342623 7.94573766,30.309 8.408,30.309 C8.87026234,30.309 9.245,29.9342623 9.245,29.472 L9.245,26.958 L29.335,26.958 L29.335,29.469 C29.335,29.9312623 29.7097377,30.306 30.172,30.306 C30.6342623,30.306 31.009,29.9312623 31.009,29.469 L31.009,26.958 C31.0398873,26.959505 31.0708361,26.9568138 31.101,26.95 C32.717,26.766 33.713,25.812 34.315,23.85 C34.3565262,23.7173953 34.3651071,23.5766677 34.34,23.44 C33.302,18.275 33.729,17.078 33.863,16.86 C33.897,16.868 33.938,16.877 33.98,16.885 C34.4342639,16.9881519 34.9055715,16.9908821 35.361,16.893 C36.9665424,16.5617432 38.2149431,15.2967709 38.525,13.687 C38.6740569,12.5033052 38.2834294,11.3152691 37.461,10.451 Z M19.288,2.674 C25.198,2.674 30.262,5.554 32.188,9.831 C31.1258237,10.4321742 30.2050803,11.254364 29.488,12.242 C29.096333,12.8213985 28.7810635,13.4489126 28.55,14.109 C27.9992381,15.8252938 27.7057199,17.6136989 27.679,19.416 L10.9,19.416 C10.8691169,17.6140718 10.5756979,15.8262712 10.029,14.109 C9.79796741,13.4488995 9.48269591,12.8213816 9.091,12.242 C8.57904605,11.5084039 7.94159608,10.870954 7.208,10.359 C7.057,10.25 6.898,10.141 6.739,10.041 C8.741,5.646 13.688,2.674 19.288,2.674 Z M36.888,13.431 C36.6806063,14.3497556 35.9531539,15.0611555 35.03,15.248 C34.7918047,15.2968787 34.545623,15.2910661 34.31,15.231 C33.9385929,15.1253777 33.5420449,15.1518849 33.188,15.306 C31.788,15.934 31.639,18.328 32.669,23.551 C32.142,25.1 31.48,25.217 30.978,25.275 L7.61,25.275 C7.11,25.216 6.438,25.099 5.919,23.551 C6.949,18.328 6.798,15.933 5.4,15.306 C5.04396276,15.1602749 4.65026497,15.1339582 4.278,15.231 C4.04236751,15.2909968 3.79620152,15.296809 3.558,15.248 C2.63596166,15.0590518 1.90947203,14.3485934 1.7,13.431 C1.63676327,12.7742434 1.85229237,12.1211249 2.294,11.631 C2.64448879,11.3051287 3.08490758,11.0922363 3.558,11.02 C3.98753606,10.9195262 4.43446394,10.9195262 4.864,11.02 C5.36821574,11.154202 5.83867727,11.3926691 6.245,11.72 C6.81598548,12.119562 7.31221684,12.6164703 7.711,13.188 C8.01773435,13.6492017 8.26533812,14.1470969 8.448,14.67 C8.99980161,16.475845 9.265353,18.3569746 9.235,20.245 C9.23664557,20.706579 9.610421,21.0803544 10.072,21.082 L28.488,21.082 C28.949579,21.0803544 29.3233544,20.706579 29.325,20.245 C29.2940902,18.3543157 29.5596446,16.4704651 30.112,14.662 C30.2946619,14.1390969 30.5422657,13.6412017 30.849,13.18 C31.2477578,12.6096298 31.7436298,12.1137578 32.314,11.715 C32.71746,11.3878816 33.1852733,11.1493753 33.687,11.015 C34.1201677,10.9229884 34.5678323,10.9229884 35.001,11.015 C35.4741109,11.0871766 35.9145465,11.300077 36.265,11.626 C36.7185347,12.1123202 36.9436301,12.768697 36.884,13.431 L36.888,13.431 Z" id="Path_10406"></path>
                    </g>
                </g>
            </g>
        </g>
    </g>
</svg>