<?xml version="1.0" encoding="UTF-8"?>
<svg width="32px" height="35px" viewBox="0 0 32 35" version="1.1" xmlns="http://www.w3.org/2000/svg" xmlns:xlink="http://www.w3.org/1999/xlink">
    
    <title>Group_4564</title>
    <desc>Created with Sketch.</desc>
    <g id="Page-1" stroke="none" stroke-width="1" fill="none" fill-rule="evenodd">
        <g id="Turnkey" transform="translate(-1437.000000, -510.000000)" fill="#898989" fill-rule="nonzero" stroke="#898989" stroke-width="0.3">
            <g transform="translate(-8.000000, -16.000000)" id="Group_4564">
                <g transform="translate(1446.000000, 527.135000)">
                    <path d="M0.006,16.428 C0.006,11.2373333 0.004,6.04633333 0,0.855 C0,0.301 0.1,-0.002 0.719,-6.66135509e-16 C10.3563333,0.0193333333 19.994,0.0273333333 29.632,0.024 C30.643,0.024 30.644,0.024 30.644,1.084 C30.644,11.2886667 30.644,21.4933333 30.644,31.698 C30.644,32.724 30.644,32.724 29.685,32.724 L0.959,32.724 C0.028,32.724 0.027,32.724 0.027,31.735 C0.027,26.633 0.027,21.5306667 0.027,16.428 L0.006,16.428 Z M29.606,13.228 L18.348,1.21 L13.079,6.821 L24.325,18.852 L29.606,13.228 Z M13.097,19.603 L24.288,31.573 L29.57,25.973 L18.366,13.996 L13.097,19.603 Z M12.259,7.54 L1.088,19.492 L6.358,25.138 L17.566,13.178 L12.259,7.54 Z M16.966,0.908 C16.9337398,0.88666773 16.8965641,0.873931633 16.858,0.871 C13.538,0.871 10.219,0.859 6.899,0.882 C6.61810783,0.912757235 6.35657883,1.03998756 6.159,1.242 C5.58,1.796 5.042,2.399 4.484,2.979 C3.303,4.208 2.119,5.435 1.029,6.566 L6.266,12.278 L16.966,0.908 Z M12.389,20.654 L1.857,31.878 C1.94559772,31.9025976 2.03634369,31.9186707 2.128,31.926 C5.428,31.926 8.728,31.938 12.028,31.909 C12.3322066,31.868901 12.6120505,31.7213534 12.817,31.493 C13.83,30.453 14.817,29.382 15.807,28.318 C16.427,27.652 17.041,26.978 17.641,26.326 L12.389,20.654 Z M1.038,20.63 L0.824,20.789 L0.824,31.389 C0.932,31.359 1.009,31.363 1.046,31.324 C2.606,29.675 4.167,28.024 5.705,26.356 C5.78166147,26.1606701 5.76087211,25.9405257 5.649,25.763 C5.101,25.12 4.505,24.525 3.941,23.897 C2.966,22.812 2.003,21.719 1.036,20.63 L1.038,20.63 Z M0.823,18.28 L5.652,13.18 L0.823,7.945 L0.823,18.28 Z M24.148,5.878 L28.901,0.925 L19.466,0.925 L24.148,5.878 Z M29.76,12.044 L29.76,1.508 C28.124,3.261 26.583,4.908 25.06,6.566 C24.9921335,6.72939861 25.0070191,6.91546918 25.1,7.066 C26.621,8.707 28.156,10.333 29.76,12.041 L29.76,12.044 Z M29.785,14.461 L29.642,14.379 C28.109,16.032 26.573,17.679 25.058,19.351 C24.985,19.432 25.046,19.782 25.151,19.898 C26.125,20.973 27.127,22.019 28.111,23.084 C28.637,23.653 29.143,24.242 29.658,24.821 L29.785,24.721 L29.785,14.461 Z M13.671,31.878 L23.171,31.878 L18.371,26.84 L13.671,31.878 Z M0.796,5.486 L0.928,5.579 L5.177,1.023 C3.88195123,0.884091153 2.57857916,0.838640229 1.277,0.887 C1.06042007,0.94054936 0.887076728,1.10253834 0.819,1.315 C0.781,2.705 0.796,4.096 0.796,5.486 Z M25.406,31.878 L29.754,31.878 L29.754,27.336 L25.406,31.878 Z" id="Path_7974"></path>
                </g>
            </g>
        </g>
    </g>
</svg>