<?xml version="1.0" encoding="UTF-8"?>
<svg width="23px" height="37px" viewBox="0 0 23 37" version="1.1" xmlns="http://www.w3.org/2000/svg" xmlns:xlink="http://www.w3.org/1999/xlink">
    
    <title>water-heater</title>
    <desc>Created with Sketch.</desc>
    <g id="Page-1" stroke="none" stroke-width="1" fill="none" fill-rule="evenodd">
        <g id="Turnkey" transform="translate(-1442.000000, -762.000000)" fill="#898989" stroke="#FFFFFF" stroke-width="0.2">
            <g transform="translate(-8.000000, -16.000000)" id="water-heater">
                <g transform="translate(1449.223000, 778.400000)">
                    <g id="Group_4053" fill-rule="nonzero">
                        <g id="Group_4052">
                            <path d="M20.998,0 L3.668,0 C2.14600287,0.0532436483 0.953370124,1.32678589 1,2.849 L1,29.339 C0.953370124,30.8612141 2.14600287,32.1347564 3.668,32.188 L10.026,32.188 L10.026,35.472 C10.0102242,35.6933776 10.1193867,35.9050339 10.3089061,36.0205297 C10.4984256,36.1360255 10.7365744,36.1360255 10.9260939,36.0205297 C11.1156133,35.9050339 11.2247758,35.6933776 11.209,35.472 L11.209,32.188 L13.457,32.188 L13.457,35.472 C13.4412242,35.6933776 13.5503867,35.9050339 13.7399061,36.0205297 C13.9294256,36.1360255 14.1675744,36.1360255 14.3570939,36.0205297 C14.5466133,35.9050339 14.6557758,35.6933776 14.64,35.472 L14.64,32.188 L20.998,32.188 C22.5199971,32.1347564 23.7126299,30.8612141 23.666,29.339 L23.666,2.849 C23.7126299,1.32678589 22.5199971,0.0532436483 20.998,0 Z M20.998,30.925 L3.668,30.925 C2.82086974,30.8951207 2.1571536,30.1862629 2.183,29.339 L2.183,2.849 C2.1571536,2.0017371 2.82086974,1.29287933 3.668,1.263 L20.998,1.263 C21.8451303,1.29287933 22.5088464,2.0017371 22.483,2.849 L22.483,29.339 C22.5088464,30.1862629 21.8451303,30.8951207 20.998,30.925 Z" id="Path_7734"></path>
                        </g>
                    </g>
                    <g id="Group_4055" transform="translate(7.430000, 20.108000)" fill-rule="nonzero">
                        <g id="Group_4054">
                            <path d="M4.906,1 C3.19509562,0.886290149 1.58848384,1.82973475 0.854283228,3.37927442 C0.120082617,4.9288141 0.407446269,6.76965935 1.57898607,8.02170497 C2.75052588,9.27375059 4.56824314,9.68264309 6.1630901,9.05289161 C7.75793705,8.42314013 8.80592002,6.8826789 8.806,5.168 C8.8740072,2.94234243 7.13126445,1.07984197 4.906,1 Z M4.906,8.073 C3.7133977,8.15100547 2.59429151,7.49213521 2.08385302,6.41146983 C1.57341454,5.33080445 1.77537061,4.04794732 2.59314314,3.17637792 C3.41091566,2.30480853 4.67832405,2.02163959 5.78927661,2.46228629 C6.90022918,2.90293299 7.62896784,3.97785096 7.627,5.173 C7.67138479,6.72328784 6.45597074,8.01865746 4.906,8.073 Z" id="Path_7735"></path>
                        </g>
                    </g>
                    <g id="Group_4057" transform="translate(10.742000, 23.474000)">
                        <g id="Group_4056">
                            <path d="M1.592,0 C1.25456999,0.0114148933 0.989893089,0.293528284 1,0.631 L1,1.807 C0.984224175,2.02837759 1.09338666,2.24003386 1.28290614,2.35552966 C1.47242563,2.47102546 1.71057437,2.47102546 1.90009386,2.35552966 C2.08961334,2.24003386 2.19877582,2.02837759 2.183,1.807 L2.183,0.636 C2.18921258,0.473224361 2.13038216,0.314669633 2.01949748,0.195341961 C1.90861281,0.0760142882 1.75479343,0.00572760656 1.592,0 Z" id="Path_7736"></path>
                        </g>
                    </g>
                    <g id="Group_4059" transform="translate(8.450000, 6.876000)">
                        <g id="Group_4058">
                            <path d="M7.307,4.299 C6.99435416,3.59603194 6.52342634,2.97485898 5.931,2.484 C5.73096516,2.33299544 5.45503484,2.33299544 5.255,2.484 C5.04805485,2.64177974 4.95454715,2.90737303 5.017,3.16 C5.02433333,3.19066667 5.03066667,3.221 5.036,3.251 C4.62918647,1.98338846 3.83006295,0.877852542 2.754,0.094 C2.55242303,-0.03541393 2.29091315,-0.0225593735 2.103,0.126 C1.90907138,0.282204048 1.82067605,0.534983703 1.875,0.778 L2.075,1.678 C2.28209779,2.59683886 1.97965487,3.55610226 1.283,4.19 C0.105573351,5.27116945 -0.30658238,6.95410582 0.238,8.457 L0.538,9.307 C0.586718696,9.45975614 0.69639849,9.58558854 0.841072806,9.65470651 C0.985747123,9.72382447 1.15255325,9.73008286 1.302,9.672 C1.6134687,9.53340475 1.76329682,9.17635821 1.644,8.857 L1.344,8.007 C0.981530826,7.00400237 1.25763742,5.88143184 2.044,5.161 C2.82129624,4.46036855 3.2816344,3.47475425 3.32,2.429 C3.95949768,3.43980598 4.29546368,4.61291041 4.288,5.809 C4.28712436,6.06345288 4.43940436,6.29345092 4.674,6.392 C4.90531779,6.48200964 5.16829114,6.41110004 5.323,6.217 C5.69428165,5.73643772 5.96777037,5.18776159 6.128,4.602 C6.79724549,5.9508917 6.7373907,7.54701965 5.969,8.842 C5.81556674,9.14717267 5.92324371,9.51902876 6.216,9.695 C6.29983598,9.74264512 6.39457134,9.76779306 6.491,9.768 C6.71578724,9.76527247 6.91927388,9.63440416 7.015,9.431 C7.90645338,7.859218 8.01441508,5.96175425 7.307,4.299 Z" id="Path_7737"></path>
                        </g>
                    </g>
                    <g id="Group_4061" transform="translate(5.314000, 4.685000)" fill-rule="nonzero">
                        <g id="Group_4060">
                            <path d="M13.447,0 L0.592,0 C0.254167591,0.0114115398 -0.010669802,0.294143351 1.11022302e-16,0.632 L1.11022302e-16,14.358 C-0.010669802,14.6958566 0.254167591,14.9785885 0.592,14.99 L13.448,14.99 C13.7858324,14.9785885 14.0506698,14.6958566 14.04,14.358 L14.04,0.632 C14.0506635,0.293765611 13.7852277,0.0108728095 13.447,0 Z M12.856,13.725 L1.183,13.725 L1.183,1.263 L12.856,1.263 L12.856,13.725 Z" id="Path_7738"></path>
                        </g>
                    </g>
                </g>
            </g>
        </g>
    </g>
</svg>