<?xml version="1.0" encoding="UTF-8"?>
<svg width="44px" height="44px" viewBox="0 0 44 44" version="1.1" xmlns="http://www.w3.org/2000/svg" xmlns:xlink="http://www.w3.org/1999/xlink">
    
    <title>Group_7149</title>
    <desc>Created with Sketch.</desc>
    <defs>
        <rect id="path-1" x="0" y="0" width="43.564" height="43.413"></rect>
    </defs>
    <g id="Page-1" stroke="none" stroke-width="1" fill="none" fill-rule="evenodd">
        <g id="Turnkey" transform="translate(-1432.000000, -239.000000)">
            <g transform="translate(-8.000000, -16.000000)" id="Group_7149">
                <g transform="translate(1440.000000, 255.000000)">
                    <g id="Group_7148-Clipped">
                        <mask id="mask-2" fill="white">
                            <use xlink:href="#path-1"></use>
                        </mask>
                        <g id="Rectangle_2913"></g>
                        <g id="Group_7148" mask="url(#mask-2)" fill="#898989" fill-rule="nonzero">
                            <g transform="translate(0.000000, -1.000000)">
                                <path d="M15.891,37.209 C13.484,36.204 12.172,34.285 11.119,32.109 C10.606,31.046 10.028,30.009 9.494,28.96 C9.22491813,28.5914924 9.1459842,28.1174293 9.28114219,27.6816137 C9.41630018,27.2457982 9.74962305,26.8995868 10.18,26.748 C11.261,26.148 12.367,25.596 13.5,25.004 C11.834,21.792 10.353,18.56 8.5,15.558 C7.843,14.496 6.908,13.537 6.276,12.396 C6.197,12.254 5.865,12.225 5.643,12.196 C4.17178311,12.0364142 2.84242705,11.2456608 2,10.029 C1.29697835,8.93473975 0.678514909,7.78840941 0.15,6.6 C-0.0228971989,6.24610144 -0.0443856024,5.83709396 0.0904759204,5.46702639 C0.225337443,5.09695883 0.504943379,4.79767737 0.865,4.638 C3.152,3.456 5.457,2.306 7.765,1.164 C8.03841199,0.994795397 8.36888218,0.944064741 8.68045803,1.02346755 C8.99203388,1.10287035 9.25791735,1.30557733 9.417,1.585 C10.2645249,3.05803701 10.9501817,4.61845115 11.462,6.239 C11.5582098,7.28316095 11.3939747,8.33488386 10.984,9.3 C10.7986627,9.71753889 10.8045046,10.1951196 11,10.608 C11.437,11.472 12.239,12.241 11.879,13.367 C11.859,13.429 11.944,13.526 11.985,13.604 L17.016,23.185 C18.123,22.614 19.185,22.06 20.253,21.516 C20.6513112,21.2065713 21.1759633,21.1119541 21.6572726,21.2627497 C22.1385819,21.4135453 22.5154538,21.7906126 22.666,22.272 C23.1149589,23.0358181 23.5183304,23.8255314 23.874,24.637 C24.3570699,25.7228931 25.1634095,26.6332991 26.183,27.244 C26.4541417,27.4065439 26.7672027,27.4855048 27.083,27.471 C27.853,27.45 28.62,27.339 29.389,27.301 C30.584,27.242 31.239,27.574 31.589,28.669 C31.8334609,29.6606138 32.6482716,30.409231 33.657,30.569 C34.404,30.73 35.113,31.064 35.846,31.296 C36.5917285,31.4665723 37.1554163,32.078758 37.264,32.836 C37.339,33.361 37.608,33.449 38.071,33.565 C38.6429396,33.6581725 39.1673616,33.9397414 39.561,34.365 C40.0176339,35.0400031 40.5685566,35.6461528 41.197,36.165 C42.0585218,36.965719 42.4763645,38.1356787 42.317,39.301 C42.2937006,39.8963415 42.375623,40.491125 42.559,41.058 C42.787,41.786 43.164,42.467 43.45,43.179 C43.729,43.874 43.45,44.322 42.697,44.41 C42.4600781,44.4274106 42.2223467,44.4310834 41.985,44.421 L11.1,44.421 C10.8629216,44.4310689 10.6254428,44.4260588 10.389,44.406 C9.651,44.306 9.42,43.848 9.847,43.225 C10.498,42.273 11.235,41.379 11.864,40.414 C12.319,39.714 12.595,38.898 13.072,38.214 C13.3802827,37.7782614 13.8112282,37.4440871 14.31,37.254 C14.8325746,37.1596607 15.366677,37.1475143 15.893,37.218 M11.854,43.052 L41.836,43.052 C41.627,42.542 41.457,42.109 41.272,41.682 C40.837295,40.9136209 40.7060117,40.0103346 40.904,39.15 C41.1224172,38.2190564 40.6747534,37.2596589 39.821,36.829 C39.3844744,36.5166966 39.0280885,36.1054821 38.781,35.629 C38.5794011,35.2211141 38.1931273,34.9357855 37.744,34.863 C37.154,34.689 36.322,34.241 36.209,33.763 C35.956,32.704 35.262,32.472 34.429,32.231 C33.804,32.05 33.207,31.771 32.579,31.611 C31.7578697,31.4181009 31.0961455,30.8120569 30.832,30.011 C30.232,28.527 30.587,28.5 28.718,28.756 C27.1758468,29.1335367 25.5486681,28.6746472 24.431,27.547 C24.2933511,27.3667508 24.0847933,27.2544516 23.8585398,27.2387555 C23.6322863,27.2230595 23.4102197,27.3054845 23.249,27.465 C22.9966465,27.7068724 22.8322879,28.0260872 22.782,28.372 C22.6959047,29.0169944 22.6781396,29.6692756 22.729,30.318 C22.8687125,31.2460458 22.4169274,32.1631737 21.596,32.618 C20.8588449,32.9554421 20.3328496,33.6315085 20.187,34.429 C20.073,35.384 19.768,36.285 18.393,35.918 C18.393,36.435 18.393,36.818 18.393,37.194 C18.387,38.403 18.165,38.603 16.914,38.578 C16.147,38.563 15.38,38.578 14.87,38.578 L11.854,43.042 M18.6,34.578 C18.993,33.778 19.146,32.827 19.685,32.493 C20.987464,31.7936306 21.6682392,30.3153526 21.353,28.871 C21.337,28.756 21.373,28.633 21.36,28.517 C21.2100725,27.9874296 21.2999984,27.4187461 21.606007,26.9612729 C21.9120156,26.5037996 22.4033014,26.2035899 22.95,26.14 C22.993,26.131 23.023,26.055 23.097,25.963 C22.584,25 22.08,24 21.517,23.036 C21.3521766,22.8455265 21.1009005,22.753329 20.852,22.792 C19.789,23.292 18.752,23.852 17.652,24.425 C18.44,25.938 19.205,27.364 19.922,28.813 C20.1410167,29.2266705 20.27017,29.6819442 20.301,30.149 C20.2834164,30.9804606 19.6948805,31.6900193 18.881,31.861 C18.0111905,32.0883049 17.1024556,31.6662425 16.715,30.855 C15.887,29.326 15.097,27.777 14.259,26.177 L10.676,28.034 C11.118,28.894 11.484,29.634 11.876,30.358 C12.435,31.398 12.959,32.458 13.593,33.458 C14.3549658,34.6924589 15.5921836,35.5581496 17.013,35.851 C16.864,34.364 17.913,34.662 18.601,34.582 M10.544,12.512 C10.156,11.772 9.857,11.13 9.493,10.527 C9.16731615,10.0936452 9.19457268,9.49022745 9.558,9.088 C10.2995571,8.16733542 10.5020252,6.92441714 10.091,5.816 C9.638,4.641 9.03,3.531 8.441,2.29 L1.421,5.923 L2.761,8.546 C3.43075915,9.94547613 4.84854708,10.8322267 6.4,10.822 C6.83367319,10.894364 7.22135235,11.1347323 7.479,11.491 C7.88964294,12.1373624 8.25711068,12.8101624 8.579,13.505 L10.541,12.505 M9.741,14.467 C12.449,19.71 15.101,24.846 17.755,29.982 C17.809,30.082 17.855,30.239 17.946,30.271 C18.1612392,30.3827731 18.4052951,30.4267031 18.646,30.397 C18.775,30.352 18.881,30.004 18.854,29.811 C18.7856631,29.5553298 18.67551,29.3127226 18.528,29.093 C16.0553333,24.3596667 13.5813333,19.6263333 11.106,14.893 C10.959,14.611 10.791,14.339 10.606,14.023 L9.74,14.466" id="Path_9930"></path>
                                <path d="M6.326,10.152 C5.07441301,10.1718872 3.92360579,9.46816176 3.371,8.345 C2.125,5.945 1.902,6.332 4.322,5.076 C5.322,4.558 6.303,4.003 7.328,3.545 C7.592,3.427 8.19,3.497 8.296,3.678 C8.83361397,4.48677232 9.25096639,5.36930933 9.535,6.298 C9.74032258,7.2552519 9.4942813,8.25375825 8.86771723,9.00602551 C8.24115317,9.75829277 7.30359948,10.1808378 6.325,10.152 M4.14,6.704 C4.561,7.821 5.024,8.742 6.294,8.764 C7.02685011,8.81244896 7.71514373,8.40906214 8.031,7.746 C8.568,6.681 7.995,5.846 7.431,4.963 L4.138,6.703" id="Path_9931"></path>
                            </g>
                        </g>
                    </g>
                </g>
            </g>
        </g>
    </g>
</svg>