<?xml version="1.0" encoding="UTF-8"?>
<svg width="43px" height="39px" viewBox="0 0 43 39" version="1.1" xmlns="http://www.w3.org/2000/svg" xmlns:xlink="http://www.w3.org/1999/xlink">
    
    <title>Reinforced_Concrete-2</title>
    <desc>Created with Sketch.</desc>
    <g id="Page-1" stroke="none" stroke-width="1" fill="none" fill-rule="evenodd">
        <g id="Turnkey" transform="translate(-1432.000000, -303.000000)" fill="#898989" stroke="#FFFFFF" stroke-width="0.5">
            <g transform="translate(-8.000000, -16.000000)" id="Reinforced_Concrete-2">
                <g transform="translate(1441.000000, 318.056000)">
                    <g id="Group_4601" transform="translate(0.000000, 0.333000)">
                        <g id="Group_4600">
                            <path d="M7.694,30.917 C7.00236956,30.917 6.37884151,31.3336281 6.114166,31.9726113 C5.84949049,32.6115945 5.99579083,33.347096 6.4848474,33.8361526 C6.97390398,34.3252092 7.70940546,34.4715095 8.34838867,34.206834 C8.98737188,33.9421585 9.404,33.3186304 9.404,32.627 C9.40344833,31.6828217 8.63817832,30.9175517 7.694,30.917 Z" id="Path_7980"></path>
                            <path d="M40.9,37.3 L37.264,31.472 C38.5119079,30.9277479 39.3193126,29.6964263 39.321,28.335 L39.321,13.779 C39.321,13.3067965 38.9382035,12.924 38.466,12.924 C37.9937965,12.924 37.611,13.3067965 37.611,13.779 L37.611,14.635 L35.9,14.635 L35.9,12.887 C35.899577,11.0483036 35.2432426,9.27006626 34.049,7.872 L30.679,3.933 C29.746,0.021 16.412,0.021 15.479,3.933 L12.109,7.872 C10.9143962,9.26992466 10.2577017,11.0481767 10.257,12.887 L10.257,14.635 L8.39,14.635 C8.03131672,13.6119397 7.0671089,12.9257378 5.983,12.922 L4.274,12.922 C4.04872234,12.9232531 3.83306505,13.0134697 3.674,13.173 L0.25,16.598 C0.0898010359,16.7585789 -0.000114983455,16.9761757 -1.32348898e-23,17.203 L-1.32348898e-23,22.341 C-2.68356409e-06,23.7578692 1.14713349,24.9072424 2.564,24.91 L6.838,24.91 L6.838,26.71 C4.3429462,26.9995774 2.27656063,28.7810518 1.62266794,31.2062473 C0.968775245,33.6314427 1.8595253,36.210234 3.87082404,37.7148356 C5.88212277,39.2194372 8.60749238,39.3457733 10.74936,38.0336942 C12.8912276,36.7216151 14.0167279,34.2362882 13.59,31.761 L35.427,31.761 L39.45,38.209 C39.606407,38.4585533 39.8804845,38.6097685 40.175,38.609 C40.3349409,38.6093699 40.4916946,38.5642859 40.627,38.479 C41.0278306,38.2287235 41.1500297,37.7009846 40.9,37.3 Z M23.079,2.709 C26.966,2.709 29.063,3.923 29.063,4.419 C29.063,4.915 26.963,6.129 23.079,6.129 C19.195,6.129 17.1,4.915 17.1,4.419 C17.1,3.923 19.193,2.709 23.079,2.709 Z M11.967,12.932 C11.9672774,11.5036332 12.4783892,10.1224609 13.408,9.038 L16.079,5.922 C17.359,7.184 20.23,7.838 23.079,7.838 C25.928,7.838 28.8,7.184 30.079,5.922 L32.75,9.038 C33.6796108,10.1224609 34.1907226,11.5036332 34.191,12.932 L34.191,20.66 C34.191,22.421 29.864,25.789 23.079,25.789 C16.294,25.789 11.967,22.422 11.967,20.66 L11.967,12.932 Z M2.567,23.224 C2.3396281,23.2242658 2.12149234,23.1340603 1.96071601,22.973284 C1.79993968,22.8125077 1.70973422,22.5943719 1.71,22.367 L1.71,17.595 L4.628,14.677 L5.984,14.677 C6.45597502,14.6775511 6.83844895,15.060025 6.839,15.532 L6.839,23.225 L2.567,23.224 Z M7.693,36.901 C5.33253498,36.901 3.419,34.987465 3.419,32.627 C3.419,30.266535 5.33253498,28.353 7.693,28.353 C10.053465,28.353 11.967,30.266535 11.967,32.627 C11.9647948,34.986551 10.052551,36.8987948 7.693,36.901 Z M35.9,30.067 L13.076,30.067 C12.2171823,28.2702064 10.5188362,27.0200766 8.548,26.734 L8.548,16.386 L10.258,16.386 L10.258,20.66 C10.258,23.822 15.858,27.498 23.08,27.498 C30.302,27.498 35.9,23.822 35.9,20.66 L35.9,16.386 L37.6100026,16.386 L37.61,28.353 C37.6107963,28.8071318 37.4310197,29.2429507 37.1102749,29.5644458 C36.7895301,29.8859408 36.3541324,30.0667353 35.9,30.067 Z" id="Path_7981" fill-rule="nonzero"></path>
                        </g>
                    </g>
                </g>
            </g>
        </g>
    </g>
</svg>