<?xml version="1.0" encoding="UTF-8"?>
<svg width="33px" height="37px" viewBox="0 0 33 37" version="1.1" xmlns="http://www.w3.org/2000/svg" xmlns:xlink="http://www.w3.org/1999/xlink">
    
    <title>window</title>
    <desc>Created with Sketch.</desc>
    <g id="Page-1" stroke="none" stroke-width="1" fill="none" fill-rule="evenodd">
        <g id="Turnkey" transform="translate(-1671.000000, -439.000000)" fill="#898989" fill-rule="nonzero" stroke="#898989" stroke-width="0.5">
            <g transform="translate(-8.000000, -16.000000)" id="window">
                <g transform="translate(1680.000000, 455.790000)">
                    <path d="M30.905,32.029 L29.926,32.029 L29.926,0.6 C29.9361659,0.281517713 29.6883336,0.0140727719 29.37,1.77635684e-15 L2.295,1.77635684e-15 C1.97666642,0.0140727719 1.72883411,0.281517713 1.739,0.6 L1.739,32.029 L0.545,32.029 C0.234483819,32.0398684 -0.0089889078,32.2994237 -3.87718828e-15,32.61 L-3.87718828e-15,35.174 C-0.0089889078,35.4845763 0.234483819,35.7441316 0.545,35.755 L30.905,35.755 C31.2155162,35.7441316 31.4589889,35.4845763 31.45,35.174 L31.45,32.61 C31.4589889,32.2994237 31.2155162,32.0398684 30.905,32.029 Z M15.922,32.029 L16.068,17.561 L29.109,17.561 L29.109,32.029 L15.922,32.029 Z M29.109,16.689 L16.077,16.689 L16.237,0.872 L29.109,0.872 L29.109,16.689 Z M15.419,0.872 L15.259,16.689 L2.559,16.689 L2.559,0.872 L15.419,0.872 Z M2.556,17.561 L15.256,17.561 L15.11,32.029 L2.556,32.029 L2.556,17.561 Z M30.633,34.884 L0.817,34.884 L0.817,32.9 L30.633,32.9 L30.633,34.884 Z" id="Path_7740"></path>
                </g>
            </g>
        </g>
    </g>
</svg>