<?xml version="1.0" encoding="UTF-8"?>
<svg width="31px" height="32px" viewBox="0 0 31 32" version="1.1" xmlns="http://www.w3.org/2000/svg" xmlns:xlink="http://www.w3.org/1999/xlink">
    
    <title>Group_4050</title>
    <desc>Created with Sketch.</desc>
    <g id="Page-1" stroke="none" stroke-width="1" fill="none" fill-rule="evenodd">
        <g id="Turnkey" transform="translate(-1673.000000, -576.000000)" fill="#898989" fill-rule="nonzero" stroke="#FFFFFF" stroke-width="0.2">
            <g transform="translate(-8.000000, -16.000000)" id="Group_4050">
                <g transform="translate(1682.000000, 592.777000)">
                    <path d="M21.129,16.145 L28.18,16.145 C28.842,16.145 29.023,16.33 29.023,17.023 C29.023,21.3996667 29.023,25.776 29.023,30.152 C29.023,30.777 28.823,30.986 28.243,30.986 C24.133,30.986 20.023,30.986 15.913,30.986 C15.308,30.986 15.125,30.781 15.125,30.125 C15.125,27.725 15.125,25.325 15.125,22.925 L15.125,22.559 L13.906,22.559 L13.906,22.959 C13.906,25.3223333 13.906,27.6856667 13.906,30.049 C13.906,30.805 13.74,30.986 13.046,30.986 L0.891,30.986 C0.166,30.986 0.002,30.812 0.002,30.037 C0.002,25.723 0.002,21.409 0.002,17.095 C0.002,16.309 0.155,16.143 0.881,16.143 L7.896,16.143 L7.896,14.843 L0.847,14.843 C0.171,14.843 0.002,14.662 0.002,13.929 C0.002,9.57766667 0.002,5.22633333 0.002,0.875 C0.002,0.203 0.191,0.002 0.819,0.002 C4.90566667,0.002 8.99233333,0.002 13.079,0.002 C13.732,0.002 13.902,0.191 13.902,0.902 C13.902,3.278 13.902,5.65366667 13.902,8.029 L13.902,8.429 L15.121,8.429 L15.121,8.067 C15.121,5.667 15.121,3.267 15.121,0.867 C15.121,0.194 15.3,0.004 15.94,0.004 C20.0266667,0.004 24.1133333,0.004 28.2,0.004 C28.829,0.004 29.02,0.204 29.02,0.875 C29.02,5.25166667 29.02,9.628 29.02,14.004 C29.02,14.645 28.825,14.848 28.215,14.848 L21.126,14.848 L21.129,16.145 Z M1.243,1.319 L1.243,13.53 L12.676,13.53 L12.676,1.319 L1.243,1.319 Z M16.353,17.45 L16.353,29.67 L27.778,29.67 L27.778,17.45 L16.353,17.45 Z M1.241,17.45 L1.241,29.669 L12.666,29.669 L12.666,17.45 L1.241,17.45 Z M27.792,1.324 L16.352,1.324 L16.352,13.524 L27.792,13.524 L27.792,1.324 Z M17.499,16.144 C18.108,16.144 18.717,16.156 19.325,16.144 C19.4977322,16.1477002 19.6639316,16.0779786 19.7823254,15.9521494 C19.9007193,15.8263202 19.9602013,15.6561872 19.946,15.484 C19.9504526,15.1395804 19.6754047,14.8564824 19.331,14.851 C19.238,14.843 19.144,14.851 19.05,14.851 L15.925,14.851 C15.309,14.851 15.125,14.659 15.125,14.011 C15.125,12.874 15.125,11.736 15.125,10.598 C15.1301225,10.4609773 15.1200612,10.3238087 15.095,10.189 C15.0563518,9.89977278 14.8024358,9.68846602 14.511,9.703 C14.2179773,9.69392313 13.9672013,9.91161064 13.935,10.203 C13.9131239,10.3257219 13.9044079,10.4504281 13.909,10.575 C13.909,11.737 13.909,12.9 13.909,14.063 C13.909,14.645 13.709,14.851 13.167,14.853 C12.078,14.853 10.99,14.853 9.901,14.853 C9.77246763,14.8480158 9.64387334,14.8611445 9.519,14.892 C9.24761143,14.9629031 9.06630265,15.218422 9.089,15.498 C9.06408351,15.777694 9.24310646,16.0350658 9.514,16.109 C9.6503155,16.1426431 9.79071343,16.1567839 9.931,16.151 C10.973,16.151 12.014,16.151 13.056,16.151 C13.745,16.151 13.911,16.326 13.911,17.051 C13.911,18.151 13.911,19.251 13.911,20.351 C13.911,20.463 13.906,20.577 13.917,20.688 C13.9177773,21.0186364 14.1786554,21.2900906 14.509,21.304 C14.6747364,21.3043124 14.8335834,21.2377183 14.9495469,21.1193075 C15.0655104,21.0008967 15.1287732,20.8406937 15.125,20.675 C15.137,20.551 15.13,20.425 15.13,20.3 C15.13,19.175 15.13,18.05 15.13,16.925 C15.13,16.373 15.337,16.158 15.856,16.153 C16.4,16.138 16.949,16.145 17.5,16.144 L17.499,16.144 Z" id="Path_7732"></path>
                </g>
            </g>
        </g>
    </g>
</svg>