<svg xmlns="http://www.w3.org/2000/svg" width="19.629" height="38.727" viewBox="0 0 19.629 38.727">
  <g id="Surveying" transform="translate(0.259 0.25)">
    <g id="_025---Building-3D-Map" data-name="025---Building-3D-Map">
      <path id="Shape" d="M16.645,17.823a3.823,3.823,0,1,0-3.823,3.823A3.823,3.823,0,0,0,16.645,17.823Zm-6.371,0a2.548,2.548,0,1,1,.746,1.8A2.548,2.548,0,0,1,10.274,17.823Z" transform="translate(-3.266 -5.08)" fill="#898989" stroke="#fff" stroke-width="0.5"/>
      <path id="Shape-2" data-name="Shape" d="M.234,37.689a1.274,1.274,0,0,0,1.04.538H2.625a1.279,1.279,0,0,0,1.207-.856L7.646,26.36v7.407A1.274,1.274,0,0,0,8.92,35.041h1.274a1.274,1.274,0,0,0,1.274-1.274V26.36l3.814,11.014a1.279,1.279,0,0,0,1.205.853H17.84a1.274,1.274,0,0,0,1.2-1.693L13.889,21.662h.765a1.911,1.911,0,0,0,1.911-1.911V7.645a1.911,1.911,0,0,0-1.274-1.794V3.823A3.827,3.827,0,0,0,11.468,0H7.646A3.827,3.827,0,0,0,3.823,3.823V5.851A1.911,1.911,0,0,0,2.549,7.645V19.751A1.911,1.911,0,0,0,4.46,21.662h.765L.074,36.53a1.274,1.274,0,0,0,.161,1.16ZM8.92,33.767V21.662h1.274V33.767Zm8.92,3.186H16.486L11.468,22.466v-.8h1.076ZM7.646,1.274h3.823a2.548,2.548,0,0,1,2.548,2.548V5.734H12.743V3.823a1.274,1.274,0,0,0-1.274-1.274H7.646A1.274,1.274,0,0,0,6.371,3.823V5.734H5.1V3.823A2.548,2.548,0,0,1,7.646,1.274Zm3.823,4.46H7.646V3.823h3.823ZM3.823,19.751v-.637H7.009a.637.637,0,0,0,0-1.274H3.823V7.645a.637.637,0,0,1,.637-.637H14.654a.637.637,0,0,1,.637.637V17.839H12.105a.637.637,0,1,0,0,1.274h3.186v.637a.637.637,0,0,1-.637.637H4.46A.637.637,0,0,1,3.823,19.751ZM6.57,21.662H7.646v.8L2.624,36.953H1.274Z" transform="translate(-0.001 0)" fill="#898989" stroke="#fff" stroke-width="0.5"/>
    </g>
  </g>
</svg>
