<svg xmlns="http://www.w3.org/2000/svg" width="23.764" height="23.76" viewBox="0 0 23.764 23.76">
  <path id="Path_9993" data-name="Path 9993" d="M21.972,11.606,23,11.486c-.066.625-.087,1.218-.2,1.795a11.277,11.277,0,0,1-6.989,8.845A11.475,11.475,0,1,1,8.777.351,11.184,11.184,0,0,1,19.3,3.1c.381.339.733.711,1.09,1.075a.779.779,0,0,1,.014,1.264q-4.619,4.627-9.246,9.246a.884.884,0,0,1-1.407.045c-1.227-1.2-2.439-2.421-3.65-3.625l.714-.663L10.343,14,19.55,4.79A10.394,10.394,0,0,0,7.136,1.9,10.515,10.515,0,0,0,1.244,13.988a10.629,10.629,0,0,0,10.986,8.041,10.518,10.518,0,0,0,9.741-10.423" transform="translate(0.369 0.355)" fill="#1e428a" stroke="#1e428b" stroke-linecap="round" stroke-width="0.7"/>
</svg>
