<svg xmlns="http://www.w3.org/2000/svg" width="62.492" height="62.492" viewBox="0 0 62.492 62.492">
  <g id="Submitted" transform="translate(1 1)">
    <g id="Group_4575" data-name="Group 4575" transform="translate(14.551 19.538)">
      <g id="Group_4574" data-name="Group 4574">
        <path id="Path_7977" data-name="Path 7977" d="M153.957,166.129a2.452,2.452,0,0,0-3.467-.092l-15.656,14.848-7.467-7.667a2.452,2.452,0,0,0-3.513,3.422l9.156,9.4a2.453,2.453,0,0,0,3.445.069L153.866,169.6A2.452,2.452,0,0,0,153.957,166.129Z" transform="translate(-123.158 -165.364)" fill="#05d94e" stroke="#fff" stroke-width="2"/>
      </g>
    </g>
    <g id="Group_4577" data-name="Group 4577">
      <g id="Group_4576" data-name="Group 4576">
        <path id="Path_7978" data-name="Path 7978" d="M30.246,0A30.246,30.246,0,1,0,60.492,30.246,30.28,30.28,0,0,0,30.246,0Zm0,55.587A25.341,25.341,0,1,1,55.587,30.246,25.37,25.37,0,0,1,30.246,55.587Z" fill="#05d94e" stroke="#fff" stroke-width="2"/>
      </g>
    </g>
  </g>
</svg>
