<svg xmlns="http://www.w3.org/2000/svg" width="21.003" height="21.003" viewBox="0 0 21.003 21.003">
  <path id="Union_421" data-name="Union 421" d="M8062.5,10659.5v-6.883h-6.883v6.883h6.883m-11.12,0v-6.883H8044.5v6.883h6.883m11.12-11.119v-6.884h-6.883v6.884h6.883m-11.12,0v-6.884H8044.5v6.884h6.883M8063,10661h-7.882a1,1,0,0,1-1-1v-7.883a1,1,0,0,1,1-1H8063a1,1,0,0,1,1,1V10660A1,1,0,0,1,8063,10661Zm-11.117,0H8044a1,1,0,0,1-1-1v-7.883a1,1,0,0,1,1-1h7.885a1,1,0,0,1,1,1V10660A1,1,0,0,1,8051.885,10661Zm11.117-11.119h-7.882a1,1,0,0,1-1-1V10641a1,1,0,0,1,1-1H8063a1,1,0,0,1,1,1v7.882A1,1,0,0,1,8063,10649.883Zm-11.117,0H8044a1,1,0,0,1-1-1V10641a1,1,0,0,1,1-1h7.885a1,1,0,0,1,1,1v7.882A1,1,0,0,1,8051.885,10649.883Z" transform="translate(-8043 -10639.999)" fill="#254385"/>
</svg>
