<svg xmlns="http://www.w3.org/2000/svg" width="20.467" height="36.086" viewBox="0 0 20.467 36.086">
  <path id="Toilets" d="M131.763,14.625V1.981H123.92V0h-2.073V1.981H114V14.625a4.127,4.127,0,0,0-1,2.7v1.8a9.881,9.881,0,0,0,4.35,8.185l-1.009,8.08h13.084l-1.008-8.08a9.881,9.881,0,0,0,4.35-8.185v-1.8a4.128,4.128,0,0,0-1-2.7ZM129.69,4.055v9.264a4.136,4.136,0,0,0-1.07-.141H117.147a4.135,4.135,0,0,0-1.07.141V4.055Zm-2.613,29.258H118.69l.621-4.976a9.882,9.882,0,0,0,7.145,0Zm-4.194-6.382a7.822,7.822,0,0,1-7.741-6.773h15.483A7.822,7.822,0,0,1,122.883,26.931Zm-7.81-8.847v-.76a2.076,2.076,0,0,1,2.073-2.073H128.62a2.076,2.076,0,0,1,2.073,2.073v.76Z" transform="translate(-112.65 0.35)" fill="#898989" stroke="#fff" stroke-width="0.7"/>
</svg>
