<svg xmlns="http://www.w3.org/2000/svg" width="26.851" height="16.664" viewBox="0 0 26.851 16.664">
  <path id="Subtraction_24" data-name="Subtraction 24" d="M-2222.054-4365.737a.505.505,0,0,1-.5-.5v-.674h-25.334a.505.505,0,0,1-.5-.5v-7.02a7.682,7.682,0,0,1,2.187-5.61,7.685,7.685,0,0,1,5.555-2.35,7.7,7.7,0,0,1,4.014,1.126l.027.017.021.006,2.912,1.293,2.053.913.452.2a.507.507,0,0,1,.3.461v3.351a.505.505,0,0,1-.5.5h-1.529l-.014.285a7.822,7.822,0,0,1-.34,1.91l-.122.39h11.332a.506.506,0,0,1,.5.5v5.2A.506.506,0,0,1-2222.054-4365.737Zm-18.6-15.654a6.687,6.687,0,0,0-4.832,2.042,6.681,6.681,0,0,0-1.9,4.886v6.538h.669c2.855-.006,4.781-.01,5.424-.01h.246c.132.008.265.01.4.011a6.7,6.7,0,0,0,4.614-1.836,6.673,6.673,0,0,0,2.113-4.9A6.741,6.741,0,0,0-2240.655-4381.391Zm6.8,10.454h0l-.087.15a7.827,7.827,0,0,1-1.4,1.759,8.044,8.044,0,0,1-.668.563l-.718.539h14.17v-3.011h-2.208v.46a.505.505,0,0,1-.5.5.5.5,0,0,1-.5-.5v-.46h-2.209v.46a.5.5,0,0,1-.5.5.505.505,0,0,1-.5-.5v-.46h-2.208v.46a.5.5,0,0,1-.5.5.505.505,0,0,1-.5-.5v-.46Zm-.412-8.18h0l.421.775a7.665,7.665,0,0,1,.849,2.546l.039.256h1.075v-2.519l-2.384-1.059Zm-6.51,7.766a3.223,3.223,0,0,1-3.219-3.219,3.223,3.223,0,0,1,3.219-3.22,3.223,3.223,0,0,1,3.22,3.22A3.223,3.223,0,0,1-2240.779-4371.351Zm0-5.431a2.214,2.214,0,0,0-2.211,2.211,2.214,2.214,0,0,0,2.211,2.212,2.214,2.214,0,0,0,2.211-2.212A2.214,2.214,0,0,0-2240.779-4376.781Z" transform="translate(2248.4 4382.401)" fill="#333"/>
</svg>
