<svg xmlns="http://www.w3.org/2000/svg" xmlns:xlink="http://www.w3.org/1999/xlink" width="15.325" height="15.495" viewBox="0 0 15.325 15.495">
  <defs>
    <clipPath id="clip-path">
      <rect id="Rectangle_4915" data-name="Rectangle 4915" width="15.325" height="15.495" transform="translate(0 0)" fill="#898989"/>
    </clipPath>
  </defs>
  <g id="Upcoming" transform="translate(0 0)" clip-path="url(#clip-path)">
    <path id="Path_13424" data-name="Path 13424" d="M12.173,12.756A.6.6,0,0,0,12,12.33L9.86,10.193a.6.6,0,0,0-.851.852l1.712,1.711L9.009,14.468a.6.6,0,0,0,.851.851L12,13.182a.6.6,0,0,0,.176-.426" fill="#898989"/>
    <path id="Path_13425" data-name="Path 13425" d="M15.149,12.331l-2.137-2.138a.6.6,0,0,0-1.027.426.6.6,0,0,0,.177.426l1.711,1.711-1.712,1.712a.6.6,0,0,0,.851.85l2.137-2.136a.6.6,0,0,0,0-.851" fill="#898989"/>
    <path id="Path_13426" data-name="Path 13426" d="M7.81,14.417l0-.035H7.663a.2.2,0,0,0-.079,0H2.32A1.118,1.118,0,0,1,1.2,13.262V3.872A1.117,1.117,0,0,1,2.32,2.757H12.979A1.117,1.117,0,0,1,14.1,3.872v5.5l0,.035a.343.343,0,0,0,0,.047.6.6,0,0,0,1.2.068l0-5.665A2.222,2.222,0,0,0,13.08,1.64H12.022V.6a.6.6,0,0,0-1.2,0V1.64H4.736V.6a.6.6,0,0,0-1.2,0V1.64H2.219A2.222,2.222,0,0,0,0,3.859v9.416a2.222,2.222,0,0,0,2.219,2.219H7.653l.15-.009v-.033a.551.551,0,0,0,.007-1.035" fill="#898989"/>
  </g>
</svg>
