<svg xmlns="http://www.w3.org/2000/svg" width="42.735" height="39.577" viewBox="0 0 42.735 39.577">
  <g id="upload_1_" data-name="upload (1)" transform="translate(0.5 0.5)">
    <g id="Group_4782" data-name="Group 4782">
      <path id="Path_8019" data-name="Path 8019" d="M33.942,28.475a12.089,12.089,0,0,0-22.4-4.016,6.925,6.925,0,0,0-1.27-.12,6.626,6.626,0,0,0-6.617,6.617,7.233,7.233,0,0,0,.137,1.373A9.208,9.208,0,0,0,0,39.752a9.844,9.844,0,0,0,2.5,6.514,8.913,8.913,0,0,0,6.179,3.107h7.449a1.159,1.159,0,1,0,0-2.317H8.779a7.308,7.308,0,0,1-6.462-7.312,6.879,6.879,0,0,1,3.407-5.922,1.168,1.168,0,0,0,.506-1.407,4.2,4.2,0,0,1-.257-1.476,4.307,4.307,0,0,1,4.3-4.3,4.226,4.226,0,0,1,1.468.257,1.164,1.164,0,0,0,1.45-.592,9.771,9.771,0,0,1,18.563,3.218,1.157,1.157,0,0,0,.961,1.03,8.352,8.352,0,0,1-.79,16.495H25.6a1.159,1.159,0,1,0,0,2.317h6.454a10.268,10.268,0,0,0,6.883-3.4,10.681,10.681,0,0,0-4.995-17.49Z" transform="translate(0 -18.4)" fill="#898989" stroke="#fff" stroke-width="1"/>
      <path id="Path_8020" data-name="Path 8020" d="M172.469,193.519a1.155,1.155,0,0,0,0-1.639l-6.136-6.136a1.172,1.172,0,0,0-.815-.343,1.137,1.137,0,0,0-.815.343l-6.136,6.136a1.163,1.163,0,0,0,.815,1.982,1.13,1.13,0,0,0,.815-.343l4.162-4.162v19.129a1.159,1.159,0,1,0,2.317,0V189.356l4.162,4.162A1.145,1.145,0,0,0,172.469,193.519Z" transform="translate(-144.646 -171.068)" fill="#898989" stroke="#fff" stroke-width="1"/>
    </g>
  </g>
</svg>
