<svg xmlns="http://www.w3.org/2000/svg" width="36.049" height="36.05" viewBox="0 0 36.049 36.05">
  <path id="Uoload" d="M35.951,3.57a1.817,1.817,0,0,0-.539-1.3L33.682.539A1.817,1.817,0,0,0,32.388,0h-.006A1.8,1.8,0,0,0,31.1.539L23.249,8.388H7.791V1.8A1.8,1.8,0,0,0,5.994,0H4.8A4.8,4.8,0,0,0,0,4.793V31.306a4.924,4.924,0,0,0,4.967,4.643H34.154a1.8,1.8,0,0,0,1.8-1.8V10.186a1.8,1.8,0,0,0-1.8-1.8H31.877l3.535-3.535a1.806,1.806,0,0,0,.539-1.283ZM21.44,14.979a.4.4,0,0,1-.343-.12.414.414,0,0,1-.12-.338l.227-2.037a1.119,1.119,0,0,1,.036-.126l2.36,2.36c-.039.008-.074.028-.115.032ZM24.579,14l-2.622-2.623,6.531-6.531,2.621,2.62ZM29.332,4l.889-.888,2.619,2.62-.888.889ZM1.2,4.793A3.6,3.6,0,0,1,4.8,1.2h1.2a.6.6,0,0,1,.6.6V25.764a.6.6,0,0,1-.6.6H4.8A4.784,4.784,0,0,0,1.2,27.989ZM34.154,9.586a.6.6,0,0,1,.6.6V34.152a.6.6,0,0,1-.6.6H4.969A3.715,3.715,0,0,1,1.2,31.288v-.132A3.6,3.6,0,0,1,4.8,27.561h1.2a1.8,1.8,0,0,0,1.8-1.8V9.586h14.26L20.69,10.947a2.314,2.314,0,0,0-.676,1.4l-.227,2.041a1.6,1.6,0,0,0,.056.592H9.588a.6.6,0,1,0,0,1.2h1.8V32.354a.6.6,0,1,0,1.2,0V23.966h6.591v4.793H14.981a.6.6,0,0,0,0,1.2H26.964a1.2,1.2,0,0,0,1.2-1.2V19.772a.6.6,0,1,0-1.2,0v3H12.584V16.177H21.4a1.544,1.544,0,0,0,.175-.01l2.047-.233A2.346,2.346,0,0,0,25,15.278l5.685-5.692h3.472Zm-7.19,14.38v4.793H20.373V23.966ZM34.567,4l-.88.88L31.068,2.264l.88-.88a.615.615,0,0,1,.438-.186.627.627,0,0,1,.446.188l1.733,1.729a.629.629,0,0,1,.188.45A.614.614,0,0,1,34.567,4Z" transform="translate(0.048 0.05)" fill="#898989" stroke="#fff" stroke-width="0.1"/>
</svg>
