<svg xmlns="http://www.w3.org/2000/svg" width="37.839" height="37.839" viewBox="0 0 37.839 37.839">
  <g id="_34-Add-image" data-name="34-Add-image" transform="translate(-1.5 -1.5)">
    <path id="Path_11556" data-name="Path 11556" d="M31.841,25.263H27.894V21.316a1.316,1.316,0,1,0-2.631,0v3.947H21.316a1.316,1.316,0,1,0,0,2.631h3.947v3.947a1.316,1.316,0,1,0,2.631,0V27.894h3.947a1.316,1.316,0,1,0,0-2.631Z" transform="translate(5.682 5.682)" fill="#333" stroke="#fff" stroke-width="1"/>
    <path id="Path_11557" data-name="Path 11557" d="M21.735,30.945H5.947a1.316,1.316,0,0,1-1.316-1.316V26.222l5.263-5.263,3.013,3.026a1.316,1.316,0,0,0,1.868,0l6.96-6.973,5.644,5.657A1.321,1.321,0,1,0,29.248,20.8l-6.578-6.578a1.316,1.316,0,0,0-1.868,0L13.841,21.2,10.828,18.17a1.316,1.316,0,0,0-1.868,0L4.631,22.511V5.947A1.316,1.316,0,0,1,5.947,4.631H29.629a1.316,1.316,0,0,1,1.316,1.316V21.735a1.316,1.316,0,1,0,2.631,0V5.947A3.947,3.947,0,0,0,29.629,2H5.947A3.947,3.947,0,0,0,2,5.947V29.629a3.947,3.947,0,0,0,3.947,3.947H21.735a1.316,1.316,0,1,0,0-2.631Z" transform="translate(0)" fill="#333" stroke="#fff" stroke-width="1"/>
    <path id="Path_11558" data-name="Path 11558" d="M8,9.947A3.947,3.947,0,1,0,11.947,6,3.947,3.947,0,0,0,8,9.947Zm5.263,0a1.316,1.316,0,1,1-1.316-1.316A1.316,1.316,0,0,1,13.263,9.947Z" transform="translate(1.894 1.263)" fill="#333" stroke="#fff" stroke-width="1"/>
  </g>
</svg>
