<svg xmlns="http://www.w3.org/2000/svg" width="21.639" height="17.383" viewBox="0 0 21.639 17.383">
  <path id="Union_399" data-name="Union 399" d="M17.231,16.675a.744.744,0,0,1,.161-.808l1.514-1.515h-3.6a4.527,4.527,0,0,1-3.647-1.878l-1.885-2.6-1.887,2.6a4.524,4.524,0,0,1-3.646,1.878H.765a.784.784,0,0,1,0-1.568H4.243a3,3,0,0,0,2.422-1.247l2.157-2.97L6.666,5.6A3.007,3.007,0,0,0,4.246,4.349H.765a.784.784,0,0,1,0-1.568H4.243A4.526,4.526,0,0,1,7.889,4.657l1.887,2.6,1.886-2.6A4.53,4.53,0,0,1,15.308,2.78h3.6L17.391,1.265A.742.742,0,0,1,18.439.216L21.219,3a.735.735,0,0,1,.217.5c0,.022,0,.045,0,.068a.785.785,0,0,1-.458.719L18.439,6.826a.741.741,0,0,1-1.047-1.049l1.427-1.428H15.308A3.013,3.013,0,0,0,12.887,5.6L10.729,8.566l2.157,2.97a3.008,3.008,0,0,0,2.422,1.247h3.511l-1.428-1.428a.742.742,0,0,1,1.049-1.049l2.543,2.544a.784.784,0,0,1,.456.717q0,.034,0,.067a.736.736,0,0,1-.217.5l-2.779,2.781a.74.74,0,0,1-1.208-.24Z" transform="translate(0.1 0.15)" fill="#333" stroke="#f0f2f7" stroke-width="0.2"/>
</svg>
