<svg xmlns="http://www.w3.org/2000/svg" width="13.007" height="16.955" viewBox="0 0 13.007 16.955">
  <path id="View_Profile" data-name="View Profile" d="M11.787,16.955A5.364,5.364,0,0,0,6.5,11.289,5.364,5.364,0,0,0,1.22,16.955H0a6.649,6.649,0,0,1,6.5-6.92,6.649,6.649,0,0,1,6.5,6.92ZM2.357,4.264A4.21,4.21,0,0,1,6.5,0a4.21,4.21,0,0,1,4.145,4.264A4.215,4.215,0,0,1,6.5,8.531,4.215,4.215,0,0,1,2.357,4.264Zm1.22,0A2.972,2.972,0,0,0,6.5,7.273a2.974,2.974,0,0,0,2.927-3.01A2.975,2.975,0,0,0,6.5,1.252,2.974,2.974,0,0,0,3.577,4.264Z" fill="#05d94e"/>
</svg>
