<svg xmlns="http://www.w3.org/2000/svg" width="22.384" height="18.618" viewBox="0 0 22.384 18.618">
  <path id="View_Projects" data-name="View Projects" d="M.365,18.318a.369.369,0,0,1,0-.738H1.43V2.715a.366.366,0,0,1,.362-.369h4.9V.369A.368.368,0,0,1,7.057,0h14.2a.365.365,0,0,1,.361.369V3.2a.287.287,0,0,1,0,.05V9.4a.285.285,0,0,1,0,.05V12.28a.36.36,0,0,1-.361.369H18.846V17.58h2.873a.369.369,0,0,1,0,.738Zm17.753-.738V12.649H7.057a.368.368,0,0,1-.365-.369v-9.2H2.157v14.5Zm-10.7-5.669H20.89V9.772H13.18a.37.37,0,0,1-.365-.369V3.249a.368.368,0,0,1,.365-.369h7.71V.738H7.419V2.664a.334.334,0,0,1,0,.1Zm6.122-2.877H20.89V3.618H13.541Z" transform="translate(0.15 0.15)" fill="#1e428a" stroke="#1e428a" stroke-width="0.3"/>
</svg>
