<svg className="icon-website" xmlns="http://www.w3.org/2000/svg" width="19.207" height="19.207" viewBox="0 0 19.207 19.207">
    <path id="global" d="M16.394,2.813A9.6,9.6,0,0,0,2.813,16.394,9.6,9.6,0,0,0,16.394,2.813Zm-2.978,4.3a13.891,13.891,0,0,1,2.383.632c1.429.534,2.282,1.229,2.282,1.86s-.853,1.327-2.282,1.86a13.864,13.864,0,0,1-2.383.632A24.23,24.23,0,0,0,13.542,9.6,24.235,24.235,0,0,0,13.416,7.111Zm2.182-3.5A8.425,8.425,0,0,1,17.819,7.5a7.8,7.8,0,0,0-1.626-.81,15.468,15.468,0,0,0-2.931-.744,15.467,15.467,0,0,0-.744-2.931,7.79,7.79,0,0,0-.81-1.626A8.425,8.425,0,0,1,15.6,3.609ZM12.417,9.6a22.916,22.916,0,0,1-.152,2.662,22.916,22.916,0,0,1-2.662.152,22.916,22.916,0,0,1-2.662-.152,23.435,23.435,0,0,1,0-5.324,23.435,23.435,0,0,1,5.324,0A22.916,22.916,0,0,1,12.417,9.6ZM9.6,1.125c.631,0,1.327.853,1.86,2.282A13.891,13.891,0,0,1,12.1,5.791a24.647,24.647,0,0,0-4.984,0,13.864,13.864,0,0,1,.632-2.383C8.277,1.979,8.972,1.125,9.6,1.125ZM3.609,3.609A8.425,8.425,0,0,1,7.5,1.388a7.8,7.8,0,0,0-.81,1.626,15.467,15.467,0,0,0-.744,2.931,15.467,15.467,0,0,0-2.931.744,7.8,7.8,0,0,0-1.626.81A8.425,8.425,0,0,1,3.609,3.609Zm-.2,4.135a13.864,13.864,0,0,1,2.383-.632,24.645,24.645,0,0,0,0,4.984,13.864,13.864,0,0,1-2.383-.632C1.979,10.93,1.125,10.235,1.125,9.6S1.979,8.277,3.408,7.743Zm.2,7.855a8.425,8.425,0,0,1-2.221-3.89,7.8,7.8,0,0,0,1.626.81,15.467,15.467,0,0,0,2.931.744,15.467,15.467,0,0,0,.744,2.931,7.8,7.8,0,0,0,.81,1.626A8.425,8.425,0,0,1,3.609,15.6ZM9.6,18.082c-.631,0-1.327-.853-1.86-2.282a13.864,13.864,0,0,1-.632-2.383,24.23,24.23,0,0,0,2.492.126,24.233,24.233,0,0,0,2.492-.126,13.891,13.891,0,0,1-.632,2.383C10.93,17.228,10.235,18.082,9.6,18.082ZM15.6,15.6a8.425,8.425,0,0,1-3.89,2.221,7.79,7.79,0,0,0,.81-1.626,15.467,15.467,0,0,0,.744-2.931,15.468,15.468,0,0,0,2.931-.744,7.8,7.8,0,0,0,1.626-.81A8.425,8.425,0,0,1,15.6,15.6Zm0,0" fill="#333"/>
</svg>