<svg id="whatsapp" xmlns="http://www.w3.org/2000/svg" width="19.513" height="19.672" viewBox="0 0 19.513 19.672">
  <path id="Path_7498" data-name="Path 7498" d="M10.97.012A9.761,9.761,0,0,0,2.752,14.188L1.716,19.216a.38.38,0,0,0,.459.446L7.1,18.495A9.757,9.757,0,1,0,10.97.012Zm5.879,15.147a7.644,7.644,0,0,1-8.8,1.441l-.686-.342-3.021.716.636-3.087-.338-.662a7.646,7.646,0,0,1,1.407-8.87,7.64,7.64,0,1,1,10.8,10.8Z" transform="translate(-1.69 0)" fill="#7ad06d"/>
  <path id="Path_7499" data-name="Path 7499" d="M114.231,114.236l-1.89-.543a.7.7,0,0,0-.7.184l-.462.471a.688.688,0,0,1-.748.158,10.089,10.089,0,0,1-3.255-2.87.688.688,0,0,1,.054-.763l.4-.522a.7.7,0,0,0,.087-.716l-.8-1.8a.7.7,0,0,0-1.1-.252,3.179,3.179,0,0,0-1.229,1.875c-.134,1.324.434,2.993,2.581,5,2.481,2.315,4.467,2.621,5.761,2.308a3.179,3.179,0,0,0,1.69-1.473A.7.7,0,0,0,114.231,114.236Z" transform="translate(-99.74 -102.363)" fill="#7ad06d"/>
</svg>
